<svg width="30" height="30" viewBox="0 0 30 30" fill="none" xmlns="http://www.w3.org/2000/svg">
<path d="M28.1429 0.714285H1.85714C1.225 0.714285 0.714287 1.225 0.714287 1.85714V28.1429C0.714287 28.775 1.225 29.2857 1.85714 29.2857H28.1429C28.775 29.2857 29.2857 28.775 29.2857 28.1429V1.85714C29.2857 1.225 28.775 0.714285 28.1429 0.714285ZM24.8429 9.05357H22.5607C20.7714 9.05357 20.425 9.90357 20.425 11.1536V13.9071H24.6964L24.1393 18.2179H20.425V29.2857H15.9714V18.2214H12.2464V13.9071H15.9714V10.7286C15.9714 7.03929 18.225 5.02857 21.5179 5.02857C23.0964 5.02857 24.45 5.14643 24.8464 5.2V9.05357H24.8429Z" fill="white"/>
</svg>
