<svg width="28" height="44" viewBox="0 0 28 44" fill="none" xmlns="http://www.w3.org/2000/svg">
<path d="M14.626 43.1521L14.6956 32.3637L14.7803 19.1977C14.7803 19.1977 23.3084 19.1977 23.3084 10.7605C23.3083 2.32341 14.8956 1.26011 14.8956 1.26011" stroke="#F6F8FF" stroke-width="2"/>
<line y1="-1" x2="26.8769" y2="-1" transform="matrix(0.455016 0.890483 -0.817487 0.575947 14.1367 19.1375)" stroke="#F6F8FF" stroke-width="2"/>
<path d="M2.27237 10.8551L2.32999 10.8092L2.33197 10.8076L2.40173 10.752M2.27237 10.8551L2.29319 10.5182L2.29603 10.5218L2.34338 10.5811L2.38013 10.6271M2.27237 10.8551C2.1971 10.8054 2.12635 10.7555 2.05827 10.7053L2.27237 10.8551ZM2.40173 10.752L2.44676 10.7182C2.45774 10.7099 2.46875 10.7017 2.47976 10.6934C2.4632 10.6823 2.44669 10.6713 2.43022 10.6603L2.42792 10.6588C2.41179 10.6482 2.39586 10.6377 2.38013 10.6271M2.40173 10.752L2.4458 10.7169L2.4495 10.714L2.41948 10.6764L2.41781 10.6743L2.38013 10.6271M2.40173 10.752L2.38013 10.6271M9.43777 10.8309L9.43171 10.5809L9.43147 10.5713L9.43147 10.571C9.40324 9.35424 9.8495 8.17742 10.6737 7.29966C11.4981 6.42172 12.6332 5.91493 13.8296 5.89252C15.026 5.87012 16.1836 6.33396 17.048 7.18026C17.9121 8.02636 18.4126 9.1854 18.4408 10.4021L18.4408 10.402L18.1909 10.4069L18.4408 10.4022L9.43777 10.8309ZM9.43777 10.8309L9.44541 10.8307M9.43777 10.8309L9.44541 10.8307M9.44541 10.8307C9.4851 11.3457 9.61023 11.8512 9.81609 12.3255C10.0551 12.8761 10.3983 13.3741 10.8262 13.7904L9.44541 10.8307ZM0.997568 10.5137L0.752075 10.7091L0.998892 10.9051L1.28849 11.1349L1.28999 11.1361L1.29844 11.1427C1.46376 11.2719 1.64333 11.4123 1.85573 11.5511C2.91268 12.2621 4.17713 13.0963 5.51375 13.8737C6.5846 14.5022 7.65345 15.0538 8.46254 15.4629L8.5183 15.4911L8.52403 15.491C10.7348 16.5612 12.5485 17.1426 13.7515 17.1213L13.7515 17.1213C15.6276 17.0879 17.2363 16.4342 18.3971 15.2065C19.558 13.9788 20.1397 12.3037 20.0972 10.383L20.0972 10.3824L20.0967 10.3627C20.0492 8.40476 19.4088 6.74656 18.2215 5.58618C17.0339 4.42542 15.3796 3.83958 13.457 3.87354L13.457 3.87354C12.2569 3.89477 10.4997 4.51816 8.25961 5.67859L8.25506 5.68088L8.25498 5.68073L8.24689 5.68521C7.39454 6.15727 6.4002 6.75352 5.37253 7.41029C4.15975 8.17828 2.92881 9.02706 1.8116 9.86587L1.81154 9.86579L1.80604 9.87016L0.997568 10.5137ZM18.2151 15.0344C17.1062 16.2071 15.5645 16.839 13.746 16.8714L8.3754 5.90065C10.6132 4.74142 12.3254 4.1436 13.4626 4.12347C15.3312 4.09047 16.9162 4.65919 18.0472 5.76455C19.1781 6.86991 19.8005 8.46063 19.8468 10.3677L19.8472 10.3874C19.8885 12.2534 19.324 13.8616 18.2151 15.0344ZM8.92678 14.5079C8.92621 14.5076 8.92565 14.5073 8.92509 14.5071L8.81632 14.7317L8.92845 14.5087C8.92789 14.5084 8.92733 14.5082 8.92678 14.5079ZM19.0452 10.4015C19.0452 10.4016 19.0452 10.4017 19.0452 10.4018L19.0452 10.4021L19.2952 10.3971L19.0452 10.4015ZM8.74671 6.62396C8.74773 6.62343 8.74874 6.6229 8.74976 6.62238C8.75076 6.62182 8.75176 6.62127 8.75275 6.62072L8.63095 6.40188L8.74671 6.62396ZM17.3866 10.4255L17.3878 10.4603L17.3898 10.4665C17.4022 11.3919 17.0588 12.283 16.4341 12.9484C15.8015 13.6222 14.9325 14.0093 14.0185 14.0265C13.1045 14.0437 12.2182 13.6895 11.5549 13.0401C10.8914 12.3905 10.5054 11.4988 10.4836 10.5607L10.4836 10.5605L10.4835 10.5535C10.4716 9.62233 10.8199 8.72697 11.4513 8.06147C12.0828 7.39582 12.9464 7.01385 13.854 6.99685C14.7616 6.97985 15.6422 7.32915 16.304 7.97058C16.966 8.61218 17.3557 9.49427 17.3866 10.4255Z" fill="#F6F8FF" stroke="#F6F8FF" stroke-width="0.5"/>
</svg>
