<svg width="118" height="54" viewBox="0 0 118 54" fill="none" xmlns="http://www.w3.org/2000/svg">
<path d="M13.626 43.5291L13.6956 32.7407L13.7803 19.5746C13.7803 19.5746 22.3084 19.5746 22.3084 11.1375C22.3083 2.70036 13.8956 1.63706 13.8956 1.63706" stroke="#F6F8FF" stroke-width="2"/>
<line y1="-1" x2="26.8769" y2="-1" transform="matrix(0.455016 0.890483 -0.817487 0.575947 13.1367 19.5144)" stroke="#F6F8FF" stroke-width="2"/>
<path d="M56.4102 36.3568C60.6295 30.5559 60.102 15.4738 54.3006 9.09283C48.4993 2.7119 39.5339 1.55173 33.7327 9.09283C27.9316 16.6339 28.4586 29.3958 33.7327 36.3568C39.0069 43.3178 52.1909 42.1576 56.4102 36.3568Z" stroke="#F6F8FF" stroke-width="2"/>
<path d="M66.0817 43.0934C66.0817 43.0934 71.8853 19.7403 75.604 4.77673M84.2185 42.8092C84.2185 42.8092 80.4559 -10.722 75.604 4.77673M75.604 4.77673L69.8547 27.9114L82.9008 27.9114" stroke="#F6F8FF" stroke-width="2"/>
<path d="M99.3516 4.42033V41.1248C99.3516 41.1248 107.051 41.681 110.9 37.7881C114.75 33.8952 116.675 28.89 116.194 22.7726C115.713 16.6552 110.9 11.65 108.495 9.42549C106.089 7.20098 99.3516 2.19581 99.3516 4.42033Z" stroke="#F6F8FF" stroke-width="2"/>
<path d="M0.153827 10.7095L0.962299 10.066C2.07423 9.23115 3.2999 8.386 4.50742 7.62136C5.53179 6.96669 6.52176 6.37311 7.36878 5.90401L7.3754 5.90065C9.6132 4.74142 11.3254 4.1436 12.4626 4.12347C14.3312 4.09047 15.9162 4.65919 17.0472 5.76455C18.1781 6.86992 18.8005 8.46063 18.8468 10.3677L18.8472 10.3874C18.8885 12.2534 18.324 13.8616 17.2151 15.0344C16.1062 16.2071 14.5645 16.839 12.746 16.8714C11.5973 16.8917 9.8104 16.3254 7.57814 15.2398L7.57459 15.2399C6.76665 14.8314 5.70324 14.2826 4.63917 13.658C3.30915 12.8844 2.04955 12.0535 0.993257 11.343C0.789235 11.2097 0.616381 11.0746 0.449332 10.944L0.443426 10.9394L0.153827 10.7095ZM1.29319 10.5182L1.05827 10.7053C1.13218 10.7598 1.20923 10.8139 1.2918 10.8678C2.3472 11.5739 3.59565 12.4007 4.91246 13.1664C5.96294 13.7836 7.01596 14.3266 7.81632 14.7317C9.9696 15.7813 11.6696 16.326 12.7331 16.3073C16.1368 16.2475 18.3719 13.872 18.2952 10.3971L18.2947 10.3786C18.2081 6.80568 15.9801 4.6253 12.4762 4.68709C11.4372 4.70527 9.76201 5.29833 7.63095 6.40188C6.79443 6.86473 5.81615 7.45204 4.80151 8.10169C3.6064 8.85722 2.3939 9.69284 1.29595 10.5181L1.29319 10.5182ZM8.68166 10.576L8.68143 10.5663C8.6547 9.41417 9.07733 8.30082 9.85635 7.47118C10.6354 6.64155 11.707 6.16359 12.8354 6.14246C13.9638 6.12132 15.0566 6.55874 15.8734 7.35848C16.6903 8.15823 17.1642 9.25479 17.1909 10.4069L17.1911 10.4166C17.211 11.2756 16.9808 12.12 16.5294 12.8427C16.0781 13.5654 15.4261 14.1339 14.656 14.4761C13.8859 14.8184 13.0323 14.919 12.2036 14.7651C11.3748 14.6113 10.6081 14.2101 10.0006 13.6121C9.5962 13.2187 9.27155 12.7479 9.04538 12.2268C8.81922 11.7057 8.69601 11.1447 8.68284 10.576L8.68166 10.576ZM16.6365 10.4183C16.6034 9.42289 16.1869 8.4789 15.4776 7.79146C14.7683 7.10402 13.8234 6.72866 12.8482 6.74692C11.873 6.76519 10.9464 7.17561 10.2695 7.88901C9.5927 8.60242 9.22039 9.56118 9.23347 10.557L9.23368 10.5654C9.25699 11.5681 9.66945 12.5224 10.3803 13.2183C11.0912 13.9143 12.0423 14.2949 13.0243 14.2764C14.0063 14.258 14.9388 13.842 15.6167 13.1199C16.2946 12.3979 16.6624 11.429 16.6391 10.4263L16.6365 10.4183Z" fill="white"/>
<path d="M0.153827 10.7095L0.962299 10.066C2.07423 9.23115 3.2999 8.386 4.50742 7.62136C5.53179 6.96669 6.52176 6.37311 7.36878 5.90401L7.3754 5.90065C9.6132 4.74142 11.3254 4.1436 12.4626 4.12347C14.3312 4.09047 15.9162 4.65919 17.0472 5.76455C18.1781 6.86992 18.8005 8.46063 18.8468 10.3677L18.8472 10.3874C18.8885 12.2534 18.324 13.8616 17.2151 15.0344C16.1062 16.2071 14.5645 16.839 12.746 16.8714C11.5973 16.8917 9.8104 16.3254 7.57814 15.2398L7.57459 15.2399C6.76665 14.8314 5.70324 14.2826 4.63917 13.658C3.30915 12.8844 2.04955 12.0535 0.993257 11.343C0.789235 11.2097 0.616381 11.0746 0.449332 10.944L0.443426 10.9394L0.153827 10.7095ZM1.29319 10.5182L1.05827 10.7053C1.13218 10.7598 1.20923 10.8139 1.2918 10.8678C2.3472 11.5739 3.59565 12.4007 4.91246 13.1664C5.96294 13.7836 7.01596 14.3266 7.81632 14.7317C9.9696 15.7813 11.6696 16.326 12.7331 16.3073C16.1368 16.2475 18.3719 13.872 18.2952 10.3971L18.2947 10.3786C18.2081 6.80568 15.9801 4.6253 12.4762 4.68709C11.4372 4.70527 9.76201 5.29833 7.63095 6.40188C6.79443 6.86473 5.81615 7.45204 4.80151 8.10169C3.6064 8.85722 2.3939 9.69284 1.29595 10.5181L1.29319 10.5182ZM8.68166 10.576L8.68143 10.5663C8.6547 9.41417 9.07733 8.30082 9.85635 7.47118C10.6354 6.64155 11.707 6.16359 12.8354 6.14246C13.9638 6.12132 15.0566 6.55874 15.8734 7.35848C16.6903 8.15823 17.1642 9.25479 17.1909 10.4069L17.1911 10.4166C17.211 11.2756 16.9808 12.12 16.5294 12.8427C16.0781 13.5654 15.4261 14.1339 14.656 14.4761C13.8859 14.8184 13.0323 14.919 12.2036 14.7651C11.3748 14.6113 10.6081 14.2101 10.0006 13.6121C9.5962 13.2187 9.27155 12.7479 9.04538 12.2268C8.81922 11.7057 8.69601 11.1447 8.68284 10.576L8.68166 10.576ZM16.6365 10.4183C16.6034 9.42289 16.1869 8.4789 15.4776 7.79146C14.7683 7.10402 13.8234 6.72866 12.8482 6.74692C11.873 6.76519 10.9464 7.17561 10.2695 7.88901C9.5927 8.60242 9.22039 9.56118 9.23347 10.557L9.23368 10.5654C9.25699 11.5681 9.66945 12.5224 10.3803 13.2183C11.0912 13.9143 12.0423 14.2949 13.0243 14.2764C14.0063 14.258 14.9388 13.842 15.6167 13.1199C16.2946 12.3979 16.6624 11.429 16.6391 10.4263L16.6365 10.4183Z" stroke="#F6F8FF"/>
</svg>
