<svg xmlns="http://www.w3.org/2000/svg" width="36" height="37" fill="none" viewBox="0 0 36 37">
  <path stroke="#F6F8FF" stroke-linecap="round" stroke-linejoin="round" stroke-miterlimit="10" stroke-width="1.5" d="M26.31 12.811c.979 0 1.917-.4 2.61-1.11A3.847 3.847 0 0 0 30 9.018c0-1.006-.389-1.97-1.08-2.682a3.64 3.64 0 0 0-2.61-1.11c-.979 0-1.917.399-2.61 1.11a3.847 3.847 0 0 0-1.08 2.682c0 1.006.389 1.97 1.08 2.681a3.64 3.64 0 0 0 2.61 1.111v0Zm-16.62 0c.979 0 1.917-.4 2.61-1.11a3.847 3.847 0 0 0 1.08-2.682c0-1.006-.389-1.97-1.08-2.682a3.64 3.64 0 0 0-2.61-1.11c-.979 0-1.917.399-2.61 1.11A3.847 3.847 0 0 0 6 9.02c0 1.006.389 1.97 1.08 2.681a3.64 3.64 0 0 0 2.61 1.111v0Zm16.62 18.963c.485 0 .964-.098 1.412-.289.448-.19.855-.47 1.197-.822a3.8 3.8 0 0 0 .8-1.23 3.883 3.883 0 0 0 0-2.903 3.799 3.799 0 0 0-.8-1.23 3.684 3.684 0 0 0-1.197-.823 3.605 3.605 0 0 0-1.412-.288c-.979 0-1.917.4-2.61 1.11a3.846 3.846 0 0 0-1.08 2.682c0 1.006.389 1.97 1.08 2.682a3.64 3.64 0 0 0 2.61 1.11v0Zm-16.62 0c.485 0 .964-.098 1.412-.289.448-.19.855-.47 1.197-.822a3.8 3.8 0 0 0 .8-1.23 3.883 3.883 0 0 0 0-2.903 3.799 3.799 0 0 0-.8-1.23 3.684 3.684 0 0 0-1.197-.823 3.605 3.605 0 0 0-1.412-.288c-.979 0-1.917.4-2.61 1.11A3.846 3.846 0 0 0 6 27.982c0 1.006.389 1.97 1.08 2.682a3.64 3.64 0 0 0 2.61 1.11v0Z"/>
</svg>
