<svg width="27" height="29" viewBox="0 0 27 29" fill="none" xmlns="http://www.w3.org/2000/svg">
<path d="M26 28L23.5 25.3M12.875 26.65C14.4344 26.65 15.9786 26.3183 17.4194 25.6738C18.8601 25.0292 20.1692 24.0846 21.2719 22.8936C22.3746 21.7027 23.2493 20.2889 23.8461 18.7329C24.4428 17.1769 24.75 15.5092 24.75 13.825C24.75 12.1408 24.4428 10.4731 23.8461 8.91708C23.2493 7.36108 22.3746 5.94727 21.2719 4.75636C20.1692 3.56544 18.8601 2.62076 17.4194 1.97624C15.9786 1.33173 14.4344 1 12.875 1C9.72555 1 6.7051 2.3512 4.47811 4.75636C2.25111 7.16151 1 10.4236 1 13.825C1 17.2264 2.25111 20.4885 4.47811 22.8936C6.7051 25.2988 9.72555 26.65 12.875 26.65Z" stroke="#F6F8FF" stroke-width="1.5" stroke-linecap="round" stroke-linejoin="round"/>
</svg>
