<svg width="474" height="470" viewBox="0 0 474 470" fill="none" xmlns="http://www.w3.org/2000/svg">
<path fill-rule="evenodd" clip-rule="evenodd" d="M108.408 135.121V135.121L109.895 134.464L111.405 133.849L112.935 133.278L114.485 132.751L116.054 132.267L117.639 131.826L119.239 131.429L120.853 131.073L122.479 130.76L124.115 130.487L125.76 130.254L127.411 130.061L129.067 129.905L130.727 129.786L132.388 129.701L134.049 129.65L135.709 129.63L137.365 129.64L139.016 129.678L140.661 129.742L142.299 129.829L143.928 129.938L145.546 130.067L147.154 130.213L148.749 130.374L150.33 130.548L151.898 130.731L153.45 130.922L154.987 131.119L156.508 131.319L158.013 131.519L159.501 131.718L160.971 131.913L162.425 132.101L163.862 132.282L165.282 132.453L166.685 132.611L168.073 132.756L169.444 132.886L170.801 132.998L172.143 133.092L173.471 133.165L174.786 133.217L176.089 133.246L177.381 133.25L178.662 133.228L179.934 133.179L181.197 133.102L182.454 132.996L183.704 132.859L184.95 132.692L186.192 132.493L187.432 132.262L188.671 131.998L189.91 131.701L191.152 131.37L192.396 131.005L193.646 130.607L194.902 130.174L196.165 129.708L197.437 129.209L198.72 128.677L200.015 128.112L201.323 127.515L202.646 126.887L203.985 126.229L205.341 125.542L206.716 124.826L208.11 124.084L209.526 123.315L210.964 122.522L212.426 121.707L213.912 120.87L215.423 120.013L216.96 119.139L218.524 118.248L220.116 117.343L221.737 116.426L223.386 115.499L225.065 114.564L226.774 113.622L228.514 112.677L230.284 111.73L232.084 110.784L233.916 109.84L235.778 108.902L237.671 107.971L239.594 107.05L241.547 106.14L243.531 105.245L245.543 104.366L247.585 103.506L249.655 102.666L251.752 101.85L253.877 101.058L256.027 100.294L258.203 99.5582L260.402 98.8536L262.625 98.1818L264.87 97.5445L267.136 96.9436L269.422 96.3806L271.727 95.8572L274.049 95.3747L276.387 94.9347L278.74 94.5385L281.106 94.1873L283.484 93.8822L285.873 93.6242L288.272 93.4141L290.679 93.2526L293.093 93.1402L295.512 93.0774L297.936 93.0646L300.363 93.1023L302.792 93.1907L305.222 93.33L307.651 93.5206L310.079 93.7626L312.503 94.0562L314.923 94.4019L317.337 94.7997L319.744 95.2501L322.141 95.7533L324.528 96.3096L326.903 96.9197L329.263 97.584L331.606 98.303L333.931 99.0774L336.235 99.9079L338.515 100.795L340.768 101.74L342.993 102.743L345.186 103.805L347.346 104.925L349.468 106.104L351.552 107.341L353.595 108.638L355.593 109.992L357.546 111.404L359.451 112.872L361.307 114.397L363.11 115.976L364.86 117.609L366.555 119.295L368.194 121.031L369.775 122.817L371.298 124.651L372.762 126.53L374.165 128.454L375.508 130.419L376.79 132.425L378.011 134.468L379.171 136.546L380.272 138.657L381.312 140.799L382.294 142.969L383.218 145.166L384.085 147.385L384.896 149.626L385.654 151.886L386.36 154.162L387.016 156.452L387.624 158.753L388.186 161.065L388.705 163.384L389.183 165.708L389.623 168.037L390.028 170.367L390.4 172.697L390.742 175.026L391.057 177.352L391.349 179.674L391.62 181.991L391.872 184.301L392.11 186.605L392.335 188.901L392.552 191.188L392.762 193.467L392.968 195.737L393.173 197.998L393.379 200.25L393.589 202.493L393.805 204.728L394.028 206.954L394.261 209.174L394.505 211.386L394.76 213.592L395.03 215.793L395.313 217.989L395.612 220.182L395.926 222.373L396.255 224.563L396.599 226.752L396.958 228.942L397.332 231.134L397.718 233.329L398.116 235.529L398.525 237.733L398.943 239.944L399.368 242.161L399.797 244.386L400.227 246.62L400.656 248.862L401.078 251.114L401.491 253.376L401.89 255.646L402.27 257.926L402.626 260.215L402.954 262.513L403.248 264.818L403.503 267.129L403.713 269.445L403.874 271.764L403.981 274.085L404.029 276.406L404.012 278.724L403.927 281.037L403.77 283.342L403.536 285.638L403.222 287.921L402.825 290.188L402.343 292.437L401.773 294.664L401.115 296.867L400.366 299.042L399.526 301.188L398.594 303.3L397.57 305.376L396.454 307.414L395.247 309.41L393.948 311.362L392.559 313.267L391.082 315.123L389.517 316.927L387.867 318.677L386.134 320.372L384.32 322.009L382.429 323.587L380.462 325.104L378.425 326.559L376.319 327.951L374.15 329.279L371.92 330.543L369.635 331.742L367.299 332.877L364.915 333.947L362.49 334.953L360.027 335.896L357.532 336.777L355.009 337.597L352.464 338.358L349.902 339.061L347.327 339.71L344.745 340.305L342.161 340.849L339.579 341.346L337.005 341.798L334.443 342.209L331.898 342.581L329.374 342.919L326.875 343.226L324.406 343.506L321.97 343.763L319.571 344.001L317.212 344.224L314.897 344.436L312.629 344.642L310.409 344.846L308.241 345.052L306.126 345.265L304.067 345.488L302.064 345.726L300.118 345.982L298.231 346.262L296.403 346.567L294.634 346.903L292.923 347.273L291.271 347.679L289.677 348.125L288.14 348.613L286.658 349.147L285.23 349.728L283.853 350.358L282.527 351.04L281.248 351.774L280.014 352.561L278.823 353.404L277.671 354.301L276.555 355.252L275.472 356.259L274.42 357.32L273.393 358.434L272.39 359.6L271.406 360.817L270.437 362.082L269.481 363.392L268.532 364.746L267.587 366.138L266.642 367.564L265.692 369.022L264.735 370.504L263.766 372.007L262.782 373.525L261.779 375.051L260.754 376.581L259.704 378.108L258.627 379.626L257.521 381.128L256.382 382.609L255.21 384.063L254.004 385.483L252.761 386.864L251.481 388.2L250.165 389.486L248.811 390.716L247.421 391.887L245.994 392.994L244.533 394.034L243.037 395.002L241.508 395.897L239.948 396.714L238.359 397.452L236.742 398.109L235.1 398.682L233.434 399.17L231.748 399.572L230.042 399.887L228.321 400.115L226.586 400.255L224.839 400.308L223.084 400.274L221.324 400.154L219.56 399.949L217.795 399.662L216.032 399.293L214.273 398.845L212.521 398.321L210.777 397.723L209.045 397.054L207.326 396.319L205.622 395.519L203.935 394.659L202.267 393.742L200.618 392.773L198.991 391.756L197.386 390.695L195.805 389.595L194.248 388.459L192.716 387.293L191.208 386.101L189.726 384.887L188.27 383.656L186.838 382.413L185.432 381.161L184.05 379.906L182.691 378.651L181.355 377.4L180.041 376.158L178.747 374.927L177.473 373.713L176.217 372.518L174.977 371.345L173.751 370.197L172.539 369.078L171.338 367.989L170.146 366.933L168.961 365.912L167.782 364.928L166.607 363.982L165.433 363.075L164.258 362.208L163.081 361.383L161.9 360.598L160.713 359.855L159.518 359.154L158.314 358.493L157.098 357.873L155.869 357.293L154.626 356.751L153.368 356.246L152.093 355.778L150.8 355.343L149.488 354.94L148.156 354.568L146.804 354.224L145.431 353.906L144.037 353.611L142.622 353.337L141.185 353.08L139.728 352.839L138.25 352.609L136.752 352.388L135.237 352.17L133.704 351.953L132.156 351.733L130.595 351.506L129.022 351.268L127.441 351.016L125.852 350.745L124.26 350.452L122.667 350.134L121.075 349.787L119.487 349.408L117.908 348.995L116.338 348.545L114.783 348.055L113.244 347.524L111.725 346.949L110.229 346.329L108.759 345.662L107.317 344.948L105.907 344.185L104.531 343.374L103.192 342.513L101.891 341.603L100.632 340.645L99.4165 339.638L98.2464 338.583L97.1234 337.482L96.0493 336.334L95.0253 335.143L94.0526 333.908L93.1323 332.632L92.2651 331.316L91.4514 329.963L90.6917 328.574L89.986 327.152L89.3341 325.699L88.7358 324.218L88.1903 322.71L87.697 321.178L87.2548 319.625L86.8625 318.053L86.5188 316.465L86.222 314.863L85.9704 313.25L85.7622 311.628L85.5953 310L85.4674 308.367L85.3763 306.732L85.3195 305.097L85.2946 303.465L85.2989 301.836L85.3297 300.213L85.3845 298.598L85.4602 296.991L85.5543 295.395L85.6639 293.81L85.7863 292.239L85.9186 290.68L86.0582 289.137L86.2024 287.608L86.3486 286.095L86.4943 284.598L86.637 283.118L86.7744 281.654L86.9043 280.206L87.0246 278.774L87.1333 277.359L87.2287 275.959L87.3089 274.573L87.3725 273.203L87.4181 271.845L87.4444 270.501L87.4505 269.169L87.4355 267.848L87.3985 266.537L87.339 265.235L87.2567 263.942L87.1512 262.655L87.0226 261.374L86.8708 260.097L86.6961 258.824L86.4988 257.554L86.2795 256.285L86.0388 255.015L85.7773 253.745L85.4961 252.473L85.1961 251.198L84.8783 249.919L84.5439 248.634L84.1941 247.344L83.8304 246.047L83.4541 244.743L83.0667 243.43L82.67 242.109L82.2654 240.778L81.8547 239.437L81.4395 238.086L81.0215 236.723L80.6024 235.35L80.1838 233.966L79.7673 232.57L79.3546 231.163L78.9473 229.744L78.5467 228.313L78.1545 226.871L77.7719 225.417L77.4004 223.953L77.0413 222.477L76.6959 220.99L76.3653 219.493L76.0507 217.985L75.7532 216.468L75.4741 214.942L75.2142 213.406L74.9747 211.862L74.7565 210.31L74.5605 208.751L74.3875 207.185L74.2382 205.613L74.1136 204.035L74.0141 202.451L73.9404 200.864L73.8931 199.273L73.8727 197.678L73.8798 196.081L73.9148 194.482L73.9781 192.883L74.0701 191.282L74.1913 189.682L74.3419 188.083L74.5223 186.486L74.7329 184.891L74.974 183.3L75.2458 181.713L75.5486 180.131L75.8828 178.554L76.2485 176.984L76.6462 175.422L77.0759 173.868L77.5381 172.323L78.0328 170.789L78.5604 169.266L79.121 167.755L79.715 166.258L80.3424 164.775L81.0035 163.307L81.6985 161.856L82.4274 160.423L83.1906 159.009L83.988 157.615L84.8198 156.242L85.686 154.891L86.5867 153.565L87.5218 152.263L88.4913 150.988L89.4951 149.74L90.533 148.521L91.6047 147.332L92.7102 146.174L93.8489 145.049L95.0205 143.958L96.2245 142.901L97.4605 141.88L98.7278 140.896L100.026 139.951L101.353 139.044L102.71 138.177L104.095 137.35L105.507 136.565L106.945 135.822L108.408 135.121" fill="url(#paint0_linear_1216_1582)"/>
<path d="M271.883 249.461L307.882 230.298L297.887 212.847L276.236 222.723L271.883 249.461Z" fill="black"/>
<path d="M199.696 209.195L211.086 207.039L210.89 209.402L200.11 211.641L200.446 213.575L210.343 212.189L210.904 214.621L200.895 216.125L199.57 216.326L199.044 216.395L189.189 217.629L135.569 230.173C130.803 230.866 125.84 226.424 124.488 220.179C123.212 214.302 125.581 208.959 129.822 207.739C130.098 207.66 130.379 207.598 130.663 207.552L186.526 202.43L192.042 201.356L197.586 192.055L199.514 192.693L194.818 200.843L208.997 199.214L209.551 201.647L198.54 202.479L198.96 204.891L210.455 203.622L210.939 205.092L199.275 206.762L199.696 209.195Z" fill="#FD925A"/>
<path d="M187.213 197.905C187.71 199.88 192.708 220.387 192.708 220.387L148.242 234.942L145.739 207.767L187.213 197.905Z" fill="#0F0F0F"/>
<path d="M157.115 161.575C157.092 161.624 157.066 161.673 157.038 161.72C156.407 162.808 154.564 162.586 153.533 162.919C152.131 163.349 150.73 163.772 149.384 164.208C148.865 164.374 144.183 165.414 144.071 165.899C143.559 168.096 143.034 170.293 142.522 172.483C141.877 175.2 141.863 177.737 140.349 180.107C140.258 180.245 140.174 180.377 140.076 180.516C137.482 184.154 132.085 187.169 127.712 188.008C125.609 188.41 123.387 188.098 121.256 188.507C115.964 189.532 110.883 191.972 106.074 194.356C105.499 194.647 98.1469 197.918 98.1469 198.514L97.4459 194.626L110.798 186.691L97.2146 193.469L94.9927 181.16L110.217 175.505L94.6843 179.421L93.1493 170.917L110.217 167.59L92.6026 167.909L91.2568 160.438C96.4257 161.188 101.632 161.662 106.852 161.859C111.324 161.99 117.247 163.037 121.642 162.039C123.653 161.588 125.237 160.306 126.758 159.003C130.635 155.827 135.54 154.138 140.573 154.249C142.999 154.234 145.415 154.568 147.744 155.24C149.602 155.725 151.415 156.367 153.162 157.16C154.423 157.79 157.984 159.683 157.115 161.575Z" fill="#FFCB39"/>
<path d="M120.667 278.93L125.35 361.702H141.688L148.256 279.242L120.667 278.93Z" fill="#FD925A"/>
<path d="M122.595 384.268L172.836 384.205C172.928 378.377 166.066 376.235 160.22 375.667L142.851 370.968L143.552 358.68L123.674 357.488L122.595 384.268Z" fill="#6562BE"/>
<path d="M139.936 376.062L139.571 375.681L144.324 371.231L144.681 371.605L139.936 376.062Z" fill="#FFCB39"/>
<path d="M148.953 372.532L145.523 377.509L145.958 377.801L149.388 372.824L148.953 372.532Z" fill="#FFCB39"/>
<path d="M150.484 378.765L150.008 378.536L152.496 373.532L152.973 373.761L150.484 378.765Z" fill="#FFCB39"/>
<path d="M146.98 339.371L119.448 338.956C119.448 338.956 113.525 331.2 118.046 322.135C122.567 313.07 118.824 305.391 116.504 297.712C114.184 290.033 112.887 281.494 116.966 274.529C121.046 267.564 118.046 258.589 116.665 253.217C115.284 247.846 117.835 238.448 117.835 238.448L152.307 249.115C152.307 249.115 154.732 282.215 151.129 288.716C147.526 295.217 148.101 310.048 148.683 316.501C149.265 322.953 152.293 331.893 146.98 339.371Z" fill="#161730"/>
<path d="M148.963 286.103L187.5 360.718L200.901 354.619L174.435 275.617L148.963 286.103Z" fill="#FD925A"/>
<path d="M192.799 382.133L238.933 362.457C236.69 357.072 229.534 357.779 223.912 359.546L206.081 362.007L201.834 350.46L183.084 357.127L192.799 382.133Z" fill="#6562BE"/>
<path d="M197.277 331.373L171.82 341.769C171.82 341.769 163.276 336.96 163.83 326.862C164.383 316.764 157.858 311.171 152.657 305.023C147.456 298.876 142.844 291.537 143.832 283.539C144.821 275.541 138.442 268.409 135.064 264.05C131.686 259.691 130.242 250.016 130.242 250.016L166.157 246.356C166.157 246.356 181.577 275.825 180.876 283.199C180.175 290.573 186.609 303.991 189.722 309.688C192.834 315.385 199.17 322.412 197.277 331.373Z" fill="#161730"/>
<path d="M148.585 186.559C148.999 186.642 149.391 186.746 149.77 186.857C157.585 189.248 162.933 201.994 166.094 210.622C167.881 215.474 174.989 256.953 174.989 256.953L114.359 257.452C113.49 257.452 115.165 230.832 115.355 228.974C116.883 214.205 120.506 194.98 132.177 189.061C136.466 186.899 143.595 185.554 148.585 186.559Z" fill="#FE4877"/>
<path d="M154.325 174.736C154.33 175.681 154.146 176.619 153.785 177.494C153.423 178.369 152.89 179.166 152.217 179.838C151.544 180.51 150.744 181.044 149.862 181.41C148.98 181.776 148.034 181.967 147.078 181.971L146.65 182.034C146.65 182.477 146.65 182.921 146.65 183.364V186.587C146.65 187.28 146.931 188.07 146.524 188.666C146.068 189.209 145.476 189.625 144.807 189.872C143.041 190.648 139.094 190.641 139.08 187.89L139.038 178.88L138.057 163.938L154.248 163.862L154.325 174.736Z" fill="#FD925A"/>
<path d="M153.898 167.091C154.942 167.091 157.325 173.786 157.325 173.786H153.933L153.898 167.091Z" fill="#FF534A"/>
<path d="M147.401 175.644C148.844 175.644 150.015 174.486 150.015 173.058C150.015 171.631 148.844 170.473 147.401 170.473C145.957 170.473 144.786 171.631 144.786 173.058C144.786 174.486 145.957 175.644 147.401 175.644Z" fill="#FF534A"/>
<path d="M149.082 167.93C149.102 167.895 149.128 167.864 149.16 167.84C149.305 167.72 149.483 167.645 149.671 167.625C150.491 167.445 152.58 166.932 152.888 168.131C153.134 169.08 151.774 168.942 151.066 168.914C150.358 168.886 148.564 168.81 149.082 167.93Z" fill="white"/>
<path d="M151.501 167.362C151.501 167.362 150.674 167.93 151.501 168.935C151.501 168.935 153.12 169.164 152.854 168.131C152.816 167.992 152.752 167.862 152.663 167.749C152.575 167.635 152.465 167.54 152.339 167.468C152.213 167.397 152.075 167.35 151.931 167.332C151.787 167.314 151.641 167.324 151.501 167.362V167.362Z" fill="#0C0604"/>
<path d="M148.417 167.632C148.417 167.632 152.854 167.098 152.854 166.835C152.854 166.571 153.106 165.546 152.328 165.553C151.55 165.56 147.632 166.863 147.891 167.119C148.151 167.375 147.891 167.375 148.417 167.632Z" fill="#161730"/>
<path d="M152.966 177.293C152.663 177.302 152.362 177.241 152.088 177.113C151.814 176.985 151.574 176.795 151.389 176.558L151.802 176.24C152.573 177.217 153.94 176.552 153.954 176.545L154.192 177.009C153.809 177.19 153.391 177.287 152.966 177.293V177.293Z" fill="#0C0604"/>
<path d="M144.176 161.734L145.136 167.112L158.846 165.816C158.846 165.816 160.732 155.15 151.837 156.196C142.943 157.243 136.929 155.164 137.251 161.949L138.036 168.089L144.015 167.209L144.176 161.734Z" fill="#FFCB39"/>
<path d="M142.55 164.451C142.55 164.451 141.625 177.064 144.498 180.828C144.498 180.828 142.529 170.328 145.199 162.198C145.206 162.198 139.34 155.808 142.55 164.451Z" fill="#FFCB39"/>
<path d="M139.908 171.901C141.564 171.901 142.908 170.573 142.908 168.935C142.908 167.297 141.564 165.969 139.908 165.969C138.251 165.969 136.908 167.297 136.908 168.935C136.908 170.573 138.251 171.901 139.908 171.901Z" fill="#FD925A"/>
<path d="M141.085 170.376L140.559 170.321C140.615 170.073 140.612 169.817 140.551 169.57C140.49 169.324 140.373 169.095 140.209 168.9C140.044 168.767 139.853 168.667 139.648 168.608C139.444 168.548 139.229 168.53 139.017 168.554L138.954 168.034C139.442 167.977 139.935 168.082 140.356 168.332C140.458 168.057 140.458 167.755 140.356 167.479C140.342 167.434 140.318 167.393 140.287 167.357C140.255 167.321 140.217 167.292 140.174 167.271L140.342 166.779C140.45 166.82 140.549 166.883 140.632 166.962C140.715 167.042 140.781 167.138 140.826 167.244C140.911 167.483 140.947 167.737 140.933 167.99C140.919 168.244 140.853 168.492 140.741 168.72C141.061 169.21 141.184 169.801 141.085 170.376V170.376Z" fill="#0C0604"/>
<path d="M122.686 383.9C122.686 383.9 121.873 392.591 125.174 389.757C128.476 386.922 129.934 385.709 131.399 387.109C132.864 388.509 135.429 390.817 136.712 388.336C137.994 385.855 139.158 389.757 143.244 388.869C147.33 387.982 146.048 385.855 147.225 386.208C148.403 386.562 147.085 390.817 150.779 389.223C154.473 387.629 153.744 385.328 155.755 386.035C157.767 386.742 159.786 391.732 163.627 387.109C167.468 382.486 167.657 392.841 169.858 390.325C172.059 387.809 172.837 383.963 172.837 383.963L122.686 383.9Z" fill="#FE4877"/>
<path d="M192.448 381.204C192.448 381.204 195.147 389.521 197.067 385.619C198.988 381.717 199.871 380.075 201.763 380.768C203.656 381.461 206.95 382.604 207.146 379.825C207.343 377.046 209.95 380.179 213.392 377.746C216.833 375.313 214.758 373.893 216.006 373.747C217.254 373.601 217.709 378.044 220.485 375.133C223.261 372.222 221.669 370.393 223.807 370.282C225.945 370.171 229.786 373.962 231.517 368.203C233.249 362.443 237.503 371.903 238.527 368.736C239.55 365.569 238.758 361.722 238.758 361.722L192.448 381.204Z" fill="#FE4877"/>
<path d="M210.526 361.202L208.882 367.468L209.391 367.598L211.035 361.333L210.526 361.202Z" fill="#FFCB39"/>
<path d="M215.004 366.761L215.256 360.738L215.782 360.766L215.53 366.782L215.004 366.761Z" fill="#FFCB39"/>
<path d="M219.363 360.493L218.84 360.545L219.404 366.096L219.927 366.044L219.363 360.493Z" fill="#FFCB39"/>
<path d="M124.256 252.545C127.837 252.545 130.739 249.675 130.739 246.134C130.739 242.594 127.837 239.724 124.256 239.724C120.675 239.724 117.772 242.594 117.772 246.134C117.772 249.675 120.675 252.545 124.256 252.545Z" fill="#FFCB39"/>
<path d="M125.153 232.786C125.85 232.786 126.415 232.228 126.415 231.539C126.415 230.85 125.85 230.291 125.153 230.291C124.456 230.291 123.892 230.85 123.892 231.539C123.892 232.228 124.456 232.786 125.153 232.786Z" fill="#FFCB39"/>
<path d="M147.4 251.741C149.715 251.741 151.592 249.886 151.592 247.597C151.592 245.308 149.715 243.452 147.4 243.452C145.086 243.452 143.209 245.308 143.209 247.597C143.209 249.886 145.086 251.741 147.4 251.741Z" fill="#FFCB39"/>
<path d="M140.833 239.731C141.541 239.731 142.116 239.163 142.116 238.462C142.116 237.762 141.541 237.194 140.833 237.194C140.125 237.194 139.55 237.762 139.55 238.462C139.55 239.163 140.125 239.731 140.833 239.731Z" fill="#FFCB39"/>
<path d="M167.587 251.436C168.721 251.436 169.641 250.527 169.641 249.406C169.641 248.284 168.721 247.375 167.587 247.375C166.453 247.375 165.533 248.284 165.533 249.406C165.533 250.527 166.453 251.436 167.587 251.436Z" fill="#FFCB39"/>
<path d="M138.989 228.905C139.779 228.905 140.419 228.272 140.419 227.491C140.419 226.71 139.779 226.077 138.989 226.077C138.2 226.077 137.56 226.71 137.56 227.491C137.56 228.272 138.2 228.905 138.989 228.905Z" fill="#FFCB39"/>
<path d="M151.213 196.927C153.025 196.927 154.494 195.475 154.494 193.684C154.494 191.893 153.025 190.44 151.213 190.44C149.402 190.44 147.933 191.893 147.933 193.684C147.933 195.475 149.402 196.927 151.213 196.927Z" fill="#FFCB39"/>
<path d="M133.718 193.691C134.372 193.691 134.903 193.166 134.903 192.52C134.903 191.873 134.372 191.348 133.718 191.348C133.064 191.348 132.534 191.873 132.534 192.52C132.534 193.166 133.064 193.691 133.718 193.691Z" fill="#FFCB39"/>
<path d="M120.667 219.861C121.341 219.861 121.887 219.321 121.887 218.655C121.887 217.989 121.341 217.449 120.667 217.449C119.994 217.449 119.448 217.989 119.448 218.655C119.448 219.321 119.994 219.861 120.667 219.861Z" fill="#FFCB39"/>
<path d="M210.721 235.434L201.098 238.303L204.644 240.243L204.616 240.292L216.392 245.913L215.537 247.846L203.845 241.74L202.85 243.605L215.263 249.676L214.885 250.93L202.079 245.046L201.021 247.035L213.763 252.372L212.151 253.911L199.976 248.997L199.149 250.542L209.915 255.546L209.018 257.577L185.502 246.1L188.825 233.174L198.021 236.986L209.179 233.833L210.721 235.434Z" fill="#FD925A"/>
<path d="M194.194 230.943L187.633 250.459L156.898 240.34L149.889 238.033L148.059 235.565L124.803 208.813C123.943 207.818 123.298 206.661 122.905 205.411C122.513 204.161 122.382 202.846 122.52 201.544C122.659 200.243 123.063 198.983 123.71 197.841C124.357 196.7 125.232 195.7 126.282 194.904C127.717 193.771 129.424 193.026 131.237 192.741C133.006 192.442 134.822 192.594 136.514 193.185C138.206 193.776 139.717 194.785 140.903 196.116L154.325 211.551L161.825 220.283L174.715 224.532L194.194 230.943Z" fill="#0F0F0F"/>
<path d="M338.295 345.533L319.048 347.397L320.716 377.885L337.72 376.9L338.295 345.533Z" fill="#FD925A"/>
<path d="M338.793 389.667L293.934 389.604C293.857 384.399 299.983 382.486 305.226 381.981L320.737 377.781L320.107 366.803L337.84 365.708L338.793 389.667Z" fill="#161730"/>
<path d="M320.001 378.618L319.685 379.033L324.714 382.775L325.03 382.36L320.001 378.618Z" fill="#FFCB39"/>
<path d="M314.591 380.679L314.239 381.065L318.71 385.052L319.062 384.666L314.591 380.679Z" fill="#FFCB39"/>
<path d="M308.941 380.826L308.542 381.165L312.114 385.275L312.513 384.937L308.941 380.826Z" fill="#FFCB39"/>
<path d="M312.929 303.485C313.027 303.734 313.125 303.956 313.223 304.178L313.3 304.323C314.269 306.288 314.908 308.394 315.193 310.561L315.277 311.108C315.773 314.844 315.963 318.612 315.845 322.378C315.845 322.558 315.845 322.738 315.845 322.911C315.782 325.358 315.642 327.541 315.501 329.149C315.151 333.051 313.798 337.958 314.436 342.795C314.436 342.975 314.478 343.162 314.513 343.343C314.849 345.586 315.708 347.722 317.022 349.58H319.181L338.232 349.296L341.618 349.247C341.618 349.247 346.237 343.197 343.538 335.802L343.342 335.303C343.195 334.943 343.033 334.61 342.851 334.222C340.342 329.211 340.671 324.672 341.786 320.305C341.842 320.084 341.898 319.862 341.961 319.612C342.627 317.159 343.51 314.761 344.232 312.37C344.761 310.658 345.201 308.921 345.55 307.165C345.819 305.812 346.006 304.444 346.11 303.069V303.069L346.152 302.376V301.773C346.245 299.383 345.913 296.995 345.171 294.718C345.12 294.556 345.064 294.397 345.003 294.239C344.676 293.354 344.273 292.499 343.797 291.682C341.975 288.577 341.73 285.015 342.101 281.64C342.101 281.466 342.136 281.3 342.164 281.127C342.33 279.792 342.564 278.467 342.865 277.156C343.258 275.478 343.699 273.947 344.036 272.651C345.262 267.883 342.991 259.483 342.991 259.483L341.59 259.905L336.683 261.423L333.508 262.4L322.174 265.907L321.971 265.97L321.775 266.032L320.583 266.399L318.719 266.975L317.786 267.266L316.069 267.792L315.964 267.827L312.179 268.998C312.179 268.998 312.039 270.939 311.878 273.919C311.878 274.175 311.878 274.439 311.836 274.716C311.836 274.827 311.836 274.938 311.836 275.056C311.709 277.613 311.583 280.753 311.52 284.065C311.52 284.253 311.52 284.447 311.52 284.634C311.52 285.181 311.52 285.729 311.52 286.283C311.478 293.124 311.751 300.248 312.929 303.485Z" fill="#161730"/>
<path d="M274.659 341.43L257.038 333.564L243.11 360.815L258.348 368.341L274.659 341.43Z" fill="#FD925A"/>
<path d="M252.818 379.936L213.938 357.758C216.49 353.212 222.77 354.57 227.564 356.712L243.132 360.724L248.115 350.897L264.054 358.722L252.818 379.936Z" fill="#161730"/>
<path d="M242.125 361.09L241.642 361.295L244.118 367.017L244.601 366.812L242.125 361.09Z" fill="#FFCB39"/>
<path d="M236.395 360.217L235.895 360.378L237.762 366.038L238.261 365.877L236.395 360.217Z" fill="#FFCB39"/>
<path d="M231.392 357.587L230.875 357.685L231.903 363.008L232.42 362.911L231.392 357.587Z" fill="#FFCB39"/>
<path d="M254.178 334.444L256.064 335.476L272.724 344.618L275.682 346.24C277.492 345.381 279.12 344.188 280.477 342.726C280.603 342.601 280.722 342.469 280.834 342.331C281.859 341.168 282.685 339.848 283.28 338.422C283.474 337.97 283.64 337.507 283.778 337.036V337.036C284.093 335.991 284.288 334.915 284.36 333.827C284.396 333.211 284.466 332.598 284.57 331.99C284.57 331.782 284.633 331.574 284.675 331.373C285.881 325.261 289.974 321.504 294.046 317.866L294.873 317.124C295.441 316.618 296.002 316.105 296.556 315.593C296.822 315.343 297.088 315.094 297.348 314.837C297.607 314.595 297.859 314.345 298.112 314.096C300.93 311.408 303.25 308.253 304.967 304.774C305.184 304.296 305.387 303.818 305.562 303.325C306.269 301.442 306.632 299.45 306.635 297.441C306.635 293.082 308.955 289.291 311.576 286.193C312.277 285.348 313.027 284.551 313.742 283.809L314.387 283.116C315.13 282.361 315.838 281.667 316.455 281.037C317.092 280.371 317.653 279.639 318.13 278.854C318.792 277.779 319.38 276.66 319.889 275.506C320.113 275.007 320.324 274.515 320.513 274.037C320.793 273.344 321.039 272.651 321.256 272.069C321.866 270.336 322.202 269.088 322.202 269.088L321.69 268.978L320.071 268.617L318.67 268.305L318.011 268.167L316.146 267.751H316.076L290.745 262.206C290.745 262.206 288.397 265.637 285.453 270.281C284.163 272.318 282.762 274.584 281.381 276.899C281.297 277.052 281.205 277.204 281.114 277.35C279.383 280.295 277.715 283.282 276.411 285.951L276.138 286.519C274.736 289.409 273.853 291.869 273.825 293.387C273.766 294.749 273.53 296.097 273.124 297.4C273.054 297.635 272.984 297.871 272.907 298.093C271.411 302.258 269.462 306.25 267.096 310L266.696 310.693C265.393 312.813 264.152 314.664 263.192 316.001C261.93 317.79 260.248 319.689 258.664 321.802C258.538 321.976 258.405 322.149 258.278 322.329C255.797 325.69 253.737 329.62 254.178 334.444Z" fill="#161730"/>
<path d="M339.101 389.396L293.92 389.188C293.92 389.188 293.478 394.282 296.114 393.007C298.749 391.732 299.513 393.118 300.831 393.236C302.149 393.354 302.934 393.36 305.667 392.293C308.401 391.226 307.525 393.575 309.606 393.326C311.688 393.076 313.461 392.681 315.165 391.33C316.868 389.978 317.919 393.555 319.91 393.409C321.901 393.263 320.912 391.628 323.33 390.879C325.749 390.131 324.858 393.721 326.723 393.444C328.587 393.166 327.942 390.256 330.795 390.595C333.648 390.935 332.751 393.79 334.952 393.499C337.152 393.208 338.61 394.199 339.101 389.396Z" fill="#6562BE"/>
<path d="M253.197 379.139L213.742 357.349C213.742 357.349 210.861 361.605 213.798 361.743C216.735 361.882 216.721 363.469 217.814 364.204C218.908 364.938 219.588 365.312 222.51 365.687C225.433 366.061 223.506 367.697 225.454 368.459C227.403 369.221 229.141 369.741 231.293 369.367C233.445 368.993 232.618 372.638 234.433 373.449C236.248 374.26 236.192 372.368 238.638 372.874C241.085 373.38 238.582 376.083 240.356 376.734C242.129 377.386 242.984 374.53 245.311 376.187C247.638 377.843 245.465 379.922 247.526 380.719C249.587 381.516 250.407 383.11 253.197 379.139Z" fill="#6562BE"/>
<path d="M323.302 294.787C324.508 296.173 326.274 299.23 327.963 303.104L325.475 304.601C321.788 306.818 318.031 309.078 315.193 310.512L315.277 311.06C317.849 309.778 321.333 307.706 325.749 305.044L328.167 303.589C328.994 305.543 329.8 307.699 330.501 309.958C325.335 313.007 321.711 316.154 322.924 319.46C323.2 320.282 323.663 321.031 324.276 321.649C324.889 322.268 325.638 322.74 326.463 323.029C328.552 323.648 330.768 323.715 332.891 323.223C333.006 325.956 332.653 328.688 331.846 331.304C330.213 336.26 326.667 339.413 321.333 340.667C318.992 341.199 316.691 341.893 314.45 342.747C314.45 342.927 314.492 343.114 314.527 343.294C316.78 342.416 319.098 341.707 321.459 341.173C327.003 339.87 330.676 336.606 332.372 331.471C333.195 328.775 333.551 325.96 333.424 323.147C336.31 322.491 339.114 321.521 341.785 320.257C341.842 320.035 341.898 319.813 341.961 319.564C339.235 320.88 336.372 321.9 333.424 322.606C333.162 318.414 332.385 314.269 331.111 310.263C333.676 308.766 336.578 307.304 339.353 305.904C340.685 305.211 342.01 304.566 343.271 303.901C344.131 303.439 344.958 302.995 345.753 302.57L346.138 302.355V301.752L345.437 302.14C344.652 302.584 343.818 303.027 342.956 303.471C341.715 304.116 340.412 304.774 339.094 305.439C336.29 306.86 333.445 308.288 330.928 309.743C330.227 307.484 329.421 305.328 328.587 303.374C332.001 301.336 335.554 299.257 338.849 297.552C339.718 297.102 340.566 296.686 341.386 296.298C342.725 295.667 343.986 295.12 345.157 294.697C345.106 294.535 345.049 294.376 344.989 294.219C343.776 294.648 342.465 295.21 341.085 295.861C340.265 296.249 339.416 296.665 338.554 297.116C335.323 298.786 331.825 300.83 328.384 302.889C326.681 298.952 324.879 295.882 323.681 294.468C322.482 293.054 321.305 292.479 320.141 292.673C317.457 293.117 315.277 297.719 312.908 303.506C313.006 303.755 313.104 303.977 313.202 304.199C315.515 298.523 317.751 293.616 320.211 293.207C321.221 293.013 322.209 293.54 323.302 294.787ZM330.662 310.512C331.902 314.474 332.646 318.57 332.877 322.71C330.62 323.14 328.405 323.216 326.639 322.572C325.886 322.305 325.205 321.872 324.647 321.306C324.088 320.741 323.667 320.057 323.414 319.307C322.342 316.383 325.84 313.382 330.662 310.512Z" fill="white"/>
<path d="M336.788 345.678C337.088 346.082 337.413 346.466 337.762 346.829L338.141 346.468C337.88 346.198 337.634 345.913 337.405 345.616C336.003 343.876 335.576 342.275 336.108 340.834C336.97 338.498 340.188 336.856 343.524 335.754L343.328 335.255C339.886 336.398 336.536 338.131 335.618 340.654C335.043 342.199 335.435 343.883 336.788 345.678Z" fill="white"/>
<path d="M317.05 330.362L317.282 330.833C320.961 329.038 322.616 327.437 322.335 325.933C322.006 324.152 318.831 323.022 315.845 322.35C315.845 322.53 315.845 322.71 315.845 322.884C318.74 323.577 321.564 324.582 321.838 326.03C322.048 327.243 320.394 328.74 317.05 330.362Z" fill="white"/>
<path d="M281.072 277.336C283.564 278.345 285.919 279.658 288.081 281.245L288.6 281.626C290.449 283.037 292.15 284.63 293.675 286.38C296.415 289.506 298.581 290.622 300.516 290.622C301.577 290.593 302.614 290.3 303.53 289.769L304.041 289.471C304.918 288.919 305.765 288.322 306.579 287.683C308.097 286.441 309.761 285.385 311.534 284.537C312.225 284.223 312.946 283.977 313.686 283.802V283.802C315.419 283.394 317.219 283.35 318.971 283.67C322.378 284.205 325.849 284.217 329.26 283.705C330.305 283.566 331.328 283.4 332.323 283.22C333.319 283.04 334.223 282.866 335.127 282.693C337.416 282.203 339.73 281.838 342.059 281.598C342.059 281.425 342.094 281.259 342.122 281.085C339.738 281.312 337.37 281.678 335.029 282.18C334.027 282.374 333.01 282.575 331.987 282.756C330.964 282.936 329.954 283.095 328.917 283.234C325.64 283.703 322.31 283.677 319.041 283.158C317.481 282.884 315.884 282.884 314.324 283.158C313.361 283.331 312.421 283.61 311.52 283.989C309.62 284.86 307.842 285.968 306.228 287.288C305.401 287.912 304.623 288.501 303.859 288.979C303.691 289.083 303.523 289.187 303.354 289.277C300.705 290.76 298.112 290.712 294.046 286.061C292.577 284.378 290.948 282.837 289.182 281.46C289.014 281.328 288.845 281.196 288.67 281.071C286.401 279.373 283.918 277.975 281.283 276.913C281.254 277.038 281.163 277.19 281.072 277.336Z" fill="white"/>
<path d="M276.096 286.505C278.198 286.262 280.455 285.188 282.944 284.01C284.783 283.092 286.682 282.295 288.628 281.626C288.834 281.557 289.037 281.494 289.238 281.439C291.482 280.723 293.871 280.566 296.191 280.981C299.934 281.723 302.142 285.029 303.41 289.256C303.46 289.423 303.516 289.596 303.558 289.769C304.868 294.482 305.072 300.214 304.959 304.767C305.177 304.289 305.38 303.811 305.555 303.319C305.618 298.959 305.331 293.796 304.09 289.457C304.041 289.284 303.992 289.118 303.936 288.945C302.583 284.62 300.256 281.259 296.275 280.462C293.746 280.009 291.142 280.207 288.712 281.037C288.509 281.092 288.299 281.162 288.095 281.231C286.251 281.89 284.449 282.658 282.698 283.532C280.392 284.627 278.29 285.611 276.39 285.923L276.096 286.505Z" fill="white"/>
<path d="M277.981 299.562C276.425 302.023 277.518 306.493 282.607 309.916C285.32 311.739 287.464 312.134 288.992 311.074C290.955 309.688 291.509 306.112 291.221 302.14C295.49 303.922 298.02 305.384 297.719 312.709C297.703 313.433 297.568 314.149 297.319 314.83C297.579 314.588 297.831 314.338 298.083 314.089C298.178 313.632 298.232 313.168 298.245 312.703C298.567 304.885 295.658 303.388 291.179 301.53C290.998 299.608 290.663 297.703 290.177 295.834C290.06 295.335 289.82 294.873 289.479 294.489C289.138 294.104 288.706 293.809 288.221 293.63C285.06 292.396 278.794 294.648 273.075 297.358C273.004 297.594 272.934 297.83 272.857 298.051C278.612 295.279 284.969 292.902 288.025 294.101C288.434 294.248 288.799 294.494 289.086 294.818C289.373 295.141 289.572 295.531 289.665 295.951C290.123 297.703 290.444 299.487 290.626 301.288C288.849 300.594 287.119 299.788 285.446 298.876C281.598 296.748 279.018 297.913 277.981 299.562ZM278.423 299.832C279.635 297.92 282.285 297.753 285.186 299.368C286.882 300.295 288.635 301.115 290.436 301.822L290.675 301.919C290.99 305.883 290.478 309.411 288.691 310.651C287.366 311.573 285.418 311.178 282.901 309.487C278.086 306.243 277 302.092 278.423 299.867V299.832ZM258.243 322.308C259.056 324.88 260.164 326.467 261.622 327.097C262.891 327.573 264.292 327.573 265.561 327.097C265.105 332.33 265.561 336.668 269.864 337.964L271.35 338.408C275.92 339.794 278.801 340.626 280.462 342.726C280.589 342.601 280.708 342.469 280.82 342.331C279.046 340.161 276.06 339.267 271.483 337.909L270.005 337.465C266.016 336.266 265.624 332.032 266.086 326.924C267.261 326.494 268.412 326.003 269.535 325.455C270.998 324.733 272.511 324.115 274.063 323.604C273.836 324.068 273.706 324.572 273.679 325.086C273.653 325.6 273.731 326.114 273.909 326.598C274.554 328.068 276.551 329.038 280.007 329.565C281.407 329.791 282.716 330.396 283.792 331.311C283.729 331.935 283.651 332.579 283.574 333.245C283.312 334.958 283.209 336.69 283.266 338.422C283.46 337.97 283.626 337.507 283.764 337.036C283.764 335.809 283.939 334.562 284.093 333.321C284.156 332.801 284.219 332.281 284.275 331.762L284.528 332.011C284.528 331.803 284.591 331.595 284.633 331.394L284.338 331.117C284.626 327.652 284.254 324.588 280.133 323.057C278.481 322.476 276.692 322.399 274.995 322.835C275.635 321.69 276.337 320.579 277.098 319.508L277.939 318.268C279.229 316.341 282.803 316.882 286.588 317.464C289.196 317.859 291.859 318.268 293.983 317.887L294.873 317.124C292.77 317.817 289.693 317.374 286.728 316.923C282.775 316.32 279.018 315.752 277.56 317.963C277.287 318.379 277 318.788 276.719 319.197C275.847 320.4 275.065 321.665 274.378 322.981C272.65 323.509 270.968 324.179 269.353 324.984C268.266 325.496 267.201 325.988 266.185 326.37C266.325 324.984 266.514 323.597 266.703 322.17C267.285 317.873 267.874 313.444 267.075 310.013L266.675 310.707C267.278 313.971 266.724 318.108 266.185 322.128C265.981 323.646 265.778 325.143 265.638 326.578C264.436 327.074 263.09 327.103 261.867 326.661C260.465 326.044 259.435 324.457 258.657 321.809C258.503 321.955 258.369 322.128 258.243 322.308V322.308ZM274.722 323.431C275.581 323.202 276.467 323.081 277.357 323.071C278.249 323.066 279.135 323.221 279.972 323.528C283.616 324.914 284.079 327.513 283.855 330.694C282.766 329.841 281.475 329.278 280.105 329.059C276.838 328.56 274.974 327.673 274.399 326.397C274.028 325.51 274.224 324.533 274.722 323.431Z" fill="white"/>
<path d="M308.892 171.139C308.892 171.139 304.911 174.472 304.392 181.14C303.873 187.807 288.986 188.978 288.986 188.978C288.986 188.978 303.081 188.5 303.404 180.765C303.657 176.024 305.416 171.481 308.429 167.784C308.429 167.784 310.995 168.519 308.892 171.139Z" fill="#161730"/>
<path d="M285.32 262.574C285.32 266.157 285.369 269.033 285.432 270.89C285.481 272.36 285.53 273.177 285.53 273.177L293.24 273.711L313.903 275.132C317.835 275.402 321.859 275.672 325.756 275.95L344.12 277.211L351.9 277.738C352.082 277.703 352.145 276.768 352.124 275.257C352.103 273.746 352.019 271.736 351.886 269.456C351.423 261.7 350.449 251.062 350.211 249.322C350.071 248.345 349.93 247.361 349.783 246.356C349.187 242.309 348.508 238.095 347.68 233.881C347.232 231.518 346.741 229.155 346.201 226.819C343.117 213.311 338.611 200.76 331.763 194.522C330.993 193.822 330.162 193.189 329.281 192.63C328.872 192.376 328.448 192.145 328.013 191.937C326.674 191.282 325.263 190.782 323.807 190.447L323.303 190.329C320.584 189.762 317.789 189.647 315.032 189.99C313.423 190.181 311.85 190.594 310.357 191.217C310.202 191.279 310.041 191.348 309.887 191.425C309.445 191.639 309.046 191.972 308.625 192.118C306.659 192.85 304.827 193.894 303.2 195.209C302.927 195.417 302.675 195.638 302.408 195.902C294.221 203.061 289.897 217.088 287.654 231.248C286.106 241.62 285.326 252.089 285.32 262.574V262.574Z" fill="#FE4877"/>
<path d="M304.518 169.85L305.177 180.301C305.233 181.21 305.47 182.099 305.874 182.917C306.278 183.736 306.841 184.467 307.531 185.07C308.221 185.673 309.024 186.136 309.895 186.432C310.766 186.728 311.687 186.851 312.607 186.795L313.013 186.83C313.048 187.259 313.069 187.682 313.097 188.112C313.167 189.137 313.23 190.191 313.294 191.203C313.336 191.896 313.118 192.644 313.553 193.226C314.024 193.723 314.618 194.089 315.277 194.287C317.029 194.911 320.821 194.661 320.653 192.014L320.106 183.33V168.879L304.518 169.85Z" fill="#FD925A"/>
<path d="M305.093 172.927C304.091 172.989 302.163 178.471 302.163 178.471L305.429 178.27L305.093 172.927Z" fill="#FF534A"/>
<path d="M311.723 180.745C313.113 180.745 314.24 179.631 314.24 178.256C314.24 176.882 313.113 175.768 311.723 175.768C310.334 175.768 309.207 176.882 309.207 178.256C309.207 179.631 310.334 180.745 311.723 180.745Z" fill="#FF534A"/>
<path d="M309.803 173.433C309.783 173.398 309.757 173.368 309.726 173.343C309.577 173.241 309.402 173.181 309.221 173.169C308.422 173.052 306.375 172.691 306.158 173.862C305.983 174.791 307.28 174.556 307.967 174.5C308.653 174.445 310.336 174.244 309.803 173.433Z" fill="white"/>
<path d="M307.413 173.038C307.413 173.038 308.247 173.537 307.511 174.549C307.511 174.549 305.969 174.867 306.158 173.856C306.186 173.72 306.24 173.591 306.318 173.477C306.396 173.362 306.497 173.264 306.613 173.188C306.73 173.112 306.861 173.06 306.998 173.034C307.135 173.008 307.276 173.009 307.413 173.038V173.038Z" fill="#0C0604"/>
<path d="M305.927 182.941C306.356 183.108 306.829 183.13 307.272 183.005C307.715 182.88 308.105 182.614 308.38 182.248L307.946 181.957C307.245 182.935 305.962 182.408 305.906 182.38L305.703 182.858L305.927 182.941Z" fill="#33270A"/>
<path d="M306.375 171.582C306.375 171.582 308.24 170.688 310.581 172.629C310.588 172.629 306.789 172.345 306.375 171.582Z" fill="#0C0604"/>
<path d="M316.602 171.25C316.602 171.25 314.899 176.101 317.905 182.124C320.912 188.146 308.751 196.678 308.751 196.678C308.751 196.678 320.618 189.137 316.889 182.332C314.654 178.119 313.818 173.318 314.499 168.609C314.499 168.609 317.092 167.923 316.602 171.25Z" fill="#161730"/>
<path d="M282.685 202.687L294.208 209.208L311.401 190.191L309.691 188.805L302.065 197.593L300.789 196.401L308.71 186.289L307.665 184.369L299.191 194.911L297.565 193.386L306.579 182.935L305.471 182.248L296.38 192.277L294.867 190.863L303.789 181.507L302.163 180.204L290.836 192.54L290.626 182.747L288.684 183.78L288.762 195.084L282.685 202.687Z" fill="#FD925A"/>
<path d="M254.694 238.478L271.894 249.459L299.945 206.502L282.745 195.521L254.694 238.478Z" fill="black"/>
<path d="M318.775 263.877L311.569 274.404L313.265 275.631L320.162 264.736L321.936 265.831L314.415 277.059L315.361 277.939L323.31 266.677L325.209 267.855L317.036 278.625L319.181 279.138L327.073 269.005L328.559 269.927L321.894 279.443L323.674 280.725L330.529 271.14L330.865 270.669L331.692 269.366L337.952 259.476L328.665 250.099L322.742 257.826L311.681 260.605L311.163 262.726L320.779 260.46L318.733 263.849L318.775 263.877Z" fill="#FD925A"/>
<path d="M343.314 238.185L358.811 224.851L340.854 193.476C340.182 192.32 339.286 191.306 338.217 190.493C337.148 189.681 335.927 189.085 334.624 188.74C333.321 188.396 331.963 188.309 330.626 188.486C329.289 188.662 328.001 189.098 326.835 189.768V189.768C325.667 190.433 324.644 191.32 323.823 192.377C323.002 193.435 322.4 194.642 322.052 195.929C321.703 197.217 321.615 198.56 321.793 199.881C321.97 201.202 322.409 202.476 323.085 203.629L343.314 238.185Z" fill="black"/>
<path d="M320.708 256.159L339.13 264.992L358.814 224.857L340.392 216.024L320.708 256.159Z" fill="black"/>
<path d="M301.7 172.192C306.368 172.885 310.062 170.557 311.548 169.42C313.791 175.207 317.807 183.829 322.314 185.527C322.314 185.527 329.401 170.113 321.445 165.095C322.184 164.187 322.741 163.147 323.085 162.032C323.541 160.52 323.587 158.917 323.219 157.382C322.851 155.847 322.082 154.435 320.988 153.286C319.895 152.137 318.516 151.293 316.989 150.836C315.462 150.38 313.841 150.328 312.287 150.685C310.733 151.043 309.302 151.797 308.136 152.874C306.969 153.95 306.109 155.31 305.641 156.818C305.173 158.326 305.114 159.929 305.469 161.466C305.824 163.004 306.582 164.423 307.665 165.58C301.581 168.075 301.7 172.192 301.7 172.192Z" fill="#161730"/>
<path d="M316.567 178.45C318.165 178.45 319.461 177.169 319.461 175.588C319.461 174.007 318.165 172.726 316.567 172.726C314.968 172.726 313.672 174.007 313.672 175.588C313.672 177.169 314.968 178.45 316.567 178.45Z" fill="#FD925A"/>
<path d="M315.635 175.664C315.45 176.132 315.411 176.644 315.522 177.134L316.041 177.044C315.97 176.804 315.955 176.551 315.998 176.305C316.04 176.059 316.139 175.826 316.286 175.623C316.6 175.34 317.012 175.188 317.436 175.2V174.68C316.902 174.662 316.38 174.84 315.971 175.179C315.837 174.918 315.803 174.618 315.873 174.334C315.929 174.174 316.027 174.126 316.041 174.126L315.838 173.641C315.734 173.689 315.64 173.757 315.563 173.842C315.486 173.926 315.427 174.025 315.389 174.133C315.325 174.391 315.314 174.66 315.356 174.923C315.398 175.186 315.493 175.438 315.635 175.664V175.664Z" fill="#0C0604"/>
<path d="M297.222 119.464H195.287V168.872H297.222V119.464Z" fill="#FFCB39"/>
<path d="M280.049 163.591L299.394 176.233L283.378 155.094L280.049 163.591Z" fill="#FFCB39"/>
<path d="M287.058 134.615H245.087V136.59H287.058V134.615Z" fill="#161730"/>
<path d="M275.732 140.215H245.087V142.19H275.732V140.215Z" fill="#161730"/>
<path d="M280.512 145.814H245.087V147.79H280.512V145.814Z" fill="#161730"/>
<path d="M167.58 127.913L269.514 127.913V78.5048L167.58 78.5048V127.913Z" fill="#6562BE"/>
<path d="M180.911 124.94L166.921 143.222L174.911 118.023L180.911 124.94Z" fill="#6562BE"/>
<path d="M219.714 93.655H177.743V95.6302H219.714V93.655Z" fill="#FFCB39"/>
<path d="M208.387 99.2479H177.743V101.223H208.387V99.2479Z" fill="#FFCB39"/>
<path d="M213.168 104.848H177.743V106.823H213.168V104.848Z" fill="#FFCB39"/>
<path d="M239.949 363.316V368.341H235.66V382.75C235.66 385.011 234.751 387.179 233.135 388.778C231.518 390.376 229.325 391.274 227.038 391.274H220.331C218.045 391.273 215.854 390.374 214.239 388.775C212.624 387.177 211.716 385.009 211.716 382.75V368.341H208.254V363.316H239.949Z" fill="#FB9159"/>
<path d="M229.022 347.889C230.88 348.145 236.62 349.234 239.466 353.101C239.466 353.101 229.716 356.31 228.504 348.464C221.978 355.949 223.913 363.157 223.941 363.247L223.436 363.393C223.067 361.707 223.015 359.969 223.282 358.264C221.88 358.715 214.815 360.586 209.705 355.624C209.705 355.624 218.396 354.03 223.317 358.001C223.864 354.48 225.721 349.684 231.139 345.165C229.737 344.528 222.84 341.007 223.142 334.95C223.142 334.95 231.588 335.504 231.384 344.964C232.391 344.141 233.444 343.375 234.539 342.67C239.172 339.676 241.26 337.632 241.316 336.024C241.373 334.568 239.788 333.383 237.602 331.741C235.062 329.989 232.809 327.862 230.922 325.434L231.349 325.129C233.205 327.517 235.423 329.607 237.924 331.325C240.146 332.995 241.905 334.319 241.842 336.045C241.779 337.77 239.683 339.967 234.833 343.107L234.574 343.28C242.284 342.906 244.064 347.342 244.064 347.342C240.503 349.241 235.359 344.916 233.992 343.668C232.182 344.888 230.515 346.304 229.022 347.889V347.889Z" fill="#FFCB39"/>
<path d="M232.365 312.571C232.365 312.571 228.896 318.614 230.921 321.144C232.947 323.674 235.751 315.842 232.365 312.571Z" fill="#6562BE"/>
<path d="M230.536 325.074C230.536 325.074 227.032 331.117 229.092 333.647C231.153 336.176 233.894 328.345 230.536 325.074Z" fill="#6562BE"/>
<path d="M228.77 323.507C228.77 323.507 223.597 318.795 220.646 320.174C217.695 321.553 224.782 326.023 228.77 323.507Z" fill="#6562BE"/>
<path d="M233.192 324.644C233.192 324.644 239.718 327.222 241.982 324.893C244.246 322.565 236.038 320.881 233.192 324.644Z" fill="#6562BE"/>
<path d="M232.842 322.391C232.842 322.391 239.851 321.99 240.903 318.926C241.954 315.863 233.782 317.803 232.842 322.391Z" fill="#6562BE"/>
<path d="M229.324 325.094C229.324 325.094 222.315 324.672 220.913 327.589C219.511 330.507 227.838 329.544 229.324 325.094Z" fill="#6562BE"/>
<path d="M232.492 325.725C232.492 325.725 234.398 332.413 237.643 332.767C240.889 333.12 237.195 325.649 232.492 325.725Z" fill="#6562BE"/>
<path d="M230.109 321.643C230.109 321.643 228.23 314.941 224.985 314.574C221.74 314.206 225.37 321.698 230.109 321.643Z" fill="#6562BE"/>
<path d="M231.048 326.633C232.732 326.633 234.097 325.283 234.097 323.618C234.097 321.953 232.732 320.603 231.048 320.603C229.364 320.603 227.999 321.953 227.999 323.618C227.999 325.283 229.364 326.633 231.048 326.633Z" fill="#FE4877"/>
<defs>
<linearGradient id="paint0_linear_1216_1582" x1="104.015" y1="345.937" x2="370.652" y2="123.87" gradientUnits="userSpaceOnUse">
<stop stop-color="#FF461E"/>
<stop offset="0.885417" stop-color="#FF3F33" stop-opacity="0"/>
<stop offset="0.9999" stop-color="#01FF2A" stop-opacity="0"/>
<stop offset="1" stop-opacity="0"/>
</linearGradient>
</defs>
</svg>
