<svg width="328" height="341" viewBox="0 0 328 341" fill="none" xmlns="http://www.w3.org/2000/svg">
<path fill-rule="evenodd" clip-rule="evenodd" d="M325.782 201.343V201.343L326.213 203.153L326.601 204.973L326.944 206.802L327.24 208.638L327.489 210.48L327.691 212.328L327.843 214.18L327.946 216.036L327.998 217.894L328 219.754L327.951 221.613L327.851 223.472L327.7 225.329L327.498 227.182L327.245 229.032L326.941 230.877L326.587 232.715L326.183 234.546L325.729 236.369L325.227 238.183L324.676 239.987L324.078 241.78L323.433 243.561L322.741 245.33L322.004 247.085L321.223 248.826L320.398 250.552L319.529 252.262L318.619 253.956L317.667 255.633L316.675 257.292L315.642 258.932L314.571 260.554L313.461 262.155L312.314 263.736L311.129 265.296L309.908 266.833L308.651 268.349L307.359 269.841L306.031 271.309L304.669 272.752L303.273 274.169L301.844 275.56L300.381 276.924L298.885 278.259L297.357 279.566L295.798 280.844L294.207 282.091L292.586 283.307L290.936 284.492L289.257 285.644L287.55 286.763L285.816 287.849L284.056 288.901L282.271 289.918L280.461 290.901L278.629 291.847L276.774 292.758L274.898 293.633L273.003 294.471L271.089 295.273L269.158 296.038L267.211 296.766L265.249 297.457L263.273 298.111L261.286 298.729L259.287 299.309L257.279 299.853L255.264 300.361L253.241 300.833L251.213 301.27L249.181 301.671L247.146 302.038L245.11 302.371L243.074 302.671L241.039 302.938L239.006 303.173L236.977 303.377L234.953 303.55L232.934 303.694L230.923 303.809L228.919 303.896L226.925 303.956L224.94 303.991L222.966 304L221.004 303.985L219.054 303.948L217.117 303.888L215.193 303.807L213.284 303.706L211.389 303.585L209.509 303.446L207.645 303.289L205.796 303.116L203.964 302.927L202.147 302.723L200.348 302.505L198.565 302.273L196.798 302.029L195.048 301.773L193.316 301.506L191.599 301.229L189.9 300.941L188.217 300.645L186.551 300.34L184.9 300.027L183.267 299.708L181.649 299.381L180.046 299.049L178.459 298.711L176.888 298.369L175.331 298.023L173.789 297.673L172.261 297.32L170.747 296.965L169.246 296.609L167.759 296.252L166.283 295.895L164.82 295.539L163.369 295.185L161.928 294.833L160.497 294.484L159.076 294.14L157.664 293.801L156.26 293.468L154.864 293.141L153.473 292.821L152.089 292.508L150.709 292.203L149.333 291.907L147.959 291.619L146.588 291.34L145.218 291.07L143.848 290.809L142.478 290.557L141.106 290.313L139.731 290.079L138.353 289.853L136.971 289.634L135.584 289.424L134.192 289.221L132.793 289.024L131.387 288.834L129.973 288.649L128.551 288.469L127.121 288.293L125.681 288.12L124.231 287.949L122.772 287.78L121.302 287.611L119.822 287.441L118.331 287.27L116.829 287.096L115.317 286.918L113.795 286.735L112.261 286.546L110.718 286.35L109.164 286.145L107.601 285.931L106.029 285.706L104.448 285.469L102.859 285.22L101.262 284.956L99.6585 284.678L98.0482 284.384L96.4318 284.074L94.8099 283.746L93.183 283.401L91.5517 283.038L89.9164 282.656L88.2777 282.255L86.6361 281.834L84.992 281.393L83.346 280.931L81.6985 280.449L80.05 279.946L78.401 279.422L76.7519 278.876L75.1033 278.309L73.4556 277.719L71.8093 277.108L70.1649 276.474L68.523 275.818L66.8839 275.139L65.2482 274.437L63.6166 273.713L61.9895 272.965L60.3676 272.194L58.7514 271.4L57.1415 270.582L55.5387 269.741L53.9436 268.876L52.3569 267.986L50.7794 267.073L49.2119 266.136L47.6551 265.175L46.1099 264.189L44.5773 263.179L43.058 262.144L41.5531 261.085L40.0636 260.001L38.5904 258.892L37.1346 257.759L35.6972 256.601L34.2791 255.419L32.8813 254.212L31.5048 252.981L30.1504 251.726L28.819 250.447L27.5115 249.144L26.2287 247.819L24.9714 246.47L23.7403 245.099L22.5361 243.706L21.3594 242.291L20.211 240.855L19.0912 239.397L18.0008 237.92L16.9401 236.422L15.9096 234.906L14.9097 233.37L13.9408 231.816L13.0032 230.244L12.0972 228.656L11.2229 227.05L10.3807 225.428L9.57071 223.791L8.79308 222.139L8.04795 220.473L7.33543 218.792L6.65562 217.098L6.00859 215.392L5.39441 213.673L4.81315 211.943L4.26484 210.201L3.74956 208.448L3.26737 206.686L2.81831 204.914L2.40248 203.133L2.01995 201.343L1.67082 199.545L1.35514 197.739L1.07289 195.926L0.82399 194.106L0.608302 192.281L0.425653 190.449L0.275837 188.613L0.158618 186.771L0.0737468 184.925L0.0209619 183.075L0 181.221L0.0106009 179.364L0.0525136 177.505L0.125501 175.642L0.229344 173.778L0.363847 171.911L0.528836 170.043L0.724166 168.174L0.949718 166.303L1.2054 164.433L1.49116 162.562L1.80696 160.691L2.15278 158.82L2.52865 156.95L2.9346 155.082L3.37069 153.214L3.83697 151.349L4.33354 149.485L4.86046 147.625L5.41782 145.767L6.0057 143.913L6.62416 142.062L7.27325 140.215L7.95299 138.373L8.66338 136.536L9.40439 134.704L10.1759 132.878L10.9779 131.058L11.8102 129.244L12.6725 127.437L13.5645 125.636L14.4861 123.843L15.4368 122.057L16.4165 120.278L17.4248 118.507L18.4617 116.744L19.5268 114.99L20.62 113.244L21.7411 111.506L22.89 109.778L24.0665 108.059L25.2705 106.349L26.5019 104.649L27.7605 102.959L29.0464 101.28L30.3593 99.6106L31.6992 97.9526L33.066 96.3059L34.4597 94.6707L35.8801 93.0474L37.3271 91.4363L38.8008 89.8377L40.3011 88.2521L41.8277 86.6797L43.3808 85.1209L44.9602 83.5761L46.5659 82.0457L48.1977 80.5301L49.8556 79.0297L51.5396 77.545L53.2495 76.0763L54.9852 74.6242L56.7468 73.189L58.534 71.7714L60.3468 70.3717L62.1851 68.9906L64.0488 67.6286L65.9378 66.2862L67.8519 64.964L69.791 63.6627L71.755 62.3828L73.7438 61.1251L75.757 59.8901L77.7946 58.6786L79.8563 57.4913L81.9419 56.3288L84.0511 55.192L86.1836 54.0814L88.3391 52.9979L90.5173 51.9423L92.7178 50.9153L94.9402 49.9177L97.1841 48.9503L99.4491 48.014L101.735 47.1096L104.04 46.2379L106.365 45.3999L108.709 44.5963L111.072 43.8281L113.452 43.0961L115.849 42.4013L118.262 41.7444L120.69 41.1265L123.133 40.5483L125.59 40.0108L128.06 39.5147L130.541 39.061L133.034 38.6503L135.536 38.2836L138.047 37.9614L140.565 37.6846L143.09 37.4536L145.62 37.2692L148.155 37.1319L150.691 37.042L153.229 37L155.768 37.0062L158.304 37.0607L160.839 37.1636L163.369 37.315L165.893 37.5147L168.411 37.7626L170.921 38.0583L173.422 38.4015L175.911 38.792L178.389 39.2293L180.853 39.7131L183.302 40.2429L185.735 40.8182L188.152 41.4384L190.549 42.103L192.928 42.8114L195.285 43.5629L197.621 44.3567L199.934 45.1922L202.223 46.0685L204.487 46.9848L206.725 47.9403L208.936 48.9339L211.119 49.9649L213.274 51.0321L215.399 52.1345L217.495 53.2711L219.56 54.4408L221.593 55.6425L223.594 56.8749L225.564 58.1369L227.5 59.4274L229.403 60.745L231.273 62.0885L233.108 63.4568L234.911 64.8484L236.678 66.2621L238.412 67.6966L240.112 69.1506L241.778 70.623L243.41 72.1122L245.009 73.6172L246.574 75.1366L248.106 76.6692L249.606 78.2137L251.073 79.769L252.509 81.3339L253.913 82.907L255.287 84.4873L256.632 86.0734L257.947 87.6643L259.235 89.2589L260.495 90.8559L261.73 92.4545L262.939 94.0535L264.124 95.6521L265.286 97.2494L266.426 98.8444L267.545 100.436L268.644 102.025L269.725 103.609L270.788 105.188L271.834 106.762L272.866 108.33L273.883 109.892L274.887 111.448L275.879 112.997L276.861 114.539L277.832 116.074L278.794 117.602L279.748 119.123L280.695 120.637L281.636 122.145L282.571 123.646L283.502 125.14L284.429 126.629L285.353 128.112L286.274 129.589L287.194 131.062L288.112 132.529L289.03 133.993L289.948 135.453L290.867 136.909L291.787 138.363L292.709 139.814L293.633 141.263L294.56 142.711L295.49 144.158L296.424 145.606L297.361 147.053L298.302 148.503L299.246 149.954L300.194 151.408L301.144 152.866L302.098 154.328L303.053 155.795L304.01 157.269L304.968 158.749L305.926 160.236L306.883 161.732L307.837 163.237L308.789 164.752L309.736 166.277L310.678 167.814L311.612 169.362L312.538 170.922L313.454 172.495L314.358 174.081L315.249 175.68L316.125 177.293L316.984 178.921L317.824 180.562L318.644 182.218L319.442 183.889L320.215 185.573L320.962 187.273L321.682 188.986L322.372 190.713L323.03 192.453L323.654 194.207L324.243 195.973L324.796 197.752L325.309 199.542L325.782 201.343" fill="url(#paint0_linear_1216_1578)"/>
<path d="M177.535 104.335C177.535 104.335 124.456 162.525 136.436 171.1C148.416 179.675 207.507 182.916 211.082 178.425C214.657 173.934 190.106 103.921 190.106 103.921L177.535 104.335Z" fill="#0C0604"/>
<path d="M199.853 220.929L195.607 311.427L177.63 309.949L171.107 221.257L199.853 220.929Z" fill="#FFCB39"/>
<path d="M197.84 329.548L145.491 329.476C145.403 323.472 152.546 321.258 158.66 320.673L176.747 315.832L176.017 303.159L196.731 301.931L197.84 329.548Z" fill="#161730"/>
<path d="M155.129 321.194C155.129 321.194 160.236 328.677 158.908 329.491C157.58 330.304 145.491 329.491 145.491 329.491C145.491 329.491 144.506 323.293 155.129 321.194Z" fill="#FFCB39"/>
<path d="M197.146 302.338C197.146 302.338 188.034 306.322 189.413 311.063C190.792 315.803 192.331 324.307 188.129 325.378C183.926 326.449 185.714 329.526 185.714 329.526H197.84L197.146 302.338Z" fill="#FFCB39"/>
<path d="M175.909 316.792L175.581 317.22L181.45 321.533L181.779 321.105L175.909 316.792Z" fill="#FFCB39"/>
<path d="M169.598 319.199L169.232 319.597L174.449 324.192L174.815 323.794L169.598 319.199Z" fill="#FFCB39"/>
<path d="M162.988 319.395L162.573 319.744L166.74 324.487L167.155 324.138L162.988 319.395Z" fill="#FFCB39"/>
<path d="M167.036 123.498L149.474 135.065L108.004 66.4008L106.866 64.7729L106.45 64.1874L103.32 59.7321L105.173 58.5255L109.368 64.3659L109.769 64.9299L111.433 67.2433L111.973 68.0001L113.366 66.9434L106.421 56.1051L107.654 54.2987L115.132 65.6082L116.861 64.2874L108.894 53.092L110.134 52.4923L118.204 63.2735L119.947 61.9598L111.987 51.8854L113.841 50.6859L123.77 64.0517L124.96 54.3415L126.806 55.5482L125.602 66.7792L167.036 123.498Z" fill="#FFCB39"/>
<path d="M134.663 71.5914L114.33 83.8434L154.188 147.188C156.884 145.563 160.13 145.053 163.211 145.769C166.292 146.485 168.956 148.37 170.618 151.008V151.008C168.96 148.371 168.44 145.198 169.172 142.185C169.904 139.173 171.828 136.568 174.521 134.943L134.663 71.5914Z" fill="black"/>
<path d="M153.108 222.5L76.6166 267.952L68.394 251.495L136.896 199.274L153.108 222.5Z" fill="#FFCB39"/>
<path d="M59.6169 281.082L30.6592 238.414C35.7153 235.009 41.5594 239.6 45.4408 244.255L59.595 256.321L69.9553 248.696L82.4898 264.889L59.6169 281.082Z" fill="#161730"/>
<path d="M43.0405 241.663C43.0405 241.663 39.5092 249.974 38.0792 249.346C36.6492 248.717 30.6592 238.414 30.6592 238.414C30.6592 238.414 35.3724 234.188 43.0405 241.663Z" fill="#FFCB39"/>
<path d="M82.3734 265.432C82.3734 265.432 73.932 260.22 70.6998 264.004C67.4677 267.788 61.0546 273.721 57.8151 270.894C54.5757 268.066 52.9487 271.229 52.9487 271.229L59.6537 281.111L82.3734 265.432Z" fill="#FFCB39"/>
<path d="M57.7371 256.142L57.3159 263.313L57.8622 263.344L58.2834 256.173L57.7371 256.142Z" fill="#FFCB39"/>
<path d="M51.723 259.149L51.1831 259.07L52.1972 252.273L52.7444 252.351L51.723 259.149Z" fill="#FFCB39"/>
<path d="M47.2138 253.094L46.6885 252.951L48.4103 246.932L48.9356 247.075L47.2138 253.094Z" fill="#FFCB39"/>
<path d="M261.417 226.477L259.345 227.969L251.392 215.553L249.24 216.873L257.944 229.689L256.784 230.768L247.576 217.894L245.431 219.208L254.96 231.596L252.457 232.196L243.257 220.543L241.535 221.6L249.291 232.545L247.219 234.038L239.237 223.014L238.61 222.143L237.836 220.936L192.36 161.282L210.097 149.987L248.233 207.599L261.191 210.797L261.796 213.239L250.538 210.633L261.417 226.477Z" fill="#FFCB39"/>
<path d="M185.621 136.006C188.202 134.212 191.406 133.496 194.527 134.013C197.648 134.531 200.431 136.241 202.264 138.767L246.282 199.425L226.812 212.956L182.799 152.303C181.889 151.052 181.241 149.638 180.891 148.141C180.541 146.645 180.496 145.096 180.758 143.582C181.02 142.068 181.585 140.62 182.419 139.32C183.253 138.02 184.342 136.894 185.621 136.006V136.006Z" fill="black"/>
<path d="M170.764 125.662C170.334 125.747 169.925 125.854 169.524 125.969C161.382 128.432 155.815 141.576 152.524 150.473C150.664 155.471 143.258 198.246 143.258 198.246L206.42 198.752C207.324 198.752 205.581 171.307 205.384 169.393C203.786 154.164 200.014 134.344 187.873 128.239C183.43 126.033 175.959 124.655 170.764 125.662Z" fill="black"/>
<path d="M145.491 329.476C145.491 329.476 144.652 338.644 148.088 335.652C151.524 332.661 153.064 331.368 154.589 332.868C156.114 334.367 158.791 336.78 160.134 334.16C161.476 331.54 162.687 335.652 166.955 334.717C171.224 333.782 169.874 331.54 171.107 331.911C172.34 332.282 170.961 336.78 174.813 335.095C178.666 333.41 177.907 330.983 180.008 331.725C182.109 332.468 184.21 337.744 188.223 332.868C192.236 327.991 192.433 338.915 194.724 336.252C197.015 333.589 197.839 329.548 197.839 329.548L145.491 329.476Z" fill="#FE4877"/>
<path d="M30.6594 238.414C30.6594 238.414 23.1008 240.906 26.9239 243.298C30.747 245.69 32.4688 244.012 31.8924 246.068C31.3161 248.125 26.5591 252.194 30.6594 252.309C34.7598 252.423 37.7876 252.758 36.8464 256.143C35.9052 259.527 34.1834 264.211 38.5829 264.211C42.9823 264.211 43.69 266.453 43.0407 268.702C42.3914 270.951 44.996 273.564 47.8123 273.186C50.6285 272.807 50.6212 276.541 50.2418 278.605C49.8624 280.668 51.4165 284.317 59.6172 281.082L30.6594 238.414Z" fill="#FE4877"/>
<path d="M215.153 270.801L201.538 263.889L186.209 256.114L169.035 247.396L156.96 241.27L147.169 236.28L135.167 230.168L115.395 220.094L98.7817 211.626L143.258 197.26L206.419 198.788L215.153 270.801Z" fill="#161730"/>
<path d="M194.192 103.171L194.119 114.959C194.119 119.243 190.719 122.741 186.582 122.72L186.151 122.784C186.151 123.263 186.151 123.734 186.151 124.212V127.489C186.151 128.203 186.429 129.003 185.998 129.631C185.524 130.182 184.91 130.6 184.218 130.845C182.394 131.616 178.33 131.559 178.381 128.767L178.44 119.414L177.593 103.064L194.192 103.171Z" fill="#FFCB39"/>
<path d="M193.768 107.719C194.841 107.719 197.227 113.388 197.227 113.388H193.732L193.768 107.719Z" fill="#FF534A"/>
<path d="M187.012 116.351C188.495 116.351 189.697 115.175 189.697 113.724C189.697 112.273 188.495 111.096 187.012 111.096C185.529 111.096 184.327 112.273 184.327 113.724C184.327 115.175 185.529 116.351 187.012 116.351Z" fill="#FF534A"/>
<path d="M188.77 108.526C188.795 108.491 188.822 108.458 188.851 108.426C189.006 108.311 189.19 108.239 189.383 108.219C190.23 108.048 192.382 107.548 192.688 108.769C192.929 109.733 191.536 109.583 190.799 109.547C190.062 109.511 188.26 109.418 188.77 108.526Z" fill="white"/>
<path d="M191.302 107.976C191.302 107.976 190.441 108.54 191.302 109.576C191.302 109.576 192.966 109.818 192.703 108.769C192.667 108.625 192.601 108.49 192.51 108.372C192.42 108.254 192.305 108.155 192.175 108.081C192.044 108.007 191.899 107.96 191.749 107.942C191.599 107.924 191.447 107.935 191.302 107.976V107.976Z" fill="#0C0604"/>
<path d="M192.477 118.522C192.16 118.532 191.845 118.468 191.558 118.335C191.271 118.203 191.021 118.004 190.828 117.758L191.266 117.437C192.047 118.436 193.455 117.772 193.455 117.765L193.695 118.243C193.315 118.421 192.899 118.516 192.477 118.522Z" fill="#0C0604"/>
<path d="M192.324 106.384C192.324 106.384 190.281 105.556 187.895 107.733C187.895 107.719 191.922 107.227 192.324 106.384Z" fill="#0C0604"/>
<path d="M196.336 103.221L184.48 108.597L184.349 108.369C181.664 115.887 182.262 124.791 182.262 124.791C180.351 121.599 181.409 113.331 181.978 109.797L178.447 111.618L175.827 106.52C173.427 100.736 179.432 100.686 187.07 97.0165C194.709 93.3466 196.336 103.221 196.336 103.221Z" fill="#0C0604"/>
<path d="M180.176 114.209C181.88 114.209 183.262 112.857 183.262 111.189C183.262 109.521 181.88 108.169 180.176 108.169C178.472 108.169 177.09 109.521 177.09 111.189C177.09 112.857 178.472 114.209 180.176 114.209Z" fill="#FFCB39"/>
<path d="M181.161 111.211C181.392 111.691 181.468 112.229 181.38 112.753L180.84 112.689C180.898 112.429 180.896 112.161 180.834 111.903C180.773 111.644 180.652 111.403 180.482 111.196C180.309 111.055 180.109 110.948 179.894 110.883C179.678 110.818 179.452 110.796 179.227 110.818L179.162 110.29C179.735 110.23 180.31 110.389 180.767 110.732C180.891 110.443 180.909 110.12 180.818 109.818C180.782 109.727 180.715 109.651 180.628 109.604L180.803 109.097C180.917 109.139 181.021 109.204 181.108 109.288C181.194 109.371 181.262 109.472 181.307 109.583C181.48 110.123 181.427 110.708 181.161 111.211Z" fill="#0C0604"/>
<path d="M173.055 205.857L169.035 247.396L156.96 241.27L147.169 236.28L173.055 205.857Z" fill="#FFCB39"/>
<path d="M149.081 201.901L135.167 230.168L115.395 220.094L149.081 201.901Z" fill="#FFCB39"/>
<path d="M201.538 263.889L186.209 256.114L195.475 208.605L201.538 263.889Z" fill="#FFCB39"/>
<path d="M290.871 238.157C290.871 237.586 290.871 237.029 290.82 236.465L304.82 235.616L304.784 235.059L290.79 235.951C290.71 234.816 290.571 233.702 290.382 232.603L304.142 229.904L304.04 229.361L290.272 232.046C290.055 230.942 289.78 229.851 289.448 228.776L302.77 224.406L302.603 223.87L289.273 228.254C288.926 227.185 288.517 226.136 288.047 225.113L300.727 219.08L300.494 218.58L287.814 224.613C287.331 223.6 286.793 222.613 286.201 221.657L298.035 214.075L297.743 213.603L285.909 221.186C285.302 220.248 284.647 219.34 283.947 218.466L294.745 209.434L294.395 209.005L283.597 218.037C282.877 217.178 282.112 216.356 281.306 215.574L290.9 205.25L290.506 204.871L280.912 215.188C280.092 214.431 279.232 213.716 278.336 213.046L286.573 201.587L286.128 201.266L277.891 212.689C276.985 212.038 276.045 211.433 275.075 210.876L281.824 198.488L281.342 198.217L274.63 210.626C273.649 210.099 272.641 209.622 271.609 209.198L276.76 196.054L276.257 195.847L271.098 208.998C270.059 208.594 268.997 208.249 267.917 207.963L271.405 194.254L270.872 194.112L267.334 207.77C266.254 207.495 265.157 207.285 264.051 207.142L265.809 193.091L265.269 193.026L263.511 207.07C262.404 206.937 261.291 206.866 260.176 206.856V192.726H259.629V206.885C258.515 206.898 257.402 206.97 256.295 207.099L254.537 193.055L253.997 193.119L255.755 207.17C254.649 207.314 253.552 207.524 252.472 207.799L248.984 194.083L248.452 194.226L251.939 207.941C250.859 208.224 249.797 208.57 248.758 208.977L243.6 195.818L243.097 196.025L248.269 209.198C247.233 209.616 246.222 210.093 245.242 210.626L238.493 198.21L238.011 198.481L244.767 210.89C243.791 211.44 242.848 212.046 241.944 212.704L233.707 201.244L233.262 201.566L241.506 213.025C240.606 213.69 239.747 214.405 238.931 215.167L229.329 204.836L228.935 205.214L238.537 215.538C237.726 216.316 236.961 217.139 236.246 218.002L225.44 208.984L225.09 209.412L235.895 218.48C235.193 219.355 234.538 220.265 233.933 221.207L222.099 213.582L221.807 214.053L233.641 221.636C233.052 222.593 232.514 223.58 232.029 224.592L219.348 218.558L219.115 219.058L231.795 225.091C231.328 226.116 230.919 227.165 230.569 228.233L217.24 223.849L217.072 224.385L230.394 228.754C230.062 229.83 229.787 230.921 229.57 232.024L215.802 229.375L215.7 229.918L229.46 232.567C229.271 233.666 229.132 234.78 229.052 235.915L215.058 235.023V235.58L229.059 236.465C229.023 237.029 229.008 237.586 229.008 238.157C229.008 238.729 229.008 239.285 229.059 239.842L215.058 240.735V241.277L229.052 240.392C229.132 241.527 229.271 242.641 229.46 243.741L215.7 246.397L215.802 246.939L229.57 244.291C229.784 245.392 230.06 246.481 230.394 247.553L217.072 251.93L217.24 252.451L230.562 248.075C230.915 249.143 231.327 250.191 231.795 251.216L219.115 257.242L219.348 257.742L232.029 251.723C232.511 252.734 233.049 253.718 233.641 254.672L221.807 262.262L222.099 262.726L233.933 255.136C234.538 256.082 235.195 256.995 235.903 257.871L225.09 266.895L225.44 267.324L236.246 258.299C236.962 259.156 237.725 259.976 238.529 260.755L228.935 271.079L229.329 271.458L238.931 261.133C239.746 261.895 240.606 262.61 241.506 263.275L233.262 274.742L233.707 275.063L241.944 263.604C242.848 264.259 243.791 264.862 244.767 265.41L238.011 277.819L238.493 278.084L245.242 265.682C246.223 266.212 247.234 266.688 248.269 267.11L243.111 280.275L243.615 280.482L248.773 267.317C249.812 267.723 250.874 268.071 251.954 268.359L248.466 282.075L248.999 282.203L252.486 268.488C253.566 268.768 254.662 268.981 255.77 269.123L254.011 283.174L254.551 283.246L256.31 269.173C257.416 269.306 258.529 269.377 259.644 269.387V283.553H260.191V269.416C261.36 269.4 262.527 269.319 263.686 269.173L265.444 283.224L265.984 283.153L264.226 269.102C265.281 268.96 266.326 268.754 267.356 268.488L270.843 282.203L271.376 282.075L267.888 268.359C268.969 268.074 270.031 267.726 271.069 267.317L276.228 280.482L276.731 280.275L271.573 267.117C272.608 266.695 273.619 266.219 274.601 265.689L281.349 278.091L281.831 277.826L275.075 265.425C276.05 264.874 276.992 264.271 277.898 263.618L286.135 275.042L286.581 274.721L278.336 263.261C279.239 262.598 280.102 261.882 280.919 261.119L290.513 271.443L290.907 271.065L281.313 260.748C282.115 259.963 282.881 259.149 283.604 258.285L294.402 267.309L294.752 266.881L283.954 257.856C284.657 256.981 285.312 256.071 285.917 255.129L297.743 262.747L298.035 262.283L286.201 254.679C286.797 253.723 287.336 252.734 287.814 251.716L300.494 257.749L300.727 257.249L288.047 251.223C288.515 250.198 288.927 249.15 289.28 248.082L302.603 252.459L302.77 251.937L289.448 247.561C289.783 246.488 290.058 245.399 290.272 244.298L304.04 246.947L304.142 246.404L290.382 243.748C290.571 242.648 290.71 241.535 290.79 240.399L304.784 241.285L304.82 240.742L290.82 239.85C290.856 239.285 290.871 238.721 290.871 238.157Z" fill="#FAFF00"/>
<path d="M161.089 162.468C163.306 162.468 165.102 160.71 165.102 158.541C165.102 156.372 163.306 154.614 161.089 154.614C158.873 154.614 157.077 156.372 157.077 158.541C157.077 160.71 158.873 162.468 161.089 162.468Z" fill="#FFCB39"/>
<path d="M171.107 148.966C171.824 148.966 172.405 148.397 172.405 147.695C172.405 146.993 171.824 146.424 171.107 146.424C170.39 146.424 169.808 146.993 169.808 147.695C169.808 148.397 170.39 148.966 171.107 148.966Z" fill="#FFCB39"/>
<path d="M153.108 134.187C155.3 134.187 157.077 132.448 157.077 130.303C157.077 128.157 155.3 126.418 153.108 126.418C150.916 126.418 149.139 128.157 149.139 130.303C149.139 132.448 150.916 134.187 153.108 134.187Z" fill="#FFCB39"/>
<path d="M160.513 124.812C161.778 124.812 162.804 123.808 162.804 122.57C162.804 121.332 161.778 120.328 160.513 120.328C159.248 120.328 158.222 121.332 158.222 122.57C158.222 123.808 159.248 124.812 160.513 124.812Z" fill="#FFCB39"/>
<path d="M187.895 197.203C192.086 197.203 195.483 193.879 195.483 189.778C195.483 185.677 192.086 182.352 187.895 182.352C183.704 182.352 180.307 185.677 180.307 189.778C180.307 193.879 183.704 197.203 187.895 197.203Z" fill="#FFCB39"/>
<path d="M160.112 192.791C162.868 192.791 165.102 190.604 165.102 187.907C165.102 185.21 162.868 183.023 160.112 183.023C157.356 183.023 155.122 185.21 155.122 187.907C155.122 190.604 157.356 192.791 160.112 192.791Z" fill="#FFCB39"/>
<path d="M180.168 172.571C180.999 172.571 181.671 171.912 181.671 171.1C181.671 170.287 180.999 169.629 180.168 169.629C179.338 169.629 178.666 170.287 178.666 171.1C178.666 171.912 179.338 172.571 180.168 172.571Z" fill="#FFCB39"/>
<path d="M200.648 186.408C201.495 186.408 202.181 185.736 202.181 184.908C202.181 184.08 201.495 183.409 200.648 183.409C199.802 183.409 199.116 184.08 199.116 184.908C199.116 185.736 199.802 186.408 200.648 186.408Z" fill="#FFCB39"/>
<path d="M193.593 151.08C196.22 151.08 198.35 148.995 198.35 146.424C198.35 143.853 196.22 141.769 193.593 141.769C190.966 141.769 188.836 143.853 188.836 146.424C188.836 148.995 190.966 151.08 193.593 151.08Z" fill="#FFCB39"/>
<path d="M206.675 164.474C207.807 164.474 208.725 163.576 208.725 162.468C208.725 161.36 207.807 160.461 206.675 160.461C205.542 160.461 204.625 161.36 204.625 162.468C204.625 163.576 205.542 164.474 206.675 164.474Z" fill="#FFCB39"/>
<path d="M192.718 163.167C194.245 163.167 195.483 161.956 195.483 160.461C195.483 158.967 194.245 157.755 192.718 157.755C191.191 157.755 189.953 158.967 189.953 160.461C189.953 161.956 191.191 163.167 192.718 163.167Z" fill="#FFCB39"/>
<path d="M216.32 193.412C219.427 193.412 221.945 190.947 221.945 187.907C221.945 184.867 219.427 182.402 216.32 182.402C213.213 182.402 210.695 184.867 210.695 187.907C210.695 190.947 213.213 193.412 216.32 193.412Z" fill="#FFCB39"/>
<path d="M230.547 187.3C231.897 187.3 232.991 186.229 232.991 184.908C232.991 183.587 231.897 182.516 230.547 182.516C229.197 182.516 228.103 183.587 228.103 184.908C228.103 186.229 229.197 187.3 230.547 187.3Z" fill="#FFCB39"/>
<path d="M225.265 200.038C226.832 200.038 228.103 198.794 228.103 197.26C228.103 195.726 226.832 194.483 225.265 194.483C223.697 194.483 222.427 195.726 222.427 197.26C222.427 198.794 223.697 200.038 225.265 200.038Z" fill="#FFCB39"/>
<path d="M216.32 171.235C217.227 171.235 217.962 170.516 217.962 169.629C217.962 168.742 217.227 168.022 216.32 168.022C215.414 168.022 214.679 168.742 214.679 169.629C214.679 170.516 215.414 171.235 216.32 171.235Z" fill="#FFCB39"/>
<path d="M188.683 137.864C189.469 137.864 190.106 137.24 190.106 136.471C190.106 135.702 189.469 135.079 188.683 135.079C187.897 135.079 187.26 135.702 187.26 136.471C187.26 137.24 187.897 137.864 188.683 137.864Z" fill="#FFCB39"/>
<path d="M172.405 132.602C173.151 132.602 173.755 132.01 173.755 131.281C173.755 130.551 173.151 129.96 172.405 129.96C171.66 129.96 171.056 130.551 171.056 131.281C171.056 132.01 171.66 132.602 172.405 132.602Z" fill="#FFCB39"/>
<path d="M130.957 100.836C133.012 100.836 134.678 99.2061 134.678 97.195C134.678 95.1839 133.012 93.5537 130.957 93.5537C128.902 93.5537 127.236 95.1839 127.236 97.195C127.236 99.2061 128.902 100.836 130.957 100.836Z" fill="#FFCB39"/>
<path d="M141.405 93.2038C142.428 93.2038 143.258 92.3919 143.258 91.3903C143.258 90.3887 142.428 89.5768 141.405 89.5768C140.381 89.5768 139.552 90.3887 139.552 91.3903C139.552 92.3919 140.381 93.2038 141.405 93.2038Z" fill="#FFCB39"/>
<path d="M137.02 116.201C138.418 116.201 139.552 115.092 139.552 113.724C139.552 112.355 138.418 111.246 137.02 111.246C135.622 111.246 134.488 112.355 134.488 113.724C134.488 115.092 135.622 116.201 137.02 116.201Z" fill="#FFCB39"/>
<path d="M143.944 107.841C145.729 107.841 147.176 106.424 147.176 104.678C147.176 102.931 145.729 101.515 143.944 101.515C142.159 101.515 140.712 102.931 140.712 104.678C140.712 106.424 142.159 107.841 143.944 107.841Z" fill="#FFCB39"/>
<path d="M147.556 115.859C148.398 115.859 149.08 115.191 149.08 114.366C149.08 113.542 148.398 112.874 147.556 112.874C146.713 112.874 146.031 113.542 146.031 114.366C146.031 115.191 146.713 115.859 147.556 115.859Z" fill="#FFCB39"/>
<path d="M155.121 111.103C155.577 111.103 155.946 110.742 155.946 110.297C155.946 109.851 155.577 109.49 155.121 109.49C154.666 109.49 154.297 109.851 154.297 110.297C154.297 110.742 154.666 111.103 155.121 111.103Z" fill="#FFCB39"/>
<path d="M160.112 140.534C161.03 140.534 161.775 139.805 161.775 138.906C161.775 138.007 161.03 137.278 160.112 137.278C159.193 137.278 158.448 138.007 158.448 138.906C158.448 139.805 159.193 140.534 160.112 140.534Z" fill="#FFCB39"/>
<path d="M132.081 45.5666C132.081 45.0169 132.081 44.4742 132.03 43.9387L146.031 43.0748L145.994 42.5393L132.001 43.4032C131.921 42.3143 131.784 41.23 131.592 40.1546L145.36 37.5843L145.257 37.0559L131.483 39.6263C131.268 38.5577 130.993 37.5018 130.658 36.4633L143.988 32.2222L143.813 31.7153L130.49 35.9564C130.137 34.921 129.725 33.9056 129.257 32.9148L141.938 27.0744L141.704 26.5889L129.024 32.4293C128.544 31.4473 128.005 30.4937 127.411 29.5733L139.246 22.2264L138.954 21.7766L127.12 29.1092C126.514 28.1949 125.859 27.313 125.157 26.4675L135.955 17.7211L135.605 17.307L124.807 26.0534C124.077 25.2251 123.348 24.4255 122.523 23.6687L132.117 13.6728L131.716 13.3016L122.144 23.3045C121.324 22.5653 120.464 21.8694 119.568 21.2197L127.805 10.1243L127.368 9.80303L119.109 20.9055C118.207 20.2719 117.272 19.6856 116.307 19.1491L123.034 7.13986L122.552 6.88283L115.804 18.8992C114.824 18.3807 113.815 17.9159 112.783 17.5069L117.941 4.75515L117.431 4.55523L112.272 17.307C111.232 16.9127 110.17 16.5766 109.091 16.3003L112.579 3.01302L112.046 2.85594L108.559 16.1432C107.48 15.8756 106.386 15.6705 105.283 15.5292L107.041 1.94204L106.494 1.87064L104.736 15.4864C103.629 15.3558 102.516 15.2867 101.401 15.2793V1.55649H100.854V15.2793C99.7422 15.2905 98.6316 15.3596 97.5272 15.4864L95.7688 1.87064L95.2216 1.94204L96.98 15.5506C95.8743 15.6926 94.778 15.8977 93.6968 16.1647L90.2093 2.85594L89.684 2.98446L93.1715 16.2718C92.0925 16.548 91.0304 16.8841 89.9904 17.2785L84.8322 4.54809L84.3214 4.74801L89.4797 17.4998C88.4472 17.9087 87.4388 18.3735 86.4592 18.8921L79.7031 6.87569L79.2216 7.13272L85.9776 19.1563C85.0037 19.6871 84.061 20.2711 83.1541 20.9055L74.9169 9.80303L74.4719 10.1243L82.7455 21.2268C81.8482 21.8719 80.9883 22.5656 80.17 23.3045L70.5758 13.3087L70.1745 13.68L79.7687 23.6758C78.9662 24.4326 78.2074 25.2323 77.4851 26.0605L66.6506 17.307L66.3077 17.7211L77.1057 26.4675C76.4036 27.313 75.7485 28.1949 75.1431 29.1092L63.309 21.7623L63.0099 22.2121L74.8513 29.5662C74.2586 30.4873 73.7203 31.4409 73.2389 32.4221L60.5584 26.5889L60.325 27.0744L73.0054 32.9148C72.5473 33.9062 72.1454 34.9216 71.8015 35.9564L58.4426 31.7153L58.2748 32.2222L71.6046 36.4633C71.2698 37.5018 70.9946 38.5577 70.7801 39.6263L57.0053 37.0559L56.9032 37.5843L70.6707 40.1546C70.4784 41.23 70.3421 42.3143 70.2621 43.4032L56.2611 42.5393V43.0748L70.2621 43.9387C70.2621 44.4742 70.211 45.0169 70.211 45.5666C70.211 46.1164 70.211 46.659 70.2621 47.2017L56.2319 48.0656V48.6011L70.2329 47.7371C70.3129 48.8237 70.4492 49.9056 70.6415 50.9786L56.9032 53.549L57.0053 54.0773L70.7801 51.507C70.9946 52.5755 71.2698 53.6315 71.6046 54.67L58.2748 58.911L58.4426 59.4251L71.8015 55.184C72.1493 56.2204 72.5586 57.2359 73.0273 58.2256L60.325 64.066L60.5512 64.5515L73.2607 58.7111C73.745 59.691 74.2833 60.6443 74.8732 61.5671L63.0464 68.9211L63.3455 69.3781L75.1796 62.024C75.7849 62.9384 76.4401 63.8202 77.1422 64.6658L66.3442 73.4121L66.6871 73.8262L77.4559 65.0799C78.1759 65.9139 78.9406 66.7099 79.7469 67.4646L70.1454 77.4604L70.5466 77.8245L80.1408 67.8287C80.9685 68.5708 81.8381 69.2669 82.7455 69.9136L74.5011 81.0161L74.9461 81.3302L83.1541 70.2277C84.0609 70.8645 85.0036 71.4509 85.9776 71.9841L79.2216 84.0077L79.7031 84.2647L86.4592 72.2483C87.4396 72.7761 88.4478 73.2528 89.4797 73.6763L84.3214 86.3924L84.8322 86.5852L89.9904 73.8405C91.0304 74.2348 92.0925 74.5709 93.1715 74.8472L89.684 88.1274L90.2093 88.263L93.6895 74.9686C94.7707 75.2356 95.867 75.4406 96.9727 75.5826L95.2143 89.1912L95.7615 89.2555L97.5272 75.6826C98.6316 75.8093 99.7422 75.8785 100.854 75.8896V89.6053H101.401V75.8611C102.516 75.8537 103.629 75.7846 104.736 75.654L106.494 89.2483L107.041 89.1841L105.283 75.5755C106.386 75.4341 107.48 75.2291 108.559 74.9615L112.046 88.2487L112.579 88.1131L109.091 74.8329C110.17 74.5521 111.232 74.2136 112.272 73.8191L117.431 86.5709L117.941 86.3781L112.783 73.6263C113.815 73.2028 114.823 72.7261 115.804 72.1983L122.552 84.2504L123.034 83.9934L116.307 71.9913C117.28 71.453 118.222 70.8644 119.131 70.2277L127.368 81.3302L127.805 81.0161L119.546 69.9136C120.451 69.2666 121.318 68.5706 122.144 67.8287L131.738 77.8245L132.139 77.4604L122.538 67.4646C123.344 66.7099 124.109 65.9139 124.829 65.0799L135.627 73.8262L135.977 73.4121L125.179 64.6658C125.881 63.8202 126.536 62.9384 127.142 62.024L138.925 69.3781L139.216 68.9211L127.411 61.5742C128.001 60.6515 128.54 59.6981 129.024 58.7183L141.704 64.5587L141.938 64.0732L129.257 58.2327C129.726 57.2431 130.135 56.2275 130.483 55.1912L143.813 59.4322L143.988 58.9182L130.658 54.6771C130.993 53.6386 131.268 52.5826 131.483 51.5141L145.257 54.0845L145.36 53.5561L131.629 50.9786C131.821 49.9056 131.957 48.8237 132.037 47.7371L146.031 48.6011L146.067 48.0656L132.066 47.2017C132.066 46.659 132.081 46.1164 132.081 45.5666Z" fill="black"/>
<defs>
<linearGradient id="paint0_linear_1216_1578" x1="164" y1="37" x2="164" y2="304" gradientUnits="userSpaceOnUse">
<stop stop-color="#FF461E"/>
<stop offset="0.885417" stop-color="#FF3F33" stop-opacity="0"/>
<stop offset="0.9999" stop-color="#01FF2A" stop-opacity="0"/>
<stop offset="1" stop-opacity="0"/>
</linearGradient>
</defs>
</svg>
