<svg width="296" height="298" viewBox="0 0 296 298" fill="none" xmlns="http://www.w3.org/2000/svg">
<path fill-rule="evenodd" clip-rule="evenodd" d="M294.659 152.293L294.547 153.415L294.43 154.534L294.308 155.651L294.182 156.766L294.051 157.879L293.916 158.991L293.776 160.101L293.63 161.209L293.48 162.316L293.324 163.422L293.162 164.526L292.995 165.629L292.823 166.732L292.644 167.833L292.459 168.934L292.268 170.034L292.071 171.133L291.867 172.232L291.656 173.33L291.438 174.427L291.214 175.524L290.981 176.62L290.742 177.716L290.495 178.811L290.239 179.906L289.976 181L289.705 182.094L289.425 183.187L289.137 184.279L288.84 185.371L288.534 186.462L288.22 187.553L287.896 188.643L287.562 189.732L287.219 190.82L286.866 191.907L286.504 192.993L286.131 194.078L285.748 195.162L285.354 196.245L284.95 197.326L284.536 198.405L284.11 199.483L283.673 200.559L283.225 201.633L282.765 202.704L282.294 203.774L281.811 204.84L281.316 205.904L280.809 206.966L280.29 208.024L279.758 209.078L279.213 210.129L278.656 211.176L278.085 212.219L277.502 213.258L276.905 214.292L276.295 215.321L275.672 216.346L275.035 217.364L274.384 218.378L273.72 219.385L273.043 220.386L272.352 221.382L271.647 222.37L270.929 223.352L270.197 224.327L269.452 225.295L268.693 226.255L267.921 227.209L267.136 228.154L266.337 229.092L265.526 230.021L264.701 230.943L263.864 231.856L263.014 232.761L262.152 233.657L261.277 234.545L260.389 235.424L259.49 236.295L258.579 237.156L257.656 238.009L256.721 238.853L255.775 239.688L254.817 240.515L253.849 241.332L252.869 242.14L251.879 242.94L250.878 243.731L249.866 244.512L248.844 245.285L247.812 246.049L246.77 246.804L245.717 247.55L244.655 248.286L243.582 249.014L242.5 249.733L241.408 250.443L240.307 251.143L239.196 251.834L238.075 252.517L236.946 253.19L235.807 253.853L234.658 254.508L233.501 255.153L232.334 255.789L231.158 256.415L229.974 257.033L228.78 257.64L227.578 258.238L226.367 258.827L225.146 259.406L223.918 259.976L222.68 260.536L221.434 261.086L220.179 261.627L218.916 262.158L217.643 262.678L216.363 263.189L215.074 263.69L213.776 264.181L212.47 264.662L211.156 265.133L209.833 265.593L208.502 266.043L207.162 266.482L205.814 266.911L204.458 267.329L203.094 267.737L201.721 268.133L200.34 268.518L198.951 268.892L197.554 269.255L196.148 269.606L194.735 269.946L193.313 270.273L191.884 270.589L190.446 270.892L189.001 271.182L187.548 271.46L186.087 271.725L184.618 271.977L183.142 272.215L181.659 272.44L180.168 272.651L178.67 272.847L177.164 273.029L175.652 273.197L174.133 273.349L172.607 273.486L171.075 273.607L169.536 273.713L167.991 273.803L166.44 273.876L164.883 273.932L163.321 273.972L161.753 273.995L160.18 274L158.602 273.988L157.019 273.957L155.432 273.909L153.84 273.842L152.245 273.757L150.646 273.652L149.043 273.529L147.437 273.387L145.829 273.225L144.218 273.043L142.604 272.842L140.989 272.621L139.372 272.38L137.753 272.119L136.134 271.837L134.513 271.535L132.892 271.213L131.271 270.87L129.65 270.506L128.03 270.121L126.409 269.716L124.79 269.291L123.172 268.845L121.554 268.378L119.939 267.891L118.325 267.384L116.712 266.857L115.102 266.309L113.493 265.743L111.887 265.156L110.282 264.55L108.68 263.925L107.08 263.281L105.482 262.618L103.887 261.936L102.294 261.236L100.703 260.517L99.1137 259.781L97.5271 259.026L95.9425 258.254L94.3599 257.465L92.7793 256.657L91.2005 255.833L89.6235 254.991L88.0482 254.133L86.4745 253.257L84.9023 252.365L83.3316 251.455L81.7622 250.529L80.1941 249.586L78.6273 248.627L77.0617 247.65L75.4972 246.656L73.934 245.646L72.3719 244.618L70.8111 243.574L69.2516 242.511L67.6935 241.432L66.1369 240.335L64.582 239.22L63.0289 238.086L61.4779 236.935L59.9292 235.765L58.3831 234.576L56.8401 233.368L55.3004 232.141L53.7645 230.894L52.2328 229.627L50.7059 228.34L49.1844 227.032L47.6689 225.704L46.16 224.354L44.6585 222.982L43.1652 221.589L41.6807 220.174L40.2061 218.737L38.7422 217.276L37.2898 215.793L35.85 214.287L34.4237 212.758L33.0118 211.206L31.6154 209.63L30.2355 208.03L28.8732 206.407L27.5294 204.76L26.2054 203.09L24.902 201.396L23.6205 199.678L22.3619 197.937L21.1273 196.173L19.9179 194.387L18.7346 192.577L17.5785 190.745L16.4508 188.89L15.3525 187.014L14.2847 185.116L13.2483 183.198L12.2445 181.258L11.2741 179.299L10.3382 177.32L9.4377 175.323L8.5735 173.307L7.74649 171.273L6.95752 169.222L6.20741 167.155L5.49692 165.072L4.82681 162.975L4.19777 160.863L3.61046 158.738L3.06552 156.601L2.56353 154.452L2.10503 152.293L1.69053 150.124L1.32049 147.945L0.99531 145.759L0.715365 143.566L0.480971 141.366L0.292396 139.162L0.149864 136.953L0.053546 134.741L0.00356643 132.527L0 130.311L0.0428728 128.095L0.132163 125.88L0.267799 123.666L0.449665 121.455L0.677596 119.248L0.951384 117.044L1.27078 114.846L1.63547 112.654L2.04514 110.47L2.4994 108.293L2.99783 106.125L3.53998 103.967L4.12536 101.819L4.75346 99.6828L5.42371 97.5584L6.13555 95.4468L6.88835 93.3487L7.68149 91.2649L8.51432 89.1959L9.38615 87.1425L10.2963 85.1052L11.2441 83.0847L12.2287 81.0816L13.2495 79.0964L14.3058 77.1296L15.3967 75.1817L16.5215 73.2532L17.6795 71.3445L18.8699 69.4562L20.092 67.5886L21.3451 65.7421L22.6283 63.917L23.941 62.1139L25.2824 60.3329L26.6518 58.5745L28.0486 56.8389L29.472 55.1264L30.9214 53.4375L32.3961 51.7722L33.8955 50.1311L35.419 48.5142L36.966 46.922L38.5358 45.3546L40.128 43.8124L41.7418 42.2956L43.3768 40.8045L45.0324 39.3392L46.7079 37.9L48.4029 36.4872L50.1166 35.1008L51.8485 33.7411L53.5981 32.4082L55.3648 31.1024L57.1479 29.8237L58.947 28.5723L60.7614 27.3482L62.5905 26.1517L64.4338 24.9828L66.2907 23.8415L68.1606 22.728L70.043 21.6423L71.9373 20.5844L73.843 19.5544L75.7594 18.5523L77.686 17.5781L79.6222 16.6317L81.5676 15.7133L83.5215 14.8226L85.4834 13.9598L87.4528 13.1246L89.429 12.3171L91.4117 11.5372L93.4002 10.7847L95.3941 10.0595L97.3928 9.36154L99.3957 8.69064L101.403 8.04666L103.413 7.42944L105.425 6.83878L107.441 6.27451L109.458 5.73642L111.476 5.22432L113.495 4.73796L115.515 4.27713L117.535 3.84158L119.555 3.43107L121.573 3.04532L123.591 2.68409L125.606 2.34708L127.62 2.03402L129.632 1.74463L131.64 1.47861L133.646 1.23566L135.648 1.0155L137.647 0.8178L139.641 0.642275L141.631 0.488615L143.617 0.356518L145.597 0.245681L147.572 0.155802L149.542 0.0865852L151.506 0.0377368L153.465 0.00896913L155.417 0L157.363 0.0105543L159.302 0.0403648L161.235 0.0891726L163.161 0.156728L165.08 0.242793L166.992 0.347138L168.897 0.469546L170.794 0.609813L172.684 0.767746L174.566 0.943166L176.44 1.13591L178.307 1.34581L180.165 1.57275L182.016 1.81659L183.858 2.07723L185.692 2.35456L187.518 2.6485L189.335 2.95898L191.144 3.28595L192.944 3.62937L194.735 3.98918L196.517 4.36539L198.29 4.75798L200.055 5.16694L201.81 5.59229L203.556 6.03404L205.292 6.49221L207.018 6.96685L208.735 7.45797L210.442 7.96564L212.139 8.48989L213.826 9.03079L215.502 9.58842L217.168 10.1628L218.822 10.7541L220.466 11.3624L222.099 11.9877L223.72 12.6301L225.329 13.2897L226.926 13.9665L228.511 14.6608L230.084 15.3725L231.644 16.1016L233.19 16.8484L234.724 17.6127L236.243 18.3947L237.749 19.1943L239.24 20.0117L240.717 20.8467L242.178 21.6995L243.625 22.5698L245.056 23.4578L246.47 24.3633L247.869 25.2863L249.251 26.2266L250.616 27.1842L251.963 28.1589L253.293 29.1505L254.605 30.1588L255.899 31.1837L257.174 32.2249L258.43 33.2822L259.668 34.3553L260.885 35.444L262.083 36.5481L263.261 37.6672L264.419 38.8011L265.556 39.9495L266.672 41.1121L267.768 42.2886L268.842 43.4787L269.894 44.682L270.924 45.8982L271.933 47.1269L272.919 48.3677L273.883 49.6203L274.824 50.8842L275.743 52.159L276.639 53.4442L277.512 54.7394L278.362 56.0442L279.189 57.358L279.992 58.6805L280.773 60.011L281.531 61.349L282.265 62.6941L282.977 64.0458L283.665 65.4034L284.331 66.7665L284.975 68.1345L285.595 69.5069L286.194 70.8832L286.77 72.2628L287.324 73.6451L287.857 75.0297L288.369 76.4159L288.859 77.8034L289.329 79.1916L289.779 80.5799L290.209 81.9679L290.619 83.3551L291.01 84.7411L291.382 86.1254L291.736 87.5076L292.072 88.8872L292.391 90.2638L292.692 91.6372L292.977 93.0069L293.247 94.3726L293.5 95.7341L293.739 97.0909L293.963 98.4429L294.172 99.7899L294.368 101.131L294.551 102.468L294.721 103.798L294.878 105.123L295.024 106.442L295.157 107.754L295.279 109.061L295.391 110.361L295.492 111.656L295.582 112.944L295.663 114.225L295.734 115.501L295.796 116.77L295.849 118.032L295.894 119.289L295.93 120.539L295.959 121.783L295.98 123.02L295.993 124.252L296 125.478L296 126.697L295.993 127.911L295.98 129.119L295.961 130.322L295.937 131.519L295.906 132.71L295.871 133.897L295.829 135.078L295.783 136.254L295.732 137.426L295.676 138.592L295.616 139.755L295.55 140.913L295.481 142.067L295.406 143.217L295.328 144.363L295.245 145.505L295.158 146.644L295.067 147.78L294.971 148.912L294.871 150.042L294.767 151.169L294.659 152.293Z" fill="url(#paint0_linear_1216_1581)"/>
<path d="M244.025 134.044L263.315 130.459L263.485 133.712L244.419 136.998L244.75 139.504L261.346 136.675L262.062 139.994L245.197 142.841L244.392 142.973L242.137 143.239L225.236 145.189L182.425 144.384L148.659 100.551L171.724 89.082L193.716 126.899L220.351 128.193L232.313 125.795L242.719 113.945L245.85 114.526L236.993 124.915L241.296 124.492L260.819 121.472L261.436 124.368L243.086 127.098L243.327 128.882L262.501 126.152L263.458 128.849L243.73 131.903L244.025 134.044Z" fill="#FFCB39"/>
<path d="M143.04 32.8265C145.79 32.0671 148.752 32.352 151.275 33.6185C153.798 34.8849 155.676 37.0291 156.494 39.5794L157.847 43.7948L137.113 49.5207L135.76 45.3053C134.941 42.755 135.249 40.0075 136.614 37.6673C137.979 35.3271 140.291 33.5858 143.04 32.8265V32.8265Z" fill="#161730"/>
<path d="M241.001 165.18C239.212 164.06 237.279 163.006 235.337 162.044C235.06 161.894 234.783 161.761 234.496 161.629C234.022 161.396 233.548 161.172 233.065 160.956L232.421 160.658L232.251 160.591C231.553 160.276 230.846 159.986 230.13 159.703C228.949 159.222 227.742 158.766 226.552 158.351L225.791 158.093C223.398 157.291 220.957 156.615 218.481 156.069C218.222 156.002 217.954 155.936 217.685 155.886C216.11 155.543 214.515 155.266 212.898 155.056L212.308 154.965H212.129C211.905 154.923 211.673 154.907 211.44 154.874C208.211 154.463 204.956 154.258 201.697 154.259H200.927C198.139 154.286 195.355 154.461 192.589 154.782C190.352 155.056 188.115 155.413 185.977 155.869C185.208 156.027 184.465 156.201 183.704 156.376L181.727 156.89C180.144 157.322 178.596 157.795 177.066 158.317C175.867 158.724 174.686 159.147 173.487 159.629C168.871 161.477 164.477 163.772 160.38 166.475C159.351 167.147 158.349 167.853 157.365 168.575C156.04 169.543 154.758 170.555 153.517 171.612C151.817 173.064 150.18 174.591 148.632 176.176C147.836 177.006 147.067 177.836 146.324 178.666C146.118 178.898 145.912 179.13 145.716 179.371C145.676 179.404 145.643 179.444 145.617 179.487C145.474 179.645 145.34 179.803 145.206 179.977C133.695 193.753 128.51 211.186 130.776 228.488C133.043 245.79 142.578 261.563 157.311 272.382C158.295 273.096 159.297 273.801 160.326 274.482C164.197 277.032 168.333 279.218 172.673 281.004C172.747 281.044 172.825 281.078 172.905 281.104C178.984 283.591 185.413 285.268 191.998 286.083C199.271 287.001 206.652 286.875 213.883 285.71C214.437 285.627 214.992 285.527 215.538 285.419H215.726C220.426 284.545 225.019 283.229 229.432 281.494C229.719 281.378 230.005 281.27 230.327 281.145C242.089 276.366 252.243 268.732 259.72 259.05C267.198 249.367 271.722 237.994 272.816 226.127C273.911 214.26 271.535 202.338 265.939 191.619C260.343 180.899 251.734 171.777 241.019 165.214L241.001 165.18ZM239.623 272.548C235.478 275.166 231.031 277.345 226.364 279.046C225.898 279.22 225.469 279.386 224.959 279.536C222.582 280.361 220.153 281.051 217.685 281.602V281.602C216.2 281.942 214.688 282.224 213.167 282.432C209.361 283.046 205.506 283.354 201.643 283.353C197.579 283.364 193.521 283.036 189.52 282.374C183.734 281.404 178.111 279.73 172.798 277.395L172.691 277.345C169.446 275.922 166.331 274.257 163.377 272.366C162.348 271.718 161.346 271.029 160.362 270.332C153.036 265.129 146.934 258.592 142.429 251.123C137.924 243.654 135.111 235.41 134.164 226.896C133.216 218.383 134.154 209.78 136.919 201.615C139.684 193.45 144.218 185.895 150.243 179.413C150.252 179.388 150.272 179.367 150.296 179.355C150.292 179.338 150.292 179.321 150.296 179.305C150.523 179.061 150.756 178.821 150.994 178.583C151.263 178.284 151.549 178.002 151.835 177.753C152.122 177.504 152.238 177.346 152.435 177.147L153.508 176.126C154.493 175.205 155.495 174.326 156.541 173.471C157.749 172.467 158.993 171.504 160.281 170.599C160.285 170.59 160.291 170.581 160.298 170.574C160.306 170.567 160.316 170.561 160.326 170.558C160.523 170.409 160.729 170.268 160.934 170.126C161.722 169.579 162.527 169.039 163.341 168.525C170.816 163.757 179.251 160.438 188.142 158.766L188.867 158.641C191.032 158.251 193.242 157.961 195.479 157.77L197.268 157.654C198.539 157.562 199.809 157.529 201.097 157.529H201.804C204.592 157.536 207.377 157.702 210.143 158.027C210.366 158.027 210.599 158.077 210.832 158.118C211.27 158.168 211.726 158.218 212.138 158.293L212.442 158.342C212.809 158.342 213.176 158.442 213.543 158.508C213.909 158.575 214.196 158.608 214.527 158.683C216.922 159.107 219.288 159.662 221.613 160.342H221.729C225.231 161.345 228.637 162.616 231.911 164.143C232.17 164.251 232.421 164.375 232.671 164.5C234.461 165.33 236.25 166.284 237.941 167.305C238.275 167.493 238.606 167.692 238.934 167.902C240.375 168.732 241.779 169.712 243.139 170.699C251.623 176.783 258.429 184.646 263 193.643C267.57 202.641 269.775 212.516 269.431 222.457C269.088 232.398 266.207 242.121 261.026 250.829C255.844 259.537 248.509 266.98 239.623 272.548V272.548Z" fill="#15162F"/>
<path d="M237.932 252.606V255.926H170.731V231.13C170.731 230.756 170.731 230.374 170.731 230.009V179.429H107.575V72.0366H174.489L175.384 103.63L175.491 107.43L175.572 110.31L175.715 115.131L175.804 118.368L176.1 128.625L176.466 141.189L176.565 144.824V146.094L176.806 154.318L176.869 156.467V157.098V158.218L176.941 160.566L173.362 160.649V159.529L173.308 157.654V157.006L173.219 153.745V153.056V152.342V150.981V150.351L173.067 145.148V144.824L172.959 141.048L172.521 126.841L172.082 111.696L171.895 105.107L171.778 101.256L171.716 98.9989V98.169L171.062 75.3727H111.153V176.11H174.31V252.606H237.932Z" fill="#15162F"/>
<path d="M187.252 110.04L162.046 124.3L145.889 99.7301C143.958 96.7932 143.363 93.265 144.237 89.9217C145.11 86.5784 147.38 83.6938 150.546 81.9025L151.906 81.1333C155.072 79.342 158.876 78.7908 162.48 79.6009C166.085 80.4109 169.195 82.516 171.126 85.4529L187.283 110.023L187.252 110.04Z" fill="#FE4877"/>
<path d="M232.689 160.55V160.6L231.875 160.583L232.689 160.55Z" fill="#FFCB39"/>
<path d="M239.712 181.255L239.194 188.848L238.773 195.072V195.122L238.433 200.201L238.379 200.981L238.138 204.541L238.093 205.155L236.867 223.171L236.814 223.918L236.59 227.238L236.518 228.25L235.928 236.939L235.588 241.918L235.391 244.822V245.453L235.123 249.395L214.545 248.914L212.889 248.872V248.831V248.557L212.648 245.237L212.209 239.038L211.887 235.868L211.843 235.179L211.207 226.217L211.154 225.487L210.832 220.939L210.778 220.25L210.035 209.761L209.982 209.047L209.409 200.898L209.248 198.558L207.951 180.516L214.804 180.674H215.797L225.988 180.915H226.73L239.712 181.255Z" fill="#FFCB39"/>
<path d="M243.998 217.844C245.51 222.582 244.651 227.877 243.604 231.603C243.551 231.81 243.488 232.018 243.425 232.217C243.01 233.628 242.499 235.014 241.895 236.366L235.919 236.914L212.111 239.105L209.427 239.354C209.801 238.014 210.1 236.656 210.322 235.287C210.322 235.063 210.393 234.847 210.411 234.632C210.833 231.737 210.872 228.805 210.527 225.901V225.901C210.527 225.611 210.465 225.345 210.411 225.072C210.256 223.978 210.029 222.895 209.731 221.827C209.668 221.586 209.597 221.354 209.525 221.121C208.886 218.959 207.897 216.9 206.591 215.014C205.946 214.101 205.437 213.354 205.052 212.715L204.909 212.483C204.85 212.386 204.796 212.286 204.748 212.184C202.958 208.947 204.103 207.354 204.077 194.458C204.077 194.317 204.077 194.184 204.077 194.051V194.002C204.077 191.285 203.335 188.613 201.92 186.234C201.792 186.012 201.652 185.796 201.5 185.587C200.949 184.787 200.31 184.041 199.594 183.363L199.478 183.255C199.195 182.98 198.896 182.72 198.583 182.475L198.091 182.093L198.028 182.052C197.794 181.87 197.549 181.701 197.295 181.545C197.026 181.374 196.758 181.208 196.49 181.047C196.221 180.89 195.944 180.74 195.675 180.599L194.888 180.184L193.949 179.769L193.376 179.545C193.17 179.455 192.958 179.377 192.741 179.313C192.49 179.222 192.249 179.13 192.007 179.064C191.766 178.998 191.524 178.906 191.282 178.84L190.585 178.649C190.03 178.491 189.493 178.375 189.001 178.276L188.303 178.143C188.16 178.143 188.008 178.093 187.874 178.068L187.077 177.952L186.505 177.877H186.031H185.816H185.592H185.351C181.539 176.956 177.987 177.147 174.283 177.238C173.883 177.238 173.481 177.238 173.075 177.238C171.406 177.277 169.736 177.221 168.074 177.072C166.412 176.912 164.769 176.618 163.162 176.193C162.384 175.977 161.587 175.728 160.773 175.429L160.031 175.155C158.837 174.664 157.675 174.11 156.55 173.496C155.852 173.122 155.137 172.716 154.412 172.267C154.346 172.231 154.286 172.186 154.233 172.135C154.045 172.027 153.866 171.894 153.687 171.77L153.472 171.587C152.664 170.905 151.992 170.096 151.486 169.197C151.379 169.023 151.28 168.84 151.173 168.658L150.931 168.135C150.842 167.944 150.761 167.745 150.69 167.546C150.289 166.528 149.989 165.478 149.795 164.409C149.706 163.836 149.625 163.272 149.572 162.683C149.572 162.45 149.572 162.218 149.509 161.985C149.509 161.512 149.446 161.031 149.446 160.55C149.446 160.068 149.446 159.463 149.446 158.89V158.06C149.446 157.587 149.491 157.106 149.527 156.633C149.527 156.367 149.527 156.093 149.598 155.803C149.973 152.096 150.646 148.421 151.611 144.807C151.808 144.06 151.996 143.397 152.157 142.849C152.506 141.646 152.748 140.932 152.748 140.932C152.748 140.932 156.031 140.708 163.547 140.807C166.132 140.807 169.228 140.899 172.869 141.04C174.015 141.081 175.205 141.123 176.448 141.181L179.392 141.314C185.896 141.637 193.707 142.143 203.012 142.874C205.025 143.031 206.931 143.264 208.756 143.554C209.651 143.695 210.545 143.861 211.44 144.027H211.556L213.167 144.409C213.569 144.517 213.972 144.616 214.366 144.741L215.117 144.948C215.493 145.048 215.869 145.164 216.236 145.28L217.443 145.662L217.774 145.787C218.222 145.936 218.669 146.085 219.107 146.251L220.467 146.782C220.915 146.957 221.362 147.139 221.783 147.322C223.171 147.927 224.524 148.6 225.836 149.338C226.274 149.579 226.73 149.82 227.115 150.085C227.5 150.351 227.956 150.6 228.359 150.915C228.761 151.23 229.164 151.455 229.558 151.745L230.3 152.301C230.748 152.633 231.195 152.973 231.615 153.33C232.036 153.687 232.403 153.994 232.787 154.342C232.904 154.434 233.02 154.542 233.136 154.649L233.485 154.981C233.646 155.131 233.798 155.264 233.942 155.421C234.085 155.579 234.246 155.712 234.389 155.861C234.675 156.16 234.962 156.45 235.23 156.749L235.319 156.849C235.4 156.923 235.472 157.023 235.552 157.106C236.49 158.161 237.357 159.27 238.147 160.425C239.2 161.947 240.124 163.543 240.911 165.197C241.762 166.98 242.468 168.819 243.023 170.699C243.892 173.657 244.45 176.686 244.687 179.745C244.687 180.143 244.741 180.574 244.767 180.915C245.026 185.436 244.693 189.97 243.774 194.416C243.452 195.927 242.88 198.566 242.575 201.711C242.575 201.927 242.575 202.143 242.513 202.367C242.396 203.578 242.307 204.856 242.271 206.176C242.271 206.433 242.271 206.69 242.271 206.939C242.186 210.366 242.66 213.785 243.676 217.08C243.706 217.209 243.745 217.337 243.792 217.462C243.909 217.578 243.953 217.702 243.998 217.844Z" fill="#161730"/>
<path d="M270.588 283.087C268.155 285.809 259.628 288.631 253.589 287.494C252.516 287.295 251.469 287.12 250.44 286.971C244.467 286.134 238.415 285.881 232.385 286.216V286.216C230.542 286.288 228.752 286.371 227.017 286.465H226.373C224.037 286.573 221.783 286.647 219.555 286.614C219.231 286.609 218.907 286.579 218.589 286.523V286.523C217.529 286.363 216.526 285.97 215.663 285.378C215.438 285.233 215.228 285.069 215.037 284.888C214.227 284.209 213.612 283.353 213.247 282.399C213.208 282.309 213.175 282.218 213.149 282.125V282.075C212.969 281.554 212.87 281.012 212.854 280.465V276.507V273.096L212.764 255.868V252.548V245.221V245.121L235.794 241.91H235.838L235.695 245.096V245.436L235.382 252.557L235.239 255.876L234.577 271.179C234.577 271.179 236.67 271.71 239.874 272.498L244.347 273.61C248.302 274.59 252.963 275.743 257.329 276.797L264.657 278.581L268.307 279.411C268.567 279.467 268.824 279.536 269.076 279.619H269.166C269.712 279.775 270.224 280.019 270.678 280.341L270.794 280.432C271.51 281.278 271.394 282.175 270.588 283.087Z" fill="#FB9159"/>
<path d="M235.543 245.478L235.472 245.486L235.338 245.503L214.491 248.963H214.473L212.872 249.221L212.818 248.914L212.809 248.872L212.755 248.607L212.791 248.598L235.382 244.864H235.427L235.481 245.138V245.171L235.543 245.478Z" fill="black"/>
<path d="M218.127 251.44L217.457 251.472L218.45 269.108L219.12 269.075L218.127 251.44Z" fill="black"/>
<path d="M224.368 251.111L223.698 251.149L224.841 268.585L225.511 268.548L224.368 251.111Z" fill="black"/>
<path d="M230.614 268.714L229.629 250.698L230.3 250.665L231.285 268.689L230.614 268.714Z" fill="black"/>
<path d="M212.692 273.129C212.692 273.129 230.166 277.494 232.376 286.216C232.376 286.216 216.039 290.216 213.05 282.125L212.692 273.129Z" fill="#FFCB39"/>
<path d="M250.404 286.988C250.404 286.988 261.239 282.15 257.123 276.847L268.96 279.768C268.96 279.768 272.378 280.424 270.571 283.145C268.763 285.867 259.369 289.726 250.404 286.988Z" fill="#FFCB39"/>
<path d="M198.628 181.52L198.538 182.798L198.189 187.977L198.091 189.363L197.08 204.3L197.035 205.047L196.266 216.325L196.221 217.005L195.872 222.117L195.809 222.947L195.684 224.831L195.604 225.827L195.389 229.038L195.344 229.686V230.026L195.246 231.453L194.852 237.213L194.512 242.192L194.315 245.096L194.271 245.735L194.002 249.66L181.986 249.387L178.005 249.287L173.415 249.229H173.254H171.742V248.955L171.492 245.528L171.062 239.437L169.836 222.167L169.783 221.487L169.693 220.209L168.942 210.059L168.879 209.23L168.736 207.122L168.682 206.391L167.295 186.823L167.242 186.134L167.018 182.906V182.292L166.911 180.815L169.711 180.881H171.205L173.29 180.931L175.795 180.989L191.059 181.346H191.756L195.953 181.437H196.999L198.628 181.52Z" fill="#FFCB39"/>
<path d="M202.77 217.711C205.41 225.246 201.804 234.383 200.981 236.308C200.883 236.549 200.82 236.673 200.82 236.673L199.979 236.748L194.834 237.213L186.782 237.935L182.935 238.283L173.272 239.154L171.053 239.354L169.693 239.478L168.378 239.594C169.201 236.663 169.642 233.652 169.693 230.623C169.693 230.253 169.693 229.879 169.693 229.503C169.667 227.181 169.367 224.869 168.799 222.607C168.745 222.391 168.691 222.175 168.629 221.968C167.993 219.585 166.942 217.314 165.515 215.246C165.247 214.873 165.005 214.524 164.782 214.2L164.388 213.62C162.598 210.873 162.536 209.777 162.724 205.445C162.724 205.055 162.724 204.616 162.777 204.192C162.876 201.935 162.992 198.906 162.983 194.657C162.984 193.699 162.91 192.742 162.76 191.794V191.794C162.697 191.437 162.634 191.08 162.545 190.74C162.052 188.44 160.954 186.288 159.351 184.475L158.894 183.993C158.715 183.811 158.537 183.637 158.349 183.462C156.489 181.781 154.275 180.476 151.844 179.628C151.612 179.534 151.379 179.451 151.146 179.379C150.636 179.213 150.144 179.064 149.67 178.94L149.357 178.857H149.285C148.793 178.732 148.328 178.624 147.881 178.533C147.015 178.359 146.14 178.226 145.259 178.135C144.633 178.068 144.266 178.06 144.266 178.06C141.986 177.545 139.643 177.305 137.296 177.346H135.856C130.89 177.438 125.826 177.869 119.671 175.62C117.552 174.836 115.525 173.851 113.623 172.682L113.327 172.508C111.946 171.63 110.848 170.419 110.151 169.006C108.541 165.936 108.192 161.795 108.433 157.645C108.496 156.508 108.612 155.363 108.756 154.251C109.085 151.741 109.551 149.249 110.151 146.782C110.366 145.894 110.581 145.081 110.769 144.376C111.296 142.459 111.663 141.272 111.663 141.272C111.663 141.272 122.865 140.492 151.146 142.409C154.501 142.633 158.089 142.899 161.936 143.239C162.706 143.297 163.457 143.372 164.2 143.455C166.253 143.673 168.293 143.992 170.311 144.409H170.418C170.949 144.509 171.468 144.616 171.975 144.733C173.227 145.015 174.426 145.33 175.554 145.679C181.516 147.317 186.976 150.241 191.488 154.21C192.379 155.021 193.224 155.874 194.02 156.766V156.766L194.45 157.247L194.575 157.396C200.507 164.035 202.842 171.902 203.576 178.699L203.656 179.529C204.054 184.163 203.841 188.826 203.021 193.412V193.462C202.914 193.993 202.824 194.375 202.77 194.632C202.055 198.026 200.256 207.014 201.992 214.914C202.081 215.337 202.189 215.744 202.305 216.167C202.439 216.698 202.6 217.213 202.77 217.711Z" fill="#FE4877"/>
<path d="M131.749 70.4267C131.306 70.5464 130.87 70.6877 130.443 70.8499C121.925 74.0449 117.479 87.1484 114.983 95.9699C113.569 100.949 110.688 142.442 110.688 142.442H179.49C181.36 148.525 174.927 110.285 174.48 108.484C170.901 94.1276 164.459 75.6299 150.565 71.074C145.483 69.4309 137.252 68.8914 131.749 70.4267Z" fill="#161730"/>
<path d="M158.546 50.2029C159.888 50.2029 162.795 58.3771 162.795 58.3771L158.42 58.3273L158.546 50.2029Z" fill="#FF534A"/>
<path d="M159.1 46.3109L158.903 59.4642C158.866 61.7724 157.842 63.9723 156.057 65.5811C154.272 67.1899 151.872 68.076 149.384 68.045L148.838 68.1114V69.7213C148.838 71.0242 148.793 72.3188 148.775 73.6217C148.775 74.4515 149.106 75.4225 148.561 76.1693C147.962 76.8182 147.191 77.3103 146.324 77.5967C144.024 78.493 138.943 78.4266 138.987 75.0656L139.157 64.1114L138.791 56.7672C138.09 56.131 137.675 55.2719 137.63 54.3632C137.585 53.4545 137.914 52.5639 138.549 51.871L138.254 46.0619L159.1 46.3109Z" fill="#FFCB39"/>
<path d="M142.709 54.1863C142.99 54.7425 143.078 55.366 142.96 55.9705L142.298 55.8875C142.374 55.5891 142.375 55.2785 142.302 54.9794C142.229 54.6803 142.084 54.4005 141.877 54.1614C141.664 53.9899 141.415 53.8615 141.145 53.7844C140.875 53.7072 140.592 53.683 140.311 53.7133L140.24 53.0909C140.939 53.0317 141.636 53.2216 142.19 53.622C142.348 53.2868 142.374 52.9106 142.262 52.5597C142.243 52.5057 142.213 52.4558 142.173 52.4129C142.133 52.3701 142.084 52.3354 142.029 52.3108L142.253 51.7216C142.391 51.7746 142.517 51.8524 142.623 51.9507C142.729 52.049 142.813 52.1657 142.87 52.2942C142.981 52.6035 143.025 52.9304 142.997 53.2554C142.969 53.5805 142.871 53.897 142.709 54.1863V54.1863Z" fill="#0C0604"/>
<path d="M152.274 51.1158C152.302 51.0736 152.335 51.0346 152.372 50.9996C152.565 50.8581 152.798 50.7716 153.043 50.7507C154.099 50.5598 156.81 49.9872 157.177 51.4311C157.472 52.5929 155.727 52.3938 154.806 52.344C153.884 52.2942 151.621 52.1697 152.274 51.1158Z" fill="white"/>
<path d="M155.45 50.4768C155.45 50.4768 154.367 51.149 155.45 52.3772C155.45 52.3772 157.535 52.6925 157.239 51.4394C157.197 51.2633 157.116 51.0972 157.002 50.9516C156.887 50.8061 156.741 50.6842 156.572 50.5937C156.404 50.5032 156.218 50.4461 156.024 50.4259C155.831 50.4058 155.636 50.4231 155.45 50.4768V50.4768Z" fill="#0C0604"/>
<path d="M151.468 50.7258C151.468 50.7258 157.194 50.178 157.203 49.8959C157.212 49.6137 157.561 48.3441 156.55 48.3275C155.539 48.3109 150.466 49.8129 150.797 50.1283C151.128 50.4436 150.797 50.4187 151.468 50.7258Z" fill="#161730"/>
<path d="M157.15 62.5181C156.75 62.5296 156.352 62.4519 155.991 62.2917C155.63 62.1314 155.316 61.8932 155.074 61.5969L155.611 61.2152C156.586 62.4185 158.295 61.6716 158.394 61.6384L158.68 62.1944C158.202 62.406 157.679 62.5165 157.15 62.5181Z" fill="#161730"/>
<path d="M229.916 282.747C229.808 282.941 229.679 283.125 229.531 283.295L229.486 283.361C228.308 284.512 226.877 285.415 225.29 286.008V286.008C224.691 286.257 224.047 286.498 223.384 286.706H223.322C219.913 287.818 215.851 288.365 212.505 287.768C211.476 287.569 210.474 287.394 209.481 287.27H209.4C203.412 286.43 197.346 286.174 191.301 286.506V286.506C186.729 286.689 182.515 287.004 178.417 286.938C178.09 286.931 177.764 286.904 177.442 286.855C176.198 286.659 175.037 286.146 174.089 285.374C173.142 284.602 172.444 283.6 172.074 282.482V282.415C171.894 281.894 171.794 281.352 171.778 280.805V280.523V276.863V273.428L171.725 263.76V258.59V255.436L171.671 245.478L173.46 245.229L180.833 244.2L184.93 243.627L194.7 242.266H194.754L194.611 245.453V245.744L194.334 252.092L194.19 255.411L193.269 271.469C193.269 271.469 202.413 273.743 211.691 276.025H211.798C213.221 276.365 214.634 276.714 216.03 277.063L223.939 278.98L226.981 279.702L227.706 279.901H227.795C228.282 280.046 228.743 280.255 229.164 280.523L229.415 280.697L229.468 280.755C229.811 280.965 230.051 281.293 230.134 281.666C230.218 282.039 230.14 282.428 229.916 282.747V282.747Z" fill="#6562BE"/>
<path d="M194.459 245.744L194.387 245.752L194.244 245.777L182.873 247.661L178.524 248.382L173.407 249.229L173.246 249.254L171.787 249.495L171.734 249.187L171.725 249.146L171.671 248.88L171.707 248.872L173.246 248.623L178.891 247.685L183.212 246.972L194.289 245.138L194.343 245.129L194.396 245.412V245.436L194.459 245.744Z" fill="black"/>
<path d="M177.042 251.717L176.372 251.75L177.364 269.377L178.034 269.345L177.042 251.717Z" fill="black"/>
<path d="M183.278 251.374L182.608 251.412L183.752 268.848L184.421 268.811L183.278 251.374Z" fill="black"/>
<path d="M189.52 268.988L188.544 250.963L189.215 250.938L190.191 268.955L189.52 268.988Z" fill="black"/>
<path d="M171.626 273.419C171.626 273.419 189.099 277.785 191.309 286.506C191.309 286.506 174.972 290.498 171.984 282.415L171.626 273.419Z" fill="#FE4877"/>
<path d="M209.319 287.237C209.319 287.237 220.154 282.39 216.03 277.096L227.866 279.967C227.866 279.967 231.293 280.631 229.486 283.353C227.679 286.075 218.284 290.025 209.319 287.237Z" fill="#FE4877"/>
<path d="M259.798 99.7789L244.821 107.463L241.752 109.04L241.699 109.057V109.065L189.028 131.953L137.86 106.468L153.088 86.7252L190.826 111.638L226.677 95.4719L232.286 81.0987L235.436 80.6921L230.774 93.2064L234.684 91.4969L252.041 82.6672L253.661 85.2148L237.306 93.4056L238.164 95.0072L255.298 86.5758L257.168 88.8248L239.623 97.7541L240.661 99.6794L257.597 90.3849L258.913 93.4056L242.083 102.343L243.282 104.6L257.946 96.8578L259.798 99.7789Z" fill="#FFCB39"/>
<path d="M166.984 92.4311L151.168 115.556L124.967 100.139C121.835 98.2966 119.621 95.3753 118.811 92.0183C118.002 88.6612 118.663 85.1433 120.65 82.2384L121.503 80.9911C123.494 78.0958 126.642 76.0512 130.257 75.3057C133.871 74.5603 137.656 75.1748 140.783 77.0145L166.984 92.4311Z" fill="#FE4877"/>
<path d="M247.577 115.065L247.523 115.09L247.577 115.065Z" fill="#FFCB39"/>
<path d="M143.989 51.0494V57.2734L146.306 56.8999V51.4311L149.402 50.6096L150.019 48.6428L143.989 51.0494Z" fill="#161730"/>
<path d="M157.893 40.2334L135.65 46.3761C133.807 46.8849 132.759 48.6825 133.307 50.3912L133.381 50.6219C133.93 52.3306 135.868 53.3034 137.71 52.7947L159.953 46.652C161.796 46.1432 162.844 44.3456 162.296 42.6369L162.222 42.4062C161.673 40.6975 159.735 39.7247 157.893 40.2334Z" fill="#FE4877"/>
<path d="M158.536 58.7339L152.166 61.1322H160.612L158.536 58.7339Z" fill="#161730"/>
<path d="M134.066 86.7999C135.366 86.7999 136.419 85.8227 136.419 84.6174C136.419 83.412 135.366 82.4348 134.066 82.4348C132.767 82.4348 131.713 83.412 131.713 84.6174C131.713 85.8227 132.767 86.7999 134.066 86.7999Z" fill="#FFCB39"/>
<path d="M143.192 100.924C144.699 100.924 145.921 99.791 145.921 98.3931C145.921 96.9952 144.699 95.862 143.192 95.862C141.685 95.862 140.463 96.9952 140.463 98.3931C140.463 99.791 141.685 100.924 143.192 100.924Z" fill="#FFCB39"/>
<path d="M149.097 90.5011C149.532 90.5011 149.885 90.1741 149.885 89.7708C149.885 89.3675 149.532 89.0405 149.097 89.0405C148.663 89.0405 148.31 89.3675 148.31 89.7708C148.31 90.1741 148.663 90.5011 149.097 90.5011Z" fill="#FFCB39"/>
<path d="M125.728 94.2355C126.568 94.2355 127.249 93.6038 127.249 92.8247C127.249 92.0456 126.568 91.4139 125.728 91.4139C124.888 91.4139 124.207 92.0456 124.207 92.8247C124.207 93.6038 124.888 94.2355 125.728 94.2355Z" fill="#FFCB39"/>
<path d="M139.846 45.2103L136.064 46.2546L137.19 49.7621L140.971 48.7178L139.846 45.2103Z" fill="#FFCB39"/>
<path d="M150.699 111.92C151.292 111.92 151.773 111.474 151.773 110.924C151.773 110.374 151.292 109.928 150.699 109.928C150.106 109.928 149.625 110.374 149.625 110.924C149.625 111.474 150.106 111.92 150.699 111.92Z" fill="#161730"/>
<path d="M157.177 98.4014C158.323 98.4014 159.252 97.5394 159.252 96.4761C159.252 95.4128 158.323 94.5508 157.177 94.5508C156.03 94.5508 155.101 95.4128 155.101 96.4761C155.101 97.5394 156.03 98.4014 157.177 98.4014Z" fill="#161730"/>
<path d="M132.724 99.6379C133.466 99.6379 134.066 99.0806 134.066 98.3931C134.066 97.7056 133.466 97.1483 132.724 97.1483C131.983 97.1483 131.382 97.7056 131.382 98.3931C131.382 99.0806 131.983 99.6379 132.724 99.6379Z" fill="#161730"/>
<path d="M139.103 92.1691C139.82 92.1691 140.401 91.6304 140.401 90.9658C140.401 90.3012 139.82 89.7625 139.103 89.7625C138.387 89.7625 137.806 90.3012 137.806 90.9658C137.806 91.6304 138.387 92.1691 139.103 92.1691Z" fill="#161730"/>
<path d="M123.232 84.4016C123.775 84.4016 124.216 83.9929 124.216 83.4887C124.216 82.9846 123.775 82.5759 123.232 82.5759C122.688 82.5759 122.248 82.9846 122.248 83.4887C122.248 83.9929 122.688 84.4016 123.232 84.4016Z" fill="#161730"/>
<path d="M144.544 85.0738C144.944 85.0738 145.268 84.7728 145.268 84.4016C145.268 84.0304 144.944 83.7294 144.544 83.7294C144.143 83.7294 143.819 84.0304 143.819 84.4016C143.819 84.7728 144.143 85.0738 144.544 85.0738Z" fill="#161730"/>
<path d="M190.862 171.637C189.484 170.185 187.354 169.214 184.483 168.741C186.047 167.285 187.236 165.52 187.963 163.579C188.858 161.264 188.786 159.43 187.838 158.118C187.675 157.892 187.486 157.684 187.274 157.496C185.948 156.483 184.302 155.9 182.586 155.836C180.358 155.654 178.115 155.715 175.902 156.019C174.73 156.16 173.531 156.342 172.324 156.558C166.742 157.628 161.255 159.081 155.906 160.907L154.224 160.359C160.08 158.356 165.763 155.943 171.223 153.139L172.18 152.608C173.058 152.14 173.877 151.583 174.623 150.948C174.766 150.807 175.231 150.359 174.981 149.961C174.73 149.562 174.292 149.43 172.109 149.869L171.339 150.035C170.293 150.276 169.237 150.5 168.181 150.708C166.061 151.156 163.931 151.537 161.856 151.952C155.172 153.222 150.6 154.152 148.569 155.33C148.243 155.443 147.96 155.642 147.754 155.902C147.547 156.162 147.427 156.472 147.408 156.794C147.389 157.117 147.472 157.437 147.647 157.717C147.821 157.996 148.08 158.222 148.39 158.367C149.561 159.166 150.847 159.808 152.211 160.276C151.584 160.483 150.949 160.683 150.323 160.873L148.462 161.429C147.379 161.745 146.306 162.035 145.241 162.309C138.262 164.077 131.883 164.799 128.573 163.189C128.287 163.048 128.009 162.907 127.741 162.757C129.602 161.355 131.427 159.919 133.046 158.558C134.174 157.612 135.203 156.691 136.079 155.836C138.137 153.811 139.345 152.135 138.996 151.189C138.754 150.533 137.949 150.235 136.536 150.309C131.588 150.55 127.195 151.969 124.708 153.969C123.696 154.693 122.967 155.704 122.632 156.849C122.605 156.944 122.587 157.041 122.578 157.139C122.346 158.608 122.981 160.658 126.578 162.832C122.185 166.102 117.255 169.471 113.077 172.226L113.273 172.483L113.461 172.732L113.569 172.658C115.108 171.653 121.299 167.579 127.177 163.18C127.517 163.363 127.875 163.554 128.26 163.745C131.991 165.579 138.907 164.716 146.297 162.749C147.039 162.558 147.782 162.342 148.525 162.127C149.419 161.869 150.314 161.595 151.209 161.297C151.889 161.089 152.551 160.865 153.222 160.641C153.991 160.915 154.841 161.197 155.772 161.471H155.879H155.995C161.315 159.673 166.765 158.228 172.306 157.147C173.505 156.932 174.703 156.741 175.884 156.6C177.436 156.386 179.004 156.28 180.573 156.284C183.257 156.284 185.502 156.757 186.773 157.903C186.88 158.002 186.979 158.102 187.077 158.21C188.061 159.371 188.133 161.089 187.292 163.338C186.547 165.339 185.285 167.14 183.615 168.583C179.803 168.096 174.823 168.389 168.673 169.463C167.518 169.632 166.385 169.91 165.291 170.292C164.164 170.716 163.591 171.214 163.6 171.761C163.6 172.84 165.694 173.313 166.92 173.496C167.648 173.605 168.383 173.666 169.121 173.678C173.335 173.811 179.481 172.799 183.811 169.23C186.791 169.653 188.983 170.575 190.325 171.994C191.828 173.587 192.284 175.844 191.712 178.732C191.658 178.992 191.595 179.269 191.524 179.562C191.39 180.093 191.22 180.657 191.014 181.222C191.014 181.222 191.014 181.288 191.014 181.313C188.697 187.711 185.225 186.848 180.438 185.661L178.882 185.28C177.329 184.892 175.737 184.658 174.131 184.583C173.845 184.583 173.549 184.583 173.236 184.583H172.762C171.897 183.745 170.834 183.106 169.657 182.715C168.794 182.427 167.89 182.259 166.973 182.218C166.121 182.171 165.266 182.21 164.423 182.334C162.491 182.578 160.616 183.119 158.876 183.935L159.333 184.417C160.967 183.674 162.719 183.179 164.522 182.948C165.347 182.83 166.184 182.791 167.018 182.832C167.937 182.871 168.844 183.048 169.702 183.354C170.525 183.662 171.283 184.103 171.939 184.657C171.18 184.742 170.431 184.892 169.702 185.105C168.861 185.346 168.049 185.666 167.277 186.06L167.125 186.134C165.14 187.183 163.548 188.77 162.562 190.682V190.682C162.652 191.022 162.715 191.379 162.777 191.736C163.654 189.651 165.257 187.899 167.331 186.757L167.447 186.69C168.165 186.318 168.92 186.013 169.702 185.778C170.62 185.49 171.573 185.309 172.538 185.238C172.81 185.528 173.058 185.836 173.281 186.159C173.433 186.375 173.567 186.591 173.692 186.807C175.741 190.425 175.428 195.769 173.281 200.35C172.433 202.204 171.25 203.911 169.783 205.396L169.702 205.47C169.402 205.774 169.072 206.052 168.718 206.3C168.3 206.652 167.793 206.9 167.244 207.022C166.695 207.144 166.122 207.135 165.578 206.997C164.935 206.719 164.359 206.326 163.881 205.84C163.404 205.355 163.034 204.786 162.795 204.167C162.795 204.616 162.795 204.997 162.741 205.421C163.317 206.403 164.244 207.169 165.363 207.586C165.711 207.698 166.077 207.754 166.445 207.752C167.281 207.733 168.091 207.481 168.772 207.03C169.09 206.83 169.389 206.605 169.666 206.358C169.854 206.201 170.042 206.026 170.239 205.835C171.442 204.627 172.454 203.266 173.245 201.794C176.01 196.815 176.564 190.616 174.247 186.525C173.991 186.061 173.692 185.62 173.352 185.205C173.77 185.184 174.188 185.184 174.605 185.205C176.228 185.341 177.834 185.619 179.401 186.035L180.295 186.251C182.747 186.856 185.019 187.421 186.997 186.873C188.394 186.463 189.569 185.572 190.28 184.383C190.885 183.45 191.369 182.452 191.721 181.413V181.33C191.909 180.807 192.07 180.292 192.195 179.803C192.266 179.529 192.338 179.255 192.392 178.973C193.036 175.886 192.535 173.413 190.862 171.637ZM127.168 162.425C124.314 160.766 122.981 158.965 123.285 157.189C123.281 157.123 123.281 157.056 123.285 156.99C123.666 155.79 124.489 154.753 125.611 154.06C128.036 152.401 132.053 151.156 136.571 150.94H136.929C137.565 150.94 138.227 151.04 138.37 151.413C138.647 152.176 137.475 153.712 135.373 155.687C134.478 156.517 133.431 157.446 132.259 158.417C130.756 159.678 129.02 161.039 127.168 162.425ZM153.204 159.936C150.386 158.907 149.026 158.118 148.453 157.529C148.323 157.449 148.218 157.34 148.148 157.211C148.078 157.082 148.046 156.938 148.054 156.794C148.062 156.65 148.111 156.51 148.195 156.389C148.279 156.267 148.396 156.169 148.534 156.102C150.144 154.799 155.942 153.695 162.026 152.542C164.164 152.135 166.347 151.712 168.53 151.255L171.536 150.608L172.163 150.475C172.787 150.33 173.425 150.243 174.068 150.218C174.175 150.209 174.283 150.209 174.39 150.218C173.777 150.877 173.033 151.421 172.198 151.82C171.661 152.135 171.017 152.492 170.257 152.89C169.299 153.38 168.154 153.944 166.803 154.55C162.381 156.587 157.841 158.396 153.204 159.969V159.936ZM168.467 173.056C167.966 173.056 167.492 172.973 167.072 172.906C165.05 172.608 164.316 172.077 164.307 171.778C164.298 171.479 164.692 171.18 165.891 170.774C166.85 170.467 167.835 170.231 168.834 170.068C172.397 169.402 176.018 169.041 179.651 168.99C180.754 168.984 181.856 169.037 182.953 169.147C178.551 172.541 172.404 173.346 168.467 173.089V173.056Z" fill="white"/>
<path d="M199.12 229.777C202.225 228.416 202.431 223.37 202.44 223.138V222.814H202.091C201.894 222.814 197.894 222.814 195.667 224.773C195.336 225.064 195.05 225.396 194.817 225.76C194.32 226.592 194.123 227.548 194.253 228.491C193.652 228.162 193.075 227.796 192.526 227.395C191.966 227.002 191.437 226.572 190.943 226.109C192.636 225.139 194.256 224.063 195.792 222.889C199.004 220.441 201.491 217.91 202.216 216.391C202.249 216.324 202.276 216.255 202.296 216.184V216.184C202.394 216.016 202.441 215.828 202.431 215.637C202.422 215.447 202.357 215.263 202.243 215.105C202.172 215.029 202.083 214.969 201.983 214.931C201.572 214.795 201.124 214.795 200.713 214.931C199.193 215.296 197.699 215.748 196.239 216.283C193.671 217.221 190.817 218.607 189.404 220.433C189.008 220.927 188.728 221.492 188.581 222.092C188.38 223.105 188.604 224.15 189.207 225.014C189.412 225.348 189.648 225.664 189.914 225.96L189.073 226.399C187.857 227.027 186.588 227.563 185.279 228.001C184.032 228.415 182.727 228.661 181.405 228.731C178.247 228.823 176.037 228.242 174.597 226.955C174.01 226.427 173.545 225.795 173.228 225.097C172.662 223.803 172.33 222.432 172.243 221.038L173.228 220.582C178.256 218.167 182.935 215.205 183.374 212.433C183.513 211.797 183.453 211.137 183.199 210.532C182.945 209.927 182.509 209.403 181.942 209.022C180.278 207.935 177.531 207.943 175.259 209.022C174.493 209.385 173.805 209.874 173.228 210.466C171.974 211.758 171.31 213.451 171.376 215.188V215.902C171.376 217.561 171.376 219.163 171.537 220.64C170.937 220.914 170.338 221.18 169.747 221.47H169.658L168.602 221.91C168.665 222.117 168.718 222.333 168.772 222.549L169.667 222.175L169.81 222.109L171.599 221.279C171.693 223.066 172.252 224.806 173.228 226.35C173.486 226.713 173.786 227.05 174.122 227.354C175.697 228.756 178.086 229.387 181.414 229.296C182.692 229.235 183.955 229.006 185.163 228.615C186.481 228.196 187.759 227.674 188.983 227.055C189.44 226.839 189.878 226.599 190.334 226.358C190.89 226.886 191.488 227.374 192.124 227.818C192.839 228.336 193.599 228.796 194.396 229.196C194.583 229.944 194.859 230.671 195.219 231.362C195.398 231.719 195.613 232.092 195.846 232.474C196.056 233.45 196.552 234.354 197.28 235.086C198.007 235.818 198.938 236.35 199.97 236.623L200.811 236.549C200.811 236.549 200.874 236.424 200.972 236.183C199.872 236.074 198.84 235.635 198.033 234.932C197.225 234.23 196.687 233.303 196.499 232.291L196.454 232.184C195.998 231.458 195.618 230.694 195.318 229.901C195.264 229.769 195.219 229.636 195.175 229.503L195.345 229.561C195.922 229.843 196.557 230.008 197.207 230.045C197.858 230.082 198.51 229.991 199.12 229.777V229.777ZM172.065 215.951V215.238C172.024 213.911 172.437 212.607 173.246 211.512C173.851 210.717 174.656 210.071 175.59 209.628C176.607 209.136 177.735 208.874 178.882 208.864C179.833 208.837 180.769 209.081 181.566 209.561C182.034 209.875 182.393 210.308 182.599 210.808C182.806 211.307 182.851 211.852 182.729 212.375C182.336 214.864 178.005 217.603 173.246 219.902L172.199 220.4C172.1 219.014 172.082 217.528 172.065 215.951ZM189.314 223.677C189.176 223.212 189.158 222.723 189.261 222.25C189.297 222.099 189.342 221.949 189.395 221.802C190.146 219.86 192.974 218.2 196.212 216.972C197.736 216.401 199.3 215.924 200.892 215.545C201.081 215.493 201.276 215.466 201.473 215.462C201.567 215.453 201.662 215.474 201.742 215.52C201.742 215.52 201.804 215.752 201.607 216.159C200.945 217.536 198.744 219.827 195.864 222.084C194.171 223.402 192.377 224.603 190.495 225.677C189.948 225.1 189.545 224.417 189.314 223.677V223.677ZM194.987 228.864C194.766 227.923 194.915 226.94 195.407 226.092C195.461 225.997 195.527 225.908 195.604 225.827C197.089 223.868 200.614 223.528 201.742 223.47C201.643 224.59 201.151 228.2 198.834 229.221C198.279 229.42 197.684 229.507 197.09 229.476C196.496 229.444 195.916 229.295 195.389 229.038L194.987 228.864Z" fill="white"/>
<path d="M203.575 178.707L203.244 178.624C202.551 180.838 201.612 182.979 200.444 185.014C199.82 186.11 199.096 187.154 198.279 188.134L198.189 187.977C197.684 187.06 197.085 186.19 196.4 185.379C195.031 183.72 192.893 183.346 190.558 184.267C190.441 184.31 190.327 184.36 190.218 184.417C188.927 184.995 187.802 185.848 186.934 186.906C186.15 187.771 185.755 188.882 185.834 190.01C185.986 191.022 186.791 192.309 189.788 192.682C193.197 193.097 195.944 191.553 198.064 189.363L198.118 189.313C199.961 193.163 200.847 198.06 199.469 201.412C199.031 202.588 198.18 203.593 197.053 204.267V204.267C196.361 204.664 195.592 204.931 194.79 205.055C193.642 205.278 192.484 205.447 191.318 205.562V205.562C191.47 204.657 190.987 203.678 186.961 202.665C186.424 202.533 185.828 202.4 185.172 202.267C184.481 202.126 183.776 202.059 183.069 202.068C179.785 202.068 176.403 203.603 173.227 205.736C171.98 206.586 170.785 207.5 169.649 208.474C169.38 208.698 169.121 208.931 168.861 209.163C167.288 210.576 165.794 212.063 164.388 213.62L164.781 214.2C166.016 212.864 167.465 211.42 168.96 210.051L169.684 209.412C170.82 208.408 172.015 207.464 173.263 206.582C176.502 204.308 179.973 202.682 183.284 202.715C183.885 202.719 184.485 202.781 185.073 202.898C185.905 203.064 186.612 203.23 187.22 203.396C190.907 204.367 190.799 205.172 190.71 205.495C190.678 205.589 190.673 205.688 190.695 205.784C190.717 205.88 190.765 205.969 190.835 206.043C191.121 206.308 191.515 206.275 194.986 205.694C195.717 205.579 196.424 205.358 197.08 205.039C198.526 204.306 199.629 203.103 200.176 201.661C201.643 198.085 200.668 192.848 198.673 188.823C199.52 187.844 200.271 186.797 200.918 185.695C202.066 183.744 203.001 181.693 203.71 179.57V179.57C203.844 179.155 203.924 178.89 203.942 178.815L203.575 178.707ZM189.904 192.068C187.865 191.819 186.693 191.08 186.531 189.935C186.281 188.217 188.321 185.836 190.844 184.84C191.513 184.567 192.234 184.42 192.964 184.408C193.535 184.402 194.099 184.522 194.61 184.759C195.12 184.995 195.562 185.342 195.899 185.769C196.647 186.666 197.289 187.634 197.814 188.657C195.783 190.873 193.152 192.466 189.904 192.068Z" fill="white"/>
<path d="M134.728 175.604L134.639 175.521C132.787 173.612 132.035 172.201 132.393 171.371C132.966 169.985 136.303 169.662 140.159 169.288C143.318 168.981 146.896 168.641 149.885 167.629C150.272 167.482 150.674 167.368 151.084 167.288C150.794 167.593 150.473 167.87 150.126 168.118C148.104 169.72 143.541 172.674 138.835 175.587L136.527 177.014C135.869 176.612 135.265 176.139 134.728 175.604V175.604ZM159.878 173.944C159.61 174.143 159.312 174.342 158.984 174.541C158.372 174.918 157.738 175.264 157.087 175.579C155.314 176.438 153.457 177.138 151.54 177.67C151.54 177.512 151.54 177.355 151.468 177.197C151.397 177.039 151.415 176.799 151.397 176.599C151.37 176.26 151.37 175.918 151.397 175.579C151.413 174.078 152.054 172.642 153.186 171.57C153.782 171.022 154.495 170.595 155.28 170.317C156.075 170.028 156.922 169.879 157.776 169.877C158.271 169.876 158.764 169.934 159.243 170.052H159.377C160.223 170.241 160.972 170.695 161.498 171.338C161.587 171.454 161.634 171.594 161.632 171.736C161.641 172.35 161.015 173.131 159.878 173.969V173.944ZM162.053 171.056C161.519 170.38 160.767 169.88 159.905 169.628C159.368 169.446 158.804 169.339 158.232 169.313C157.145 169.255 156.058 169.42 155.047 169.794C154.147 170.117 153.33 170.612 152.649 171.247C151.431 172.428 150.74 173.994 150.717 175.628C150.692 176.183 150.722 176.739 150.806 177.288C150.806 177.288 150.806 177.338 150.806 177.363L150.887 177.927C150.583 178.01 150.269 178.085 149.992 178.151C149.303 178.309 148.596 178.45 147.889 178.558C148.337 178.649 148.784 178.757 149.294 178.881H149.366C149.92 178.774 150.475 178.649 151.021 178.508C151.021 178.666 151.021 178.815 151.092 178.964C151.164 179.114 151.092 179.263 151.155 179.404C151.388 179.476 151.62 179.559 151.853 179.653C151.853 179.429 151.79 179.197 151.764 178.964C151.737 178.732 151.701 178.55 151.665 178.342C154.049 177.701 156.341 176.795 158.492 175.645C158.929 175.411 159.353 175.156 159.762 174.882C159.959 174.757 160.147 174.624 160.317 174.5C161.187 173.964 161.864 173.198 162.258 172.301C162.332 172.093 162.352 171.872 162.317 171.655C162.281 171.439 162.19 171.234 162.053 171.056V171.056ZM151.844 166.907C151.638 166.525 151.066 166.558 149.652 167.048C146.545 167.946 143.335 168.503 140.088 168.707C135.847 169.114 132.492 169.438 131.767 171.197C131.329 172.276 131.982 173.687 133.825 175.686L134.138 176.018C134.648 176.54 135.218 177.007 135.838 177.413H137.278C138.173 176.873 139.068 176.301 140.034 175.703C140.577 175.371 141.123 175.031 141.671 174.682C146.503 171.628 149.079 169.836 150.448 168.757C152.104 167.346 151.942 167.073 151.844 166.907V166.907Z" fill="white"/>
<path d="M226.73 180.956C225.526 177.722 223.781 174.684 221.559 171.952C222.194 171.778 222.856 171.612 223.563 171.446L223.402 170.84C222.606 171.023 221.854 171.214 221.139 171.421C218.347 167.894 215.099 164.782 212.693 163.703C211.985 163.443 211.379 162.991 210.953 162.406C210.527 161.821 210.301 161.131 210.304 160.425C210.781 160.291 211.25 160.133 211.709 159.952C211.968 159.853 212.218 159.761 212.469 159.645H212.541C213.221 159.363 213.892 159.023 214.536 158.683C215.911 157.927 217.205 157.052 218.401 156.069C220.052 154.806 221.384 153.223 222.302 151.43C222.47 151.155 222.555 150.843 222.547 150.528C222.539 150.212 222.439 149.904 222.257 149.637C222.002 149.426 221.691 149.282 221.356 149.219C221.021 149.156 220.674 149.177 220.351 149.28C217.81 149.728 214.482 151.986 212.21 154.724L212.048 154.915C211.87 155.139 211.691 155.363 211.53 155.596C210.972 156.355 210.509 157.17 210.152 158.027C209.934 158.549 209.778 159.092 209.686 159.645C209.686 159.645 209.686 159.695 209.686 159.712V159.977C209.099 160.129 208.501 160.242 207.897 160.317C205.446 160.658 203.683 160.234 202.654 159.064C202.488 158.878 202.344 158.674 202.225 158.459C202.044 158.167 201.906 157.854 201.813 157.529C201.499 156.448 201.402 155.323 201.527 154.21C201.643 152.828 201.892 151.459 202.269 150.118C205.41 150.65 208.407 150.907 210.366 150.517C210.914 150.438 211.436 150.248 211.896 149.961L212.093 149.82C212.482 149.529 212.759 149.129 212.88 148.679C213.001 148.23 212.96 147.756 212.764 147.33C212.507 146.771 212.119 146.272 211.628 145.87C210.85 145.216 209.937 144.717 208.944 144.401C208.158 144.124 207.323 143.989 206.483 144.002C205.667 143.972 204.863 144.19 204.193 144.623C203.523 145.056 203.023 145.68 202.77 146.401C202.404 147.347 202.055 148.359 201.751 149.388C197.359 148.547 193.025 147.469 188.768 146.16L188.554 146.741C192.837 148.047 197.198 149.119 201.616 149.952C201.218 151.329 200.96 152.738 200.847 154.16C200.74 155.273 200.831 156.394 201.115 157.479C201.194 157.749 201.296 158.013 201.419 158.268C201.597 158.676 201.841 159.057 202.144 159.396C203.334 160.749 205.302 161.239 208.004 160.882C208.556 160.805 209.103 160.699 209.642 160.566C209.671 161.358 209.946 162.125 210.435 162.775C210.925 163.424 211.606 163.928 212.397 164.226C214.75 165.28 217.766 168.251 220.45 171.604C215.976 173.014 213.462 174.981 213.292 177.272C213.28 177.9 213.409 178.524 213.671 179.104C213.933 179.684 214.322 180.208 214.813 180.641C216.263 182.101 218.732 183.471 222.096 184.674C222.948 185.007 223.856 185.201 224.78 185.247C225.207 185.288 225.637 185.202 226.008 185.002C226.38 184.802 226.673 184.499 226.847 184.135C227.184 183.092 227.143 181.975 226.73 180.956V180.956ZM203.468 146.592C203.679 145.992 204.096 145.474 204.655 145.115C205.215 144.757 205.885 144.579 206.564 144.608C207.548 144.615 208.519 144.817 209.412 145.202C210.304 145.587 211.096 146.146 211.735 146.84C211.922 147.05 212.073 147.285 212.183 147.538C212.32 147.809 212.365 148.114 212.313 148.41C212.26 148.706 212.112 148.981 211.887 149.197L211.691 149.38C211.282 149.683 210.794 149.881 210.277 149.952C208.488 150.301 205.616 150.052 202.484 149.521C202.77 148.409 203.119 147.421 203.433 146.592H203.468ZM210.885 158.093C211.128 157.516 211.428 156.96 211.78 156.434C211.941 156.176 212.129 155.919 212.317 155.662L212.863 154.998C215.028 152.425 218.177 150.268 220.521 149.853C220.717 149.825 220.914 149.809 221.112 149.803C221.234 149.792 221.358 149.805 221.475 149.841C221.592 149.877 221.7 149.934 221.792 150.011C221.971 150.21 221.953 150.625 221.72 151.172C220.747 152.989 219.358 154.587 217.649 155.853C216.404 156.86 215.045 157.739 213.596 158.475C213.256 158.649 212.898 158.807 212.541 158.973C212.48 158.984 212.422 159.007 212.371 159.039C211.744 159.305 211.102 159.537 210.447 159.737H210.393C210.473 159.174 210.626 158.622 210.85 158.093H210.885ZM226.301 183.91C225.881 184.832 224.556 184.906 222.364 184.118C219.98 183.359 217.766 182.2 215.833 180.699C215.277 180.309 214.823 179.808 214.504 179.234C214.185 178.659 214.01 178.025 213.99 177.379C214.124 175.355 216.603 173.521 220.879 172.201C223.037 174.882 224.77 177.836 226.024 180.973C226.452 181.9 226.537 182.933 226.265 183.91H226.301Z" fill="white"/>
<path d="M236.581 227.246C236.044 226.453 235.577 225.62 235.185 224.756C235.74 224.499 236.277 224.217 236.805 223.926C239.622 222.381 242.061 220.306 243.962 217.835C243.962 217.694 243.873 217.57 243.828 217.437C243.781 217.312 243.742 217.184 243.712 217.055C241.923 219.537 239.572 221.627 236.823 223.18C236.196 223.553 235.552 223.893 234.89 224.217C232.546 218.906 231.884 212.001 232.644 208.018C232.741 207.343 233.059 206.712 233.555 206.21C234.051 205.708 234.701 205.36 235.418 205.213C235.878 205.109 236.349 205.056 236.823 205.055C237.234 205.059 237.644 205.095 238.048 205.163C239.599 205.42 241.06 206.021 242.307 206.914C242.307 206.665 242.307 206.408 242.307 206.151C241.045 205.333 239.602 204.786 238.084 204.549C237.141 204.387 236.172 204.41 235.239 204.616C234.397 204.796 233.633 205.21 233.052 205.803C232.47 206.396 232.097 207.14 231.982 207.935C231.195 212.001 231.884 219.072 234.291 224.532C230.595 226.217 226.574 227.199 222.463 227.42C221.022 220.142 215.833 219.512 214.258 219.503H214.178C212.977 219.5 211.792 219.765 210.724 220.275C210.267 220.496 209.845 220.775 209.472 221.105C209.543 221.337 209.615 221.57 209.677 221.81C209.986 221.473 210.359 221.192 210.778 220.98C211.811 220.427 212.985 220.141 214.178 220.151H214.249C218.052 220.151 220.843 222.914 221.783 227.47C218.722 227.566 215.67 227.129 212.782 226.184C212.205 226.001 211.648 225.767 211.118 225.487C210.861 225.352 210.613 225.202 210.375 225.038C210.429 225.321 210.465 225.586 210.492 225.868C210.708 225.994 210.932 226.107 211.163 226.209C211.609 226.418 212.069 226.6 212.54 226.756C215.547 227.731 218.727 228.162 221.908 228.026C222.552 231.901 221.962 234.449 220.119 235.594C217.927 236.988 214.339 236.117 211.762 235.171C211.243 234.98 210.76 234.781 210.34 234.598C210.34 234.814 210.286 235.03 210.25 235.254C210.715 235.453 211.243 235.661 211.807 235.86C213.513 236.514 215.33 236.882 217.175 236.947C218.35 236.991 219.511 236.702 220.503 236.117C222.534 234.831 223.187 232.101 222.552 228.001C226.717 227.772 230.79 226.773 234.532 225.063C235.054 226.185 235.696 227.255 236.447 228.258C236.826 228.767 237.248 229.247 237.708 229.694C239.167 231.181 241.198 232.076 243.363 232.184C243.425 231.984 243.488 231.777 243.542 231.569C242.524 231.533 241.523 231.308 240.601 230.905C239.679 230.503 238.853 229.933 238.174 229.229C237.573 228.619 237.04 227.954 236.581 227.246V227.246Z" fill="white"/>
<path d="M240.768 201.935C239.807 201.638 238.943 201.121 238.254 200.433C237.731 199.94 237.246 199.413 236.804 198.856C237.271 198.133 237.692 197.384 238.066 196.616C238.268 196.205 238.444 195.784 238.594 195.354V195.354C239.347 193.352 239.493 191.196 239.014 189.122V189.122C238.585 187.225 237.597 185.476 236.16 184.068C234.729 182.699 233.136 182.11 232.027 182.541C231.383 182.782 230.631 183.454 230.658 185.247C230.712 188.931 232.993 195.006 236.026 198.931C234.046 201.948 230.973 204.214 227.356 205.321C224.02 206.274 220.449 206.26 217.121 205.279C221.505 202.126 225.352 198.69 225.173 196.458C225.12 196.021 224.929 195.608 224.623 195.271C224.317 194.934 223.911 194.689 223.456 194.566C218.087 192.491 211.1 194.84 209.337 198.143C209.224 198.342 209.137 198.554 209.078 198.773V198.773C208.803 199.543 208.861 200.382 209.239 201.114V201.114C209.931 202.348 211.023 203.349 212.361 203.977C213.42 204.549 214.531 205.035 215.681 205.429C213.739 206.79 211.69 208.101 209.811 209.263C207.763 210.524 205.911 211.603 204.56 212.35L204.739 212.632L204.882 212.864C205.141 212.723 207.181 211.595 209.865 209.943C211.851 208.732 214.195 207.238 216.45 205.653C220.04 206.792 223.926 206.85 227.553 205.819C231.233 204.697 234.375 202.42 236.438 199.379C236.967 200.034 237.566 200.637 238.227 201.18C238.905 201.782 239.722 202.234 240.616 202.499C241.202 202.647 241.819 202.647 242.405 202.499C242.405 202.275 242.45 202.06 242.468 201.844C241.925 202.037 241.331 202.069 240.768 201.935V201.935ZM216.307 204.981C215.063 204.579 213.864 204.064 212.728 203.445C209.981 201.96 208.988 200.126 209.955 198.358C211.162 196.101 215.036 194.334 219.009 194.334C220.45 194.323 221.879 194.577 223.214 195.08C224.046 195.404 224.476 195.844 224.52 196.441C224.637 198.441 220.834 201.761 216.307 204.981ZM236.375 198.342C233.566 194.516 231.383 188.674 231.338 185.222C231.338 184.392 231.481 183.404 232.286 183.097C232.458 183.037 232.64 183.006 232.823 183.006C233.943 183.149 234.964 183.676 235.686 184.483C238.057 186.749 239.945 191.23 237.476 196.4C237.151 197.053 236.783 197.688 236.375 198.3V198.342ZM226.417 160.699C228.275 161.286 230.177 161.746 232.107 162.077C232 162.807 231.857 163.587 231.705 164.375C231.705 164.45 231.705 164.533 231.705 164.616C231.669 164.664 231.636 164.714 231.606 164.766C231.328 165.299 231.229 165.897 231.32 166.483C231.32 166.541 231.32 166.608 231.275 166.666C230.175 171.927 229.03 177.371 232.116 178.284C234.326 178.964 236.59 177.911 237.932 175.579C238.397 175.886 238.871 176.176 239.372 176.408C241.524 177.568 243.36 179.169 244.74 181.089C244.74 180.707 244.74 180.317 244.66 179.919C243.319 178.282 241.644 176.906 239.73 175.869C239.225 175.599 238.736 175.306 238.263 174.989C238.263 174.906 238.334 174.823 238.379 174.74C239.376 172.646 239.523 170.288 238.791 168.102C238.265 166.591 237.13 165.327 235.623 164.575C234.12 163.819 233.145 163.786 232.519 164.002C232.635 163.371 232.743 162.766 232.823 162.176L233.423 162.301L235.131 162.641L235.221 162.259L235.275 162.027L234.38 161.844L233.566 161.687L232.904 161.562C232.904 161.429 232.904 161.305 232.904 161.172C232.904 161.039 232.904 160.898 232.904 160.766C233.061 159.695 232.954 158.605 232.59 157.579C232.566 157.521 232.536 157.466 232.501 157.413C232.381 157.197 232.221 157.003 232.027 156.84C231.392 156.326 230.452 156.276 229.226 156.674C227.915 157.044 226.668 157.586 225.522 158.284C225.003 158.641 224.771 158.998 224.798 159.355C224.86 159.878 225.388 160.268 226.417 160.658V160.699ZM232.286 177.695C229.987 176.989 230.729 172.425 231.642 168.01C232.767 170.866 234.751 173.363 237.359 175.205C236.33 176.956 234.559 178.384 232.286 177.695ZM235.257 165.131C236.334 165.664 237.204 166.497 237.744 167.512C238.277 168.617 238.553 169.813 238.553 171.023C238.553 172.233 238.277 173.429 237.744 174.533L237.69 174.633C234.111 172.06 232.242 168.616 231.991 166.5C232.107 165.944 232.224 165.396 232.331 164.84C232.384 164.784 232.444 164.734 232.51 164.691C233.199 164.234 234.487 164.732 235.257 165.122V165.131ZM226.31 158.55C227.318 158.03 228.379 157.602 229.477 157.272C229.868 157.131 230.283 157.052 230.703 157.039C231.028 157.028 231.347 157.129 231.597 157.322C231.643 157.356 231.685 157.395 231.723 157.438C232.277 158.027 232.376 159.247 232.242 160.757C232.246 160.782 232.246 160.807 232.242 160.832L232.188 161.38C231.239 161.189 230.309 160.998 229.504 160.807H229.459L228.994 160.699C227.034 160.226 225.612 159.753 225.576 159.288C225.487 159.197 225.594 158.94 226.31 158.542V158.55Z" fill="white"/>
<path d="M187.167 203.421C187.104 203.188 187.042 202.939 186.961 202.715C185.267 196.887 182.717 191.302 179.383 186.118C179.213 185.861 179.052 185.603 178.882 185.354C177.898 183.869 176.86 182.433 175.751 181.031C174.954 180.002 174.113 178.998 173.245 178.018C172.852 177.57 172.449 177.13 172.038 176.691L171.044 175.645C170.427 175.014 169.801 174.384 169.157 173.778L168.468 173.131C167.627 172.35 166.768 171.595 165.891 170.848L165.327 170.384C164.352 169.554 163.341 168.799 162.312 168.043C161.283 167.288 160.326 166.616 159.297 165.944C156.731 164.242 154.041 162.709 151.245 161.355C150.95 161.205 150.645 161.048 150.35 160.923C149.715 160.608 149.071 160.326 148.426 160.044C144.47 158.304 140.345 156.915 136.107 155.894C135.874 155.827 135.638 155.772 135.4 155.728C132.192 154.972 128.93 154.432 125.639 154.11C125.343 154.11 125.039 154.044 124.744 154.027C122.525 153.828 120.27 153.728 117.998 153.728C115.37 153.727 112.745 153.86 110.133 154.127L108.738 154.284C108.004 154.367 107.279 154.467 106.555 154.583C95.9419 156.184 85.8556 159.986 77.0479 165.706C68.2402 171.426 60.9383 178.917 55.6867 187.619C50.435 196.321 47.3692 206.011 46.7177 215.966C46.0662 225.921 47.8459 235.883 51.9241 245.111C56.0023 254.339 62.2737 262.593 70.2708 269.26C78.2678 275.926 87.7842 280.832 98.1103 283.611C108.436 286.391 119.306 286.972 129.908 285.313C140.51 283.653 150.571 279.794 159.342 274.025C160.371 273.345 161.373 272.639 162.357 271.926C165.689 269.471 168.781 266.75 171.599 263.793C173.437 261.86 175.152 259.829 176.735 257.71C176.941 257.445 177.146 257.162 177.352 256.88C177.692 256.424 178.023 255.951 178.354 255.47C179.1 254.363 179.807 253.257 180.475 252.15C181.011 251.27 181.521 250.382 182.005 249.478C182.315 248.897 182.613 248.308 182.899 247.71C183.016 247.478 183.132 247.254 183.239 247.022C183.776 245.901 184.286 244.781 184.742 243.644C185.521 241.793 186.192 239.91 186.782 237.984C187.859 234.453 188.613 230.844 189.037 227.196L189.117 226.482L189.252 225.097C189.252 224.64 189.314 224.184 189.341 223.727C189.341 223.105 189.413 222.482 189.422 221.843C189.422 221.395 189.422 220.947 189.422 220.499C189.422 220.333 189.422 220.151 189.422 219.993C189.427 214.403 188.67 208.834 187.167 203.421ZM185.297 228.084L185.19 228.756C184.699 231.98 183.937 235.162 182.908 238.275C182.256 240.272 181.491 242.236 180.618 244.158C180.081 245.353 179.505 246.526 178.891 247.677L178.524 248.374C178.345 248.69 178.166 249.005 177.978 249.32C177.525 250.134 177.042 250.938 176.529 251.735C176.479 251.812 176.426 251.887 176.368 251.959V251.959C176.353 252.002 176.328 252.041 176.296 252.075C175.581 253.204 174.811 254.308 174.015 255.395C173.219 256.482 172.387 257.528 171.528 258.548C167.98 262.769 163.87 266.555 159.297 269.818C158.313 270.515 157.311 271.204 156.282 271.851C147.913 277.17 138.365 280.68 128.34 282.123C118.315 283.567 108.069 282.907 98.3556 280.191C88.6422 277.476 79.709 272.775 72.2136 266.434C64.7181 260.093 58.8512 252.273 55.0448 243.551C51.2384 234.829 49.5893 225.425 50.219 216.034C50.8487 206.642 53.741 197.501 58.6832 189.283C63.6254 181.066 70.4916 173.981 78.7763 168.55C87.061 163.119 96.5534 159.481 106.555 157.903C107.172 157.803 107.789 157.712 108.416 157.637C109.042 157.562 109.561 157.479 110.133 157.43C112.744 157.146 115.37 157.004 117.998 157.006C119.546 157.006 121.085 157.048 122.614 157.156L123.285 157.197C126.303 157.414 129.301 157.822 132.259 158.417C132.519 158.467 132.787 158.508 133.047 158.575C137.231 159.462 141.314 160.718 145.241 162.326C145.599 162.458 145.948 162.616 146.297 162.766C147.129 163.114 147.943 163.479 148.749 163.869C151.342 165.1 153.846 166.486 156.246 168.019C156.908 168.434 157.552 168.848 158.197 169.297L159.261 170.052C159.295 170.069 159.325 170.092 159.351 170.118C160.12 170.666 160.872 171.222 161.605 171.778L162.196 172.259C163.538 173.321 164.835 174.442 166.079 175.579C166.392 175.869 166.696 176.16 166.974 176.458C167.797 177.288 168.584 178.068 169.353 178.898L169.604 179.172C170.114 179.72 170.615 180.276 171.098 180.832C171.823 181.662 172.512 182.491 173.183 183.388C173.478 183.769 173.773 184.159 174.077 184.566C174.23 184.782 174.391 184.989 174.534 185.205C178.242 190.385 181.097 196.049 183.007 202.01C183.078 202.217 183.141 202.425 183.212 202.632C185.725 210.87 186.416 219.493 185.243 227.984L185.297 228.084Z" fill="#15162F"/>
<path d="M150.019 60.3937C151.877 60.3937 153.383 58.9967 153.383 57.2734C153.383 55.5501 151.877 54.1531 150.019 54.1531C148.161 54.1531 146.655 55.5501 146.655 57.2734C146.655 58.9967 148.161 60.3937 150.019 60.3937Z" fill="#FF534A"/>
<defs>
<linearGradient id="paint0_linear_1216_1581" x1="148" y1="0" x2="148" y2="274" gradientUnits="userSpaceOnUse">
<stop stop-color="#FF461E"/>
<stop offset="0.885417" stop-color="#FF3F33" stop-opacity="0"/>
<stop offset="0.9999" stop-color="#01FF2A" stop-opacity="0"/>
<stop offset="1" stop-opacity="0"/>
</linearGradient>
</defs>
</svg>
