<svg width="375" height="349" viewBox="0 0 375 349" fill="none" xmlns="http://www.w3.org/2000/svg">
<path fill-rule="evenodd" clip-rule="evenodd" d="M347.667 161.399L347.791 163.46L347.834 165.529L347.796 167.605L347.68 169.684L347.487 171.764L347.219 173.842L346.878 175.916L346.467 177.983L345.989 180.042L345.449 182.089L344.849 184.123L344.194 186.142L343.488 188.144L342.736 190.128L341.942 192.092L341.112 194.036L340.249 195.959L339.359 197.86L338.447 199.738L337.517 201.595L336.574 203.43L335.623 205.243L334.669 207.036L333.714 208.809L332.764 210.563L331.821 212.299L330.89 214.019L329.973 215.724L329.073 217.417L328.192 219.098L327.331 220.769L326.492 222.433L325.677 224.091L324.884 225.745L324.115 227.396L323.368 229.046L322.643 230.697L321.939 232.35L321.253 234.006L320.585 235.666L319.932 237.332L319.291 239.003L318.66 240.681L318.037 242.366L317.418 244.057L316.8 245.755L316.18 247.46L315.555 249.17L314.92 250.885L314.273 252.604L313.61 254.326L312.927 256.048L312.221 257.77L311.489 259.489L310.728 261.203L309.933 262.911L309.104 264.608L308.235 266.294L307.326 267.964L306.374 269.617L305.377 271.249L304.333 272.858L303.24 274.44L302.097 275.993L300.904 277.513L299.66 278.998L298.364 280.444L297.017 281.85L295.618 283.212L294.17 284.529L292.671 285.797L291.125 287.015L289.531 288.18L287.893 289.292L286.211 290.348L284.489 291.348L282.729 292.291L280.933 293.176L279.104 294.003L277.246 294.773L275.361 295.486L273.453 296.142L271.525 296.743L269.58 297.29L267.621 297.786L265.653 298.231L263.677 298.628L261.697 298.98L259.716 299.29L257.737 299.56L255.762 299.794L253.794 299.994L251.835 300.164L249.887 300.307L247.951 300.426L246.029 300.526L244.123 300.609L242.233 300.678L240.36 300.737L238.504 300.788L236.666 300.834L234.846 300.878L233.043 300.922L231.257 300.967L229.487 301.016L227.733 301.069L225.993 301.127L224.267 301.192L222.553 301.263L220.85 301.341L219.157 301.426L217.473 301.517L215.797 301.614L214.126 301.716L212.462 301.823L210.801 301.932L209.144 302.042L207.489 302.153L205.836 302.262L204.184 302.367L202.532 302.467L200.879 302.559L199.226 302.64L197.573 302.71L195.919 302.764L194.264 302.802L192.61 302.82L190.955 302.815L189.302 302.787L187.649 302.732L186 302.648L184.353 302.534L182.712 302.386L181.075 302.204L179.446 301.986L177.825 301.729L176.214 301.434L174.615 301.099L173.028 300.722L171.455 300.304L169.898 299.844L168.358 299.342L166.836 298.798L165.335 298.212L163.854 297.585L162.396 296.917L160.961 296.211L159.55 295.468L158.164 294.689L156.801 293.877L155.464 293.036L154.15 292.167L152.86 291.274L151.592 290.361L150.345 289.43L149.117 288.486L147.908 287.532L146.714 286.571L145.533 285.608L144.362 284.645L143.199 283.687L142.041 282.735L140.885 281.794L139.727 280.866L138.563 279.954L137.39 279.06L136.206 278.186L135.005 277.333L133.785 276.504L132.542 275.699L131.272 274.919L129.973 274.164L128.642 273.434L127.276 272.728L125.871 272.046L124.426 271.387L122.939 270.749L121.409 270.13L119.833 269.528L118.211 268.941L116.542 268.365L114.826 267.799L113.063 267.24L111.253 266.683L109.396 266.127L107.494 265.567L105.548 265.001L103.56 264.425L101.53 263.835L99.463 263.228L97.36 262.6L95.2243 261.948L93.059 261.27L90.8677 260.56L88.654 259.817L86.4218 259.038L84.1755 258.218L81.9192 257.357L79.6575 256.451L77.395 255.498L75.1365 254.496L72.8869 253.443L70.651 252.337L68.4337 251.178L66.24 249.964L64.0749 248.693L61.9431 247.367L59.8495 245.983L57.7987 244.543L55.7953 243.046L53.8438 241.493L51.9482 239.884L50.1128 238.22L48.3413 236.503L46.6373 234.733L45.0042 232.913L43.4451 231.044L41.9627 229.127L40.5595 227.165L39.2378 225.161L37.9995 223.116L36.8461 221.032L35.7789 218.913L34.7989 216.761L33.9069 214.578L33.1031 212.367L32.3878 210.131L31.7606 207.872L31.2213 205.594L30.7691 203.298L30.4031 200.988L30.1222 198.665L29.9249 196.332L29.8098 193.992L29.7751 191.647L29.8189 189.299L29.9394 186.951L30.1343 184.603L30.4014 182.258L30.7386 179.917L31.1435 177.583L31.6138 175.257L32.1471 172.94L32.7413 170.633L33.394 168.338L34.1031 166.056L34.8665 163.787L35.6824 161.533L36.5487 159.294L37.4638 157.072L38.4258 154.867L39.4327 152.679L40.4827 150.51L41.5738 148.359L42.7038 146.226L43.8707 144.113L45.0725 142.019L46.307 139.943L47.5722 137.887L48.866 135.849L50.1865 133.829L51.5314 131.826L52.899 129.841L54.2873 127.872L55.6945 125.919L57.1188 123.98L58.5587 122.055L60.0124 120.143L61.4786 118.243L62.956 116.353L64.4433 114.473L65.9396 112.602L67.4438 110.737L68.9553 108.879L70.4734 107.025L71.9976 105.175L73.5278 103.328L75.0637 101.482L76.6055 99.6367L78.1533 97.7912L79.7076 95.9447L81.2688 94.0964L82.8377 92.2458L84.415 90.3925L86.0018 88.5362L87.5993 86.6767L89.2085 84.8143L90.831 82.949L92.4682 81.0816L94.1219 79.2127L95.7941 77.3439L97.4868 75.4766L99.2023 73.6129L100.943 71.7553L102.711 69.9064L104.509 68.0692L106.338 66.2472L108.202 64.444L110.101 62.6634L112.039 60.9097L114.016 59.1871L116.034 57.5001L118.094 55.8535L120.197 54.2518L122.343 52.6999L124.534 51.2026L126.769 49.7648L129.047 48.391L131.368 47.086L133.732 45.8541L136.136 44.6998L138.579 43.627L141.059 42.6395L143.574 41.7408L146.122 40.934L148.699 40.2218L151.302 39.6065L153.928 39.0899L156.575 38.6733L159.237 38.3576L161.911 38.1429L164.593 38.0293L167.28 38.0161L169.968 38.1026L172.653 38.2874L175.33 38.569L177.997 38.9453L180.649 39.414L183.284 39.9724L185.898 40.6175L188.487 41.3461L191.049 42.1544L193.581 43.0388L196.081 43.995L198.545 45.0187L200.973 46.1055L203.362 47.2507L205.711 48.4495L208.019 49.697L210.284 50.9882L212.506 52.3181L214.684 53.6817L216.819 55.0739L218.91 56.4899L220.959 57.9246L222.965 59.3733L224.93 60.8313L226.855 62.2942L228.741 63.7575L230.589 65.2173L232.403 66.6694L234.182 68.1105L235.931 69.5369L237.65 70.9457L239.343 72.3341L241.011 73.6995L242.658 75.0397L244.285 76.3529L245.895 77.6376L247.491 78.8925L249.075 80.1167L250.649 81.3093L252.217 82.4699L253.78 83.5981L255.341 84.694L256.902 85.7578L258.466 86.7898L260.034 87.7909L261.608 88.7619L263.191 89.704L264.783 90.6186L266.386 91.5072L268.002 92.3716L269.632 93.2138L271.276 94.0359L272.936 94.8401L274.611 95.6288L276.302 96.4046L278.009 97.1699L279.731 97.9276L281.47 98.6802L283.223 99.4305L284.991 100.181L286.772 100.935L288.566 101.695L290.371 102.463L292.186 103.242L294.009 104.034L295.839 104.842L297.675 105.668L299.515 106.513L301.357 107.38L303.2 108.271L305.041 109.186L306.88 110.128L308.713 111.099L310.539 112.1L312.354 113.133L314.157 114.198L315.945 115.299L317.714 116.435L319.462 117.608L321.187 118.819L322.884 120.07L324.55 121.36L326.183 122.691L327.78 124.062L329.336 125.475L330.849 126.929L332.315 128.425L333.732 129.962L335.096 131.539L336.404 133.158L337.653 134.815L338.841 136.512L339.964 138.246L341.02 140.017L342.006 141.823L342.921 143.662L343.763 145.533L344.528 147.434L345.217 149.363L345.827 151.318L346.357 153.296L346.806 155.296L347.175 157.315L347.462 159.35L347.667 161.399Z" fill="url(#paint0_linear_1216_1574)"/>
<path d="M251.22 147.154L263.372 144.861L263.163 147.376L251.661 149.757L252.02 151.814L262.58 150.34L263.178 152.928L252.498 154.528L251.085 154.742L250.524 154.815L240.009 156.128L182.797 169.474C177.711 170.211 172.417 165.485 170.973 158.841C169.612 152.589 172.14 146.904 176.664 145.569C176.959 145.484 177.259 145.417 177.562 145.37L237.167 139.921L243.053 138.778L248.968 128.883L251.018 129.561L246.014 138.232L261.144 136.5L261.735 139.088L249.993 140.024L250.434 142.598L262.699 141.248L263.223 142.811L250.741 144.588L251.22 147.154Z" fill="#FFCB39"/>
<path d="M255.482 135.054L251.033 133.819L197.941 319.67L202.39 320.905L255.482 135.054Z" fill="#161730"/>
<path d="M191.996 85.7555L191.502 97.7669C191.459 98.8113 191.207 99.8371 190.762 100.786C190.316 101.734 189.685 102.587 188.905 103.295C188.125 104.003 187.212 104.552 186.216 104.912C185.221 105.272 184.163 105.435 183.104 105.391L182.632 105.443C182.632 105.929 182.595 106.423 182.573 106.917C182.52 108.105 182.475 109.292 182.423 110.479C182.423 111.216 182.662 112.13 182.176 112.809C181.642 113.386 180.964 113.815 180.209 114.055C178.22 114.792 173.852 114.615 173.972 111.577L174.391 101.631L174.069 85.0698L191.996 85.7555Z" fill="#FFCB39"/>
<path d="M191.412 89.3022C192.572 89.3464 194.868 96.8673 194.868 96.8673L191.128 96.7199L191.412 89.3022Z" fill="#FF534A"/>
<path d="M183.911 98.4231C185.51 98.4231 186.806 97.1456 186.806 95.5696C186.806 93.9936 185.51 92.7161 183.911 92.7161C182.313 92.7161 181.017 93.9936 181.017 95.5696C181.017 97.1456 182.313 98.4231 183.911 98.4231Z" fill="#FF534A"/>
<path d="M181.937 86.9205C181.937 86.9205 183.126 85.3942 186.297 86.5224C189.468 87.6505 198.712 87.5989 200.118 81.6559C201.524 75.7129 194.598 75.1525 190.934 79.5692C190.934 77.7258 189.505 76.0889 186.611 75.8382C185.863 75.7718 187.359 73.0658 186.671 73.3976C185.579 73.7964 184.644 74.5271 184.001 75.4843C183.597 76.2216 183.53 77.1212 183.186 77.9101C182.535 79.3848 181.107 80.0263 179.596 80.4024C177.666 80.889 174.787 80.7121 173.179 81.995C170.779 83.8974 166.381 90.9612 173.755 96.0046L180.486 87.7095L179.79 105.251C179.79 105.251 186.394 109.675 190.814 107.854C193.806 106.615 191.151 102.995 191.562 99.5881C191.719 98.3199 191.996 97.3171 190.702 97.2655L189.124 97.1991C188.685 97.1813 188.25 97.2959 187.879 97.5278C187.507 97.7597 187.216 98.0977 187.045 98.4969C185.96 101.026 183.627 105.87 183.38 101.255C183.059 95.2525 181.937 86.9205 181.937 86.9205Z" fill="#6562BE"/>
<path d="M176.65 95.8424C178.488 95.8424 179.978 94.3734 179.978 92.5612C179.978 90.7491 178.488 89.28 176.65 89.28C174.812 89.28 173.322 90.7491 173.322 92.5612C173.322 94.3734 174.812 95.8424 176.65 95.8424Z" fill="#FFCB39"/>
<path d="M177.876 94.2129L177.322 94.1318C177.394 93.8595 177.402 93.575 177.346 93.2993C177.29 93.0236 177.172 92.7638 177.001 92.5391C176.824 92.3817 176.617 92.2603 176.393 92.1819C176.168 92.1034 175.93 92.0695 175.692 92.0819L175.647 91.5363C176.199 91.5026 176.745 91.6561 177.195 91.9713C177.361 91.653 177.403 91.2861 177.315 90.9391C177.28 90.8384 177.212 90.7525 177.121 90.6957L177.315 90.1796C177.549 90.2835 177.732 90.4743 177.824 90.7105C177.908 90.996 177.932 91.2953 177.896 91.5905C177.86 91.8857 177.764 92.1707 177.614 92.4285C177.915 92.9733 178.008 93.6064 177.876 94.2129Z" fill="#0C0604"/>
<path d="M186.005 89.9879C186.031 89.95 186.061 89.9153 186.095 89.8847C186.265 89.7674 186.464 89.6962 186.671 89.6782C187.591 89.5234 189.931 89.0662 190.208 90.4155C190.433 91.4773 188.937 91.2561 188.152 91.1898C187.366 91.1234 185.414 90.9686 186.005 89.9879Z" fill="white"/>
<path d="M188.75 89.4939C188.75 89.4939 187.8 90.0764 188.675 91.2266C188.675 91.2266 190.455 91.5584 190.208 90.4008C190.175 90.2459 190.11 90.0991 190.018 89.9692C189.926 89.8392 189.809 89.7287 189.673 89.6442C189.537 89.5597 189.385 89.5028 189.227 89.477C189.068 89.4512 188.906 89.4569 188.75 89.4939V89.4939Z" fill="#0C0604"/>
<path d="M185.317 89.6266C185.317 89.6266 190.261 89.2579 190.268 88.9704C190.276 88.6828 190.62 87.5546 189.752 87.4957C188.884 87.4367 184.517 88.7049 184.764 89.0072C185.011 89.3095 184.749 89.3169 185.317 89.6266Z" fill="#161730"/>
<path d="M191.046 98.1429C191.224 98.7084 191.278 99.305 191.203 99.8925C191.128 100.48 190.927 101.045 190.612 101.549L187.733 101.291C187.733 101.291 186.29 97.6047 191.046 98.1429Z" fill="#FFCB39"/>
<path d="M190.829 100.392C190.362 100.56 189.853 100.579 189.374 100.446C188.895 100.314 188.47 100.037 188.159 99.6545L188.615 99.3301C189.431 100.458 190.979 99.7872 191.001 99.7799L191.233 100.281C191.102 100.329 190.967 100.366 190.829 100.392V100.392Z" fill="#33270A"/>
<path d="M192.751 79.0752L170.936 91.1234C170.568 91.3228 170.14 91.3863 169.728 91.3025C169.317 91.2187 168.95 90.9931 168.692 90.6663L167.944 89.693C167.787 89.4894 167.677 89.2542 167.623 89.0041C167.568 88.7539 167.57 88.495 167.629 88.2458C167.687 87.9965 167.801 87.7631 167.961 87.5621C168.122 87.361 168.325 87.1974 168.557 87.0827L168.954 86.891C167.697 85.3574 164.654 82.0098 162.223 82.3932C159.059 82.8799 155.447 79.0162 160.518 77.9691C165.588 76.9221 177.248 68.7228 179.633 71.9229C182.019 75.123 187.905 67.1449 190.036 76.5313L191.151 75.9857C191.395 75.869 191.664 75.8085 191.936 75.8087C192.324 75.8118 192.7 75.9409 193.006 76.1761C193.313 76.4113 193.532 76.7394 193.629 77.1097C193.727 77.48 193.699 77.8717 193.548 78.2244C193.397 78.577 193.133 78.8709 192.796 79.0604L192.751 79.0752Z" fill="#FB9159"/>
<path d="M156.173 83.8827C157.214 83.8827 158.057 83.0507 158.057 82.0245C158.057 80.9983 157.214 80.1664 156.173 80.1664C155.132 80.1664 154.288 80.9983 154.288 82.0245C154.288 83.0507 155.132 83.8827 156.173 83.8827Z" fill="#FB9159"/>
<path d="M196.618 93.9179L196.057 93.8958L196.259 88.963L176.791 89.6487L176.769 89.1031L196.849 88.3878L196.618 93.9179Z" fill="#161730"/>
<path d="M172.962 115.22L170.165 115.67C167.464 116.098 164.694 115.674 162.251 114.458C159.808 113.243 157.817 111.298 156.562 108.901V108.901C155.286 106.468 154.835 103.696 155.273 100.992C155.712 98.2875 157.018 95.7929 159 93.8737L163.719 89.2874L186.289 113.62L172.962 115.22Z" fill="#161730"/>
<path d="M152.929 100.27L160.623 101.659C163.567 102.191 166.177 103.854 167.877 106.282C169.578 108.711 170.23 111.706 169.691 114.608L154.785 194.839L135.989 191.444C133.683 191.027 131.482 190.165 129.513 188.909C127.544 187.653 125.845 186.027 124.513 184.124C123.182 182.22 122.243 180.077 121.752 177.816C121.261 175.555 121.226 173.221 121.649 170.946L132.151 114.418C133.005 109.826 135.673 105.756 139.569 103.103C143.465 100.449 148.271 99.4303 152.929 100.27V100.27Z" fill="#FB9159"/>
<path d="M131.987 256.024L149.599 273.676L124.927 302.749L108.593 289.374L131.987 256.024Z" fill="#6562BE"/>
<path d="M118.211 275.475L99.4692 302.019L110.949 325.961L151.491 325.224C151.491 325.224 147.669 315.498 137.723 316.243C127.776 316.987 123.955 316.98 123.955 316.98L125.45 302.764L134.253 291.918L118.211 275.475Z" fill="#161730"/>
<path d="M99.0878 301.651C99.0878 301.651 93.733 306.886 97.592 308.383C101.451 309.879 96.0963 312.121 98.3399 313.618C100.583 315.115 102.924 313.618 102.161 315.867C101.399 318.116 100.628 321.847 102.909 321.847C105.19 321.847 105.205 323.321 105.205 326.337C105.205 329.353 106.738 332.324 111.33 330.075C115.922 327.826 112.826 330.075 116.685 330.813C120.544 331.55 120.507 329.338 123.566 328.564C126.624 327.79 124.313 332.309 128.928 330.813C133.542 329.316 134.283 327.067 135.808 327.819C137.334 328.571 135.808 330.031 140.4 329.294C144.992 328.556 143.459 326.3 145.755 327.082C148.051 327.863 148.051 330.827 150.347 329.294C152.643 327.76 151.095 324.803 151.095 324.803H110.56L99.0878 301.651Z" fill="black"/>
<path d="M104.674 312.512C104.674 312.512 116.685 304.644 114.397 299.409C112.108 294.174 115.892 289.683 116.693 286.69C117.493 283.696 117.44 278.911 114.397 280.71L99.0952 301.651L104.674 312.512Z" fill="#FFCB39"/>
<path d="M135.427 324.84H151.132C150.311 322.365 148.728 320.204 146.604 318.657C144.479 317.11 141.919 316.253 139.278 316.206C139.278 316.206 134.283 321.847 135.427 324.84Z" fill="#FFCB39"/>
<path d="M118.996 306.414L118.959 305.861L125.144 305.507L125.174 306.053L118.996 306.414Z" fill="#FFCB39"/>
<path d="M124.652 310.049L117.813 310.725L117.869 311.275L124.708 310.599L124.652 310.049Z" fill="#FFCB39"/>
<path d="M117.867 315.763L117.792 315.218L123.917 314.466L123.984 315.019L117.867 315.763Z" fill="#FFCB39"/>
<path d="M125.712 274.509L125.248 274.192L132.906 263.714L133.363 264.039L125.712 274.509Z" fill="#FFCB39"/>
<path d="M130.282 276.78L129.863 276.411L136.751 268.927L137.169 269.296L130.282 276.78Z" fill="#FFCB39"/>
<path d="M133.34 281.27L132.921 280.894L141.342 271.921L141.754 272.289L133.34 281.27Z" fill="#FFCB39"/>
<path d="M95.5878 325.939C95.2102 325.936 94.8331 325.912 94.4585 325.865C82.9189 324.39 82.014 320.571 81.9766 320.409L82.53 320.298C82.53 320.298 83.4798 323.874 94.4959 325.312C105.714 326.787 120.088 303.981 120.23 303.752L120.716 304.04C120.17 304.961 106.888 325.939 95.5878 325.939Z" fill="#FFCB39"/>
<path d="M150.915 175.579L143.923 232.878L125.106 261.524L149.838 284.913L176.186 249.166L184.786 172.954L150.915 175.579Z" fill="black"/>
<path d="M224.229 270.24L246.987 262.756L260.688 298.03L240.921 305.396L224.229 270.24Z" fill="#6562BE"/>
<path d="M246.254 320.35L297.109 297.912C294.536 292.013 286.639 292.884 280.416 294.919L260.688 297.912L255.797 285.193L235.118 292.839L246.254 320.35Z" fill="#161730"/>
<path d="M246.254 320.35C246.254 320.35 250.801 328.579 253.837 324.84C256.873 321.102 257.629 318.108 260.665 318.108C263.701 318.108 271.285 318.108 272.048 314.37C272.246 313.485 272.619 312.648 273.146 311.906C273.673 311.163 274.344 310.531 275.119 310.045C275.894 309.558 276.759 309.228 277.664 309.071C278.57 308.915 279.497 308.937 280.394 309.135C284.186 309.872 287.977 309.872 288.74 305.389C289.503 300.906 296.324 303.177 297.086 302.403C297.849 301.628 297.086 297.912 297.086 297.912L246.254 320.35Z" fill="black"/>
<path d="M284.036 293.923C284.036 293.923 282.383 303.428 284.036 303.664C285.689 303.9 297.064 297.912 297.064 297.912C297.064 297.912 295.284 291.431 284.036 293.923Z" fill="#FFCB39"/>
<path d="M234.849 293.422C234.849 293.422 245.468 293.422 246.231 298.657C246.994 303.892 249.245 312.91 253.815 312.121C258.384 311.332 258.003 315.159 258.003 315.159L246.231 320.32L234.849 293.422Z" fill="#FFCB39"/>
<path d="M258.616 305.529L258.122 305.256L261.914 298.524L262.408 298.797L258.616 305.529Z" fill="#FFCB39"/>
<path d="M269.106 298.168L266.072 304.899L266.585 305.124L269.619 298.393L269.106 298.168Z" fill="#FFCB39"/>
<path d="M275.593 295.517L273.647 301.938L274.184 302.097L276.131 295.675L275.593 295.517Z" fill="#FFCB39"/>
<path d="M230.924 273.478L230.417 273.714L236.486 286.43L236.993 286.194L230.924 273.478Z" fill="#FFCB39"/>
<path d="M237.768 272.73L237.26 272.964L242.57 284.182L243.078 283.948L237.768 272.73Z" fill="#FFCB39"/>
<path d="M249.387 283.446L243.322 270.726L243.823 270.49L249.896 283.21L249.387 283.446Z" fill="#FFCB39"/>
<path d="M174.653 182.414L225.306 285.96L256.223 271.25L211.171 168.751L174.122 169.798L174.653 182.414Z" fill="black"/>
<path d="M168.475 110.302C168.086 110.412 167.727 110.545 167.353 110.685C160.032 113.635 156.21 125.58 154.064 133.639C152.845 138.196 143.646 214.01 143.646 214.01L233.211 215.411C234.056 215.329 205.6 146.719 205.218 145.068C202.129 131.987 196.603 115.08 184.659 110.914C180.284 109.402 173.209 108.901 168.475 110.302Z" fill="#161730"/>
<path d="M125.374 249.446L116.262 259.741L149.468 288.311L158.58 278.016L125.374 249.446Z" fill="#FFCB39"/>
<path d="M215.531 276.767L221.253 289.211L261.392 271.267L255.67 258.824L215.531 276.767Z" fill="#FFCB39"/>
<path d="M237.9 135.143C238.431 137.244 243.763 159.063 243.763 159.063L196.311 174.547L193.648 145.643L237.9 135.143Z" fill="#161730"/>
<path d="M168.333 182.739C153.869 182.739 140.004 177.717 139.166 177.408L139.914 175.336C140.206 175.439 169.246 185.961 186.402 176.626C192.572 173.271 196.513 167.689 198.128 160.021C205.308 125.993 160.563 109.764 160.114 109.601L160.862 107.522C169.004 110.609 176.616 114.911 183.433 120.278C197.642 131.67 203.535 145.569 200.394 160.478C198.637 168.803 194.322 174.886 187.546 178.565C181.81 181.662 175.004 182.739 168.333 182.739Z" fill="#FB9159"/>
<path d="M222.591 85.7113L213.931 145.009L209.219 169.533L166.478 143.165C159.65 142.14 156.375 140.703 157.414 133.971C158.079 131.199 159.158 128.54 160.615 126.081C163.24 122.328 166.665 118.25 171.542 118.988L196.221 141.536L203.476 106.305L195.354 95.1198L196.558 92.7382L203.737 102.324L205.981 82.3121L208.673 82.4964L206.43 97.848L209.062 98.2167L210.969 82.0393L212.637 81.9508L211.104 98.519L213.736 98.8877L214.686 82.5112L217.094 83.6983L216.399 99.2563L218.508 99.566L219.869 85.5564L222.591 85.7113Z" fill="#FFCB39"/>
<path d="M164.437 116.975L155.193 136.249L161.056 146.587L209.93 171.642L220.235 112.418L200.686 109.963L193.581 132.57L170.121 116.319L164.437 116.975Z" fill="#161730"/>
<path d="M154.585 100.381L128.169 134.793L128.616 135.127L155.033 100.715L154.585 100.381Z" fill="#FFCB39"/>
<path d="M135.479 178.772C134.935 178.77 134.392 178.721 133.856 178.624C131.597 178.2 129.599 176.911 128.301 175.039C127.004 173.166 126.511 170.863 126.931 168.633L130.955 147.567L148.006 150.731L143.99 171.796C143.613 173.752 142.558 175.518 141.005 176.791C139.452 178.064 137.499 178.764 135.479 178.772V178.772ZM131.403 148.216L127.485 168.737C127.088 170.822 127.548 172.978 128.763 174.729C129.978 176.48 131.849 177.684 133.965 178.075C136.08 178.466 138.267 178.013 140.043 176.815C141.819 175.616 143.04 173.772 143.437 171.686L147.355 151.166L131.403 148.216Z" fill="#FFCB39"/>
<path d="M156.375 248.193C151.992 248.193 147.722 246.475 144.514 245.185C143.368 244.693 142.195 244.27 140.999 243.916L141.133 243.385C142.357 243.739 143.556 244.17 144.723 244.676C149.607 246.637 156.988 249.601 163.315 245.782C168.139 242.832 166.411 236.329 164.885 230.57C164.751 230.047 164.616 229.523 164.482 229.015C160.117 229.266 155.738 229.066 151.416 228.417L151.506 227.872C155.756 228.487 160.057 228.687 164.347 228.469C163.599 225.431 163.113 222.688 164.01 220.926C164.234 220.389 164.564 219.902 164.982 219.494C165.4 219.086 165.896 218.765 166.443 218.549C166.989 218.334 167.573 218.229 168.162 218.241C168.75 218.253 169.329 218.381 169.866 218.618C171.114 219.175 172.091 220.191 172.587 221.45C173.083 222.708 173.06 224.108 172.521 225.35C171.699 227.562 168.61 228.58 165.043 228.956C165.162 229.442 165.297 229.936 165.424 230.43C166.994 236.373 168.782 243.12 163.599 246.254C161.422 247.553 158.919 248.225 156.375 248.193V248.193ZM168.064 218.802C167.303 218.814 166.561 219.044 165.93 219.464C165.299 219.885 164.806 220.477 164.512 221.169C163.689 222.791 164.168 225.453 164.908 228.417C168.326 228.078 171.25 227.171 171.99 225.158C172.482 224.051 172.511 222.798 172.073 221.67C171.635 220.541 170.765 219.628 169.649 219.127C169.148 218.916 168.609 218.805 168.064 218.802Z" fill="#FFCB39"/>
<path d="M154.647 261.296C154.215 258.404 153.521 255.557 152.576 252.787C152.531 252.647 152.493 252.506 152.448 252.366C146.637 251.754 143.197 252.293 142.666 253.989L142.135 253.826C142.831 251.614 147.026 251.253 152.276 251.784C150.87 247.131 149.719 242.855 151.364 240.93C152.112 240.082 153.271 239.765 154.961 239.964C160.555 240.635 166.867 246.903 168.423 250.803C168.961 252.182 168.931 253.273 168.333 253.952C167.638 254.741 166.262 254.903 164.227 254.438C160.551 253.577 156.832 252.907 153.084 252.433C153.084 252.499 153.121 252.565 153.144 252.632C154.1 255.433 154.801 258.313 155.238 261.237L154.647 261.296ZM152.875 251.85C156.727 252.333 160.549 253.025 164.325 253.922C166.112 254.328 167.316 254.224 167.884 253.605C168.453 252.986 168.191 251.843 167.884 251.024C166.389 247.249 160.308 241.181 154.909 240.539C153.413 240.362 152.404 240.613 151.805 241.314C150.317 243.009 151.543 247.419 152.875 251.843V251.85Z" fill="#FFCB39"/>
<path d="M154.797 270.535C154.685 270.546 154.572 270.546 154.46 270.535C152.075 270.122 151.222 265.218 151.185 265.012L151.738 264.923C151.962 266.236 152.905 269.701 154.557 269.989C155.694 270.188 157.123 268.861 158.686 266.147C160.418 263.034 161.986 259.835 163.382 256.562C165.94 250.833 167.959 246.313 171.437 245.767C173.404 245.45 174.952 243.725 175.558 241.129C176.163 238.534 175.692 234.876 173.157 233.114L173.486 232.664C176.223 234.574 176.762 238.453 176.104 241.255C175.445 244.056 173.725 245.959 171.527 246.313C168.348 246.807 166.389 251.209 163.898 256.79C162.488 260.062 160.91 263.261 159.172 266.376C157.571 269.171 156.135 270.535 154.797 270.535Z" fill="#FFCB39"/>
<path d="M139.346 249.498C139.199 249.505 139.052 249.505 138.905 249.498L138.964 248.945C141.208 249.166 143.302 247.47 144.693 245.996C147.408 243.135 149.18 239.308 149.053 238.482C148.884 237.984 148.648 237.51 148.35 237.074C147.55 235.724 146.458 233.874 147.086 232.229C147.49 231.16 148.582 230.334 150.31 229.767C156.375 227.768 153.623 217.851 153.593 217.748L154.131 217.6C154.131 217.704 157.063 228.13 150.489 230.29C148.919 230.806 147.954 231.522 147.61 232.421C147.071 233.822 148.088 235.54 148.836 236.794C149.168 237.286 149.42 237.826 149.584 238.394C149.771 239.478 147.819 243.481 145.097 246.372C143.145 248.392 141.163 249.498 139.346 249.498Z" fill="#FFCB39"/>
<path d="M232.246 244.963H231.685C231.794 241.258 231.369 237.557 230.421 233.97C226.861 238.497 223.406 238.394 218.68 238.209C217.737 238.209 216.758 238.143 215.688 238.143C210.865 238.143 206.288 235.702 205.899 232.915C205.704 231.514 206.46 228.86 213.751 226.825C219.697 225.166 224.035 225.446 227.011 227.665C228.686 228.989 229.932 230.768 230.593 232.782C231.402 231.603 232.129 230.372 232.77 229.096C233.085 228.599 233.252 228.026 233.252 227.44C233.252 226.855 233.085 226.281 232.77 225.785C228.649 219.591 200.275 221.066 199.991 221.081L199.953 220.535C201.135 220.469 228.941 219.024 233.241 225.475C233.603 226.056 233.795 226.725 233.795 227.407C233.795 228.089 233.603 228.758 233.241 229.339C232.532 230.769 231.712 232.142 230.788 233.446C231.79 236.336 232.246 240.141 232.246 244.963ZM220.535 226.316C218.291 226.365 216.064 226.715 213.916 227.356C208.815 228.779 206.168 230.733 206.437 232.841C206.789 235.326 211.194 237.59 215.673 237.59C216.735 237.59 217.723 237.627 218.665 237.656C223.459 237.826 226.727 237.936 230.175 233.335C229.568 231.28 228.339 229.455 226.652 228.108C224.87 226.861 222.718 226.231 220.535 226.316V226.316Z" fill="#FFCB39"/>
<path d="M222.382 266.251H221.821C221.821 264.326 223.489 262.195 225.74 259.806C225.383 259.141 225.09 258.445 224.865 257.727C224.048 254.917 224.015 251.942 224.767 249.115C221.544 248.321 218.389 247.281 215.329 246.003L215.554 245.502C218.595 246.746 221.724 247.769 224.917 248.562C225.43 246.58 226.406 244.744 227.766 243.201L228.267 242.67C231.558 239.227 235.283 235.297 237.309 236.255C238.439 236.771 238.805 238.689 238.379 242.102C238.028 244.566 237.151 246.929 235.806 249.034L236.128 248.916C237.549 248.355 238.962 248.775 240.106 250.095C242.425 252.779 243.389 259.047 241.101 262.807C240.069 264.518 237.952 266.369 233.772 265.469C229.591 264.569 227.355 262.483 226.031 260.308C223.922 262.556 222.382 264.547 222.382 266.251ZM226.428 259.887C227.677 262.003 229.905 264.075 233.906 264.931C236.958 265.587 239.284 264.754 240.637 262.527C242.806 258.951 241.901 253 239.695 250.457C239.335 249.941 238.81 249.559 238.204 249.372C237.598 249.185 236.946 249.203 236.352 249.424C236.032 249.55 235.705 249.656 235.372 249.741C233.267 252.73 230.875 255.513 228.23 258.051C227.602 258.678 226.996 259.29 226.428 259.887V259.887ZM225.313 249.24C224.583 251.973 224.617 254.849 225.411 257.565C225.605 258.19 225.855 258.797 226.159 259.379C226.697 258.818 227.258 258.25 227.826 257.668C230.293 255.278 232.545 252.683 234.557 249.911C231.857 250.383 228.477 249.963 225.313 249.24ZM225.463 248.687C228.791 249.424 232.336 249.874 235.013 249.255C236.488 247.09 237.449 244.625 237.825 242.044C238.296 238.172 237.676 237.03 237.077 236.757C235.41 236.019 231.521 240.067 228.679 243.046L228.17 243.577C226.879 245.052 225.95 246.801 225.456 248.687H225.463Z" fill="#FFCB39"/>
<path d="M245.169 256.51C244.107 256.333 243.03 256.256 241.953 256.282C235.462 256.105 221.955 255.721 214.177 248.053C204.298 238.313 212.427 217.999 212.517 217.822L213.033 218.028C212.951 218.227 204.956 238.209 214.574 247.692C222.195 255.205 235.552 255.581 241.968 255.766C244.025 255.817 245.035 255.854 245.423 256.046L245.169 256.51Z" fill="#FFCB39"/>
<defs>
<linearGradient id="paint0_linear_1216_1574" x1="154.501" y1="38.7659" x2="222.342" y2="309.146" gradientUnits="userSpaceOnUse">
<stop stop-color="#FF461E"/>
<stop offset="0.885417" stop-color="#FF3F33" stop-opacity="0"/>
<stop offset="0.9999" stop-color="#01FF2A" stop-opacity="0"/>
<stop offset="1" stop-opacity="0"/>
</linearGradient>
</defs>
</svg>
