<svg width="359" height="339" viewBox="0 0 359 339" fill="none" xmlns="http://www.w3.org/2000/svg">
<path fill-rule="evenodd" clip-rule="evenodd" d="M43.1289 226.031V226.031L42.6703 224.204L42.1912 222.383L41.6913 220.564L41.1705 218.748L40.6292 216.932L40.0678 215.116L39.4867 213.297L38.8866 211.473L38.2684 209.645L37.6329 207.81L36.9814 205.966L36.3151 204.113L35.6356 202.248L34.9445 200.371L34.2436 198.481L33.5351 196.576L32.8211 194.654L32.1041 192.716L31.3866 190.76L30.6713 188.785L29.961 186.79L29.2588 184.776L28.5677 182.74L27.8908 180.684L27.2314 178.606L26.5926 176.507L25.9779 174.387L25.3903 172.245L24.8332 170.083L24.3097 167.901L23.8228 165.698L23.3755 163.477L22.9706 161.237L22.6107 158.98L22.2982 156.706L22.0354 154.417L21.8242 152.114L21.6666 149.798L21.5645 147.471L21.5195 145.133L21.5335 142.786L21.608 140.433L21.7446 138.073L21.9447 135.71L22.2096 133.345L22.5405 130.979L22.9385 128.614L23.4045 126.253L23.9392 123.897L24.5433 121.548L25.2173 119.209L25.9616 116.88L26.7763 114.564L27.6615 112.262L28.617 109.978L29.6426 107.712L30.7379 105.467L31.9022 103.244L33.135 101.044L34.4353 98.8712L35.8022 96.7255L37.2346 94.6088L38.7312 92.5228L40.2907 90.4689L41.9116 88.4484L43.5924 86.4628L45.3315 84.5133L47.1271 82.601L48.9774 80.727L50.8807 78.8923L52.835 77.0978L54.8383 75.3443L56.8886 73.6327L58.9839 71.9635L61.1223 70.3373L63.3016 68.7547L65.5198 67.216L67.7749 65.7218L70.0648 64.2722L72.3875 62.8676L74.7411 61.5081L77.1235 60.1938L79.533 58.9251L81.9681 57.7023L84.4271 56.5259L86.9088 55.3963L89.412 54.3144L91.9353 53.2808L94.4778 52.2963L97.0383 51.3621L99.6158 50.4789L102.209 49.648L104.818 48.8703L107.44 48.1471L110.074 47.4795L112.72 46.8686L115.377 46.3157L118.042 45.8217L120.715 45.3879L123.394 45.0153L126.078 44.7047L128.764 44.457L131.452 44.2731L134.139 44.1534L136.824 44.0985L139.504 44.1087L142.178 44.1841L144.844 44.3245L147.498 44.5298L150.14 44.7995L152.767 45.1327L155.377 45.5285L157.967 45.9857L160.536 46.5027L163.08 47.0778L165.599 47.7092L168.09 48.3949L170.551 49.1328L172.981 49.9209L175.377 50.7567L177.738 51.6379L180.064 52.562L182.352 53.5265L184.601 54.5288L186.811 55.5661L188.98 56.6359L191.108 57.7353L193.195 58.8615L195.239 60.0118L197.241 61.1834L199.2 62.3734L201.116 63.5791L202.99 64.7977L204.822 66.0266L206.612 67.2629L208.361 68.5041L210.069 69.7477L211.738 70.9911L213.368 72.2319L214.96 73.4678L216.515 74.6965L218.035 75.916L219.522 77.1242L220.975 78.3191L222.398 79.499L223.791 80.6622L225.156 81.8072L226.495 82.9325L227.809 84.0368L229.1 85.1191L230.371 86.1782L231.622 87.2134L232.855 88.2239L234.073 89.209L235.277 90.1684L236.468 91.1018L237.649 92.0088L238.822 92.8896L239.987 93.7442L241.146 94.5729L242.302 95.3762L243.454 96.1548L244.605 96.9095L245.755 97.6416L246.906 98.3521L248.058 99.0426L249.211 99.7144L250.367 100.369L251.526 101.009L252.688 101.635L253.852 102.25L255.019 102.854L256.189 103.451L257.362 104.043L258.536 104.63L259.711 105.215L260.886 105.8L262.062 106.386L263.236 106.976L264.408 107.571L265.578 108.172L266.743 108.782L267.903 109.4L269.057 110.029L270.205 110.67L271.344 111.323L272.474 111.989L273.594 112.67L274.704 113.364L275.802 114.074L276.889 114.798L277.964 115.538L279.025 116.292L280.074 117.061L281.111 117.845L282.134 118.643L283.144 119.455L284.141 120.28L285.126 121.118L286.098 121.969L287.059 122.832L288.009 123.707L288.948 124.592L289.877 125.487L290.797 126.392L291.709 127.306L292.614 128.229L293.512 129.16L294.406 130.098L295.295 131.044L296.181 131.996L297.065 132.955L297.948 133.921L298.831 134.892L299.716 135.869L300.603 136.852L301.492 137.842L302.386 138.837L303.284 139.839L304.188 140.847L305.098 141.862L306.015 142.884L306.938 143.914L307.869 144.952L308.807 145.999L309.753 147.056L310.706 148.123L311.666 149.2L312.633 150.289L313.605 151.391L314.583 152.506L315.566 153.635L316.552 154.778L317.54 155.937L318.529 157.112L319.518 158.304L320.505 159.514L321.489 160.743L322.468 161.99L323.441 163.256L324.407 164.542L325.364 165.849L326.311 167.175L327.247 168.523L328.171 169.891L329.081 171.281L329.976 172.692L330.855 174.125L331.716 175.578L332.56 177.054L333.384 178.551L334.186 180.069L334.967 181.608L335.725 183.169L336.457 184.75L337.164 186.352L337.844 187.975L338.495 189.618L339.116 191.28L339.706 192.961L340.262 194.661L340.784 196.38L341.27 198.115L341.718 199.868L342.126 201.636L342.493 203.419L342.817 205.217L343.095 207.027L343.327 208.849L343.509 210.682L343.641 212.524L343.72 214.373L343.745 216.229L343.715 218.09L343.627 219.953L343.48 221.818L343.274 223.682L343.007 225.545L342.678 227.403L342.287 229.255L341.832 231.1L341.314 232.935L340.733 234.758L340.087 236.568L339.378 238.363L338.604 240.14L337.767 241.899L336.868 243.636L335.906 245.351L334.882 247.042L333.798 248.707L332.655 250.344L331.453 251.953L330.195 253.531L328.881 255.077L327.514 256.59L326.094 258.07L324.625 259.514L323.108 260.922L321.545 262.293L319.937 263.626L318.288 264.922L316.6 266.178L314.874 267.396L313.113 268.574L311.32 269.713L309.496 270.812L307.644 271.872L305.767 272.893L303.867 273.875L301.946 274.819L300.006 275.725L298.05 276.593L296.079 277.425L294.097 278.222L292.104 278.983L290.103 279.71L288.095 280.404L286.083 281.065L284.068 281.695L282.051 282.295L280.033 282.865L278.017 283.406L276.003 283.92L273.993 284.407L271.987 284.869L269.986 285.306L267.992 285.72L266.004 286.111L264.025 286.481L262.054 286.831L260.092 287.161L258.14 287.473L256.198 287.767L254.266 288.046L252.346 288.31L250.436 288.561L248.538 288.799L246.652 289.026L244.777 289.244L242.915 289.453L241.064 289.656L239.225 289.853L237.398 290.047L235.582 290.239L233.778 290.431L231.986 290.625L230.203 290.823L228.431 291.026L226.669 291.236L224.915 291.454L223.168 291.682L221.429 291.921L219.695 292.173L217.966 292.439L216.241 292.719L214.518 293.015L212.795 293.327L211.072 293.657L209.348 294.003L207.62 294.368L205.887 294.751L204.148 295.153L202.401 295.573L200.645 296.011L198.878 296.467L197.099 296.941L195.307 297.431L193.5 297.938L191.676 298.46L189.835 298.996L187.976 299.546L186.096 300.108L184.196 300.681L182.274 301.263L180.329 301.853L178.361 302.449L176.368 303.05L174.351 303.653L172.309 304.256L170.241 304.859L168.147 305.458L166.028 306.052L163.883 306.638L161.712 307.214L159.516 307.779L157.294 308.329L155.048 308.862L152.779 309.377L150.486 309.871L148.171 310.342L145.835 310.787L143.48 311.205L141.105 311.592L138.714 311.946L136.307 312.265L133.887 312.547L131.456 312.788L129.015 312.987L126.567 313.141L124.115 313.248L121.66 313.305L119.206 313.311L116.756 313.264L114.312 313.161L111.877 313.001L109.455 312.782L107.047 312.503L104.658 312.163L102.291 311.759L99.9475 311.293L97.632 310.761L95.3472 310.165L93.0962 309.503L90.8818 308.776L88.7072 307.983L86.5751 307.125L84.4883 306.201L82.4494 305.213L80.4612 304.161L78.5259 303.046L76.6459 301.868L74.8235 300.63L73.0607 299.332L71.3592 297.977L69.7205 296.565L68.1461 295.099L66.6367 293.581L65.1933 292.013L63.8161 290.398L62.5052 288.738L61.2606 287.037L60.0817 285.296L58.9677 283.52L57.9176 281.71L56.93 279.871L56.0031 278.004L55.1352 276.113L54.3239 274.202L53.5669 272.272L52.8615 270.327L52.2048 268.37L51.5938 266.404L51.0252 264.43L50.4956 262.452L50.0015 260.472L49.5393 258.492L49.1053 256.514L48.6958 254.541L48.3071 252.572L47.9353 250.611L47.5768 248.658L47.2279 246.714L46.8852 244.781L46.5451 242.858L46.2044 240.946L45.8599 239.045L45.5088 237.156L45.1483 235.278L44.776 233.41L44.3897 231.552L43.9874 229.704L43.5676 227.864L43.1289 226.031" fill="url(#paint0_linear_1216_1577)"/>
<path d="M150.864 198.25L47.6765 264.477L47.72 264.611C46.4292 265.122 45.0515 265.491 44.0943 265.223C41.8608 264.585 30.3746 264.041 35.5376 272.767C41.1067 282.215 45.008 308.429 48.4234 311.028C50.142 312.335 50.2145 309.1 49.6924 305.881C50.5916 308.513 51.7663 311.212 52.4407 310.609C53.1151 310.005 52.7887 307.339 52.2449 304.816C53.1513 307.884 54.3623 311.128 55.276 310.458C55.7473 310.114 55.7473 309.007 55.508 307.591C54.4281 304.575 53.4817 301.497 52.6727 298.369C52.825 298.755 54.9134 304.128 55.508 307.591C56.4 309.946 57.3209 311.782 57.9808 311.464C59.7356 310.701 55.3848 292.048 53.8837 288.553C53.8837 288.553 51.1862 282.576 60.1489 279.809C60.1489 279.809 60.207 279.633 60.2867 279.306L167.927 228.371L150.864 198.25ZM48.7062 301.84C49.1656 303.139 49.5059 304.491 49.7214 305.872C48.7207 302.963 48.0463 300.105 48.7062 301.84ZM51.0266 299.861C51.1137 300.146 51.788 302.376 52.3029 304.774C51.5705 302.402 51.0266 300.146 51.0266 299.861Z" fill="#A04515"/>
<path d="M306.11 301.446C305.053 300.506 303.859 299.791 302.586 299.333C300.077 298.939 297.147 298.21 297.147 298.21C298.996 298.295 300.826 298.673 302.586 299.333C305.124 299.727 307.227 299.769 305.428 298.353C301.839 295.519 294.167 294.941 288.714 295.133C286.321 295.226 285.661 291.847 285.545 288.888C285.487 287.439 285.528 285.987 285.668 284.546L288.076 189.959L253.45 188.87L251.217 188.802H250.361L230.594 188.174H229.513L205.67 187.428L205.837 192.701V193.287L206.098 201.587V202.257L206.374 211.051V211.73L206.657 220.499V221.253L206.722 223.207V223.492L208.013 223.441L232.044 222.444L233.248 222.393L240.499 222.092H241.036L252.551 221.614L263.936 221.144L265.676 289.961V290.481C265.676 290.674 265.734 290.925 265.778 291.21C266.017 293.121 266.394 296.81 265.973 299.149C265.386 302.427 265.973 306.643 272.717 305.855C279.461 305.067 298.88 307.834 302.448 308.907C306.016 309.98 305.805 307.23 302.637 306.124C300.461 305.352 298.706 304.715 297.814 304.388C300.077 305.168 307.604 307.641 305.276 305.118C303.318 302.988 300.12 301.672 298.474 301.094C301.411 301.865 308.873 304.011 306.11 301.446ZM297.785 300.733L298.278 300.884L297.785 300.733Z" fill="#A04515"/>
<path d="M303.942 130.238L320.714 128.729L319.837 131.714L303.92 133.39V135.905L318.372 135.251L318.554 138.395L246.815 144.917L215.155 148.941L207.179 149.955C204.579 150.103 202.002 149.325 199.797 147.725L199.391 147.415C197.906 146.243 196.656 144.718 195.722 142.943C194.787 141.167 194.192 139.182 193.974 137.119C193.757 135.056 193.922 132.963 194.46 130.98C194.998 128.997 195.895 127.169 197.092 125.619C198.204 124.158 199.559 122.97 201.077 122.126C202.594 121.282 204.242 120.799 205.924 120.707H208.383H215.532L294.986 119.525L305.262 108.3L307.843 109.314L299.098 119.147L319.721 118.611L319.895 121.755L303.993 121.629V124.731L320.671 124.362L320.99 126.281L303.949 127.12L303.942 130.238Z" fill="#A04515"/>
<path d="M36.1901 265.843C36.1901 265.843 28.6922 270.873 30.2005 270.973C31.7088 271.074 34.2758 271.812 33.3766 273.79C32.4774 275.769 30.9474 279.407 32.7022 278.904C34.4571 278.401 37.7782 279.046 36.4222 281.226C35.0662 283.406 34.8994 288.972 36.7703 288.075C38.6411 287.178 41.8463 288.72 39.8304 290.707C37.8145 292.694 36.6325 298.252 39.3155 296.768C41.9985 295.284 44.3915 296.047 42.6077 299.124C40.8238 302.2 39.4243 305.973 42.0058 305.059C44.5873 304.145 44.8048 305.897 44.261 308.085C43.7171 310.273 43.3183 311.958 45.414 311.296C46.6562 310.895 47.9329 310.653 49.221 310.575C49.221 310.575 35.668 269.766 36.1901 265.843Z" fill="#FE4877"/>
<path d="M266.162 302.854C266.162 302.854 266.604 311.128 267.38 309.636C268.156 308.144 268.881 305.562 269.969 307.381C271.057 309.2 273.131 312.411 273.544 310.407C273.957 308.404 275.93 305.269 276.981 307.633C278.033 309.997 282.166 312.729 282.326 310.399C282.485 308.069 285.096 305.495 285.705 308.446C286.314 311.397 289.969 315.152 290.056 311.74C290.143 308.328 291.789 306.191 293.326 309.427C294.863 312.662 297.068 315.823 297.554 312.78C298.039 309.737 299.482 310.307 300.86 311.841C302.238 313.375 303.376 314.565 303.812 312.109C304.071 310.651 304.465 309.229 304.986 307.867C304.986 307.867 268.896 305.176 266.162 302.854Z" fill="#FE4877"/>
<path d="M297.786 300.733L298.279 300.884L297.786 300.733Z" fill="#FD925A"/>
<path d="M288.692 306.534L300.766 301.882L291.984 295.117L297.524 300.649L287.061 306.694L288.692 306.534Z" fill="#FE4877"/>
<path d="M55.4135 293.407L52.0923 303.986L41.9766 293.113L43.2166 295.997L52.3896 305.336L56.0298 295.854L55.4135 293.407Z" fill="#FE4877"/>
<path d="M253.718 177.636L253.573 183.789L253.559 184.418L253.508 186.405L253.494 187.117L253.45 188.87L252.667 221.538L252.435 231.263L242.602 229.502L241.884 229.377L241.318 229.276L240.775 229.192L208.114 223.374H208.092L206.794 223.14L204.793 222.779L204.024 222.645L186.396 219.518L185.852 219.417L181.683 218.68L176.005 223.735L175.519 224.162L171.349 227.876L170.907 228.27L156.31 241.272L155.86 241.666L146.832 249.706L140.705 241.264L122.656 216.349L119.69 212.267L119.211 211.604L118.051 210.012L127.203 202.626L127.732 202.207L138.616 193.43L139.211 192.952L144.773 188.476L145.331 188.006L145.759 187.671L146.238 187.277L151.176 183.295L152.307 183.261L217.729 180.654L217.867 180.646L241.014 178.709L241.92 178.625L243.284 178.516L244.415 178.416L253.718 177.636Z" fill="#161730"/>
<path d="M218.389 175.079C218.179 177.988 217.925 180.31 217.744 181.786C217.599 182.976 217.497 183.638 217.497 183.638H209.956L189.703 183.689H178.1L160.102 183.739H152.474C152.3 183.697 152.3 182.901 152.416 181.71C152.532 180.52 152.742 178.869 153.032 177.024C153.989 170.762 155.635 162.186 155.984 160.795C156.179 160.007 156.382 159.219 156.593 158.405C157.434 155.161 158.376 151.783 159.442 148.413C160.037 146.527 160.668 144.632 161.35 142.771C165.236 131.99 170.45 122.031 177.542 117.354C178.367 116.847 179.223 116.41 180.102 116.046C180.524 115.848 180.955 115.674 181.393 115.526C182.772 115.058 184.184 114.73 185.613 114.545L186.113 114.478C188.807 114.158 191.523 114.212 194.206 114.637C195.733 114.87 197.235 115.286 198.687 115.878L199.137 116.079C199.55 116.272 199.92 116.565 200.319 116.708C202.111 117.371 203.819 118.31 205.395 119.5C205.649 119.684 205.881 119.877 206.12 120.086C213.64 126.315 216.939 137.917 218.201 149.528C219.026 158.015 219.089 166.577 218.389 175.079V175.079Z" fill="black"/>
<path d="M202.581 86.4786L202.509 100.068C202.495 102.454 201.663 104.737 200.195 106.414C198.726 108.091 196.742 109.026 194.677 109.012L194.228 109.088C194.228 109.641 194.228 110.194 194.228 110.764V114.788C194.228 115.627 194.511 116.649 194.068 117.429C193.573 118.1 192.936 118.611 192.219 118.913C190.319 119.86 186.106 119.801 186.128 116.398L186.186 105.056L185.25 86.3361L202.581 86.4786Z" fill="#A04515"/>
<path d="M202.117 90.5276C203.227 90.5276 205.707 97.4856 205.707 97.4856H202.081L202.117 90.5276Z" fill="#FF534A"/>
<path d="M195.098 101.107C196.64 101.107 197.89 99.6621 197.89 97.8796C197.89 96.0971 196.64 94.6521 195.098 94.6521C193.556 94.6521 192.306 96.0971 192.306 97.8796C192.306 99.6621 193.556 101.107 195.098 101.107Z" fill="#FF534A"/>
<path d="M196.925 91.5001C196.948 91.4575 196.975 91.4181 197.005 91.3827C197.164 91.2386 197.355 91.1486 197.556 91.1229C198.434 90.9133 200.674 90.2845 200.994 91.7935C201.24 92.9839 199.79 92.7911 199.036 92.7492C198.281 92.7073 196.389 92.5899 196.925 91.5001Z" fill="white"/>
<path d="M199.55 90.8211C199.55 90.8211 198.658 91.5169 199.55 92.7827C199.55 92.7827 201.276 93.0845 201.001 91.7935C200.962 91.6187 200.893 91.4545 200.799 91.3107C200.705 91.1668 200.587 91.046 200.452 90.9555C200.317 90.865 200.168 90.8065 200.013 90.7834C199.858 90.7603 199.701 90.7731 199.55 90.8211V90.8211Z" fill="#0C0604"/>
<path d="M200.769 103.739C200.442 103.751 200.117 103.671 199.822 103.508C199.526 103.345 199.269 103.102 199.072 102.8L199.5 102.423C200.326 103.664 201.798 102.842 201.813 102.834L202.052 103.396C201.652 103.621 201.213 103.739 200.769 103.739V103.739Z" fill="#33270A"/>
<path d="M200.609 88.851C200.609 88.851 198.492 87.8283 196.012 90.5276C196.012 90.5276 200.196 89.9073 200.609 88.851Z" fill="#0C0604"/>
<path d="M204.605 90.1925L191.791 92.9254L190.457 87.2165L190.762 93.1266L185.178 94.6523L184.098 88.935C181.061 91.2405 177.405 92.1979 173.805 91.6305C170.206 91.0631 166.905 89.0091 164.513 85.8479C162.121 82.6866 160.799 78.6316 160.792 74.4316C160.784 70.2316 162.091 66.1702 164.472 62.9974C166.852 59.8246 170.145 57.7546 173.743 57.1697C177.34 56.5848 181 57.5245 184.045 59.8152C187.09 62.106 189.315 65.5931 190.31 69.6326C191.305 73.6722 191.002 77.9914 189.456 81.7927C191.588 81.4406 194.235 81.1891 197.194 80.4765C205.518 78.473 204.605 90.1925 204.605 90.1925Z" fill="#0C0604"/>
<path d="M187.999 98.4832C189.773 98.4832 191.211 96.8205 191.211 94.7695C191.211 92.7185 189.773 91.0558 187.999 91.0558C186.225 91.0558 184.787 92.7185 184.787 94.7695C184.787 96.8205 186.225 98.4832 187.999 98.4832Z" fill="#A04515"/>
<path d="M189.007 94.803C189.247 95.3873 189.325 96.0431 189.231 96.6808L188.695 96.6054C188.756 96.2863 188.754 95.9554 188.689 95.6374C188.623 95.3194 188.497 95.0227 188.318 94.7695C188.138 94.5928 187.929 94.4601 187.703 94.3794C187.478 94.2987 187.24 94.2717 187.005 94.3L186.947 93.6713C187.542 93.6084 188.136 93.8091 188.608 94.233C188.745 93.8676 188.766 93.4574 188.666 93.0761C188.65 93.0176 188.624 92.9636 188.589 92.9174C188.554 92.8712 188.511 92.8339 188.463 92.8078L188.644 92.2126C188.875 92.3237 189.06 92.5341 189.159 92.7995C189.34 93.4643 189.285 94.1848 189.007 94.803V94.803Z" fill="#0C0604"/>
<path d="M165.178 170.913C166.916 170.913 168.325 169.284 168.325 167.275C168.325 165.265 166.916 163.636 165.178 163.636C163.44 163.636 162.031 165.265 162.031 167.275C162.031 169.284 163.44 170.913 165.178 170.913Z" fill="#FFCB39"/>
<path d="M206.795 166.562C209.394 166.562 211.501 164.126 211.501 161.122C211.501 158.117 209.394 155.681 206.795 155.681C204.195 155.681 202.088 158.117 202.088 161.122C202.088 164.126 204.195 166.562 206.795 166.562Z" fill="#FFCB39"/>
<path d="M199.289 141.061C202.833 141.061 205.707 137.739 205.707 133.642C205.707 129.544 202.833 126.223 199.289 126.223C195.745 126.223 192.872 129.544 192.872 133.642C192.872 137.739 195.745 141.061 199.289 141.061Z" fill="#FFCB39"/>
<path d="M205.373 119.5C204.986 120.349 204.364 121.024 203.606 121.416C202.848 121.809 201.998 121.896 201.192 121.665C200.386 121.433 199.671 120.895 199.16 120.138C198.65 119.381 198.373 118.448 198.376 117.488C198.374 116.935 198.467 116.388 198.651 115.878L199.101 116.079C199.514 116.272 199.884 116.565 200.283 116.708C202.08 117.37 203.793 118.309 205.373 119.5V119.5Z" fill="#FFCB39"/>
<path d="M214.75 152.588C216.44 152.588 217.81 151.004 217.81 149.05C217.81 147.096 216.44 145.512 214.75 145.512C213.06 145.512 211.689 147.096 211.689 149.05C211.689 151.004 213.06 152.588 214.75 152.588Z" fill="#FFCB39"/>
<path d="M184.786 163.636C185.988 163.636 186.962 162.511 186.962 161.122C186.962 159.733 185.988 158.607 184.786 158.607C183.585 158.607 182.611 159.733 182.611 161.122C182.611 162.511 183.585 163.636 184.786 163.636Z" fill="#FFCB39"/>
<path d="M160.806 152.562C160.798 153.957 160.372 155.304 159.599 156.375C158.827 157.445 157.756 158.172 156.571 158.431C157.412 155.186 158.355 151.808 159.421 148.438C160.321 149.558 160.817 151.034 160.806 152.562V152.562Z" fill="#FFCB39"/>
<path d="M185.577 114.545C185.527 115.271 185.279 115.96 184.869 116.512C184.459 117.064 183.908 117.452 183.295 117.619C182.682 117.786 182.039 117.723 181.459 117.441C180.878 117.158 180.391 116.669 180.066 116.046C180.488 115.848 180.919 115.674 181.357 115.526C182.736 115.058 184.148 114.73 185.577 114.545Z" fill="#FFCB39"/>
<path d="M243.284 178.55C243.117 178.692 242.943 178.827 242.769 178.961L242.573 179.112L242.283 179.338L242.073 179.489C238.447 182.247 234.132 185.215 229.506 188.149C226.852 189.825 224.111 191.502 221.348 193.178C217.41 191.921 211.725 191.804 205.83 192.701C199.267 193.681 192.451 195.928 187.513 199.265C187.353 199.365 187.194 199.474 187.034 199.591C185.842 200.412 184.727 201.372 183.706 202.459C176.889 209.81 168.028 205.577 156.803 200.22C153.692 198.736 150.4 197.16 146.934 195.744L146.397 195.526C144.084 194.587 141.684 193.732 139.218 193.011L138.624 193.489C141.278 194.235 143.845 195.165 146.325 196.163L146.847 196.372C150.269 197.781 153.518 199.332 156.593 200.799C167.999 206.239 177.005 210.54 184.076 202.92C185.041 201.897 186.09 200.984 187.208 200.195C187.36 200.078 187.527 199.969 187.687 199.86C192.56 196.507 199.34 194.277 205.852 193.287C211.421 192.449 216.809 192.491 220.652 193.589C215.859 196.406 211.051 199.047 206.693 201.285L206.113 201.587C201.109 204.194 199.173 205.778 199.253 207.279C199.34 208.955 201.842 210.062 206.432 211.73L209.086 212.669C210.536 213.197 212.189 213.767 213.922 214.413C211.587 216.441 209.129 218.495 206.715 220.499L205.482 221.463L204.032 222.653L204.8 222.787L205.794 221.949L206.736 221.17C209.405 218.956 212.073 216.735 214.561 214.564C220.551 216.757 226.422 219.361 232.145 222.36L233.385 223.022C235.999 224.331 238.464 226.006 240.724 228.01C240.905 228.195 241.079 228.362 241.224 228.53L241.289 228.605C241.461 228.801 241.624 229.008 241.775 229.226L241.884 229.385L242.609 229.511C242.362 229.057 242.07 228.638 241.739 228.262C241.594 228.088 241.434 227.912 241.26 227.733L241.195 227.666C241.043 227.507 240.876 227.339 240.695 227.18C238.492 225.317 236.119 223.74 233.617 222.477L233.356 222.335C227.422 219.161 221.321 216.42 215.09 214.128C220.492 209.366 224.901 204.906 226.264 201.36C227.272 198.736 226.779 196.498 224.814 194.88C223.975 194.224 223.056 193.716 222.088 193.371C224.908 191.695 227.78 189.943 230.594 188.149C234.944 185.374 239.114 182.524 242.631 179.824L242.819 179.673C242.921 179.606 243.03 179.522 243.131 179.439L243.313 179.296C243.69 179.011 244.038 178.709 244.407 178.458L243.284 178.55ZM224.488 195.425C226.235 196.867 226.663 198.778 225.75 201.134C224.423 204.571 219.84 209.173 214.445 213.918C212.566 213.222 210.819 212.61 209.238 212.049L206.41 211.026C202.494 209.601 199.884 208.444 199.797 207.22C199.731 205.837 202.995 203.867 206.134 202.232L206.91 201.83C210.826 199.826 215.982 197.001 221.413 193.799C222.505 194.136 223.543 194.674 224.488 195.392V195.425ZM165.751 224.523C163.851 223.575 161.545 222.536 158.783 221.379C154.002 219.373 149.32 217.064 144.758 214.463L144.033 214.061C141.234 212.434 138.638 210.783 136.289 209.148L135.658 208.704L135.172 208.352C132.568 206.516 130.077 204.474 127.717 202.241L127.195 202.668C129.533 204.885 132.002 206.91 134.585 208.729L134.94 208.981L135.592 209.433C137.964 211.11 140.567 212.786 143.352 214.371L143.997 214.74C148.745 217.453 153.618 219.863 158.594 221.958C161.719 223.274 164.265 224.431 166.288 225.47C167.899 226.249 169.445 227.198 170.907 228.304L171.349 227.901C169.585 226.549 167.707 225.406 165.744 224.489L165.751 224.523Z" fill="white"/>
<path d="M173.082 222.092C174.098 222.67 175.077 223.232 175.983 223.768L175.497 224.204L172.85 222.653C169.124 220.446 165.291 218.486 161.371 216.785C158.037 215.351 154.557 214.419 151.016 214.01C148.925 213.723 146.805 213.87 144.758 214.446C144.512 214.524 144.269 214.619 144.033 214.731C143.277 215.004 142.588 215.482 142.024 216.125C141.461 216.768 141.038 217.558 140.792 218.428C139.501 223.341 143.634 231.003 150.262 236.779C151.646 237.985 153.099 239.081 154.613 240.057C155.207 240.435 155.783 240.849 156.339 241.297L155.889 241.691C155.393 241.299 154.88 240.935 154.352 240.602C152.718 239.553 151.155 238.365 149.675 237.047C143.032 231.129 138.921 223.324 140.248 218.244C140.486 217.37 140.889 216.568 141.428 215.897C141.968 215.225 142.63 214.701 143.366 214.362C143.601 214.237 143.843 214.13 144.091 214.044C146.363 213.259 148.752 213.033 151.103 213.382C154.454 213.757 157.754 214.602 160.929 215.897C165.089 217.663 169.149 219.732 173.082 222.092V222.092Z" fill="white"/>
<path d="M187.179 214.153C186.889 215.93 186.592 217.758 186.396 219.518L185.852 219.426C186.055 217.649 186.353 215.821 186.643 214.036C187.433 209.157 188.245 204.152 187.201 200.136C187.153 199.93 187.095 199.728 187.027 199.533C186.718 198.537 186.267 197.607 185.693 196.783C183.3 193.388 178.601 191.653 171.342 191.485C161.19 191.242 152.778 190.362 146.586 188.928L145.998 188.786C145.578 188.685 145.164 188.585 144.766 188.476L145.331 188.014L145.868 188.149L146.462 188.291C152.612 189.725 161.052 190.613 171.349 190.856C178.782 191.024 183.612 192.835 186.113 196.389C186.707 197.234 187.178 198.185 187.506 199.206C187.571 199.399 187.629 199.6 187.68 199.801C188.804 203.976 187.991 209.131 187.179 214.153Z" fill="white"/>
<path d="M146.927 195.685C146.927 195.895 146.876 196.104 146.84 196.314C146.554 198.424 145.854 200.432 144.795 202.182L144.679 202.366C142.714 205.476 139.719 207.648 136.296 209.14C136.064 209.249 135.832 209.341 135.571 209.433C134.176 209.996 132.752 210.458 131.307 210.816C127.477 211.736 123.58 212.23 119.668 212.292L119.183 211.63C123.939 211.603 128.675 210.91 133.287 209.567C133.847 209.389 134.399 209.196 134.94 208.989L135.665 208.704C138.675 207.605 141.391 205.634 143.555 202.978C143.798 202.67 144.026 202.345 144.236 202.006C145.326 200.27 146.04 198.258 146.317 196.138C146.317 195.928 146.368 195.719 146.39 195.501C146.585 193.255 146.453 190.989 145.998 188.794L145.868 188.157L145.759 187.679L146.238 187.294C146.325 187.637 146.397 187.964 146.463 188.299C146.506 188.509 146.55 188.727 146.586 188.937C147.022 191.149 147.137 193.429 146.927 195.685Z" fill="white"/>
<path d="M250.484 188.777C251.409 187.848 252.426 187.052 253.515 186.405V187.126C252.752 187.615 252.024 188.176 251.34 188.802C250.422 189.635 249.579 190.573 248.824 191.602C245.394 196.238 241.739 205.133 241.645 222.016C241.645 223.827 241.679 225.733 241.746 227.733C241.746 228.019 241.746 228.312 241.746 228.572C241.746 228.832 241.746 229.024 241.746 229.251L241.224 229.159C241.224 228.756 241.188 228.371 241.173 227.977C241.159 227.583 241.173 227.423 241.173 227.138C241.108 225.344 241.086 223.634 241.101 221.991C241.195 204.873 244.915 195.844 248.418 191.125C249.052 190.281 249.743 189.496 250.484 188.777V188.777Z" fill="white"/>
<path d="M253.574 183.789V184.418C249.879 183.538 246.328 181.987 243.052 179.824L242.515 179.455C242.153 179.212 241.79 178.961 241.493 178.709L242.363 178.634L242.994 179.078L243.53 179.439C246.67 181.465 250.055 182.932 253.574 183.789Z" fill="white"/>
<path d="M176.527 148.84L64.7464 150.953L64.6376 147.801L79.068 146.694L78.8214 144.179L62.8683 144.464L61.6936 141.664L78.5169 141.111L78.2123 138.018L61.1787 139.233L61.3237 137.288L78.002 135.612L77.6975 132.518L61.9039 134.597L61.7951 131.445L82.3819 129.475L72.7157 120.757L75.1885 119.424L86.4282 129.308L175.113 119.625C175.35 119.625 175.592 119.625 175.838 119.625C179.155 119.585 182.352 121.051 184.743 123.708C187.134 126.365 188.526 130.001 188.622 133.834C188.717 137.666 187.506 141.389 185.251 144.2C182.996 147.011 179.876 148.687 176.564 148.865L176.527 148.84Z" fill="#A04515"/>
<defs>
<linearGradient id="paint0_linear_1216_1577" x1="213.956" y1="300.429" x2="144.311" y2="38.3489" gradientUnits="userSpaceOnUse">
<stop stop-color="#FF461E"/>
<stop offset="0.885417" stop-color="#FF3F33" stop-opacity="0"/>
<stop offset="0.9999" stop-color="#01FF2A" stop-opacity="0"/>
<stop offset="1" stop-opacity="0"/>
</linearGradient>
</defs>
</svg>
