<svg width="365" height="370" viewBox="0 0 365 370" fill="none" xmlns="http://www.w3.org/2000/svg">
<path fill-rule="evenodd" clip-rule="evenodd" d="M202.295 63.0363V63.0363L203.378 63.2495L204.46 63.4719L205.542 63.7033L206.624 63.9435L207.705 64.1923L208.785 64.4496L209.866 64.7151L210.947 64.9887L212.027 65.2704L213.108 65.5598L214.19 65.8569L215.272 66.1616L216.355 66.4737L217.438 66.7931L218.522 67.1198L219.608 67.4536L220.695 67.7944L221.783 68.1422L222.873 68.4969L223.965 68.8584L225.058 69.2267L226.154 69.6018L227.252 69.9836L228.353 70.372L229.456 70.7672L230.562 71.1691L231.672 71.5776L232.784 71.9929L233.9 72.4149L235.02 72.8437L236.143 73.2794L237.27 73.722L238.402 74.1716L239.538 74.6284L240.678 75.0924L241.823 75.5639L242.973 76.0429L244.127 76.5297L245.287 77.0245L246.452 77.5275L247.622 78.039L248.797 78.5592L249.978 79.0885L251.164 79.6272L252.355 80.1758L253.552 80.7346L254.754 81.304L255.961 81.8845L257.173 82.4766L258.389 83.0808L259.61 83.6974L260.836 84.327L262.065 84.97L263.299 85.6268L264.537 86.298L265.778 86.9838L267.023 87.6847L268.271 88.4013L269.522 89.1338L270.775 89.8828L272.031 90.6486L273.289 91.4317L274.549 92.2324L275.81 93.0513L277.073 93.8885L278.336 94.7447L279.6 95.6202L280.864 96.5153L282.127 97.4305L283.39 98.3661L284.651 99.3225L285.911 100.3L287.169 101.299L288.424 102.32L289.676 103.364L290.925 104.429L292.169 105.518L293.408 106.63L294.642 107.766L295.87 108.925L297.092 110.109L298.306 111.316L299.512 112.549L300.709 113.806L301.897 115.089L303.075 116.396L304.242 117.73L305.398 119.088L306.541 120.473L307.67 121.883L308.786 123.32L309.886 124.782L310.971 126.27L312.039 127.785L313.09 129.325L314.122 130.892L315.135 132.484L316.128 134.102L317.1 135.745L318.05 137.414L318.976 139.108L319.88 140.827L320.758 142.571L321.611 144.339L322.438 146.131L323.237 147.946L324.008 149.785L324.751 151.646L325.464 153.529L326.148 155.433L326.8 157.359L327.42 159.304L328.009 161.27L328.565 163.254L329.087 165.257L329.576 167.277L330.03 169.314L330.449 171.367L330.833 173.435L331.182 175.518L331.494 177.614L331.77 179.723L332.01 181.844L332.212 183.976L332.377 186.118L332.505 188.269L332.595 190.429L332.647 192.595L332.661 194.769L332.637 196.948L332.575 199.131L332.474 201.318L332.334 203.507L332.157 205.698L331.94 207.89L331.685 210.081L331.391 212.271L331.058 214.458L330.687 216.642L330.277 218.822L329.828 220.996L329.34 223.163L328.813 225.323L328.247 227.474L327.642 229.615L326.998 231.745L326.315 233.862L325.592 235.967L324.831 238.057L324.031 240.131L323.193 242.188L322.315 244.228L321.4 246.248L320.447 248.248L319.456 250.227L318.429 252.183L317.364 254.116L316.264 256.024L315.128 257.907L313.957 259.763L312.752 261.591L311.513 263.391L310.241 265.161L308.938 266.901L307.603 268.61L306.237 270.287L304.843 271.931L303.419 273.542L301.968 275.119L300.491 276.66L298.988 278.167L297.46 279.638L295.909 281.072L294.335 282.47L292.74 283.83L291.126 285.154L289.492 286.439L287.841 287.687L286.173 288.897L284.489 290.069L282.792 291.203L281.081 292.299L279.359 293.357L277.626 294.378L275.884 295.361L274.133 296.307L272.376 297.216L270.612 298.088L268.844 298.924L267.073 299.725L265.298 300.491L263.522 301.222L261.746 301.92L259.971 302.584L258.197 303.215L256.426 303.815L254.658 304.384L252.895 304.923L251.137 305.432L249.385 305.913L247.64 306.366L245.902 306.793L244.173 307.193L242.452 307.569L240.741 307.92L239.04 308.247L237.349 308.552L235.669 308.835L234 309.097L232.343 309.339L230.697 309.56L229.063 309.763L227.441 309.946L225.831 310.113L224.234 310.261L222.649 310.393L221.077 310.509L219.518 310.61L217.971 310.695L216.437 310.766L214.916 310.822L213.407 310.865L211.912 310.894L210.428 310.911L208.958 310.915L207.5 310.907L206.054 310.888L204.621 310.858L203.2 310.816L201.792 310.765L200.396 310.704L199.011 310.633L197.639 310.554L196.279 310.466L194.93 310.371L193.593 310.268L192.268 310.159L190.954 310.044L189.652 309.923L188.361 309.799L187.08 309.67L185.811 309.539L184.553 309.405L183.305 309.271L182.067 309.137L180.839 309.003L179.621 308.872L178.413 308.743L177.214 308.617L176.023 308.496L174.841 308.38L173.667 308.27L172.5 308.167L171.341 308.07L170.188 307.982L169.041 307.902L167.899 307.83L166.763 307.768L165.631 307.716L164.504 307.674L163.379 307.642L162.258 307.621L161.139 307.611L160.021 307.612L158.905 307.624L157.79 307.647L156.674 307.681L155.559 307.726L154.442 307.782L153.323 307.849L152.203 307.926L151.08 308.012L149.954 308.109L148.825 308.214L147.691 308.329L146.554 308.451L145.411 308.581L144.264 308.718L143.111 308.861L141.953 309.01L140.789 309.163L139.618 309.32L138.441 309.48L137.257 309.642L136.067 309.806L134.87 309.969L133.666 310.132L132.455 310.293L131.237 310.452L130.012 310.607L128.78 310.756L127.542 310.9L126.297 311.037L125.046 311.166L123.789 311.286L122.526 311.396L121.257 311.494L119.984 311.58L118.705 311.653L117.421 311.712L116.134 311.756L114.842 311.785L113.547 311.797L112.249 311.792L110.947 311.77L109.643 311.731L108.337 311.673L107.028 311.597L105.717 311.503L104.405 311.39L103.091 311.258L101.776 311.107L100.459 310.937L99.1421 310.748L97.8239 310.54L96.5051 310.313L95.1857 310.067L93.8659 309.802L92.5459 309.518L91.2256 309.215L89.9053 308.892L88.5851 308.551L87.2651 308.191L85.9454 307.812L84.6261 307.414L83.3074 306.997L81.9895 306.561L80.6726 306.106L79.3567 305.631L78.0423 305.138L76.7294 304.624L75.4185 304.091L74.1099 303.538L72.8038 302.964L71.5007 302.37L70.2011 301.755L68.9054 301.118L67.6143 300.46L66.3283 299.78L65.048 299.077L63.7742 298.351L62.5077 297.601L61.2493 296.827L59.9998 296.028L58.76 295.205L57.5308 294.356L56.3129 293.481L55.1073 292.58L53.9147 291.653L52.7361 290.699L51.5723 289.718L50.424 288.71L49.2922 287.676L48.1777 286.614L47.0813 285.525L46.0037 284.408L44.9458 283.265L43.9083 282.095L42.892 280.898L41.8975 279.674L40.9256 278.424L39.977 277.148L39.0522 275.846L38.1519 274.519L37.2767 273.166L36.427 271.79L35.6035 270.389L34.8066 268.965L34.0367 267.518L33.2942 266.048L32.5795 264.557L31.8929 263.045L31.2348 261.512L30.6053 259.959L30.0046 258.388L29.433 256.798L28.8906 255.19L28.3775 253.566L27.8938 251.925L27.4394 250.27L27.0145 248.599L26.6188 246.916L26.2525 245.219L25.9153 243.51L25.6072 241.79L25.328 240.059L25.0775 238.318L24.8555 236.569L24.6617 234.811L24.496 233.046L24.358 231.274L24.2475 229.496L24.1641 227.713L24.1076 225.926L24.0775 224.135L24.0736 222.34L24.0955 220.543L24.1431 218.745L24.216 216.945L24.3143 215.144L24.4378 213.343L24.5866 211.543L24.7605 209.744L24.9598 207.946L25.1845 206.15L25.4346 204.357L25.7105 202.566L26.0122 200.78L26.34 198.997L26.694 197.22L27.0746 195.448L27.4819 193.681L27.9161 191.922L28.3776 190.169L28.8664 188.424L29.3828 186.688L29.927 184.961L30.4991 183.244L31.0993 181.537L31.7277 179.842L32.3843 178.159L33.0691 176.489L33.7822 174.832L34.5235 173.19L35.2928 171.563L36.09 169.951L36.9149 168.357L37.7672 166.78L38.6464 165.221L39.5523 163.681L40.4843 162.161L41.4419 160.661L42.4245 159.182L43.4314 157.725L44.4618 156.29L45.5149 154.878L46.5898 153.49L47.6855 152.125L48.8011 150.784L49.9353 149.468L51.0871 148.177L52.2553 146.911L53.4389 145.671L54.6365 144.456L55.847 143.266L57.0693 142.103L58.3022 140.964L59.5444 139.852L60.7948 138.765L62.0522 137.703L63.3154 136.666L64.5832 135.653L65.8546 134.665L67.1283 133.702L68.4032 132.761L69.6783 131.844L70.9524 130.949L72.2246 130.076L73.4937 129.225L74.7588 128.394L76.019 127.583L77.2734 126.791L78.5209 126.017L79.7609 125.262L80.9925 124.522L82.2149 123.799L83.4274 123.091L84.6293 122.396L85.8201 121.715L86.999 121.045L88.1657 120.387L89.3196 119.738L90.4602 119.099L91.5872 118.468L92.7003 117.843L93.7991 117.225L94.8835 116.611L95.9531 116.001L97.008 115.394L98.048 114.789L99.073 114.184L100.083 113.58L101.078 112.974L102.059 112.366L103.025 111.755L103.976 111.14L104.914 110.52L105.837 109.895L106.747 109.263L107.643 108.623L108.527 107.975L109.399 107.319L110.258 106.653L111.106 105.977L111.944 105.29L112.771 104.593L113.588 103.883L114.397 103.162L115.198 102.429L115.992 101.684L116.779 100.928L117.561 100.159L118.338 99.3789L119.112 98.5875L119.882 97.7853L120.651 96.9728L121.419 96.1505L122.187 95.319L122.955 94.479L123.725 93.6314L124.497 92.7769L125.273 91.9164L126.052 91.0509L126.836 90.1813L127.625 89.3087L128.421 88.4341L129.223 87.5587L130.032 86.6834L130.848 85.8095L131.673 84.9381L132.507 84.0703L133.349 83.2074L134.201 82.3504L135.062 81.5004L135.933 80.6587L136.814 79.8263L137.704 79.0043L138.605 78.1938L139.517 77.3957L140.438 76.6111L141.369 75.8408L142.311 75.0858L143.262 74.3469L144.223 73.6249L145.194 72.9204L146.174 72.2341L147.162 71.5666L148.16 70.9184L149.166 70.2898L150.18 69.6815L151.202 69.0935L152.232 68.5264L153.268 67.9803L154.311 67.4555L155.361 66.9522L156.416 66.4704L157.477 66.0102L158.543 65.5718L159.614 65.155L160.69 64.7598L161.769 64.3863L162.852 64.0341L163.939 63.7032L165.029 63.3935L166.121 63.1046L167.215 62.8364L168.312 62.5886L169.411 62.3609L170.511 62.1529L171.612 61.9644L172.714 61.795L173.816 61.6444L174.92 61.5121L176.023 61.3978L177.127 61.3011L178.23 61.2216L179.333 61.1589L180.436 61.1125L181.538 61.0821L182.64 61.0673L183.74 61.0677L184.84 61.0828L185.939 61.1122L187.037 61.1557L188.134 61.2127L189.23 61.283L190.324 61.3661L191.418 61.4617L192.51 61.5695L193.602 61.6891L194.692 61.8203L195.781 61.9626L196.869 62.1158L197.956 62.2797L199.042 62.454L200.127 62.6383L201.212 62.8325L202.295 63.0363" fill="url(#paint0_linear_1216_1576)"/>
<path d="M246.865 124.177L233.655 143.874L180.728 121.342C172.57 118.608 167.695 111.917 169.836 106.419C171.978 100.922 180.322 98.6911 188.455 101.432L246.865 124.177Z" fill="#FD925A"/>
<path d="M164.996 145.83C164.992 146.749 164.867 147.664 164.623 148.555C163.126 154.053 157.489 157.241 152.022 155.741L65.7016 128.3L66.3193 126.179L77.6595 129.164L78.0234 127.46L65.6846 123.533L65.4392 121.334L78.4889 125.308L78.9459 123.171L65.5492 119.598L66.0993 118.326L79.259 121.506L79.716 119.37L67.1064 116.676L67.7242 114.556L83.9643 118.53L78.5312 110.268L80.7231 110.016L87.1633 119.496L157.447 135.942C159.678 136.626 161.615 137.955 162.973 139.734C164.331 141.513 165.04 143.649 164.996 145.83V145.83Z" fill="#FD925A"/>
<path d="M182.802 65.2652L182.751 65.4459C182.294 66.836 180.026 67.0166 178.875 67.6842C177.335 68.5246 175.794 69.3492 174.263 70.1974C173.687 70.5116 168.339 72.8677 168.339 73.4411C168.339 76.059 168.339 78.656 168.339 81.232C168.339 84.4443 168.999 87.3031 167.856 90.3817C167.78 90.5545 167.712 90.7273 167.636 90.908C165.546 95.6202 159.918 100.403 154.942 102.461C152.496 103.458 149.788 103.663 147.325 104.668C141.274 107.158 135.875 111.226 130.781 115.09C130.163 115.561 122.267 121.106 122.436 121.781L120.473 117.58L134.259 105.28L119.872 116.276L113.855 103.042L130.518 92.8321L113.009 101.173L108.777 91.9996L128.242 83.9338L107.339 88.7482L103.657 80.698C110.05 80.2241 116.412 79.4376 122.716 78.3418C128.106 77.3523 135.486 77.0303 140.487 74.7919C142.772 73.7631 144.313 71.9331 145.768 70.0796C149.534 65.5265 154.942 62.3865 161.001 61.2362C163.903 60.6054 166.887 60.3673 169.862 60.5294C172.22 60.6059 174.567 60.8687 176.878 61.3148C178.528 61.6917 183.318 62.9169 182.802 65.2652Z" fill="#6562BE"/>
<path d="M178.105 204.655L172.35 300.047H152.285L144.228 205.016L178.105 204.655Z" fill="#FD925A"/>
<path d="M175.735 326.059L114.041 325.981C113.931 319.266 122.352 316.799 129.553 316.14L150.88 310.729L150.033 296.592L174.449 295.209L175.735 326.059Z" fill="#6562BE"/>
<path d="M154.443 316.595L148.612 311.459L149.052 311.035L154.883 316.163L154.443 316.595Z" fill="#FFCB39"/>
<path d="M143.372 312.529L142.847 312.861L147.059 318.599L147.583 318.267L143.372 312.529Z" fill="#FFCB39"/>
<path d="M139.03 313.673L138.46 313.933L141.515 319.698L142.084 319.438L139.03 313.673Z" fill="#FFCB39"/>
<path d="M145.794 274.326L179.594 273.847C179.594 273.847 186.872 264.909 181.287 254.464C175.701 244.018 180.33 235.167 183.191 226.316C186.051 217.464 187.625 207.631 182.615 199.613C177.605 191.594 181.295 181.211 182.988 175.054C184.68 168.896 181.557 158.035 181.557 158.035L139.243 170.318C139.243 170.318 136.264 208.464 140.69 215.949C145.117 223.433 144.406 240.531 143.695 247.976C142.984 255.422 139.269 265.695 145.794 274.326Z" fill="#161730"/>
<path d="M218.168 202.346L258.197 291.471L241.762 298.563L188.006 216.655L218.168 202.346Z" fill="#FD925A"/>
<path d="M274.251 312.04L218.963 337.447C215.654 331.478 222.01 325.792 228.145 322.234L244.648 308.577L237.074 296.254L258.281 284.944L274.251 312.04Z" fill="#6562BE"/>
<path d="M252.688 263.692L246.95 266.441L226.961 276.015L222.645 278.08C212.658 273.046 211.059 262.294 208.131 255.304C205.203 248.314 197.629 232.74 190.08 227.863C188.523 226.85 186.61 224.541 184.57 221.501C183.445 219.828 182.277 217.936 181.109 215.917C180.982 215.713 180.864 215.501 180.745 215.297C179.755 213.577 178.756 211.77 177.783 209.948C177.199 208.864 176.632 207.773 176.091 206.689C175.998 206.5 175.904 206.32 175.803 206.131C175.557 205.637 175.304 205.15 175.058 204.663C174.542 203.642 174.034 202.636 173.543 201.647C173.459 201.458 173.366 201.278 173.272 201.089C169.608 193.644 166.934 187.588 166.934 187.588L177.14 178.509L183.411 172.933L198.932 159.118C198.932 159.118 206.946 167.569 208.385 173.774C208.689 175.093 209.003 176.625 209.392 178.266C210.831 184.329 213.259 191.892 219.818 195.921C222.893 197.847 225.459 200.392 227.325 203.367C227.528 203.681 227.722 203.995 227.908 204.317C228.019 204.49 228.12 204.671 228.222 204.843C228.442 205.236 228.653 205.629 228.856 206.029C230.94 210.355 232.383 214.923 233.147 219.608C234.84 228.711 234.95 238.552 244.944 245.605C254.939 252.657 252.688 263.692 252.688 263.692Z" fill="#161730"/>
<path d="M179.425 97.1439C179.933 97.246 180.423 97.3559 180.889 97.4894C190.486 100.238 197.044 114.933 200.929 124.876C203.121 130.491 211.846 178.282 211.846 178.282L137.373 178.863C136.298 178.863 138.355 148.178 138.592 146.042C140.47 129.015 144.913 106.859 159.241 100.042C164.522 97.5287 173.306 95.9894 179.425 97.1439Z" fill="black"/>
<path d="M176.429 90.7273L175.947 90.908C176.065 91.4028 176.192 91.9054 176.319 92.4002C176.624 93.6097 176.92 94.8113 177.225 96.0208C177.419 96.8062 177.978 97.5916 177.665 98.4241C177.274 99.1471 176.692 99.7661 175.972 100.223C174.077 101.542 169.354 102.532 168.576 99.4372L166.037 89.2901L160.671 72.7499L180.034 68.556L183.098 80.7608C183.636 82.9031 183.236 85.1559 181.985 87.0245C180.735 88.8932 178.737 90.225 176.429 90.7273V90.7273Z" fill="#FD925A"/>
<path d="M180.483 72.2551C181.727 71.9881 186.407 78.9152 186.407 78.9152L182.344 79.7948L180.483 72.2551Z" fill="#FF534A"/>
<path d="M174.347 83.6118C176.118 83.6118 177.554 82.2791 177.554 80.6352C177.554 78.9912 176.118 77.6586 174.347 77.6586C172.576 77.6586 171.14 78.9912 171.14 80.6352C171.14 82.2791 172.576 83.6118 174.347 83.6118Z" fill="#FF534A"/>
<path d="M174.068 74.2814C174.068 74.2814 179.23 72.5536 179.146 72.263C179.061 71.9724 179.095 70.7472 178.164 70.9514C177.233 71.1556 172.942 73.6139 173.298 73.8259C173.653 74.038 173.374 74.1244 174.068 74.2814Z" fill="#161730"/>
<path d="M169.557 73.5432C169.989 82.1824 173.95 90.6723 173.95 90.6723C170.649 88.0963 168.483 79.6142 167.569 75.3181L161.805 77.4072L159.114 70.6844C156.863 63.1761 164.607 63.9851 174.965 60.5529C185.324 57.1208 186.017 69.5848 186.017 69.5848L169.938 74.517L169.557 73.5432Z" fill="#6562BE"/>
<path d="M164.234 81.3263C166.272 81.3263 167.924 79.7932 167.924 77.902C167.924 76.0109 166.272 74.4778 164.234 74.4778C162.196 74.4778 160.544 76.0109 160.544 77.902C160.544 79.7932 162.196 81.3263 164.234 81.3263Z" fill="#FD925A"/>
<path d="M166.045 79.2293L165.419 79.3C165.41 79.0045 165.329 78.7147 165.183 78.4523C165.036 78.1898 164.828 77.9615 164.573 77.7842C164.337 77.6747 164.08 77.6105 163.816 77.5957C163.553 77.5809 163.289 77.6156 163.041 77.6978L162.829 77.1402C163.427 76.9331 164.085 76.9331 164.683 77.1402C164.743 76.8095 164.674 76.4696 164.488 76.182C164.425 76.0877 164.325 76.0201 164.209 75.9935L164.268 75.4045C164.552 75.4474 164.807 75.591 164.979 75.8051C165.149 76.0592 165.262 76.3421 165.313 76.6374C165.364 76.9327 165.351 77.2344 165.275 77.525C165.733 77.9954 166.005 78.5965 166.045 79.2293Z" fill="#0C0604"/>
<path d="M175.625 325.627C175.625 325.627 176.615 335.641 172.57 332.374C168.525 329.106 166.722 327.716 164.953 329.334C163.185 330.952 160.011 333.599 158.437 330.74C156.863 327.881 155.424 332.374 150.414 331.353C145.404 330.332 147.029 327.881 145.523 328.29C144.016 328.698 145.692 333.599 141.156 331.761C136.62 329.923 137.525 327.269 135.046 328.085C132.566 328.902 130.104 334.659 125.381 329.334C120.659 324.009 120.431 335.931 117.765 333.033C115.099 330.135 114.1 325.706 114.1 325.706L175.625 325.627Z" fill="#FE4877"/>
<path d="M273.65 311.011C273.65 311.011 279.371 319.556 274.166 318.323C268.961 317.09 266.668 316.587 265.839 318.779C265.009 320.97 263.461 324.661 260.668 322.761C257.875 320.86 258.755 325.47 253.762 326.648C248.769 327.826 249.023 324.967 247.897 325.949C246.772 326.931 250.614 330.622 245.663 330.866C240.713 331.109 240.23 328.36 238.411 330.12C236.591 331.879 237.141 338.06 230.329 335.264C223.516 332.468 229.076 343.228 225.251 341.759C221.426 340.29 218.43 336.725 218.43 336.725L273.65 311.011Z" fill="#FE4877"/>
<path d="M240.333 311.809L240.058 312.34L247.293 315.574L247.569 315.043L240.333 311.809Z" fill="#FFCB39"/>
<path d="M241.661 320.342L235.762 316.069L236.151 315.606L242.05 319.878L241.661 320.342Z" fill="#FFCB39"/>
<path d="M237.463 323.617L232.656 318.983L233.113 318.574L237.92 323.208L237.463 323.617Z" fill="#FFCB39"/>
<path d="M176.488 75.2239L176.023 74.8312C176.33 74.4344 176.74 74.1156 177.215 73.9043C177.689 73.6929 178.214 73.5957 178.74 73.6217C179.172 73.6611 179.582 73.8198 179.916 74.0772L179.501 74.517C179.442 74.4699 178.173 73.4803 176.488 75.2239Z" fill="#0C0604"/>
<path d="M181.77 85.6868C182.339 85.566 182.63 84.7757 182.42 83.9215C182.21 83.0673 181.578 82.4728 181.008 82.5936C180.439 82.7143 180.147 83.5047 180.358 84.3588C180.568 85.213 181.2 85.8076 181.77 85.6868Z" fill="#0C0604"/>
<path d="M253.678 135.235L233.655 143.882L211.897 91.5834L207.276 84.0673L195.462 79.7241L195.2 77.4622L205.491 81.0828L204.103 78.1219L204.01 78.1533L197.231 65.6265L199.38 64.527L205.347 76.614L207.547 75.6715L200.929 63.1368L202.156 62.3122L209.248 74.949L211.448 74.0144L203.993 61.7703L206.43 61.5268L213.674 73.0641L215.443 72.3101L209.476 61.5739L211.626 60.4744L222.035 79.8184L222.061 79.8576L253.678 135.235Z" fill="#FD925A"/>
<path d="M217.601 73.9594L201.369 81.8132C201.41 82.0548 201.43 82.2991 201.428 82.5436C201.436 83.9313 200.909 85.2758 199.942 86.334C198.975 87.3923 197.631 88.0945 196.155 88.3136C194.678 88.5328 193.166 88.2544 191.891 87.5289C190.617 86.8034 189.664 85.6786 189.205 84.3578C188.747 83.0371 188.812 81.6076 189.39 80.3279C189.968 79.0481 191.021 78.0025 192.357 77.3802C193.694 76.7578 195.226 76.5998 196.677 76.9346C198.128 77.2694 199.402 78.075 200.269 79.2058L216.213 71.4698C216.562 71.3286 216.957 71.3158 217.316 71.4339C217.676 71.552 217.974 71.7922 218.15 72.1061C218.326 72.42 218.367 72.7843 218.265 73.1253C218.163 73.4663 217.926 73.7588 217.601 73.9437V73.9594Z" fill="#0C0604"/>
<path d="M181.397 307.147L64.4066 328.62L63.2134 323.028L119.076 312.77L62.1555 81.6405L66.6662 80.6901L123.621 311.938L180.203 301.555L181.397 307.147Z" fill="#0C0604"/>
<path d="M84.3788 65.1239L91.5553 86.9104C92.7984 87.3431 93.8219 88.1919 94.4245 89.2898C95.0271 90.3877 95.1651 91.6552 94.8113 92.8428C94.4575 94.0303 93.6375 95.052 92.5127 95.7067C91.388 96.3614 90.04 96.6017 88.7339 96.3803C87.4278 96.1589 86.2583 95.4919 85.4556 94.5105C84.6529 93.5291 84.275 92.3044 84.3964 91.0774C84.5178 89.8504 85.1297 88.7101 86.1115 87.8807C87.0934 87.0514 88.3743 86.5932 89.7019 86.5962C90.2596 86.596 90.8138 86.6782 91.3437 86.8397L82.2039 62.1551C91.6314 62.1551 95.0166 52.5106 95.0166 52.5106L97.4285 57.4428C97.1915 63.2704 84.3788 65.1239 84.3788 65.1239Z" fill="#FF534A"/>
<path d="M248.642 52.0237L250.8 74.7213C251.914 75.383 252.721 76.4076 253.063 77.5936C253.404 78.7796 253.255 80.0412 252.645 81.1303C252.035 82.2194 251.007 83.0573 249.765 83.4792C248.523 83.9011 247.156 83.8765 245.932 83.4102C244.709 82.9439 243.717 82.0697 243.153 80.9594C242.589 79.8491 242.492 78.5831 242.883 77.4103C243.274 76.2375 244.123 75.2427 245.264 74.6216C246.405 74.0004 247.755 73.7979 249.048 74.0537C249.597 74.1586 250.123 74.347 250.606 74.6113L247.136 48.6937C256.36 50.4922 261.81 41.7038 261.81 41.7038L263.08 46.9973C261.582 52.6599 248.642 52.0237 248.642 52.0237Z" fill="#FF534A"/>
<path d="M150.423 212.839C149.928 212.079 149.584 211.244 149.407 210.372C151.661 208.792 153.706 206.97 155.501 204.945C161.424 198.38 164.581 190.377 164.09 186.882C163.929 185.719 163.371 185.311 162.922 185.193C161.814 184.863 160.172 185.821 158.039 188.005C153.537 192.646 149.822 199.322 148.798 205.048C148.462 206.732 148.428 208.457 148.696 210.152C148.197 210.498 147.672 210.82 147.148 211.126L147.486 211.629C147.943 211.362 148.392 211.079 148.84 210.789C149.045 211.634 149.396 212.443 149.881 213.184C150.905 214.708 152.894 216.231 156.728 216.231C158.569 216.204 160.397 215.939 162.161 215.446L161.991 214.881C156.304 216.294 152.302 215.603 150.423 212.839ZM149.475 204.985C150.516 199.424 154.113 192.866 158.513 188.35C160.747 186.057 161.898 185.664 162.491 185.664C162.572 185.654 162.655 185.654 162.736 185.664C163.219 185.806 163.396 186.403 163.464 186.874C163.938 190.282 160.595 198.395 154.637 204.938C153.04 206.697 151.247 208.294 149.289 209.705C149.092 208.132 149.155 206.54 149.475 204.985V204.985Z" fill="white"/>
<path d="M226.817 221.58C224.176 221.823 221.248 220.472 219.132 218.328C220.719 217.103 222.199 215.764 223.558 214.323C226.317 211.409 228.441 208.252 228.831 206.061C228.628 205.66 228.416 205.275 228.196 204.875C228.721 206.618 226.503 210.286 223.296 213.75C221.898 215.246 220.366 216.631 218.718 217.889C217.731 216.794 216.994 215.525 216.551 214.158C215.519 210.899 216.72 208.063 219.86 206.108C220.608 205.642 221.405 205.247 222.238 204.93C223.568 204.349 225.003 204.002 226.47 203.909C226.729 203.884 226.991 203.911 227.239 203.987C227.487 204.062 227.715 204.186 227.908 204.349C227.722 204.027 227.527 203.712 227.324 203.398C226.165 203.139 224.388 203.469 222.018 204.388C221.185 204.702 220.386 205.088 219.632 205.542C214.791 208.448 215.4 212.54 215.967 214.323C216.445 215.761 217.228 217.096 218.269 218.25C217.685 218.674 217.084 219.074 216.492 219.444C213.914 220.897 211.735 222.887 210.128 225.255C204.272 223.308 197.273 220.158 193.532 215.493C194.692 215.297 195.826 215.053 196.917 214.778C199.609 214.095 204.221 212.579 204.83 210.152C204.949 209.688 204.905 209.201 204.703 208.762V208.762C204.422 208.209 204.008 207.723 203.493 207.341L203.07 206.987C198.271 203.06 194.802 200.162 192.542 201.073C191.053 201.678 190.3 203.909 190.189 208.095C190.13 210.431 190.816 212.732 192.161 214.708C192.24 214.833 192.325 214.959 192.415 215.085C191.933 215.155 191.442 215.226 190.951 215.281C189.197 215.493 187.431 215.609 185.662 215.627C184.018 215.641 182.375 215.549 180.745 215.352C179.645 215.225 178.558 215.015 177.495 214.723C175.823 214.343 174.284 213.569 173.027 212.477C172.287 211.781 171.663 210.987 171.174 210.121C172.739 209.069 174.415 207.922 176.065 206.752L178.071 205.315C180.059 203.862 181.947 202.424 183.47 201.136C185.907 199.079 187.439 197.39 187.092 196.62C186.745 195.851 185.543 196.071 184.638 196.228C183.516 196.427 182.408 196.69 181.32 197.013C178.344 197.848 175.593 199.259 173.247 201.152C172.017 202.15 171.038 203.386 170.378 204.773C170.287 204.962 170.207 205.156 170.141 205.354C169.625 206.852 169.712 208.474 170.386 209.917C168.195 211.393 165.918 212.878 163.616 214.331L163.98 214.818C165.148 214.032 167.67 212.462 170.632 210.467C171.139 211.357 171.783 212.175 172.544 212.893C173.917 214.087 175.604 214.924 177.436 215.32C178.631 215.631 179.85 215.852 181.083 215.98C182.572 216.145 184.07 216.221 185.569 216.208C186.813 216.208 188.108 216.145 189.352 216.035C190.596 215.925 191.662 215.799 192.788 215.627C196.57 220.512 203.789 223.787 209.772 225.797C207.361 230.133 208.249 235.002 210.568 240.814C211.363 242.817 212.633 243.319 213.716 243.319C213.899 243.331 214.083 243.331 214.266 243.319C217.897 242.777 222.23 237.154 222.399 232.748C222.535 231.534 222.167 230.317 221.37 229.347C220.572 228.376 219.406 227.725 218.108 227.525C216.416 227.156 213.75 226.504 210.712 225.53C212.253 223.277 214.332 221.382 216.788 219.993C217.397 219.624 218.015 219.208 218.633 218.752C220.859 221.03 223.99 222.585 227.045 222.224C227.167 222.216 227.289 222.201 227.409 222.177L227.299 221.596C227.138 221.601 226.977 221.595 226.817 221.58V221.58ZM170.75 205.495C170.836 205.226 170.944 204.964 171.072 204.71C171.661 203.549 172.492 202.507 173.518 201.647C175.834 199.737 178.576 198.326 181.549 197.516C182.603 197.194 183.677 196.932 184.765 196.73C185.13 196.66 185.501 196.621 185.873 196.613C186.407 196.613 186.491 196.746 186.508 196.77C186.728 197.264 185.45 198.631 183.182 200.516C181.752 201.71 179.941 203.1 177.859 204.616L175.777 206.116C174.246 207.207 172.604 208.346 170.903 209.493C170.35 208.218 170.296 206.803 170.75 205.495V205.495ZM192.754 214.417C191.469 212.521 190.81 210.318 190.858 208.079C190.96 204.207 191.603 202.079 192.83 201.592C193.04 201.506 193.268 201.463 193.498 201.466C195.487 201.466 198.712 204.129 202.681 207.404L203.104 207.757C203.552 208.096 203.906 208.529 204.136 209.022C204.27 209.336 204.297 209.682 204.212 210.011C203.823 211.582 201.039 213.153 196.748 214.205C195.589 214.496 194.379 214.755 193.135 214.99L192.754 214.417ZM218.024 228.028C219.178 228.197 220.218 228.773 220.926 229.637C221.634 230.5 221.956 231.584 221.824 232.662C221.663 236.746 217.541 242.173 214.207 242.667C212.844 242.864 211.837 242.165 211.203 240.578C208.952 234.916 208.08 230.18 210.449 225.978C212.923 226.781 215.44 227.465 217.99 228.028H218.024Z" fill="white"/>
<path d="M215.087 192.725C213.75 192.112 211.626 192.089 209.679 193.848C207.733 195.607 206.548 197.154 206.142 198.56C203.576 198.036 201.239 196.811 199.431 195.042C197.9 193.58 196.841 191.749 196.376 189.756C200.886 190.596 205.05 190.62 206.184 188.28C206.581 187.475 206.722 186.581 206.59 185.705C206.458 184.828 206.059 184.005 205.439 183.332C204.787 182.554 203.921 181.953 202.932 181.593C201.944 181.232 200.869 181.125 199.82 181.282C197.924 181.651 196.537 183.08 195.893 185.303C195.545 186.502 195.447 187.753 195.606 188.986C191.285 188.022 187.058 186.725 182.971 185.107L182.717 185.649C186.921 187.304 191.266 188.633 195.707 189.623C196.151 191.821 197.284 193.848 198.965 195.45C200.867 197.305 203.321 198.59 206.015 199.141C205.973 199.401 205.958 199.664 205.973 199.927C206.074 201.568 207.225 203.068 209.705 204.898L210.094 204.435C207.767 202.746 206.709 201.348 206.607 199.895C206.587 199.676 206.587 199.455 206.607 199.236C208.359 199.514 210.153 199.474 211.888 199.118C214.876 198.505 216.712 197.233 216.924 195.623C216.979 195.023 216.832 194.422 216.503 193.902C216.174 193.383 215.679 192.972 215.087 192.725V192.725ZM196.469 185.429C197.214 182.868 198.754 182.059 199.913 181.832C200.847 181.695 201.804 181.794 202.683 182.118C203.561 182.443 204.329 182.982 204.906 183.677C205.453 184.265 205.806 184.986 205.924 185.754C206.043 186.522 205.922 187.306 205.575 188.013C204.602 190.023 200.675 189.952 196.266 189.096C196.082 187.871 196.162 186.625 196.503 185.429H196.469ZM216.323 195.56C216.145 196.911 214.495 197.995 211.778 198.545C210.132 198.884 208.431 198.926 206.768 198.67C207.166 197.398 208.258 195.976 210.153 194.288C211.846 192.717 213.699 192.717 214.842 193.275C215.314 193.466 215.71 193.788 215.975 194.198C216.241 194.608 216.362 195.084 216.323 195.56Z" fill="white"/>
<path d="M176.988 223.229L176.649 223.151C169.828 221.58 162.355 220.205 159.901 223.041C158.996 224.085 158.835 225.585 159.402 227.596C156.863 227.839 154.324 228.067 151.726 228.256L151.777 228.845C153.529 228.711 156.381 228.483 159.588 228.177C159.941 229.182 160.373 230.161 160.883 231.106C162.008 233.33 162.556 235.767 162.482 238.222C161.099 237.979 159.699 237.827 158.293 237.767C154.468 237.609 151.954 238.308 150.609 239.926C148.383 242.604 149.763 247.38 151.455 252.445C152.022 254.102 152.945 254.582 153.613 254.684C154.993 254.904 156.668 253.898 158.335 251.809C161.184 248.012 162.832 243.55 163.092 238.929C168.745 240.028 174.093 242.557 175.625 245.997L175.752 246.319C176.002 247.037 176.094 247.794 176.023 248.546C175.952 249.297 175.719 250.028 175.337 250.694C174.303 252.485 172.876 254.055 171.148 255.304C168.722 257.192 166.089 258.839 163.295 260.221C159.351 258.783 155.247 258.548 149.052 261.791L148.688 261.988C146.818 263.001 145.937 263.802 145.98 264.446C145.997 264.607 146.064 264.76 146.174 264.886C146.284 265.011 146.431 265.104 146.598 265.153C147.069 265.299 147.565 265.363 148.062 265.341C148.491 265.339 148.921 265.315 149.348 265.271C154.259 264.577 158.998 263.08 163.345 260.849C164.649 261.352 165.952 261.988 167.348 262.671L167.738 262.867L167.915 262.954L169.159 263.566L169.202 263.496L169.456 263.04L168.296 262.475L168.008 262.333L167.704 262.184C166.434 261.556 165.233 260.967 164.022 260.48C166.685 259.124 169.196 257.527 171.521 255.712C172.946 254.644 174.195 253.387 175.227 251.982C176.641 249.948 177.013 247.976 176.319 246.092C176.153 245.64 175.931 245.208 175.659 244.804C173.569 241.662 168.432 239.361 163.083 238.332C163.18 235.748 162.614 233.181 161.433 230.839C160.956 229.956 160.546 229.043 160.206 228.106C166.257 227.517 173.382 226.653 176.818 225.625C178.079 225.248 178.849 224.839 178.883 224.431C178.917 224.022 178.367 223.567 176.988 223.229ZM157.819 251.456C156.347 253.286 154.806 254.275 153.715 254.102C152.987 253.993 152.428 253.372 152.022 252.265C150.33 247.356 149.035 242.738 151.074 240.288C152.166 238.976 154.172 238.332 157.201 238.332H158.234C159.655 238.39 161.069 238.545 162.465 238.795C162.229 243.337 160.619 247.725 157.819 251.456ZM149.289 264.674C148.477 264.814 147.643 264.79 146.843 264.603C146.691 264.54 146.614 264.477 146.606 264.407C146.598 264.336 146.682 263.747 149.001 262.49L149.103 262.435C152.682 260.503 155.509 259.757 158.022 259.757C159.567 259.766 161.098 260.032 162.541 260.543C158.407 262.604 153.926 264.001 149.289 264.674V264.674ZM176.869 225.09C174.093 225.876 167.501 226.795 160.053 227.533C159.512 225.679 159.622 224.305 160.4 223.41C161.179 222.514 162.939 221.996 165.173 221.996C168.262 221.996 172.341 222.781 176.497 223.716L176.945 223.826C177.316 223.907 177.674 224.031 178.012 224.195C178.248 224.321 178.274 224.391 178.274 224.391C178.223 224.619 177.724 224.847 176.869 225.09Z" fill="white"/>
<path d="M177.047 257.268C176.835 257.134 176.564 257.165 175.583 257.668L174.889 258.006L173.653 258.611C171.284 259.757 169.007 260.849 167.729 262.192C167.588 262.34 167.457 262.498 167.34 262.663C166.982 263.125 166.763 263.667 166.705 264.234C166.674 264.574 166.705 264.917 166.798 265.247C164.999 266.627 163.079 267.867 161.061 268.954L161.281 269.512C163.285 268.413 165.2 267.179 167.01 265.82C167.852 267.292 169.076 268.544 170.573 269.465L170.954 269.001C169.092 267.69 167.958 266.519 167.526 265.451C170.065 263.645 172.841 261.571 174.762 259.993C176.201 258.815 177.174 257.904 177.208 257.597V257.362L177.047 257.268ZM174.813 259.176C173.416 260.338 171.343 261.933 169.227 263.496L169.151 263.551L167.357 264.846C167.332 264.659 167.332 264.469 167.357 264.281C167.416 263.794 167.615 263.33 167.932 262.938C168.061 262.776 168.199 262.622 168.347 262.475C169.591 261.242 171.8 260.173 173.966 259.129L174.872 258.689L175.913 258.171L176.099 258.076C175.769 258.391 175.337 258.752 174.813 259.176Z" fill="white"/>
<path d="M238.952 250.725L238.876 250.136C238.495 250.18 238.11 250.201 237.725 250.199C237.571 247.588 237.065 245.005 236.219 242.51C235.726 240.984 235.062 239.51 234.239 238.112C234.004 237.731 233.744 237.364 233.46 237.013C232.563 235.905 231.674 235.442 230.828 235.56C228.89 235.897 227.968 238.356 228.518 241.686C229.246 246.005 232.199 250.38 237.108 250.78C237.254 252.718 236.906 254.661 236.092 256.451C235.781 257.14 235.252 257.727 234.576 258.133C233.899 258.54 233.106 258.747 232.301 258.728C230.2 258.773 228.134 258.226 226.377 257.158C228.518 250.631 228.916 246.767 227.646 245.66C227.344 245.443 226.977 245.317 226.596 245.301C226.214 245.284 225.836 245.376 225.514 245.565C222.695 246.704 221.358 249.272 222.027 252.265C222.528 254.322 223.811 256.142 225.64 257.393C225.353 258.257 225.04 259.16 224.693 260.111C223.694 262.875 222.814 264.964 222.805 264.988L223.398 265.2C223.398 265.2 224.244 263.079 225.293 260.299C225.615 259.412 225.911 258.556 226.14 257.747C227.965 258.811 230.086 259.357 232.241 259.317C233.166 259.34 234.077 259.104 234.855 258.639C235.632 258.173 236.241 257.501 236.6 256.71C237.46 254.851 237.837 252.831 237.7 250.812C238.119 250.812 238.538 250.783 238.952 250.725V250.725ZM229.136 241.568C228.645 238.63 229.389 236.384 230.93 236.117H231.107C231.784 236.117 232.478 236.777 232.944 237.358C234.966 239.832 236.811 245.361 237.074 250.176C232.538 249.751 229.804 245.628 229.127 241.568H229.136ZM225.844 256.749C224.236 255.59 223.112 253.95 222.662 252.108C222.052 249.398 223.245 247.089 225.776 246.068C226.04 245.948 226.328 245.878 226.622 245.864C226.725 245.858 226.829 245.872 226.926 245.904C227.024 245.937 227.113 245.987 227.189 246.052C228.272 246.955 227.765 250.788 225.835 256.749H225.844Z" fill="white"/>
<path d="M217.728 265.302C218.003 264.552 218.237 263.789 218.43 263.017C218.972 260.888 219.234 258.414 218.218 256.82C217.902 256.34 217.462 255.94 216.937 255.658C216.413 255.375 215.82 255.219 215.214 255.202C214.926 255.154 214.629 255.167 214.347 255.242C214.066 255.317 213.806 255.451 213.589 255.634C213.499 255.715 213.422 255.808 213.361 255.909C212.413 257.48 214.529 261.548 217.017 265.388C216.67 266.331 216.382 266.959 216.365 266.959L216.949 267.195C216.949 267.124 217.186 266.692 217.448 266.032C219.784 269.567 222.297 272.763 222.848 273.446L223.355 273.101C222.027 271.389 219.716 268.357 217.728 265.302ZM217.287 264.627C214.96 260.982 213.166 257.44 213.902 256.199C213.979 256.074 214.199 255.815 214.876 255.815H215.129C215.64 255.815 216.142 255.937 216.586 256.169C217.031 256.402 217.404 256.737 217.668 257.142C218.515 258.43 218.362 260.441 217.948 262.31C217.772 263.092 217.552 263.866 217.287 264.627Z" fill="white"/>
<path d="M250.225 254.134C250.083 253.917 249.871 253.747 249.618 253.65C249.365 253.552 249.086 253.532 248.82 253.592C246.222 253.938 244.343 257.228 244.225 260.087C244.225 260.173 244.225 260.26 244.225 260.346C244.172 261.404 244.493 262.45 245.139 263.323C244.508 263.898 243.741 264.328 242.899 264.579C242.057 264.83 241.163 264.895 240.29 264.768C239.487 264.634 238.716 264.368 238.013 263.983C240.484 261.493 242.795 258.917 243.091 257.77C243.116 257.698 243.125 257.622 243.118 257.546C243.111 257.471 243.087 257.397 243.048 257.33C242.991 257.247 242.909 257.182 242.811 257.142C242.468 257.063 242.105 257.099 241.788 257.244C239.054 258.202 236.202 260.503 236.363 262.569C236.409 263.127 236.674 263.649 237.108 264.038C236.075 265.074 234.975 266.142 233.875 267.179L234.332 267.595C235.305 266.669 236.464 265.569 237.607 264.454C238.38 264.916 239.242 265.236 240.146 265.396C241.914 265.765 243.793 265.2 245.553 263.825C245.654 263.92 245.764 264.004 245.884 264.077C246.342 264.375 246.865 264.579 247.415 264.674L247.551 264.1C246.991 263.991 246.474 263.744 246.053 263.386C246.73 262.788 247.342 262.13 247.881 261.422C249.954 258.658 251.046 255.39 250.225 254.134ZM237.531 263.558C237.211 263.273 237.017 262.886 236.989 262.475C236.854 260.739 239.469 258.634 241.999 257.762C242.163 257.704 242.333 257.665 242.507 257.645C242.448 258.296 240.281 260.747 237.497 263.582L237.531 263.558ZM245.63 262.914C245.069 262.068 244.811 261.078 244.893 260.087C245.003 257.519 246.696 254.448 248.947 254.15H249.133C249.249 254.141 249.366 254.163 249.469 254.213C249.573 254.263 249.658 254.339 249.717 254.432C250.318 255.351 249.497 258.304 247.364 261.069C246.842 261.744 246.249 262.37 245.596 262.938L245.63 262.914Z" fill="white"/>
<path d="M153.529 182.829C153.402 182.389 152.682 182.358 151.717 182.452C150.403 182.639 149.15 183.098 148.053 183.795C146.955 184.493 146.041 185.411 145.379 186.481L145.32 186.567L144.761 186.787L144.939 187.172C144.099 188.574 143.576 190.121 143.403 191.717C143.23 193.314 143.41 194.926 143.932 196.455C143.932 196.565 144.008 196.667 144.042 196.777C141.993 199.939 141.102 203.631 141.503 207.302C141.621 208.275 141.867 208.786 142.273 208.919C142.34 208.928 142.409 208.928 142.476 208.919C142.588 208.913 142.697 208.886 142.797 208.84C142.897 208.794 142.986 208.731 143.06 208.652C143.686 207.884 144.128 207 144.355 206.061C144.456 205.723 144.558 205.37 144.643 204.993C145.332 202.322 145.375 199.544 144.769 196.856C144.88 196.707 144.998 196.565 145.125 196.424C145.567 195.855 146.13 195.376 146.779 195.017C147.428 194.658 148.15 194.426 148.899 194.335L148.84 193.746C148.002 193.839 147.194 194.091 146.466 194.487C145.738 194.883 145.106 195.414 144.609 196.047L144.507 196.165C144.008 194.644 143.862 193.043 144.078 191.466C144.294 189.889 144.867 188.372 145.76 187.015C151.1 184.934 153.715 183.52 153.529 182.829ZM151.785 183.041C152.024 183.016 152.264 183.003 152.505 183.002H152.826C152.284 183.559 149.441 184.879 146.411 186.143C147.03 185.312 147.826 184.607 148.75 184.073C149.675 183.539 150.708 183.188 151.785 183.041V183.041ZM142.84 207.953C142.595 208.323 142.451 208.362 142.451 208.362C142.451 208.362 142.222 208.22 142.104 207.231C141.748 203.878 142.497 200.504 144.253 197.555C145.125 201.356 143.915 206.343 142.84 207.953Z" fill="white"/>
<path d="M185.781 39.9917C186.417 41.1738 186.526 42.5411 186.085 43.7974C185.643 45.0538 184.686 46.0982 183.421 46.7045C182.155 47.3109 180.684 47.4304 179.324 47.0372C177.965 46.6441 176.827 45.7698 176.157 44.6038C175.486 43.4377 175.338 42.0737 175.744 40.8069C176.149 39.5401 177.076 38.4724 178.323 37.8351C179.571 37.1978 181.039 37.042 182.409 37.4015C183.779 37.7611 184.942 38.6069 185.645 39.756L172.663 17.3805C169.608 21.2446 160.604 22.5405 160.604 22.5405L167.78 44.327C169.028 44.773 170.035 45.6576 170.585 46.7889C171.134 47.9201 171.18 49.2067 170.713 50.3694C170.246 51.5321 169.304 52.477 168.091 52.9991C166.879 53.5212 165.493 53.5783 164.235 53.158C162.977 52.7378 161.948 51.874 161.372 50.7543C160.797 49.6346 160.72 48.3493 161.159 47.1773C161.597 46.0053 162.517 45.0413 163.717 44.4944C164.917 43.9475 166.301 43.862 167.569 44.2563L158.429 19.5717C167.459 19.5717 170.945 10.7048 171.216 9.97437L173.653 14.9223L186.348 40.9577L185.781 39.9917Z" fill="#FF534A"/>
<defs>
<linearGradient id="paint0_linear_1216_1576" x1="40.0158" y1="152.534" x2="324.122" y2="240.983" gradientUnits="userSpaceOnUse">
<stop stop-color="#FF461E"/>
<stop offset="0.885417" stop-color="#FF3F33" stop-opacity="0"/>
<stop offset="0.9999" stop-color="#01FF2A" stop-opacity="0"/>
<stop offset="1" stop-opacity="0"/>
</linearGradient>
</defs>
</svg>
