<svg width="306" height="280" viewBox="0 0 306 280" fill="none" xmlns="http://www.w3.org/2000/svg">
<path fill-rule="evenodd" clip-rule="evenodd" d="M305.736 143.852V143.852L305.652 145.256L305.557 146.658L305.45 148.058L305.332 149.456L305.203 150.853L305.062 152.247L304.909 153.64L304.744 155.032L304.567 156.421L304.377 157.808L304.176 159.194L303.961 160.577L303.734 161.959L303.493 163.338L303.239 164.716L302.971 166.09L302.688 167.463L302.392 168.832L302.08 170.199L301.753 171.563L301.411 172.923L301.053 174.28L300.678 175.633L300.288 176.982L299.88 178.327L299.455 179.667L299.012 181.002L298.552 182.332L298.074 183.656L297.578 184.974L297.063 186.285L296.53 187.591L295.977 188.888L295.406 190.179L294.817 191.462L294.208 192.736L293.58 194.002L292.933 195.259L292.267 196.507L291.583 197.746L290.88 198.974L290.159 200.193L289.42 201.402L288.663 202.6L287.888 203.787L287.097 204.964L286.289 206.129L285.465 207.284L284.625 208.428L283.77 209.562L282.901 210.684L282.017 211.796L281.12 212.896L280.21 213.987L279.287 215.067L278.352 216.137L277.405 217.196L276.447 218.246L275.478 219.287L274.499 220.318L273.51 221.34L272.512 222.353L271.504 223.358L270.488 224.355L269.464 225.344L268.432 226.325L267.392 227.3L266.345 228.268L265.29 229.229L264.229 230.185L263.161 231.135L262.086 232.08L261.005 233.02L259.917 233.955L258.823 234.886L257.723 235.813L256.616 236.736L255.503 237.656L254.384 238.572L253.258 239.486L252.125 240.397L250.986 241.305L249.839 242.21L248.686 243.113L247.524 244.013L246.355 244.911L245.178 245.807L243.993 246.699L242.799 247.589L241.595 248.476L240.383 249.359L239.161 250.239L237.929 251.116L236.686 251.987L235.433 252.855L234.169 253.717L232.893 254.573L231.606 255.423L230.306 256.267L228.995 257.103L227.67 257.93L226.333 258.749L224.982 259.558L223.618 260.357L222.241 261.145L220.85 261.92L219.445 262.683L218.026 263.432L216.594 264.167L215.147 264.886L213.687 265.589L212.212 266.275L210.724 266.942L209.223 267.591L207.708 268.22L206.18 268.829L204.638 269.416L203.085 269.982L201.519 270.524L199.941 271.044L198.351 271.539L196.751 272.01L195.139 272.456L193.518 272.876L191.887 273.27L190.246 273.638L188.597 273.979L186.94 274.294L185.274 274.581L183.602 274.842L181.923 275.076L180.238 275.283L178.548 275.463L176.852 275.617L175.152 275.744L173.447 275.846L171.739 275.922L170.027 275.973L168.313 275.999L166.595 276L164.876 275.977L163.154 275.931L161.431 275.862L159.707 275.77L157.981 275.656L156.254 275.52L154.526 275.362L152.798 275.184L151.069 274.986L149.339 274.768L147.61 274.53L145.879 274.274L144.149 273.999L142.418 273.706L140.687 273.396L138.956 273.068L137.224 272.724L135.492 272.363L133.759 271.986L132.026 271.592L130.292 271.183L128.557 270.759L126.821 270.319L125.085 269.864L123.348 269.394L121.609 268.909L119.87 268.408L118.129 267.893L116.388 267.363L114.645 266.817L112.901 266.256L111.156 265.68L109.409 265.088L107.661 264.481L105.912 263.859L104.162 263.221L102.41 262.567L100.657 261.896L98.9035 261.21L97.1484 260.507L95.3922 259.788L93.6352 259.051L91.8775 258.298L90.1192 257.527L88.3605 256.738L86.6018 255.93L84.8432 255.105L83.0851 254.26L81.3278 253.396L79.5717 252.512L77.8172 251.608L76.0649 250.684L74.3151 249.739L72.5685 248.772L70.8256 247.784L69.087 246.773L67.3535 245.739L65.6255 244.683L63.9039 243.603L62.1895 242.499L60.4829 241.371L58.785 240.218L57.0966 239.041L55.4186 237.838L53.7517 236.61L52.097 235.356L50.4551 234.077L48.8272 232.771L47.2139 231.439L45.6163 230.081L44.0351 228.697L42.4713 227.286L40.9257 225.849L39.3991 224.385L37.8923 222.896L36.4062 221.38L34.9414 219.839L33.4986 218.272L32.0787 216.679L30.6821 215.062L29.3096 213.419L27.9618 211.753L26.6394 210.062L25.343 208.347L24.0733 206.609L22.8307 204.848L21.616 203.064L20.4296 201.258L19.2722 199.43L18.1444 197.581L17.0465 195.711L15.9792 193.821L14.9428 191.911L13.938 189.982L12.9652 188.034L12.0247 186.068L11.1171 184.085L10.2427 182.084L9.4019 180.067L8.59508 178.033L7.82259 175.985L7.08476 173.922L6.38191 171.845L5.71435 169.754L5.08236 167.65L4.48622 165.535L3.92619 163.408L3.40251 161.27L2.91541 159.121L2.46512 156.963L2.05185 154.797L1.6758 152.621L1.33715 150.439L1.03611 148.249L0.772856 146.053L0.547619 143.852L0.360623 141.646L0.212109 139.435L0.102326 137.221L0.0315335 135.004L0 132.786L0.00799844 130.566L0.0558066 128.345L0.143704 126.125L0.271972 123.906L0.440886 121.688L0.650722 119.473L0.901745 117.262L1.19421 115.055L1.52837 112.853L1.90444 110.657L2.32264 108.468L2.78317 106.287L3.28619 104.115L3.83184 101.952L4.42023 99.8L5.05146 97.6595L5.72556 95.5315L6.44255 93.417L7.2024 91.317L8.00505 89.2323L8.85036 87.1641L9.7382 85.1131L10.6683 83.0805L11.6405 81.067L12.6545 79.0737L13.7097 77.1015L14.806 75.1513L15.9427 73.2239L17.1194 71.3202L18.3354 69.441L19.5902 67.5872L20.8829 65.7594L22.2129 63.9584L23.5793 62.1849L24.9813 60.4395L26.4179 58.7228L27.8881 57.0353L29.3909 55.3774L30.9252 53.7497L32.4899 52.1525L34.0837 50.5859L35.7055 49.0504L37.354 47.546L39.0278 46.0728L40.7258 44.6309L42.4467 43.2202L44.1891 41.8408L45.9517 40.4924L47.7334 39.1751L49.5328 37.8884L51.3487 36.6323L53.1799 35.4064L55.0251 34.2103L56.8832 33.0437L58.7531 31.9062L60.6335 30.7973L62.5235 29.7166L64.4219 28.6635L66.3278 27.6374L68.2401 26.6378L70.1579 25.6642L72.0803 24.7159L74.0065 23.7922L75.9356 22.8927L77.867 22.0165L79.7999 21.163L81.7335 20.3317L83.6675 19.5219L85.601 18.7328L87.5338 17.9639L89.4652 17.2146L91.3949 16.4842L93.3225 15.7722L95.2478 15.078L97.1704 14.401L99.0901 13.7407L101.007 13.0966L102.92 12.4683L104.83 11.8554L106.737 11.2574L108.641 10.6741L110.541 10.1051L112.438 9.55018L114.331 9.00914L116.222 8.4818L118.109 7.96805L119.994 7.46783L121.876 6.98112L123.756 6.50796L125.633 6.04841L127.508 5.60261L129.381 5.17073L131.253 4.753L133.123 4.34967L134.992 3.96105L136.86 3.58749L138.726 3.22937L140.592 2.88712L142.458 2.56119L144.323 2.25206L146.187 1.96024L148.051 1.68627L149.915 1.4307L151.779 1.19409L153.642 0.977039L155.505 0.780127L157.368 0.603949L159.23 0.449099L161.091 0.316165L162.952 0.205729L164.812 0.118356L166.671 0.0545966L168.528 0.0149775L170.383 0L172.236 0.0101352L174.087 0.0458195L175.935 0.107451L177.78 0.195384L179.621 0.30993L181.458 0.451347L183.29 0.619842L185.118 0.815567L186.94 1.03861L188.755 1.28901L190.565 1.56671L192.367 1.87164L194.162 2.20361L195.948 2.56239L197.727 2.9477L199.496 3.35922L201.256 3.79661L203.006 4.2595L204.746 4.74748L206.475 5.26013L208.193 5.79699L209.9 6.35759L211.595 6.94144L213.278 7.54802L214.948 8.1768L216.606 8.82725L218.251 9.4988L219.883 10.1909L221.502 10.903L223.107 11.6344L224.698 12.3847L226.276 13.1533L227.839 13.9395L229.389 14.7428L230.924 15.5627L232.445 16.3986L233.952 17.25L235.445 18.1163L236.924 18.9971L238.388 19.8918L239.838 20.8001L241.274 21.7213L242.695 22.6552L244.102 23.6013L245.496 24.5593L246.875 25.5288L248.24 26.5094L249.591 27.501L250.928 28.5031L252.251 29.5156L253.56 30.5383L254.855 31.5708L256.136 32.613L257.404 33.6647L258.658 34.7257L259.898 35.7958L261.124 36.8749L262.336 37.9628L263.535 39.0594L264.72 40.1646L265.892 41.2783L267.049 42.4004L268.193 43.531L269.323 44.6699L270.439 45.8171L271.541 46.9726L272.628 48.1363L273.702 49.3084L274.761 50.4887L275.805 51.6774L276.835 52.8743L277.849 54.0796L278.849 55.2932L279.833 56.5152L280.802 57.7456L281.755 58.9844L282.691 60.2316L283.611 61.4872L284.515 62.7512L285.402 64.0235L286.272 65.3041L287.124 66.5931L287.958 67.8902L288.775 69.1955L289.573 70.5088L290.353 71.83L291.114 73.159L291.856 74.4956L292.578 75.8397L293.282 77.1911L293.965 78.5495L294.629 79.9148L295.273 81.2866L295.897 82.6649L296.5 84.0491L297.084 85.4392L297.647 86.8347L298.19 88.2354L298.713 89.6409L299.216 91.0509L299.699 92.4651L300.161 93.8831L300.604 95.3046L301.028 96.7292L301.432 98.1567L301.816 99.5866L302.182 101.019L302.528 102.453L302.857 103.888L303.166 105.325L303.458 106.763L303.732 108.201L303.989 109.64L304.228 111.079L304.451 112.518L304.657 113.956L304.847 115.394L305.022 116.832L305.181 118.268L305.324 119.703L305.453 121.137L305.568 122.57L305.668 124.002L305.755 125.431L305.828 126.859L305.888 128.286L305.935 129.71L305.969 131.133L305.991 132.554L306 133.973L305.997 135.39L305.983 136.805L305.957 138.218L305.919 139.629L305.869 141.039L305.808 142.446L305.736 143.852" fill="url(#paint0_linear_1216_1575)"/>
<path d="M240.567 69.3296L227.761 66.6628L233.097 62.2791L216.545 42.9685L214.59 44.5685C212.576 42.5223 209.844 41.3007 206.946 41.1505C204.047 41.0004 201.199 41.9328 198.976 43.7596C196.753 45.5863 195.321 48.171 194.969 50.9916C194.618 53.8121 195.373 56.6582 197.082 58.9547L195.343 60.4159L211.925 79.6973L220.754 72.4421L239.888 71.9672L242.231 74.6925L244.172 68.241L240.567 69.3296ZM197.515 58.5967C195.913 56.4112 195.214 53.7138 195.557 51.0449C195.9 48.376 197.261 45.9325 199.366 44.204C201.471 42.4754 204.166 41.5894 206.91 41.7234C209.654 41.8574 212.245 43.0015 214.164 44.9266L197.515 58.5967Z" fill="black"/>
<path d="M248.164 107.023L264.724 108.133L263.492 110.471L247.746 109.595L247.418 111.655L261.597 113.168L261.381 115.79L247 114.417L245.097 114.234L244.351 114.147L230.261 112.517L151.306 109.595C148.131 109.272 145.203 107.771 143.124 105.4C141.045 103.029 139.972 99.9689 140.126 96.8477C140.279 93.7264 141.648 90.7814 143.951 88.6176C146.254 86.4539 149.316 85.2358 152.507 85.2136C152.918 85.2136 153.328 85.2136 153.739 85.272L232.746 96.3557L240.776 96.8744L252.224 89.0859L254.612 90.2915L244.836 97.174L264.985 99.6655L264.761 102.288L249.261 99.9139L248.851 102.478L265.194 104.553L265.269 106.183L248.567 104.48L248.164 107.023Z" fill="#FFCB39"/>
<path d="M168.284 154.207L206.179 226.262L226.575 222.397L196.291 142.349L168.284 154.207Z" fill="#FFCB39"/>
<path d="M117.56 174.964L97.1194 211.284L110.104 226.262L143.769 185.062L151.485 145.929L123.433 141.808L117.56 174.964Z" fill="#FFCB39"/>
<path d="M117.396 162.558C117.396 162.558 114.313 129.453 124.858 112.291L177.388 105.291C177.388 105.291 198.59 135.678 202.702 152.782L166.91 165.853L155.716 133.589L152.216 167.928L117.396 162.558Z" fill="black"/>
<path d="M140.664 50.5816C140.276 50.6912 139.918 50.8227 139.545 50.9616C132.239 53.8841 128.418 65.7203 126.276 73.7061C125.067 78.2214 122.597 115.812 122.597 115.812L181.328 110.325C182.172 110.245 177.724 86.7187 177.343 85.0821C174.291 72.0914 168.739 55.338 156.821 51.21C152.448 49.683 145.381 49.1934 140.664 50.5816Z" fill="#161730"/>
<path d="M196.291 209.056L219.007 201.647L232.679 236.6L212.948 243.892L196.291 209.056Z" fill="#6562BE"/>
<path d="M218.246 258.717L268.993 236.484C266.425 230.639 258.545 231.501 252.336 233.517L232.657 236.484L227.769 223.88L207.142 231.457L218.246 258.717Z" fill="#161730"/>
<path d="M218.246 258.717C218.246 258.717 222.791 266.871 225.821 263.166C228.851 259.462 229.605 256.496 232.634 256.496C235.664 256.496 243.231 256.496 243.985 252.791C244.184 251.915 244.557 251.086 245.083 250.351C245.609 249.616 246.278 248.99 247.051 248.508C247.825 248.026 248.688 247.698 249.591 247.543C250.493 247.388 251.419 247.409 252.313 247.604C256.105 248.334 259.888 248.334 260.642 243.892C261.396 239.45 268.216 241.7 268.97 240.933C269.724 240.166 268.97 236.484 268.97 236.484L218.246 258.717Z" fill="black"/>
<path d="M255.955 232.531C255.955 232.531 254.313 241.949 255.955 242.182C257.597 242.416 268.955 236.484 268.955 236.484C268.955 236.484 267.194 230.061 255.955 232.531Z" fill="white"/>
<path d="M206.888 232.034C206.888 232.034 217.493 232.034 218.246 237.222C219 242.409 221.276 251.308 225.821 250.563C230.366 249.818 229.993 253.573 229.993 253.573L218.246 258.687L206.888 232.034Z" fill="white"/>
<path d="M230.604 244.031L230.119 243.761L233.903 237.09L234.388 237.36L230.604 244.031Z" fill="#FFCB39"/>
<path d="M241.084 236.729L238.056 243.399L238.568 243.622L241.595 236.952L241.084 236.729Z" fill="#FFCB39"/>
<path d="M247.552 234.105L245.609 240.468L246.146 240.625L248.088 234.261L247.552 234.105Z" fill="#FFCB39"/>
<path d="M185.573 167.841L185.042 168.014L187.311 174.682L187.842 174.509L185.573 167.841Z" fill="#161730"/>
<path d="M193.915 167.867L193.37 167.99L195.639 177.623L196.185 177.5L193.915 167.867Z" fill="#161730"/>
<path d="M197.638 190.742L197.208 191.093L200.992 195.538L201.422 195.188L197.638 190.742Z" fill="#161730"/>
<path d="M212.089 193.121H211.53V196.825H212.089V193.121Z" fill="#161730"/>
<path d="M201.447 167.762L200.981 168.066L204.011 172.516L204.477 172.212L201.447 167.762Z" fill="#161730"/>
<path d="M190.098 184.058L189.633 184.362L191.148 186.587L191.613 186.283L190.098 184.058Z" fill="#161730"/>
<path d="M197.669 198.881L197.213 199.199L201 204.389L201.456 204.071L197.669 198.881Z" fill="#161730"/>
<path d="M116.972 184.793L111.673 190.72L112.094 191.081L117.393 185.154L116.972 184.793Z" fill="#161730"/>
<path d="M124.276 170.142H123.716V174.592H124.276V170.142Z" fill="#161730"/>
<path d="M138.856 174.527L137.345 180.461L137.888 180.593L139.399 174.66L138.856 174.527Z" fill="#161730"/>
<path d="M134.333 188.59L132.061 194.521L132.585 194.713L134.857 188.782L134.333 188.59Z" fill="#161730"/>
<path d="M127.564 184.797L120.75 192.952L121.183 193.299L127.998 185.144L127.564 184.797Z" fill="#161730"/>
<path d="M110.144 195.925L107.875 198.89L108.323 199.218L110.592 196.254L110.144 195.925Z" fill="#161730"/>
<path d="M119.575 200.778L119.328 200.288L125.381 197.329L125.634 197.819L119.575 200.778Z" fill="#161730"/>
<path d="M130.806 146.426C136.242 146.426 140.649 142.111 140.649 136.789C140.649 131.466 136.242 127.152 130.806 127.152C125.37 127.152 120.963 131.466 120.963 136.789C120.963 142.111 125.37 146.426 130.806 146.426Z" fill="#161730"/>
<path d="M143.298 162.368C145.808 162.368 147.843 160.376 147.843 157.919C147.843 155.461 145.808 153.469 143.298 153.469C140.788 153.469 138.754 155.461 138.754 157.919C138.754 160.376 140.788 162.368 143.298 162.368Z" fill="#161730"/>
<path d="M163.739 136.424C170.848 136.424 176.612 130.781 176.612 123.82C176.612 116.859 170.848 111.217 163.739 111.217C156.629 111.217 150.866 116.859 150.866 123.82C150.866 130.781 156.629 136.424 163.739 136.424Z" fill="#161730"/>
<path d="M170.552 152.724C172.642 152.724 174.336 151.065 174.336 149.02C174.336 146.974 172.642 145.315 170.552 145.315C168.463 145.315 166.769 146.974 166.769 149.02C166.769 151.065 168.463 152.724 170.552 152.724Z" fill="#161730"/>
<path d="M190.993 149.02C192.245 149.02 193.261 148.025 193.261 146.799C193.261 145.572 192.245 144.577 190.993 144.577C189.74 144.577 188.724 145.572 188.724 146.799C188.724 148.025 189.74 149.02 190.993 149.02Z" fill="#161730"/>
<path d="M133.455 120.854C135.545 120.854 137.239 119.195 137.239 117.149C137.239 115.104 135.545 113.445 133.455 113.445C131.366 113.445 129.672 115.104 129.672 117.149C129.672 119.195 131.366 120.854 133.455 120.854Z" fill="#161730"/>
<path d="M150.112 138.645C150.528 138.645 150.866 138.314 150.866 137.907C150.866 137.499 150.528 137.169 150.112 137.169C149.696 137.169 149.358 137.499 149.358 137.907C149.358 138.314 149.696 138.645 150.112 138.645Z" fill="#161730"/>
<path d="M182.664 134.202C184.337 134.202 185.694 132.874 185.694 131.236C185.694 129.598 184.337 128.27 182.664 128.27C180.991 128.27 179.634 129.598 179.634 131.236C179.634 132.874 180.991 134.202 182.664 134.202Z" fill="#161730"/>
<path d="M104.687 194.976L122.119 212.468L97.7015 241.277L81.5374 228.023L104.687 194.976Z" fill="#6562BE"/>
<path d="M91.0299 214.25L72.4851 240.553L83.8657 264.277L123.993 263.546C123.993 263.546 120.209 253.909 110.366 254.647C100.522 255.385 96.7388 255.378 96.7388 255.378L98.2314 241.291L106.933 230.544L91.0299 214.25Z" fill="#161730"/>
<path d="M72.1344 240.188C72.1344 240.188 66.8358 245.375 70.6418 246.859C74.4478 248.342 69.1493 250.563 71.3881 252.046C73.6269 253.529 75.9329 252.046 75.1791 254.238C74.4254 256.43 73.6866 260.163 75.9254 260.163C78.1642 260.163 78.1642 261.625 78.1642 264.613C78.1642 267.601 79.6567 270.546 84.2164 268.317C88.7761 266.089 85.709 268.317 89.515 269.048C93.3209 269.778 93.2985 267.587 96.3284 266.819C99.3582 266.052 97.0747 270.531 101.627 269.048C106.179 267.565 106.925 265.336 108.44 266.081C109.955 266.827 108.44 268.273 112.985 267.543C117.53 266.812 116.015 264.576 118.284 265.351C120.552 266.125 120.522 269.062 122.828 267.543C125.134 266.023 123.575 263.093 123.575 263.093H83.4926L72.1344 240.188Z" fill="black"/>
<path d="M77.6642 250.95C77.6642 250.95 89.5373 243.154 87.2985 237.967C85.0597 232.779 88.7911 228.33 89.5373 225.363C90.2836 222.397 90.2836 217.655 87.2985 219.438L72.1567 240.188L77.6642 250.95Z" fill="white"/>
<path d="M108.097 263.166H123.612C122.811 260.721 121.25 258.582 119.147 257.048C117.043 255.514 114.503 254.662 111.881 254.611C111.881 254.611 106.955 260.2 108.097 263.166Z" fill="white"/>
<path d="M97.9335 244.003L91.8176 244.363L91.8512 244.91L97.967 244.55L97.9335 244.003Z" fill="#FFCB39"/>
<path d="M97.4158 248.521L90.6506 249.18L90.706 249.725L97.4712 249.066L97.4158 248.521Z" fill="#FFCB39"/>
<path d="M96.7026 252.892L90.646 253.639L90.716 254.183L96.7726 253.436L96.7026 252.892Z" fill="#FFCB39"/>
<path d="M105.591 202.627L98.0178 212.999L98.4731 213.318L106.046 202.946L105.591 202.627Z" fill="#FFCB39"/>
<path d="M109.411 207.753L102.59 215.16L103.006 215.527L109.827 208.12L109.411 207.753Z" fill="#FFCB39"/>
<path d="M113.948 210.706L105.631 219.605L106.044 219.975L114.361 211.076L113.948 210.706Z" fill="#FFCB39"/>
<path d="M202.981 212.272L202.474 212.505L208.531 225.106L209.037 224.872L202.981 212.272Z" fill="#FFCB39"/>
<path d="M209.797 211.534L209.29 211.766L214.59 222.882L215.097 222.65L209.797 211.534Z" fill="#FFCB39"/>
<path d="M221.403 222.149L215.343 209.545L215.851 209.311L221.91 221.915L221.403 222.149Z" fill="#FFCB39"/>
<path d="M68.6418 264.255C68.2675 264.252 67.8937 264.228 67.5224 264.182C56.1045 262.721 55.2089 258.936 55.1716 258.775L55.7239 258.666C55.7239 258.666 56.6642 262.209 67.597 263.634C78.6716 265.095 92.9179 242.497 93.0672 242.27L93.5373 242.555C93 243.468 79.8358 264.255 68.6418 264.255Z" fill="#FFCB39"/>
<path d="M170 29.9559L166.269 41.288C165.949 42.2763 165.433 43.193 164.751 43.9855C164.068 44.778 163.232 45.4306 162.291 45.9059C161.35 46.3811 160.322 46.6696 159.267 46.7549C158.212 46.8401 157.15 46.7203 156.142 46.4024L155.672 46.3294L155.216 47.7176C154.851 48.8354 154.47 49.9533 154.112 51.0785C153.873 51.8091 153.896 52.7151 153.246 53.2704C152.575 53.6875 151.802 53.922 151.008 53.9498C148.888 54.1617 144.739 52.8247 145.687 49.9606L148.784 40.5281L152.97 24.6004L170 29.9559Z" fill="#FFCB39"/>
<path d="M168.478 33.2072C169.582 33.5506 169.754 41.3318 169.754 41.3318L166.179 40.1847L168.478 33.2072Z" fill="#FF534A"/>
<path d="M159.575 40.0605C161.17 40.0605 162.463 38.7946 162.463 37.233C162.463 35.6714 161.17 34.4055 159.575 34.4055C157.98 34.4055 156.687 35.6714 156.687 37.233C156.687 38.7946 157.98 40.0605 159.575 40.0605Z" fill="#FF534A"/>
<path d="M160.03 28.4946C160.03 28.4946 161.575 27.3475 164.328 29.2253C167.082 31.103 175.978 33.4848 178.933 28.1805C181.888 22.8761 175.381 20.5234 170.664 23.7967C171.179 22.0431 170.231 20.0997 167.522 19.106C166.776 18.843 169.015 16.6657 168.231 16.7899C167.069 16.8794 165.968 17.3328 165.09 18.0831C164.493 18.6969 164.187 19.5444 163.649 20.1873C162.619 21.4513 161.075 21.6486 159.522 21.6486C157.537 21.6048 154.813 20.6915 152.918 21.4952C150.097 22.6861 143.963 28.2827 149.679 35.0265L158.388 28.8599L152.97 45.4014C152.97 45.4014 158.119 51.3561 162.866 50.7716C166.09 50.3697 164.5 46.2124 165.851 43.0707C166.351 41.909 166.881 41.0177 165.657 40.6304L164.164 40.1847C163.749 40.0513 163.301 40.0456 162.883 40.1684C162.464 40.2912 162.093 40.5365 161.821 40.8715C160.082 43.0123 156.545 47.0015 157.545 42.552C158.836 36.7069 160.03 28.4946 160.03 28.4946Z" fill="#6562BE"/>
<path d="M153.403 35.7206C155.237 35.7206 156.724 34.2649 156.724 32.4693C156.724 30.6736 155.237 29.218 153.403 29.218C151.569 29.218 150.082 30.6736 150.082 32.4693C150.082 34.2649 151.569 35.7206 153.403 35.7206Z" fill="#FFCB39"/>
<path d="M154.396 32.725C154.495 33.2838 154.403 33.859 154.134 34.3616L153.619 34.1424C153.763 33.9011 153.848 33.6312 153.87 33.3529C153.892 33.0746 153.85 32.7951 153.746 32.535C153.619 32.3375 153.452 32.1671 153.256 32.034C153.06 31.9009 152.838 31.8079 152.604 31.7606L152.709 31.2199C153.287 31.3498 153.799 31.6792 154.149 32.1478C154.357 31.9034 154.473 31.5964 154.478 31.2784C154.478 31.2259 154.466 31.1741 154.444 31.1263C154.423 31.0784 154.391 31.0357 154.351 31.0007L154.687 30.5623C154.786 30.6391 154.867 30.7353 154.927 30.8448C154.986 30.9542 155.021 31.0745 155.03 31.198C155.029 31.7684 154.802 32.3162 154.396 32.725Z" fill="#0C0604"/>
<path d="M163.097 32.4547C163.13 32.4221 163.167 32.395 163.209 32.3743C163.405 32.3045 163.617 32.2894 163.821 32.3304C164.739 32.4181 167.119 32.5935 167.03 33.9378C166.955 35.0046 165.537 34.4054 164.836 34.1351C164.134 33.8648 162.269 33.1999 163.097 32.4547Z" fill="white"/>
<path d="M165.866 32.6812C165.866 32.6812 164.798 32.9953 165.328 34.3251C165.328 34.3251 166.948 35.0995 167.03 33.9378C167.038 33.7804 167.014 33.623 166.96 33.4746C166.906 33.3262 166.822 33.1898 166.714 33.073C166.606 32.9563 166.475 32.8616 166.33 32.7944C166.184 32.7271 166.026 32.6886 165.866 32.6812V32.6812Z" fill="#0C0604"/>
<path d="M162.53 31.9286C162.53 31.9286 167.381 32.8638 167.47 32.5935C167.56 32.3232 168.216 31.3295 167.366 31.0738C166.515 30.8181 161.97 30.8619 162.142 31.2126C162.313 31.5633 162.067 31.4829 162.53 31.9286Z" fill="#161730"/>
<path d="M165.739 41.551C165.757 42.1376 165.647 42.7212 165.417 43.2629C165.187 43.8047 164.841 44.2921 164.403 44.6927L161.709 43.6625C161.709 43.6625 161.299 39.8194 165.739 41.551Z" fill="#FFCB39"/>
<path d="M164.91 43.6479C164.409 43.6788 163.911 43.5542 163.486 43.2919C163.061 43.0296 162.732 42.6428 162.545 42.1867L163.067 41.9967C163.552 43.2826 165.224 43.0488 165.246 43.0415L165.328 43.5895C165.19 43.6173 165.051 43.6369 164.91 43.6479V43.6479Z" fill="#161730"/>
<path d="M172.537 23.8186L148.298 29.6636C147.888 29.7627 147.455 29.7139 147.078 29.5261C146.701 29.3383 146.406 29.024 146.246 28.6408L145.783 27.5083C145.686 27.2729 145.644 27.0193 145.658 26.7658C145.673 26.5123 145.745 26.2651 145.87 26.0422C145.994 25.8193 146.167 25.6261 146.377 25.4766C146.586 25.3271 146.827 25.225 147.082 25.1776L147.589 25.0826C146.985 23.6213 144.813 18.8722 142.134 18.5727C138.955 18.222 136.53 13.5824 141.686 13.9185C146.843 14.2546 160.276 9.46168 161.701 13.1368C163.127 16.8118 171.209 10.5284 170.433 20.7426L171.784 20.4869C171.895 20.4761 172.008 20.4761 172.119 20.4869C172.552 20.4809 172.972 20.6319 173.298 20.9109C173.624 21.1899 173.833 21.5771 173.885 21.998C173.937 22.4189 173.828 22.8437 173.579 23.1906C173.33 23.5375 172.959 23.782 172.537 23.877V23.8186Z" fill="#FB9159"/>
<path d="M136.567 18.9307C137.606 18.9307 138.448 18.1063 138.448 17.0895C138.448 16.0726 137.606 15.2483 136.567 15.2483C135.528 15.2483 134.687 16.0726 134.687 17.0895C134.687 18.1063 135.528 18.9307 136.567 18.9307Z" fill="#FB9159"/>
<path d="M172.239 38.9719L171.702 38.8038L173.231 34.1497L154.328 29.7221L154.455 29.1887L173.955 33.7552L172.239 38.9719Z" fill="#161730"/>
<path d="M265.709 87.0255V92.3226H261.179V107.512C261.179 108.693 260.942 109.861 260.48 110.952C260.019 112.042 259.343 113.033 258.491 113.867C257.638 114.702 256.626 115.364 255.513 115.815C254.399 116.267 253.205 116.499 252 116.499H244.858C242.425 116.497 240.092 115.55 238.372 113.864C236.653 112.179 235.687 109.895 235.687 107.512V92.3226H232V87.0255H265.709Z" fill="#FB9159"/>
<path d="M210.814 78.8936L210.112 79.237L210.791 78.8644L210.814 78.8936Z" fill="#FFCB39"/>
<path d="M223.358 71.8357L171.47 100.666L149.627 113.387L127.597 69.7826C126.877 68.341 126.454 66.7747 126.353 65.1731C126.251 63.5716 126.473 61.9661 127.005 60.4484C127.537 58.9307 128.37 57.5305 129.455 56.3277C130.54 55.1249 131.856 54.1431 133.328 53.4384C134.801 52.7337 136.401 52.3198 138.036 52.2204C139.672 52.121 141.312 52.338 142.862 52.859C144.412 53.3801 145.843 54.195 147.071 55.2572C148.3 56.3193 149.302 57.608 150.022 59.0497L161.925 82.0792L195.388 68.0803L200.089 55.2504L202.754 54.8778L198.843 66.0564L216.754 56.602L218.127 58.867L204.097 65.7569L205.284 68.0803L219.828 60.489L220.881 61.753L206.194 69.8484L207.381 72.1645L221.56 63.7038L221.94 66.3048L208.582 74.5244L209.53 76.3875L221.985 69.5781L223.358 71.8357Z" fill="#FFCB39"/>
<path d="M254.075 70.7617C256.052 71.032 262.164 72.1791 265.194 76.256C265.194 76.256 254.814 79.6388 253.522 71.3681C246.575 79.2589 248.634 86.8575 248.664 86.9525L248.127 87.1059C247.734 85.3288 247.678 83.4961 247.963 81.6992C246.47 82.1741 238.948 84.1468 233.508 78.9155C233.508 78.9155 242.761 77.2351 248 81.4216C248.582 77.71 250.56 72.654 256.328 67.8903C254.836 67.2181 247.493 63.5065 247.814 57.1208C247.814 57.1208 256.806 57.7053 256.59 67.6784C257.661 66.81 258.782 66.0025 259.948 65.26C264.911 62.1037 267.105 59.9483 267.149 58.2533C267.209 56.7189 265.523 55.4696 263.194 53.738C260.49 51.8912 258.091 49.6488 256.082 47.0892L256.537 46.7677C258.515 49.2989 260.881 51.5146 263.552 53.3361C265.918 55.0969 267.791 56.4924 267.724 58.3117C267.657 60.131 265.425 62.4471 260.261 65.7568L259.985 65.9395C268.194 65.545 270.09 70.221 270.09 70.221C266.299 72.2229 260.821 67.6638 259.366 66.3487C257.441 67.6233 255.666 69.1034 254.075 70.7617V70.7617Z" fill="#1C7B20"/>
<path d="M257.634 33.5214C257.634 33.5214 253.94 39.8998 256.105 42.5666C258.269 45.2334 261.239 36.9773 257.634 33.5214Z" fill="#6562BE"/>
<path d="M255.687 46.702C255.687 46.702 251.993 53.0804 254.157 55.7472C256.321 58.414 259.291 50.1579 255.687 46.702Z" fill="#6562BE"/>
<path d="M253.806 45.0507C253.806 45.0507 248.299 40.0825 245.157 41.5364C242.015 42.9904 249.552 47.7102 253.806 45.0507Z" fill="#6562BE"/>
<path d="M258.545 46.249C258.545 46.249 265.492 48.9669 267.903 46.512C270.313 44.0571 261.552 42.2817 258.545 46.249Z" fill="#6562BE"/>
<path d="M258.142 43.8817C258.142 43.8817 265.605 43.4507 266.731 40.2286C267.858 37.0065 259.142 39.0377 258.142 43.8817Z" fill="#6562BE"/>
<path d="M254.396 46.7604C254.396 46.7604 246.933 46.3221 245.44 49.398C243.948 52.474 252.821 51.4146 254.396 46.7604Z" fill="#6562BE"/>
<path d="M257.739 47.3961C257.739 47.3961 259.769 54.4467 263.224 54.8193C266.679 55.1919 262.784 47.3084 257.739 47.3961Z" fill="#6562BE"/>
<path d="M255.209 43.1073C255.209 43.1073 253.209 36.0494 249.761 35.6621C246.314 35.2749 250.194 43.1511 255.209 43.1073Z" fill="#6562BE"/>
<path d="M256.231 48.3532C258.024 48.3532 259.478 46.9303 259.478 45.175C259.478 43.4197 258.024 41.9967 256.231 41.9967C254.439 41.9967 252.985 43.4197 252.985 45.175C252.985 46.9303 254.439 48.3532 256.231 48.3532Z" fill="#FE4877"/>
<defs>
<linearGradient id="paint0_linear_1216_1575" x1="153" y1="0" x2="153" y2="276" gradientUnits="userSpaceOnUse">
<stop stop-color="#FF461E"/>
<stop offset="0.885417" stop-color="#FF3F33" stop-opacity="0"/>
<stop offset="0.9999" stop-color="#01FF2A" stop-opacity="0"/>
<stop offset="1" stop-opacity="0"/>
</linearGradient>
</defs>
</svg>
