<svg width="396" height="402" viewBox="0 0 396 402" fill="none" xmlns="http://www.w3.org/2000/svg">
<path fill-rule="evenodd" clip-rule="evenodd" d="M125.147 72.8002L126.125 72.2394L127.103 71.6837L128.083 71.1328L129.063 70.5868L130.045 70.0457L131.028 69.5095L132.012 68.9783L132.998 68.452L133.986 67.9307L134.976 67.4145L135.969 66.9034L136.963 66.3974L137.961 65.8968L138.961 65.4015L139.963 64.9116L140.969 64.4273L141.978 63.9486L142.991 63.4756L144.006 63.0086L145.026 62.5475L146.049 62.0925L147.075 61.6438L148.106 61.2015L149.141 60.7657L150.18 60.3366L151.223 59.9143L152.27 59.499L153.322 59.0907L154.379 58.6898L155.44 58.2962L156.505 57.9103L157.576 57.5322L158.651 57.162L159.73 56.7999L160.815 56.4461L161.905 56.1007L162.999 55.7641L164.099 55.4363L165.203 55.1176L166.313 54.8081L167.427 54.5081L168.546 54.2177L169.671 53.9373L170.8 53.6669L171.934 53.4069L173.073 53.1575L174.217 52.9189L175.366 52.6914L176.519 52.4752L177.677 52.2706L178.84 52.0779L180.007 51.8972L181.179 51.729L182.355 51.5735L183.535 51.4309L184.72 51.3015L185.908 51.1855L187.1 51.0832L188.296 50.9947L189.495 50.9203L190.697 50.8601L191.903 50.8144L193.112 50.7831L194.323 50.7666L195.537 50.7649L196.754 50.7782L197.972 50.8064L199.193 50.8498L200.416 50.9083L201.64 50.982L202.866 51.071L204.093 51.1753L205.321 51.2948L206.55 51.4295L207.78 51.5796L209.011 51.7448L210.241 51.9251L211.473 52.1206L212.704 52.331L213.935 52.5564L215.166 52.7966L216.396 53.0515L217.627 53.321L218.856 53.605L220.085 53.9033L221.314 54.2159L222.541 54.5425L223.767 54.8831L224.993 55.2376L226.217 55.6058L227.44 55.9878L228.662 56.3833L229.882 56.7923L231.101 57.2148L232.318 57.6506L233.534 58.0997L234.748 58.562L235.96 59.0376L237.17 59.5262L238.379 60.0279L239.586 60.5426L240.79 61.0703L241.992 61.6109L243.193 62.1644L244.391 62.7307L245.587 63.3099L246.78 63.9019L247.971 64.5067L249.159 65.1242L250.345 65.7545L251.529 66.3974L252.71 67.0531L253.888 67.7215L255.063 68.4026L256.235 69.0963L257.405 69.8028L258.571 70.5219L259.735 71.2538L260.895 71.9983L262.053 72.7556L263.207 73.5256L264.357 74.3084L265.505 75.104L266.648 75.9124L267.789 76.7337L268.925 77.5678L270.058 78.4149L271.187 79.275L272.312 80.1481L273.432 81.0343L274.549 81.9336L275.661 82.8461L276.769 83.7718L277.872 84.7109L278.97 85.6634L280.063 86.6293L281.151 87.6087L282.234 88.6018L283.311 89.6085L284.382 90.6289L285.447 91.6632L286.506 92.7114L287.558 93.7736L288.604 94.8497L289.642 95.94L290.674 97.0445L291.697 98.1632L292.713 99.2961L293.72 100.443L294.719 101.605L295.709 102.781L296.69 103.971L297.661 105.176L298.623 106.395L299.574 107.629L300.515 108.877L301.446 110.139L302.365 111.416L303.272 112.707L304.168 114.012L305.052 115.331L305.923 116.665L306.781 118.012L307.627 119.374L308.458 120.749L309.276 122.138L310.08 123.541L310.87 124.957L311.644 126.386L312.404 127.829L313.148 129.285L313.877 130.753L314.59 132.234L315.286 133.728L315.967 135.235L316.63 136.753L317.277 138.283L317.907 139.825L318.52 141.379L319.116 142.944L319.694 144.52L320.255 146.106L320.798 147.704L321.324 149.312L321.833 150.93L322.325 152.559L322.799 154.197L323.256 155.845L323.697 157.503L324.12 159.17L324.526 160.846L324.916 162.531L325.289 164.226L325.646 165.929L325.987 167.641L326.312 169.362L326.621 171.091L326.915 172.829L327.193 174.576L327.455 176.331L327.703 178.095L327.935 179.867L328.153 181.648L328.356 183.438L328.544 185.236L328.718 187.042L328.877 188.858L329.022 190.682L329.153 192.514L329.269 194.356L329.37 196.206L329.457 198.066L329.53 199.934L329.588 201.811L329.631 203.698L329.659 205.593L329.671 207.498L329.669 209.411L329.65 211.333L329.615 213.265L329.564 215.205L329.496 217.154L329.411 219.112L329.308 221.078L329.187 223.053L329.047 225.036L328.888 227.026L328.709 229.025L328.51 231.03L328.289 233.043L328.047 235.062L327.782 237.087L327.494 239.117L327.183 241.153L326.846 243.193L326.484 245.237L326.097 247.284L325.682 249.334L325.24 251.385L324.77 253.438L324.272 255.491L323.743 257.543L323.185 259.594L322.596 261.642L321.976 263.688L321.325 265.729L320.64 267.765L319.923 269.796L319.173 271.819L318.389 273.834L317.571 275.84L316.718 277.836L315.831 279.82L314.908 281.793L313.95 283.752L312.956 285.696L311.927 287.625L310.861 289.537L309.76 291.431L308.623 293.307L307.449 295.162L306.24 296.997L304.994 298.809L303.713 300.599L302.397 302.364L301.045 304.103L299.658 305.817L298.236 307.503L296.78 309.161L295.29 310.79L293.766 312.389L292.21 313.957L290.62 315.493L288.999 316.996L287.346 318.466L285.662 319.901L283.948 321.302L282.205 322.667L280.433 323.995L278.632 325.286L276.805 326.54L274.951 327.756L273.071 328.933L271.167 330.071L269.238 331.17L267.286 332.228L265.313 333.247L263.318 334.225L261.302 335.162L259.267 336.059L257.214 336.914L255.143 337.728L253.055 338.501L250.952 339.233L248.834 339.923L246.702 340.572L244.558 341.18L242.401 341.746L240.234 342.272L238.056 342.757L235.87 343.201L233.675 343.606L231.473 343.97L229.264 344.294L227.05 344.578L224.831 344.824L222.608 345.03L220.382 345.198L218.153 345.328L215.923 345.42L213.692 345.475L211.461 345.492L209.231 345.473L207.002 345.418L204.775 345.326L202.551 345.199L200.33 345.037L198.113 344.84L195.901 344.609L193.694 344.344L191.492 344.045L189.297 343.713L187.109 343.347L184.929 342.949L182.756 342.518L180.592 342.055L178.438 341.561L176.292 341.035L174.157 340.477L172.033 339.89L169.92 339.271L167.818 338.623L165.728 337.946L163.651 337.239L161.586 336.503L159.535 335.739L157.498 334.947L155.475 334.127L153.467 333.28L151.474 332.407L149.496 331.507L147.533 330.581L145.587 329.63L143.658 328.654L141.745 327.653L139.849 326.628L137.97 325.58L136.109 324.508L134.266 323.414L132.442 322.298L130.635 321.16L128.848 320.001L127.079 318.821L125.33 317.62L123.599 316.4L121.889 315.161L120.198 313.903L118.527 312.627L116.876 311.333L115.245 310.022L113.634 308.694L112.043 307.35L110.473 305.99L108.924 304.615L107.395 303.225L105.886 301.821L104.398 300.403L102.931 298.972L101.485 297.528L100.059 296.072L98.6536 294.604L97.269 293.125L95.905 291.634L94.5614 290.134L93.2383 288.623L91.9357 287.103L90.6533 285.573L89.3912 284.035L88.1492 282.488L86.9273 280.934L85.7254 279.371L84.5433 277.802L83.3809 276.226L82.2382 274.643L81.1151 273.053L80.0114 271.458L78.927 269.858L77.8618 268.252L76.8158 266.64L75.7887 265.024L74.7806 263.404L73.7913 261.779L72.8207 260.15L71.8688 258.517L70.9356 256.88L70.0208 255.239L69.1245 253.595L68.2467 251.948L67.3873 250.298L66.5463 248.645L65.7237 246.989L64.9194 245.33L64.1335 243.668L63.3661 242.004L62.617 240.338L61.8865 238.669L61.1745 236.998L60.4811 235.325L59.8064 233.65L59.1505 231.973L58.5135 230.294L57.8954 228.614L57.2964 226.931L56.7167 225.248L56.1563 223.562L55.6154 221.876L55.0942 220.188L54.5928 218.499L54.1114 216.809L53.6503 215.118L53.2095 213.426L52.7893 211.734L52.39 210.041L52.0117 208.348L51.6546 206.655L51.319 204.962L51.005 203.269L50.713 201.576L50.443 199.884L50.1953 198.193L49.9702 196.504L49.7678 194.815L49.5883 193.128L49.4319 191.443L49.2987 189.76L49.189 188.08L49.1028 186.402L49.0403 184.728L49.0016 183.057L48.9868 181.39L48.996 179.727L49.0292 178.068L49.0864 176.414L49.1677 174.766L49.2731 173.123L49.4025 171.486L49.556 169.856L49.7334 168.232L49.9348 166.615L50.1601 165.006L50.4092 163.405L50.6821 161.812L50.9787 160.227L51.2988 158.652L51.6424 157.087L52.0093 155.531L52.3994 153.985L52.8124 152.45L53.2482 150.926L53.7066 149.414L54.1872 147.913L54.69 146.424L55.2145 144.948L55.7605 143.485L56.3276 142.034L56.9155 140.597L57.5238 139.175L58.1521 137.766L58.8 136.371L59.467 134.991L60.1527 133.626L60.8566 132.277L61.5782 130.942L62.3171 129.623L63.0725 128.32L63.8441 127.033L64.6311 125.762L65.4332 124.507L66.2496 123.268L67.0798 122.046L67.9232 120.84L68.7791 119.65L69.647 118.477L70.5263 117.32L71.4163 116.18L72.3164 115.056L73.226 113.948L74.1445 112.856L75.0714 111.78L76.006 110.72L76.9478 109.676L77.8961 108.648L78.8506 107.634L79.8106 106.636L80.7757 105.653L81.7453 104.685L82.7191 103.731L83.6965 102.791L84.6772 101.865L85.6607 100.954L86.6468 100.055L87.6351 99.1699L88.6254 98.2978L89.6172 97.4384L90.6104 96.5915L91.6046 95.7568L92.5997 94.9341L93.5954 94.1231L94.5915 93.3235L95.5878 92.535L96.584 91.7574L97.5801 90.9904L98.5759 90.2337L99.5712 89.4871L100.566 88.7502L101.56 88.0228L102.553 87.3046L103.545 86.5954L104.536 85.8948L105.527 85.2027L106.516 84.5188L107.504 83.8428L108.491 83.1745L109.477 82.5137L110.462 81.8601L111.445 81.2136L112.428 80.5739L113.41 79.9407L114.391 79.3141L115.371 78.6936L116.35 78.0793L117.329 77.4709L118.307 76.8682L119.284 76.2711L120.261 75.6795L121.238 75.0933L122.215 74.5124L123.192 73.9366L124.169 73.3659L125.147 72.8002Z" fill="url(#paint0_linear_1216_1580)"/>
<path d="M147.554 237.036L151.537 304.035L169.763 304.54L173.567 237.764L147.554 237.036Z" fill="#FB9159"/>
<path d="M150.867 337.43L197.868 337.361C197.95 331.235 191.537 328.991 186.048 328.394L169.804 323.47L169.956 300.994L150.957 302.449L150.867 337.43Z" fill="#161730"/>
<path d="M189.218 328.93C189.218 328.93 184.634 336.542 185.821 337.354C187.008 338.165 197.868 337.354 197.868 337.354C197.868 337.354 198.758 331.059 189.218 328.93Z" fill="#FE4877"/>
<path d="M150.433 309.364C150.433 309.364 159.67 313.783 158.434 318.615C157.198 323.447 155.811 332.1 159.58 333.165C163.349 334.229 161.748 337.384 161.748 337.384H150.868L150.433 309.364Z" fill="#FE4877"/>
<path d="M165.6 329.328L165.275 328.846L170.55 324.45L170.874 324.933L165.6 329.328Z" fill="#FFCB39"/>
<path d="M176.211 326.907L171.53 331.589L171.891 332.033L176.572 327.351L176.211 326.907Z" fill="#FFCB39"/>
<path d="M182.134 327.098L178.395 331.924L178.803 332.314L182.542 327.487L182.134 327.098Z" fill="#FFCB39"/>
<path d="M150.536 337.124L197.861 336.879C197.861 336.879 198.324 342.875 195.555 341.366C192.787 339.858 192 341.497 190.619 341.642C189.238 341.788 188.424 341.788 185.552 340.532C182.68 339.276 183.612 342.063 181.41 341.742C179.207 341.42 177.371 340.976 175.59 339.398C173.809 337.821 172.704 342.017 170.619 341.826C168.534 341.634 169.563 339.728 167.036 338.855C164.509 337.982 165.441 342.194 163.481 341.864C161.52 341.535 162.203 338.12 159.221 338.518C156.239 338.916 157.15 342.27 154.865 341.933C152.58 341.596 151.054 342.76 150.536 337.124Z" fill="#6562BE"/>
<path d="M116.086 229.7H42.6655V285.403H116.086V229.7Z" fill="#6562BE"/>
<path d="M79.3725 229.7H42.6655V285.403H79.3725V229.7Z" fill="#FFCB39"/>
<path d="M106.635 285.403H33.2144V341.114H106.635V285.403Z" fill="#6562BE"/>
<path d="M69.9214 285.403H33.2144V341.114H69.9214V285.403Z" fill="#FFCB39"/>
<path d="M42.6655 250.629V249.978C44.3502 248.979 46.2299 248.453 48.1402 248.446C48.5935 248.489 49.0497 248.415 49.4726 248.229C49.8956 248.043 50.2737 247.75 50.5772 247.374C53.4146 244.081 53.2282 234.302 52.9659 229.685H53.4905C53.7736 234.402 53.9531 244.288 50.95 247.772C50.5961 248.218 50.1537 248.566 49.6577 248.789C49.1616 249.013 48.6256 249.105 48.0918 249.059C46.1935 249.073 44.3284 249.613 42.6655 250.629V250.629Z" fill="white"/>
<path d="M62.2859 267.637C58.7719 273.472 48.8651 277.362 42.6655 277.707V277.148C49.2033 276.834 58.6545 272.637 61.8578 267.315C62.5003 266.368 62.8922 265.24 62.9897 264.06C63.0873 262.879 62.8866 261.691 62.4101 260.63C60.1664 255.514 56.7629 257.291 52.0546 259.749C49.369 261.143 46.2071 262.812 42.6724 263.371V262.797C46.0552 262.238 49.086 260.668 51.8406 259.229C56.6317 256.732 60.415 254.756 62.8865 260.377C63.4082 261.529 63.6285 262.819 63.5223 264.102C63.4162 265.386 62.9878 266.61 62.2859 267.637V267.637Z" fill="white"/>
<path d="M79.4623 269.559C79.4623 269.842 79.4071 270.118 79.3725 270.378C79.1309 272.209 78.5924 273.487 77.7985 274.1C77.6535 274.215 64.2534 284.316 57.8744 284.316C57.2793 284.334 56.6872 284.217 56.1347 283.971C52.5309 282.194 47.7812 282.248 42.6655 282.776V282.202C47.8364 281.666 52.6483 281.62 56.3487 283.443C60.5876 285.541 74.2983 276.083 77.5016 273.633C78.2679 273.043 78.7788 271.573 78.9445 269.505C79.4278 263.563 77.0667 254.251 72.2962 248.952C65.4547 241.34 60.8292 229.93 60.7809 229.807L61.0225 229.692L61.2572 229.577C61.2572 229.577 61.2572 229.623 61.3055 229.692C61.8164 230.918 66.2624 241.416 72.669 248.538C76.4799 252.781 78.7857 259.512 79.3725 265.156C79.5386 266.616 79.5687 268.092 79.4623 269.559V269.559Z" fill="white"/>
<path d="M56.7353 298.069C55.0094 305.39 47.6362 309.395 39.2137 307.588C37.232 307.132 35.2292 306.797 33.2144 306.585V306.01C35.262 306.222 37.2973 306.562 39.3103 307.029C47.4636 308.79 54.5813 304.961 56.2382 297.901C56.3143 297.581 56.3214 297.246 56.259 296.923C56.1967 296.599 56.0665 296.297 55.8792 296.04C53.2696 292.104 40.0007 290.411 33.2144 289.791V289.209C40.1181 289.822 53.532 291.506 56.2934 295.695C56.532 296.023 56.6966 296.41 56.7735 296.823C56.8503 297.236 56.8372 297.663 56.7353 298.069V298.069Z" fill="white"/>
<path d="M49.0515 297.211C49.0515 298.153 48.5337 299.149 47.4913 300.098C45.3028 302.089 41.133 303.667 36.8734 303.667C35.6436 303.672 34.4169 303.531 33.2144 303.246H33.1592L33.2144 302.97L33.2696 302.687C38.4888 303.966 44.426 302.158 47.1599 299.67C48.0781 298.842 48.5406 298 48.5406 297.242C48.538 297.149 48.5176 297.058 48.4806 296.975C48.4437 296.892 48.3912 296.818 48.3266 296.76C46.7112 295.075 38.0194 295.427 33.2213 295.626V295.006C40.1733 294.723 47.0287 294.592 48.6787 296.3C48.7973 296.412 48.8922 296.552 48.9566 296.71C49.021 296.867 49.0534 297.038 49.0515 297.211Z" fill="white"/>
<path d="M65.2339 305.467C62.4724 309.602 58.0126 310.061 53.7047 310.528C48.8721 311.049 44.3018 311.532 42.9142 317.351C41.4023 323.707 43.9566 333.801 47.7468 341.091H47.1254C43.3905 333.678 40.9121 323.585 42.4171 317.183C43.8945 310.972 48.6305 310.475 53.6564 309.939C57.8469 309.487 62.1893 309.027 64.8196 305.099C65.4075 304.261 65.8299 303.296 66.0595 302.266C66.2891 301.235 66.3206 300.163 66.1521 299.118C65.1717 292.709 57.6467 286.981 57.5708 286.927L57.8607 286.444C58.1783 286.69 65.6412 292.364 66.6629 299.026C66.846 300.151 66.8134 301.306 66.5672 302.415C66.3209 303.525 65.8666 304.565 65.2339 305.467Z" fill="white"/>
<path d="M70.0042 341.114H69.4105C67.736 337.848 65.609 334.894 63.1074 332.361C60.3045 329.704 62.0235 325.584 63.5423 321.954C64.7298 319.105 65.8551 316.41 64.8126 314.748C64.6937 314.516 64.5299 314.315 64.3329 314.162C64.136 314.008 63.9107 313.905 63.6735 313.86C62.4239 313.714 60.6566 315.483 58.2127 317.949C55.3727 320.973 52.2614 323.667 48.9272 325.99C46.8975 327.345 46.1036 329.183 46.573 331.45C47.2634 334.712 50.2941 338.296 53.4767 341.114H52.6966C49.6175 338.288 46.7387 334.781 46.069 331.58C45.5444 329.045 46.4142 326.985 48.6648 325.492C51.9657 323.19 55.0468 320.521 57.8606 317.528C60.408 314.955 62.2513 313.101 63.7356 313.285C64.0455 313.339 64.3408 313.468 64.5999 313.664C64.859 313.861 65.0755 314.118 65.2337 314.419C66.4488 316.356 65.2337 319.189 64.0118 322.191C62.4999 325.813 60.9396 329.55 63.4457 331.924C66.0192 334.537 68.2047 337.584 69.9214 340.953L70.0042 341.114Z" fill="white"/>
<path d="M65.807 341.114H65.1166C63.2802 338.602 60.1873 334.589 58.5857 333.785C56.7769 332.882 57.419 329.642 57.9782 326.786C58.2655 325.664 58.4232 324.506 58.4476 323.34C58.4431 323.236 58.4196 323.135 58.3786 323.041C57.8746 323.095 55.7759 326.817 53.5115 332.292C52.4069 334.957 56.0934 338.617 59.2761 341.144H58.4062C55.2443 338.533 51.8753 334.903 53.0558 332.055C53.7462 330.416 57.198 322.253 58.5028 322.49C58.7721 322.544 58.9309 322.804 58.9723 323.256C58.967 324.493 58.8114 325.725 58.5097 326.916C57.992 329.558 57.3982 332.552 58.8204 333.264C60.6154 334.16 63.9706 338.61 65.807 341.114Z" fill="white"/>
<path d="M42.0304 341.114H41.5195C41.5402 336.771 40.5915 332.491 38.758 328.654C36.894 324.971 37.3014 323.057 37.9089 320.154C38.3197 318.371 38.5922 316.552 38.7235 314.717C38.834 313.14 38.4957 312.037 37.7294 311.424C36.5488 310.49 34.5744 310.842 33.2144 311.256V310.659C34.6572 310.237 36.7145 309.893 38.047 310.957C38.972 311.723 39.3863 312.971 39.262 314.786C39.1276 316.64 38.8481 318.477 38.4267 320.277C37.826 323.148 37.4601 324.871 39.2275 328.371C41.0904 332.299 42.0531 336.675 42.0304 341.114Z" fill="white"/>
<path d="M37.9296 340.402C37.9058 340.643 37.8619 340.881 37.7984 341.114H37.2599C37.3353 340.865 37.3885 340.608 37.4187 340.348C37.4607 339.873 37.4021 339.394 37.2474 338.948C37.0928 338.503 36.8465 338.104 36.5281 337.783C32.9658 333.785 34.7953 321.939 35.2026 319.611C35.4304 318.286 34.9748 315.583 33.739 314.342C33.5829 314.181 33.4061 314.047 33.2144 313.944V313.323C33.5353 313.461 33.8303 313.663 34.0842 313.921C35.465 315.307 35.9689 318.232 35.7066 319.718C35.3131 322.015 33.5112 333.586 36.894 337.377C37.2671 337.757 37.555 338.228 37.7347 338.753C37.9145 339.278 37.9813 339.843 37.9296 340.402V340.402Z" fill="white"/>
<path d="M71.4609 266.412C69.0998 269.904 60.4702 276.535 42.6655 280.747V280.165C60.2424 275.984 68.727 269.482 71.0467 266.067C71.2637 265.741 71.4128 265.366 71.4833 264.969C71.5537 264.572 71.5437 264.162 71.454 263.77C70.6877 259.78 63.8806 254.419 60.8982 252.582C59.4001 251.663 55.7895 253.347 53.4008 254.527C51.3297 255.514 50.6738 255.798 50.4115 255.377C50.1491 254.955 50.4115 254.611 51.3849 253.485C55.4029 248.768 56.2727 230.381 56.3003 229.7H56.5627H56.8181C56.8181 230.466 55.9621 248.929 51.7577 253.86C51.4518 254.199 51.1744 254.568 50.9293 254.963C51.7032 254.693 52.4597 254.366 53.1937 253.983C55.824 252.727 59.407 251.012 61.1468 252.061C63.2179 253.324 71.0674 258.953 71.9649 263.601C72.0747 264.082 72.0864 264.583 71.9992 265.07C71.912 265.556 71.7281 266.014 71.4609 266.412V266.412Z" fill="white"/>
<path d="M76.3419 241.838C76.3596 242.105 76.3264 242.373 76.2443 242.625C76.1622 242.877 76.0332 243.107 75.8656 243.3C75.7861 243.392 75.6906 243.464 75.5849 243.513C75.4792 243.561 75.3656 243.586 75.2511 243.584H75.1407C72.8556 243.323 67.1393 234.226 64.4399 229.708H65.0613C68.1748 234.854 73.3457 242.795 75.1959 243.009C75.249 243.021 75.3039 243.019 75.3558 243.001C75.4076 242.984 75.4547 242.952 75.4928 242.91C75.6125 242.774 75.7042 242.612 75.7614 242.433C75.8187 242.255 75.8401 242.065 75.8242 241.876C75.7275 239.433 71.6819 235.512 71.6198 235.474C71.4334 235.252 69.3209 232.709 67.2359 229.708H67.9263C69.9974 232.602 71.965 235.014 72.0064 235.068C72.1307 235.198 76.2384 239.15 76.3419 241.838Z" fill="white"/>
<path d="M106.635 297.633V298.291C103.439 300.259 97.9298 302.258 96.0313 300.703C95.548 300.313 95.0648 299.501 95.5411 297.885C95.6431 297.573 95.6775 297.238 95.6415 296.908C95.6055 296.578 95.5002 296.263 95.334 295.986C93.5321 292.923 84.7782 292.027 78.986 291.391C77.9021 291.277 76.9149 291.169 76.0589 291.062C75.6489 290.979 75.2257 291.046 74.8525 291.251C74.4793 291.457 74.176 291.791 73.9877 292.203C71.7371 296.606 75.8932 311.807 78.5856 315.72C80.567 318.6 77.8262 331.327 75.2995 341.091H74.761C77.267 331.419 80.0354 318.768 78.2128 316.073C75.3823 311.96 71.1848 296.583 73.5666 291.92C73.8032 291.409 74.1805 290.996 74.6437 290.739C75.1068 290.483 75.6317 290.398 76.1417 290.495C76.9909 290.603 77.985 290.71 79.0689 290.825C85.2822 291.483 93.8566 292.356 95.7897 295.649C95.9999 295.996 96.1338 296.393 96.1806 296.808C96.2273 297.223 96.1857 297.645 96.0589 298.038C95.7551 299.088 95.8518 299.8 96.3627 300.221C98.0057 301.599 103.453 299.708 106.635 297.633Z" fill="white"/>
<path d="M94.3465 320.445C92.8691 323.271 91.7024 325.515 92.8001 326.319C94.4984 327.582 95.6444 336.236 96.1622 341.114H95.6375C95.0576 335.753 93.9116 327.835 92.5101 326.801C91.1087 325.767 92.2892 323.248 93.8909 320.154C95.1092 318.028 96.0877 315.745 96.8042 313.354C97.2323 311.669 96.4245 309.456 94.526 307.121C90.9913 302.763 84.1705 298.62 79.2964 299.547C78.2747 299.738 77.681 300.106 77.536 300.627C77.1218 302.082 79.7797 304.961 82.3686 307.749C84.9575 310.536 87.6361 313.469 88.2506 315.835C89.0031 318.761 87.8708 321.027 86.8698 323.026C85.8688 325.025 85.0679 326.64 86.4556 328.325C88.2782 330.554 88.3886 336.596 88.1815 341.114H87.6499C87.857 336.688 87.7673 330.776 86.069 328.708C84.3707 326.64 85.3786 324.795 86.4142 322.75C87.3669 320.843 88.437 318.692 87.7466 315.996C87.1667 313.775 84.5364 310.919 81.9958 308.162C79.0755 304.984 76.5488 302.25 77.0527 300.458C77.2668 299.693 77.9778 299.218 79.2205 298.98C84.2671 298.038 91.302 302.266 94.9264 306.738C96.9423 309.227 97.7915 311.631 97.3151 313.515C96.5858 315.951 95.5888 318.279 94.3465 320.445V320.445Z" fill="white"/>
<path d="M106.635 308.085V308.698C106.255 308.826 105.857 308.871 105.461 308.828C104.536 308.744 103.494 309.464 102.7 310.781C102.011 311.879 101.586 313.153 101.465 314.484C101.344 315.814 101.532 317.157 102.01 318.385C103.294 321.318 102.465 323.018 101.416 325.17C100.614 326.685 100.012 328.32 99.6278 330.025C98.8339 333.854 102.755 338.625 105.151 341.114H104.384C101.934 338.456 98.3437 333.793 99.1583 329.895C99.5544 328.14 100.173 326.457 100.995 324.894C102.01 322.812 102.748 321.303 101.582 318.638C101.057 317.322 100.844 315.878 100.965 314.445C101.086 313.012 101.536 311.637 102.272 310.452C103.197 308.966 104.419 308.154 105.53 308.262C105.906 308.293 106.283 308.233 106.635 308.085V308.085Z" fill="white"/>
<path d="M114.954 285.242L114.747 285.403L114.533 285.571L114.423 285.403C113.622 284.178 108.506 276.596 103.625 274.123C100.864 272.745 100.781 271.527 100.643 270.118C100.505 268.709 100.353 267.055 97.046 264.566C94.3536 262.544 89.9283 265.064 86.9528 267.828C83.6943 270.891 81.8372 274.314 82.5344 276.045C82.997 277.194 84.6056 277.577 87.1806 277.171C96.1555 275.731 104.847 281.421 109.645 285.403H108.769C103.936 281.513 95.7481 276.382 87.2566 277.745C84.3846 278.205 82.638 277.745 82.065 276.29C81.1261 273.993 83.7702 270.049 86.6214 267.399C89.735 264.497 94.4088 261.901 97.336 264.099C100.843 266.726 101.016 268.579 101.161 270.064C101.285 271.351 101.382 272.362 103.839 273.61C109.259 276.351 114.726 284.882 114.954 285.242Z" fill="white"/>
<path d="M116.087 280.027V281L104.426 263.609V263.502C104.426 263.394 105.434 253.056 105.22 248.745C105.229 248.597 105.204 248.449 105.147 248.316C105.09 248.182 105.004 248.066 104.896 247.979C104.019 247.382 101.354 248.661 98.5305 250.016C95.0303 251.701 90.6671 253.776 87.2015 253.661C86.6214 253.698 86.0431 253.56 85.5278 253.262C85.0126 252.964 84.5795 252.517 84.2743 251.969C82.286 248.079 86.7942 238.889 86.9875 238.499C87.9412 237.227 88.7871 235.861 89.5142 234.417C90.2647 232.954 90.7831 231.358 91.0468 229.7H91.5853C91.3535 231.353 90.8604 232.947 90.1287 234.409C89.376 235.992 88.4759 237.484 87.4431 238.859C87.4431 238.897 82.9143 248.102 84.7645 251.716C85.0268 252.178 85.3971 252.552 85.836 252.799C86.2749 253.046 86.7659 253.156 87.2567 253.118C90.6188 253.248 94.906 251.18 98.3579 249.526C101.568 247.994 104.095 246.769 105.206 247.52C105.384 247.655 105.529 247.837 105.628 248.049C105.726 248.262 105.776 248.498 105.772 248.737C105.973 252.85 105.082 262.33 104.985 263.471L116.087 280.027Z" fill="white"/>
<path d="M116.086 258.149V258.738C109.134 257.084 109.721 251.67 110.246 246.869C110.536 244.189 110.805 241.646 109.901 239.793C109.431 238.82 108.92 238.261 108.347 238.154C107.167 237.894 105.586 239.303 103.646 241.079C101.325 243.362 98.7097 245.246 95.8861 246.67C92.4342 248.201 91.5436 248.201 91.2192 247.711C90.7635 246.991 91.8612 245.575 93.9807 242.917C94.4984 242.274 95.0369 241.6 95.5547 240.942C97.7708 238.062 99.8074 232.84 100.905 229.7H101.464C100.38 232.832 98.2955 238.269 95.9413 241.309C95.4235 241.983 94.8781 242.649 94.3604 243.3C93.2351 244.686 91.3641 246.999 91.5989 247.382C91.5989 247.428 91.9993 247.803 95.6375 246.134C98.7787 244.702 101.271 242.443 103.273 240.635C105.275 238.828 106.98 237.281 108.396 237.572C108.825 237.711 109.22 237.956 109.551 238.289C109.883 238.622 110.141 239.034 110.308 239.494C111.295 241.516 110.998 244.135 110.708 246.915C110.225 251.892 109.707 256.594 116.086 258.149Z" fill="white"/>
<path d="M164.337 211.245L180.443 210.41L180.146 213.58L164.268 214.154L164.206 216.62L178.013 216.161L178.158 219.477L164.123 219.921L163.536 219.944L161.596 219.883L147.657 219.461L113.097 212.822L91.5854 165.765L111.8 157.816L124.558 197.437L145.931 202.331L155.963 201.657L165.973 191.602L168.41 192.59L159.87 201.442L163.405 201.626L179.608 201.374L179.732 204.261L164.509 204.391L164.461 206.144L180.346 206.137L180.774 208.871L164.392 209.139L164.337 211.245Z" fill="#FB9159"/>
<path d="M118.213 170.329L95.8866 180.699L86.0716 154.698C85.4943 153.158 85.1962 151.508 85.194 149.84C85.1919 148.173 85.4858 146.521 86.0591 144.98C86.6323 143.439 87.4736 142.038 88.535 140.857C89.5964 139.676 90.857 138.739 92.245 138.099L93.4485 137.54C96.2487 136.239 99.4 136.226 102.209 137.502C105.018 138.779 107.255 141.241 108.428 144.347L118.232 170.32L118.213 170.329Z" fill="#FE4877"/>
<path d="M167.816 217.493V217.531L167.229 217.516L167.816 217.493Z" fill="#FFCB39"/>
<path d="M176.963 273.204C179.4 281.49 175.348 291.774 175.348 291.774L148.768 294.638C150.84 285.778 149.901 276.642 146.428 270.792C142.955 264.941 144.391 266.35 144.357 250.636C144.357 245.552 142.748 242.06 140.581 239.647C136.038 234.609 129.031 234.341 129.031 234.341C121.057 232.043 114.436 236.829 103.694 228.919C95.4097 222.793 102.362 198.287 102.362 198.287C102.362 198.287 113.836 197.33 143.535 200.179C145.868 200.395 148.185 200.777 150.474 201.32V201.32H150.57C159.697 203.801 165.848 208.35 169.956 213.71C169.987 213.738 170.012 213.772 170.032 213.81C180.836 228.015 177.433 247.887 176.936 250.567C176.307 254.343 174.533 264.918 176.963 273.204Z" fill="#161730"/>
<path d="M114.582 240.053L118.565 307.052L136.791 307.557L140.595 240.781L114.582 240.053Z" fill="#FB9159"/>
<path d="M142.673 275.471C145.11 283.757 141.057 294.041 141.057 294.041L136.169 294.569L116.673 296.66L114.478 296.897C115.554 292.376 115.831 287.667 115.292 283.029C115.292 282.83 115.244 282.631 115.217 282.439C115.07 281.38 114.867 280.332 114.609 279.3C114.085 277.086 113.251 274.977 112.137 273.051C109.058 267.874 109.832 268.38 110.066 257.682C110.066 257.414 110.066 257.13 110.066 256.847C110.066 255.668 110.066 254.358 110.066 252.895C110.085 251.093 109.852 249.297 109.376 247.573C109.261 247.154 109.125 246.743 108.969 246.34C108.353 244.694 107.453 243.198 106.318 241.937C102.666 239.658 98.7814 237.871 94.747 236.615C86.7801 234.318 80.1526 239.096 69.4104 231.186C61.126 225.059 68.078 200.554 68.078 200.554C68.078 200.554 79.5589 199.597 109.259 202.446C111.591 202.662 113.908 203.043 116.197 203.587V203.587C125.22 206.022 131.385 210.479 135.465 215.74C135.631 215.939 135.783 216.146 135.935 216.345C135.994 216.42 136.049 216.5 136.1 216.582C145.441 229.363 143.625 246.448 142.838 251.594C142.755 252.145 142.686 252.559 142.638 252.819C141.982 256.61 140.229 267.185 142.673 275.471Z" fill="black"/>
<path d="M85.1439 131.557C84.7711 131.68 84.4535 131.817 84.0807 131.971C77.0873 135.095 73.4559 147.975 71.4124 156.568C70.2595 161.453 67.8984 202.109 67.8984 202.109C67.8984 202.109 124.24 202.109 124.246 202.109C125.779 208.074 120.512 170.62 120.146 168.851C117.232 154.791 111.937 136.688 100.56 132.216C96.4177 130.585 89.652 130.056 85.1439 131.557Z" fill="#161730"/>
<path d="M118.413 340.187H165.455C165.538 334.061 159.117 331.825 153.636 331.227L137.384 326.296L137.536 303.828L118.51 305.244L118.413 340.187Z" fill="#161730"/>
<path d="M156.77 331.764C156.77 331.764 152.186 339.375 153.373 340.187C154.561 340.999 165.455 340.187 165.455 340.187C165.455 340.187 166.311 333.854 156.77 331.764Z" fill="#FE4877"/>
<path d="M117.978 312.159C117.978 312.159 127.222 316.578 125.979 321.41C124.737 326.242 123.363 334.896 127.132 335.96C130.902 337.024 129.3 340.179 129.3 340.179H118.413L117.978 312.159Z" fill="#FE4877"/>
<path d="M133.153 332.116L132.828 331.641L138.096 327.245L138.42 327.728L133.153 332.116Z" fill="#FFCB39"/>
<path d="M143.758 329.703L139.077 334.385L139.437 334.829L144.118 330.147L143.758 329.703Z" fill="#FFCB39"/>
<path d="M149.674 329.889L145.936 334.715L146.344 335.105L150.083 330.278L149.674 329.889Z" fill="#FFCB39"/>
<path d="M118.088 339.904L165.406 339.659C165.406 339.659 165.869 345.655 163.107 344.146C160.346 342.638 159.545 344.276 158.164 344.422C156.784 344.567 155.976 344.56 153.104 343.312C150.232 342.063 151.157 344.843 148.962 344.521C146.766 344.2 144.923 343.756 143.142 342.178C141.361 340.601 140.256 344.789 138.178 344.606C136.1 344.422 137.122 342.507 134.588 341.634C132.055 340.761 132.993 344.973 131.04 344.644C129.086 344.315 129.763 340.899 126.773 341.298C123.784 341.696 124.702 345.05 122.424 344.713C120.146 344.376 118.606 345.548 118.088 339.904Z" fill="#6562BE"/>
<path d="M231.427 190.14V196.687H216.915V345.073H213.304V196.687H160.236V345.18H156.625V196.687H139.228V190.14H231.427Z" fill="#161730"/>
<path d="M225.006 126.112L206.207 188.348L206.035 188.286V188.455H156.984V181.785H201.962L219.407 124.029L225.006 126.112Z" fill="#161730"/>
<path d="M107.982 106.952V119.259C107.982 121.42 107.208 123.492 105.83 125.02C104.453 126.548 102.584 127.407 100.636 127.407L100.215 127.475V132.66C100.215 133.426 100.491 134.337 100.077 135.049C99.6139 135.664 99.0142 136.134 98.3371 136.412C96.5559 137.277 92.5725 137.247 92.5725 134.115V123.884L91.6543 106.952H107.982Z" fill="#FB9159"/>
<path d="M107.588 110.605C108.637 110.605 111.04 118.209 111.04 118.209H107.588V110.605Z" fill="#FF534A"/>
<path d="M101.002 120.254C102.458 120.254 103.639 118.944 103.639 117.329C103.639 115.713 102.458 114.404 101.002 114.404C99.5455 114.404 98.3647 115.713 98.3647 117.329C98.3647 118.944 99.5455 120.254 101.002 120.254Z" fill="#FF534A"/>
<path d="M102.693 111.539C102.714 111.498 102.739 111.459 102.769 111.425C102.932 111.299 103.123 111.228 103.321 111.218C104.15 111.026 106.262 110.452 106.566 111.808C106.808 112.887 105.441 112.719 104.723 112.688C104.005 112.658 102.196 112.527 102.693 111.539Z" fill="white"/>
<path d="M105.165 110.904C105.165 110.904 104.329 111.547 105.165 112.681C105.165 112.681 106.794 112.949 106.545 111.777C106.509 111.617 106.444 111.468 106.354 111.337C106.264 111.206 106.151 111.097 106.022 111.015C105.893 110.934 105.751 110.882 105.604 110.863C105.456 110.844 105.307 110.858 105.165 110.904V110.904Z" fill="#0C0604"/>
<path d="M102.051 111.218C102.051 111.218 106.532 110.628 106.532 110.337C106.532 110.046 106.794 108.882 106.007 108.882C105.22 108.882 101.264 110.337 101.527 110.628C101.789 110.919 101.527 110.904 102.051 111.218Z" fill="#161730"/>
<path d="M106.601 122.138C107.026 122.137 107.446 122.03 107.829 121.824L107.602 121.311C107.546 121.311 106.221 122.077 105.42 120.951L105.013 121.303C105.198 121.573 105.439 121.789 105.715 121.934C105.992 122.079 106.295 122.149 106.601 122.138V122.138Z" fill="#0C0604"/>
<path d="M99.6487 97.2652C99.6272 97.3015 99.6017 97.3348 99.5728 97.3642L99.6211 97.2576L99.6487 97.2652Z" fill="#6562BE"/>
<path d="M189.673 176.241L176.529 180.82L173.753 181.785L161.755 185.958L160.125 186.525L128.265 197.506L89.7974 166.484L104.523 149.201L132.159 178.017L153.277 171.562L163.184 166.753L169.459 153.489L172.062 153.481L166.788 165.052L170.163 163.881L170.205 163.865L185.303 157.456L186.304 160.121L172.062 166.048L172.566 167.717L187.471 161.637L188.714 164.057L173.422 170.551L174.023 172.557L188.879 165.619L189.59 168.721L174.865 175.314L175.59 177.719L188.438 172.84L189.673 176.241Z" fill="#FB9159"/>
<path d="M115.374 157.106L99.7576 177.618L80.3418 159.431C79.193 158.355 78.2465 157.038 77.5565 155.556C76.8666 154.074 76.4467 152.456 76.3208 150.794C76.1949 149.132 76.3654 147.458 76.8228 145.869C77.2801 144.28 78.0152 142.807 78.9861 141.533L79.828 140.427C81.7866 137.855 84.5864 136.25 87.6114 135.967C90.6365 135.684 93.6389 136.746 95.9583 138.919L115.374 157.106Z" fill="black"/>
<path d="M227.43 332.583L180.484 309.28C182.859 303.154 190.15 304.057 195.893 306.171L214.099 309.28L218.614 296.07L237.695 304.012L227.43 332.583Z" fill="#161730"/>
<path d="M227.43 332.583C227.43 332.583 223.225 341.129 220.422 337.247C217.62 333.364 216.922 330.255 214.119 330.255C211.316 330.255 204.316 330.255 203.619 326.372C203.435 325.454 203.09 324.585 202.603 323.815C202.116 323.044 201.498 322.388 200.782 321.883C200.067 321.378 199.268 321.035 198.433 320.872C197.598 320.709 196.742 320.731 195.914 320.935C192.414 321.701 188.907 321.701 188.21 317.045C187.512 312.389 181.202 314.748 180.505 313.982C179.808 313.216 180.505 309.318 180.505 309.318L227.43 332.583Z" fill="#FE4877"/>
<path d="M210.467 296.063L216.888 300.703L233.829 312.956L234.202 313.224L239.642 317.16L244.302 307.067L244.558 306.516L252.842 288.558L253.118 287.961L257.73 277.967L257.985 277.408L264.254 263.831L264.516 263.264L272.573 245.82L272.856 245.199L280.36 228.949L280.685 228.245L286.96 214.691L289.618 208.932L289.86 208.411L292.069 203.625L292.304 203.112L295.431 196.342L295.293 192.422V191.709L295.058 185.261V184.695L294.996 182.956V182.374L294.92 180.223L294.872 178.974V178.147L264.682 174.87L263.771 176.907L262.935 178.775L262.666 179.38L261.783 181.356L261.548 181.877L242.045 225.526L241.824 226.032L236.46 238.032L236.197 238.621L213.298 289.883L212.725 291.169L210.467 296.063Z" fill="#161730"/>
<path d="M276.777 87.5935L277.081 100.076C277.137 102.265 277.974 104.341 279.408 105.847C280.842 107.353 282.756 108.166 284.73 108.109L285.172 108.17C285.172 108.675 285.172 109.189 285.172 109.702C285.172 110.935 285.227 112.167 285.262 113.4C285.262 114.166 285.02 115.116 285.455 115.82C285.94 116.431 286.561 116.888 287.257 117.145C289.087 117.972 293.118 117.819 293.042 114.664L292.787 104.288L293.305 87.1033L276.777 87.5935Z" fill="#FFCB39"/>
<path d="M277.295 91.3075C276.225 91.3075 274.009 99.1108 274.009 99.1108L277.461 99.0113L277.295 91.3075Z" fill="#FF534A"/>
<path d="M284.109 100.857C285.584 100.857 286.78 99.53 286.78 97.8932C286.78 96.2565 285.584 94.9297 284.109 94.9297C282.633 94.9297 281.437 96.2565 281.437 97.8932C281.437 99.53 282.633 100.857 284.109 100.857Z" fill="#FF534A"/>
<path d="M286.035 88.9412C286.187 87.7466 282.845 88.298 282.459 88.3822C279.835 88.9565 277.088 89.3318 274.513 88.5277C271.938 87.7236 269.576 85.4646 269.176 82.5469C269.073 81.9622 269.088 81.3593 269.22 80.7819C269.353 80.2044 269.6 79.6669 269.942 79.2081C270.391 78.7533 270.93 78.4226 271.515 78.243C272.101 78.0633 272.716 78.0398 273.311 78.1743C274.54 78.3658 275.445 79.2005 276.397 80.0045C277.088 80.5712 277.295 81.0537 277.778 80.3109C278.261 79.568 278.344 78.4653 278.669 77.7072C279.074 76.6325 279.81 75.7529 280.747 75.226C284.592 73.281 285.276 81.3523 288.341 82.2253C290.115 82.7537 292.773 82.6159 294.243 83.9713C296.432 85.9776 300.402 93.3751 293.553 98.5212L287.388 89.7759L287.802 108.002C287.802 108.002 281.651 112.504 277.599 110.552C274.837 109.219 277.35 105.497 276.991 101.952C276.86 100.635 276.625 99.5856 277.813 99.555L279.276 99.509C279.68 99.4981 280.078 99.6233 280.417 99.8679C280.756 100.113 281.02 100.465 281.175 100.88C282.141 103.529 284.233 108.538 284.523 103.797C284.889 97.6329 286.014 89.0944 286.035 88.9412Z" fill="#FE4877"/>
<path d="M290.854 98.2838C292.551 98.2838 293.926 96.7581 293.926 94.876C293.926 92.994 292.551 91.4683 290.854 91.4683C289.157 91.4683 287.782 92.994 287.782 94.876C287.782 96.7581 289.157 98.2838 290.854 98.2838Z" fill="#FFCB39"/>
<path d="M289.721 96.5761L290.232 96.4995C290.167 96.2152 290.162 95.9183 290.217 95.6315C290.273 95.3447 290.386 95.0757 290.55 94.8454C290.716 94.6851 290.908 94.5627 291.117 94.4852C291.325 94.4076 291.546 94.3765 291.765 94.3936L291.813 93.8269C291.284 93.7811 290.758 93.9468 290.329 94.2941C290.192 93.9684 290.163 93.5998 290.246 93.2526C290.261 93.1998 290.284 93.1509 290.317 93.1088C290.349 93.0667 290.388 93.0322 290.432 93.0075L290.253 92.4638C290.036 92.5683 289.865 92.7637 289.777 93.0075C289.62 93.5984 289.68 94.2339 289.942 94.7765C289.693 95.3334 289.616 95.9656 289.721 96.5761V96.5761Z" fill="#0C0604"/>
<path d="M282.252 92.0733C282.23 92.0325 282.202 91.9962 282.169 91.9661C282.015 91.8343 281.831 91.7545 281.637 91.7363C280.795 91.5679 278.641 91.0548 278.365 92.4332C278.144 93.5359 279.532 93.3215 280.256 93.2679C280.981 93.2143 282.818 93.0688 282.252 92.0733Z" fill="white"/>
<path d="M279.725 91.5066C279.725 91.5066 280.595 92.1345 279.773 93.3139C279.773 93.3139 278.13 93.6278 278.393 92.4332C278.46 92.1153 278.638 91.8397 278.887 91.6663C279.137 91.4928 279.438 91.4354 279.725 91.5066V91.5066Z" fill="#0C0604"/>
<path d="M282.894 91.7057C282.894 91.7057 278.337 91.2462 278.33 90.9399C278.324 90.6336 278.027 89.462 278.827 89.4084C279.628 89.3547 283.66 90.7485 283.412 91.0548C283.163 91.3611 283.418 91.3917 282.894 91.7057Z" fill="#161730"/>
<path d="M277.495 100.497C277.323 101.082 277.265 101.7 277.326 102.312C277.386 102.923 277.564 103.513 277.847 104.042L280.512 103.782C280.512 103.782 281.893 100.007 277.495 100.497Z" fill="#FFCB39"/>
<path d="M277.661 102.794C278.094 102.971 278.567 102.992 279.011 102.855C279.456 102.717 279.851 102.428 280.139 102.028L279.725 101.692C278.959 102.848 277.53 102.128 277.516 102.12L277.295 102.641C277.413 102.702 277.536 102.753 277.661 102.794V102.794Z" fill="#0C0604"/>
<path d="M261.548 176.669L315.866 182.436C315.866 182.436 313.581 143.029 312.463 138.304C310.481 129.934 306.94 117.49 300.188 114.457C299.856 114.312 299.497 114.181 299.152 114.059C297.104 113.436 294.986 113.148 292.863 113.201C289.927 113.2 287.009 113.717 284.219 114.733C275.914 117.98 270.909 128.831 267.761 139.805C266.746 143.342 265.925 146.888 265.234 150.204C264.868 151.919 260.768 176.577 261.548 176.669Z" fill="#161730"/>
<path d="M345.041 285.61L362.197 313.178L351.696 338.043L314.575 337.277C314.575 337.277 318.075 327.169 327.181 327.935C336.287 328.7 339.788 328.7 339.788 328.7L338.407 313.944L330.357 302.679L345.041 285.61Z" fill="#161730"/>
<path d="M362.549 312.803C362.549 312.803 367.45 318.24 363.93 319.794C360.409 321.349 365.31 323.677 363.239 325.231C361.168 326.786 359.035 325.231 359.732 327.529C360.429 329.826 361.113 333.747 359.042 333.747C356.971 333.747 356.971 335.278 356.971 338.403C356.971 341.527 355.59 344.621 351.365 342.293C347.14 339.965 349.984 342.293 346.463 343.059C342.942 343.825 342.963 341.527 340.16 340.761C337.357 339.996 339.47 344.644 335.258 343.059C331.047 341.474 330.357 339.176 328.955 339.95C327.554 340.723 328.955 342.285 324.751 341.481C320.547 340.677 321.948 338.372 319.849 339.184C317.751 339.996 317.744 343.066 315.645 341.481C313.546 339.896 314.955 336.825 314.955 336.825H352.069L362.549 312.803Z" fill="#FE4877"/>
<path d="M360.567 302.243L357.116 304.999L350.433 310.322C350.411 310.335 350.393 310.353 350.378 310.375L349.425 311.141L349.335 311.21L338.91 319.511L335.459 322.252L318.248 297.028L290.509 256.38L290.136 251.984L288.852 236.914V236.584L288.686 234.632L288.638 234.057L287.878 225.32L287.761 223.926L287.602 222.011L287.533 221.246L286.981 214.729L285.952 202.622L285.904 202.047L285.055 192.092L284.986 191.326L284.944 190.867L284.868 189.94L284.268 182.895L284.212 182.283L283.964 179.334H285.345L294.796 179.097L305.462 178.844L307.982 178.783L314.126 178.63L314.637 182.459L314.823 183.86L314.906 184.442L316.584 196.963L316.66 197.537L319.076 215.548L320.257 224.347L320.409 225.488L320.484 226.062L321.948 236.937V237.067L322.314 239.793L322.542 240.16L323.004 240.926L328.438 249.825L328.817 250.445L335.031 260.607L335.376 261.174L337.55 264.742L340.623 269.773L341.237 270.784L344.62 276.328L344.917 276.811L350.999 286.582L351.282 287.042L357.088 296.537L360.567 302.243Z" fill="#161730"/>
<path d="M267.761 139.805L292.863 113.209C289.926 113.208 287.009 113.725 284.219 114.74C275.914 117.98 270.909 128.831 267.761 139.805Z" fill="#FE4877"/>
<path d="M261.202 194.688C268.279 204.437 274.202 204.115 284.074 202.706C284.695 202.622 285.32 202.576 285.945 202.568C286.256 202.568 286.56 202.568 286.863 202.568C286.878 203.985 287.236 205.371 287.899 206.581C288.371 207.438 288.955 208.212 289.632 208.878C291.488 210.751 293.89 211.819 296.398 211.888C296.981 211.894 297.563 211.822 298.13 211.673C300.119 211.145 300.236 209.935 300.126 209.269C299.78 207.163 296.508 204.513 292.317 203.058C290.724 202.495 289.077 202.143 287.409 202.009C287.627 200.064 288.412 198.251 289.646 196.848L289.259 196.465C287.937 197.956 287.101 199.894 286.884 201.971C286.553 201.971 286.194 201.971 285.897 201.971C285.264 201.977 284.633 202.025 284.005 202.116C274.043 203.533 268.52 203.832 261.603 194.305C260.222 192.36 260.125 191.526 260.319 191.166C260.926 190.04 264.806 190.867 268.914 191.732C274.057 192.82 280.471 194.175 284.137 192.567C284.464 192.433 284.771 192.244 285.048 192.008C285.202 191.893 285.328 191.737 285.412 191.553C285.497 191.37 285.538 191.165 285.531 190.959C285.44 190.493 285.194 190.082 284.841 189.81C281.741 186.747 268.665 183.11 261.679 181.318L261.444 181.838C271.606 184.442 283.853 188.302 284.917 190.737C284.957 190.814 284.983 190.9 284.993 190.99C284.998 191.061 284.986 191.132 284.958 191.196C284.834 191.549 284.344 191.832 283.923 192.016C280.395 193.547 274.071 192.215 268.99 191.143C264.157 190.124 260.65 189.381 259.856 190.844C259.463 191.679 259.877 192.889 261.202 194.688ZM287.388 202.614C288.983 202.742 290.558 203.077 292.083 203.61C296.225 205.049 299.325 207.653 299.615 209.407C299.753 210.249 299.207 210.831 298.006 211.153C295.327 211.865 292.076 210.67 289.874 208.396C289.277 207.782 288.761 207.079 288.341 206.305C287.728 205.199 287.399 203.928 287.388 202.629V202.614Z" fill="white"/>
<path d="M316.604 196.817C315.312 197.421 313.975 197.898 312.607 198.242C312.01 198.393 311.397 198.46 310.785 198.441C310.139 198.431 309.498 198.323 308.879 198.119V198.119C306.656 197.391 304.737 195.561 303.122 193.363C304.725 193.146 306.315 192.827 307.885 192.406C308.755 192.177 309.438 191.97 309.86 191.84L310.288 191.694L310.136 191.15L309.784 191.265C309.39 191.388 308.686 191.602 307.782 191.832C306.117 192.276 304.429 192.606 302.728 192.82C301.396 190.86 300.169 188.814 299.055 186.693L298.399 185.499C300.115 185.56 301.832 185.447 303.529 185.162C304.557 184.978 305.559 184.817 306.532 184.687C307.31 184.58 308.069 184.496 308.81 184.434C310.225 184.297 311.572 184.235 312.849 184.235C313.539 184.235 314.23 184.235 314.92 184.304L314.837 183.722C312.798 183.624 310.754 183.673 308.72 183.868C307.926 183.944 307.153 184.029 306.421 184.128C305.331 184.274 304.35 184.434 303.432 184.595C301.655 184.891 299.857 184.999 298.061 184.917L297.951 184.725C296.673 182.482 295.576 182.237 294.934 182.374C294.791 182.401 294.654 182.453 294.526 182.528C294.218 182.748 293.953 183.034 293.745 183.369C293.538 183.705 293.393 184.082 293.318 184.48C290.221 184.026 287.168 183.257 284.198 182.183C282.223 181.558 280.365 180.546 278.71 179.196C278.398 178.897 278.066 178.626 277.716 178.385C275.479 176.853 273.07 177.022 270.046 177.573L268.52 177.864C267.298 178.101 265.911 178.377 264.412 178.584C263.86 178.66 263.342 178.722 262.859 178.768L262.59 179.373C263.184 179.319 263.812 179.242 264.475 179.151C265.986 178.944 267.381 178.668 268.617 178.431C269.998 178.163 271.213 177.925 272.338 177.81C273.664 177.616 275.012 177.76 276.28 178.232V178.232C277.042 178.551 277.744 179.023 278.351 179.625C279.511 180.736 281.623 181.838 284.233 182.788C287.16 183.817 290.164 184.56 293.208 185.009C292.944 186.912 293.184 188.859 293.898 190.614C294.177 191.358 294.66 191.985 295.279 192.406C296.998 193.609 299.773 193.723 302.473 193.432C304.281 195.936 306.408 198.027 308.962 198.755C309.576 198.93 310.206 199.02 310.84 199.023H310.874C311.488 199.019 312.099 198.942 312.697 198.793C314.05 198.45 315.373 197.979 316.653 197.384L316.604 196.817ZM294.775 183.033C294.834 182.998 294.897 182.97 294.961 182.949C295.053 182.918 295.148 182.903 295.244 182.903C295.9 182.903 296.673 183.592 297.44 184.886C296.639 184.886 295.838 184.779 295.023 184.687C294.63 184.649 294.243 184.595 293.85 184.542C293.966 183.923 294.299 183.38 294.775 183.033V183.033ZM295.279 191.702C294.878 191.364 294.563 190.915 294.368 190.4C293.712 188.732 293.49 186.894 293.726 185.093L295.044 185.254C295.962 185.361 296.874 185.43 297.806 185.468L298.641 187C299.715 189.035 300.886 191.006 302.148 192.904C299.428 193.157 296.749 192.988 295.279 191.702Z" fill="white"/>
<path d="M290.233 220.25C289.268 220.284 288.331 220.615 287.526 221.207L287.595 221.973C287.941 221.315 288.976 220.985 290.357 220.801C291.448 220.656 292.773 220.602 294.182 220.541C297.198 220.419 300.961 220.258 304.399 219.17C307.312 218.244 309.273 216.628 310.219 214.369C310.724 213.12 310.942 211.752 310.854 210.387C310.794 209.207 310.561 208.045 310.164 206.948L309.687 207.186C310.081 208.23 310.315 209.341 310.378 210.471C310.457 211.723 310.258 212.977 309.798 214.124C308.914 216.23 307.036 217.738 304.275 218.619C300.899 219.683 297.178 219.844 294.182 219.967C292.649 220.043 291.323 220.105 290.233 220.25Z" fill="white"/>
<path d="M288.279 224.937C288.085 224.608 287.912 224.265 287.761 223.911L287.878 225.304C288.821 226.968 290.175 228.297 291.779 229.133V229.133C293.028 229.737 294.352 230.13 295.707 230.297C296.473 230.427 297.198 230.55 297.302 230.81C297.336 230.895 297.343 231.109 297.026 231.645C296.377 232.717 294.616 233.261 292.552 233.598C291.337 233.789 290.011 233.912 288.755 234.034H288.617L288.665 234.609H288.796C290.108 234.486 291.434 234.364 292.649 234.164C294.858 233.805 296.701 233.215 297.481 231.967C297.847 231.354 297.944 230.933 297.806 230.581C297.585 230.022 296.881 229.907 295.81 229.731C294.373 229.567 292.971 229.13 291.668 228.436C290.279 227.624 289.109 226.416 288.279 224.937V224.937Z" fill="white"/>
<path d="M236.101 238.644C236.361 239.051 236.639 239.442 236.936 239.816C237.046 239.961 237.157 240.107 237.281 240.252C237.889 241.021 238.532 241.754 239.207 242.45C241.286 244.547 243.491 246.483 245.807 248.247C244.62 251.456 244.571 255.989 245.759 261.143C246.665 265.192 248.246 269.018 250.419 272.423C252.248 275.172 254.451 277.24 256.888 277.837C257.131 277.898 257.378 277.944 257.626 277.975L257.882 277.416C257.585 277.392 257.29 277.346 256.998 277.278C254.678 276.711 252.504 274.621 250.695 271.826C248.631 268.546 247.118 264.881 246.228 261.005C245.089 256.02 245.11 251.655 246.228 248.576C247.816 249.817 249.466 251.035 251.109 252.245C253.332 253.883 255.514 255.499 257.488 257.1C260.25 259.351 262.611 261.579 264.102 263.839L264.357 263.272C262.437 260.712 260.204 258.462 257.723 256.587C255.755 254.986 253.581 253.386 251.392 251.762C249.729 250.537 248.051 249.296 246.435 248.04C246.827 247.078 247.397 246.217 248.106 245.513C250.233 243.533 252.454 241.682 254.761 239.969L256.398 238.706C258.678 240.617 261.114 242.288 263.674 243.698C266.643 245.291 269.59 246.18 272.386 245.797L272.67 245.176C269.908 245.666 266.912 244.801 263.909 243.193C261.431 241.812 259.07 240.187 256.853 238.338C260.809 235.214 264.116 232.158 264.088 228.727C264.088 226.3 262.411 223.903 259.028 221.383C258.676 221.123 258.337 220.863 258.02 220.618L257.592 220.265C254.727 217.823 253.332 215.571 252.711 213.726C252.33 212.68 252.179 211.549 252.269 210.425C252.322 209.528 252.594 208.665 253.057 207.927C253.519 207.189 254.153 206.604 254.892 206.236C255.412 205.984 255.985 205.899 256.546 205.993C257.107 206.086 257.632 206.354 258.061 206.765L258.393 206.321C257.892 205.842 257.279 205.531 256.626 205.422C255.972 205.314 255.304 205.413 254.699 205.708C253.873 206.113 253.161 206.761 252.642 207.582C252.123 208.402 251.815 209.364 251.751 210.364C251.672 211.399 251.785 212.442 252.083 213.427C252.656 215.418 254.05 217.914 257.157 220.579L257.592 220.947C257.951 221.246 258.337 221.544 258.745 221.851C261.969 224.255 263.577 226.507 263.577 228.743C263.577 231.936 260.326 234.915 256.425 237.986C254.23 236.178 252.096 234.233 250.094 232.403C248.638 231.071 247.229 229.792 245.89 228.643L245.455 228.268C245.225 228.069 244.995 227.877 244.765 227.694C243.848 226.923 242.896 226.205 241.914 225.542L241.693 226.047C242.597 226.66 243.55 227.395 244.558 228.237L245.041 228.635L245.469 229.011C246.85 230.175 248.265 231.484 249.763 232.84C251.731 234.639 253.822 236.538 255.976 238.33L254.485 239.479C252.164 241.205 249.929 243.069 247.789 245.062C247.045 245.796 246.446 246.693 246.028 247.696C243.706 245.929 241.501 243.982 239.428 241.868C238.738 241.156 238.123 240.436 237.557 239.709L237.212 239.272C236.908 238.866 236.618 238.453 236.363 238.039L236.101 238.644ZM273.381 217.287C273.443 217.363 277.944 222.777 280.132 228.957L280.457 228.253C278.772 224.101 276.51 220.269 273.753 216.896L273.381 217.287Z" fill="white"/>
<path d="M225.413 287.448C225.436 288.111 225.572 288.763 225.814 289.37V289.37C225.896 289.599 225.988 289.824 226.09 290.044C227.65 293.237 231.682 296.308 236.501 297.181L237.06 297.273C237.671 297.367 238.287 297.418 238.903 297.426H239.504C239.813 297.423 240.122 297.4 240.429 297.357V297.357C241.152 297.319 241.855 297.083 242.476 296.672C243.098 296.261 243.618 295.686 243.991 294.998C244.827 293.344 244.82 290.97 244.274 288.236C244.171 287.708 244.047 287.172 243.909 286.621C243.477 284.979 242.963 283.366 242.369 281.788C243.984 281.475 245.02 281.352 246.138 281.788C246.377 281.884 246.608 282.001 246.829 282.141C248.212 283.088 249.489 284.214 250.633 285.495C251.498 286.382 252.247 287.4 252.856 288.52L253.132 287.922C252.53 286.872 251.809 285.911 250.985 285.066C249.804 283.742 248.483 282.582 247.05 281.612C246.828 281.475 246.597 281.357 246.359 281.26V281.26C245.089 280.709 243.957 280.862 242.141 281.214C241.681 279.989 241.172 278.759 240.615 277.523C238.468 272.599 235.9 267.798 234.14 264.505L233.788 263.854C233.158 262.61 232.764 261.237 232.628 259.818C232.351 256.366 232.711 252.888 233.684 249.595C234.561 246.329 235.765 243.182 237.274 240.214C237.364 240.038 237.454 239.862 237.55 239.686C239.199 236.485 241.22 233.539 243.563 230.925V230.925C244.179 230.242 244.827 229.596 245.503 228.988C245.641 228.855 245.779 228.732 245.917 228.62C246.953 227.697 248.073 226.896 249.259 226.231C252.181 224.697 254.998 222.928 257.688 220.939L258.123 220.587C260.001 219.017 260.312 218.075 260.629 217.11C260.698 216.896 260.774 216.697 260.857 216.482L260.388 216.245C260.298 216.467 260.222 216.689 260.153 216.904V216.942C259.863 217.815 259.573 218.703 257.695 220.265L257.26 220.602C254.632 222.53 251.885 224.25 249.038 225.748C247.78 226.453 246.591 227.3 245.489 228.276L245.075 228.643C244.737 228.949 244.385 229.271 244.081 229.6C241.356 232.428 239.029 235.693 237.177 239.287C237.081 239.464 236.991 239.64 236.901 239.816C235.331 242.866 234.076 246.103 233.159 249.465C231.993 253.868 231.675 257.781 232.221 260.852C232.412 262.021 232.784 263.145 233.318 264.175L233.663 264.826C235.258 267.805 237.743 272.484 239.877 277.301C240.47 278.649 241.043 280.012 241.561 281.36C238.918 281.909 236.245 282.262 233.56 282.416H233.001H232.4C231.264 282.441 230.135 282.619 229.038 282.945C228.804 283.016 228.574 283.1 228.348 283.198C225.717 284.392 225.393 286.421 225.413 287.448ZM226.104 288.635C225.989 288.246 225.924 287.841 225.911 287.432C225.876 285.962 226.601 284.821 228.037 284.063C228.259 283.937 228.49 283.829 228.727 283.741C229.92 283.319 231.162 283.092 232.414 283.067L233.222 283.029H233.767L235.106 282.93H235.355C237.462 282.741 239.559 282.429 241.637 281.995H241.789C242.472 283.784 243.046 285.62 243.508 287.494C243.651 288.091 243.768 288.665 243.86 289.217C244.24 291.514 244.192 293.451 243.501 294.814C243.2 295.373 242.785 295.846 242.29 296.195C241.795 296.545 241.234 296.762 240.65 296.828C240.253 296.907 239.852 296.948 239.449 296.951H239.117C238.383 296.947 237.649 296.888 236.922 296.775C236.77 296.775 236.625 296.737 236.48 296.706H236.363L235.955 296.622C234.153 296.24 232.423 295.52 230.84 294.493C230.688 294.401 230.536 294.294 230.391 294.194C228.67 293.069 227.265 291.436 226.332 289.477C226.24 289.204 226.171 288.922 226.125 288.635H226.104Z" fill="white"/>
<path d="M212.483 292.609C212.676 294.141 214.14 295.098 216.832 295.442C217.405 295.511 217.992 295.603 218.593 295.71H218.613C225.018 296.854 231.246 298.988 237.115 302.051C237.171 302.549 237.226 303.031 237.274 303.491C237.309 303.82 237.343 304.134 237.371 304.433C237.371 304.471 237.371 304.509 237.371 304.548C237.619 306.983 237.73 308.576 237.73 308.637L238.248 308.599C238.248 308.315 238.096 306.347 237.799 303.537C237.757 303.162 237.716 302.771 237.668 302.357C237.84 302.449 238.006 302.549 238.172 302.648C240.363 303.847 242.416 305.333 244.288 307.075L244.544 306.523C242.661 304.785 240.601 303.297 238.406 302.089L237.585 301.63C237.454 300.466 237.295 299.21 237.109 297.908L237.026 297.28C236.991 297.089 236.964 296.89 236.936 296.691L236.812 295.879C236.763 295.55 236.708 295.22 236.66 294.891C236.162 291.7 235.47 288.551 234.589 285.464C234.506 285.196 234.43 284.936 234.347 284.698C234.161 284.109 233.96 283.542 233.76 283.014C233.684 282.822 233.615 282.631 233.539 282.447C232.732 280.464 231.793 278.947 230.716 278.212C230.321 277.928 229.868 277.758 229.399 277.718C228.93 277.678 228.459 277.769 228.03 277.983C227.174 278.373 226.201 278.886 225.179 279.514C224.772 279.751 224.35 280.004 223.929 280.28C219.711 282.914 214.955 286.774 213.16 289.959C212.925 290.362 212.732 290.794 212.587 291.246V291.246C212.458 291.685 212.422 292.152 212.483 292.609V292.609ZM223.695 281.069C224.109 280.801 224.516 280.54 224.917 280.303C226.005 279.634 227.125 279.031 228.272 278.496C228.577 278.349 228.906 278.271 229.238 278.266C229.683 278.27 230.116 278.416 230.488 278.687C231.441 279.338 232.29 280.686 233.028 282.462C233.111 282.646 233.187 282.838 233.256 283.029C233.546 283.795 233.815 284.561 234.071 285.434C234.147 285.694 234.23 285.962 234.306 286.199C235.145 289.351 235.804 292.559 236.28 295.802C236.321 296.063 236.363 296.315 236.397 296.568C236.397 296.645 236.397 296.714 236.432 296.79C236.466 296.867 236.466 297.035 236.487 297.158L236.57 297.755C236.743 298.988 236.901 300.183 237.033 301.293C231.242 298.325 225.112 296.251 218.814 295.128C218.123 295.014 217.502 294.914 216.881 294.837C214.451 294.531 213.139 293.742 212.987 292.494C212.621 289.546 218.413 284.461 223.695 281.069Z" fill="white"/>
<path d="M328.852 250.307C328.596 250.269 328.334 250.246 328.072 250.223C326.401 250.085 324.827 250.047 323.308 250.047C322.618 250.047 321.927 250.047 321.285 250.047C314.547 250.085 308.72 250.1 300.622 243.622C298.268 241.738 297.24 239.793 297.557 237.825C297.557 237.679 297.612 237.534 297.654 237.388C297.684 237.264 297.721 237.141 297.764 237.021C298.669 234.448 301.755 232.342 304.668 230.849L305.186 230.596C306.999 229.721 308.863 228.979 310.764 228.375L310.902 228.926C308.953 229.553 307.044 230.32 305.186 231.224L304.668 231.484C301.955 232.878 299.193 234.785 298.296 237.013C298.248 237.136 298.206 237.251 298.165 237.373C298.11 237.547 298.068 237.727 298.04 237.909C297.757 239.64 298.731 241.401 300.899 243.139C308.859 249.511 314.596 249.495 321.258 249.457H322.997C324.606 249.457 326.284 249.495 328.078 249.641L328.444 249.679L328.852 250.307Z" fill="white"/>
<path d="M323.66 302.832C323.75 303.1 323.957 303.721 328.085 303.721C329.135 303.721 330.108 303.721 331.006 303.636H331.185C335.652 303.338 338.324 302.342 340.339 300.726C343.318 301.002 346.218 301.92 348.879 303.43C349.147 303.591 349.408 303.767 349.659 303.958C351.171 305.053 351.869 306.179 351.731 307.312C351.268 311.087 342.3 314.311 338.531 315.498C337.543 315.812 336.915 315.988 336.888 315.996L337.005 316.555C337.115 316.555 337.695 316.364 338.586 316.088C341.126 315.322 346.125 313.553 349.321 311.233L349.411 311.164C349.74 310.927 350.058 310.671 350.364 310.398C350.379 310.376 350.397 310.358 350.419 310.345C351.331 309.642 351.976 308.589 352.228 307.389C352.393 306.056 351.661 304.77 350.06 303.56C349.77 303.338 349.459 303.131 349.114 302.916C346.549 301.454 343.756 300.547 340.885 300.244C341.755 299.425 342.544 298.506 343.239 297.502L343.557 297.051C344.026 296.377 344.495 295.649 344.999 294.883C345.849 293.589 346.801 292.134 347.968 290.564L348.044 290.465L348.203 290.25C349.1 289.046 350.13 287.97 351.268 287.049L350.985 286.59C349.801 287.528 348.733 288.635 347.809 289.883L347.74 289.975L347.664 290.074C346.442 291.705 345.455 293.214 344.578 294.546C343.991 295.45 343.439 296.285 342.894 297.051L342.562 297.502C341.853 298.495 341.034 299.385 340.125 300.152C337.619 299.889 335.097 299.866 332.587 300.083V300.083C331.247 300.19 329.991 300.351 328.872 300.55C326.311 301.002 324.44 301.622 323.895 302.135C323.584 302.426 323.612 302.664 323.66 302.832ZM324.143 302.633C324.398 302.401 324.691 302.227 325.006 302.12C326.375 301.593 327.788 301.221 329.224 301.01C330.115 300.856 331.088 300.734 332.117 300.634C334.577 300.408 337.051 300.408 339.511 300.634C337.55 302.013 334.948 302.848 330.771 303.085H330.612C329.825 303.123 328.99 303.146 328.085 303.146C324.613 303.146 324.185 302.664 324.143 302.664V302.633Z" fill="white"/>
<path d="M315.355 259.451C315.472 260.37 318.855 260.775 328.734 260.982H329.846C330.536 261.572 331.275 262.246 332.11 262.996C332.752 263.571 333.346 264.114 333.905 264.627L334.306 264.987L334.554 265.24C337.495 267.928 339.49 269.743 341.244 270.654L340.629 269.643C338.693 268.236 336.847 266.68 335.106 264.987L334.899 264.796L334.706 264.62L332.421 262.544L330.681 261.013L334.133 261.051H335.396L335.051 260.484H334.14L329.998 260.438C328.983 259.565 328.127 258.861 327.374 258.302C323.867 255.675 322.638 256.15 319.262 257.46C318.517 257.751 317.675 258.08 316.674 258.424C315.672 258.769 315.3 259.014 315.355 259.451ZM315.907 259.382C316.198 259.184 316.515 259.037 316.846 258.945C317.854 258.593 318.703 258.264 319.456 257.973C320.62 257.417 321.858 257.076 323.122 256.962C324.447 256.962 325.745 257.613 327.954 259.374C328.334 259.68 328.741 260.017 329.176 260.392H328.451C323.004 260.278 316.687 260.033 315.907 259.382Z" fill="white"/>
<path d="M357.889 239.234H282.349V299.348H357.889V239.234Z" fill="black"/>
<path d="M305.497 245.689H306.014V228.237H340.926V244.051H341.444V227.663H305.497V245.689Z" fill="#FE4877"/>
<path d="M329.984 238.062L327.616 176.891L323.433 152.386L304.42 124.956C304.793 120.591 284.399 120.055 285.089 127.085C285.283 129.091 286.836 136.029 287.74 137.63C290.012 141.65 302.418 158.926 306.125 162.77L308.024 178.944L313.229 215.839L305.262 227.058L306.27 229.585L313.312 219.959L314.575 240.788L317.067 240.727L315.687 224.699L318.131 224.439L319.194 241.286L320.726 241.455L320.036 224.209L322.48 223.949L322.652 240.988L324.931 239.87V223.696L326.898 223.474L327.547 238.101L329.984 238.062Z" fill="#FFCB39"/>
<path d="M311.813 214.982L331.282 216.13L328.051 157.632L309.742 122.705C307.923 119.239 304.94 116.714 301.446 115.684C297.953 114.653 294.233 115.201 291.102 117.206V117.206C287.978 119.224 285.702 122.533 284.773 126.408C283.844 130.284 284.337 134.41 286.145 137.882L304.489 172.925L311.813 214.982Z" fill="#161730"/>
<path d="M292.863 113.209L298.475 125.01L282.231 126.74L284.861 139.567L267.761 139.805L292.863 113.209Z" fill="#FFCB39"/>
<path d="M357.923 238.728L344.061 266.894L297.468 267.07L282.5 239.142L357.923 238.728Z" fill="#FFCB39"/>
<path d="M315.652 272.89H326.367V263.425H315.652V272.89Z" fill="#161730"/>
<path d="M146.428 52.4057H140.028V81.8884H146.428V52.4057Z" fill="#FFCB39"/>
<path d="M156.024 52.4057H149.625V81.8884H156.024V52.4057Z" fill="#FE4877"/>
<path d="M165.869 52.4057H159.469V81.8884H165.869V52.4057Z" fill="#FFCB39"/>
<path d="M175.465 52.4057H169.065V81.8884H175.465V52.4057Z" fill="#FE4877"/>
<path d="M182.107 52.3017L176.358 55.4203L188.035 81.9056L193.784 78.787L182.107 52.3017Z" fill="#FE4877"/>
<path d="M226.035 71.1062V64.0073H199.456V71.1062H226.035Z" fill="#FE4877"/>
<path d="M226.035 81.2068V74.108H199.456V81.2068H226.035Z" fill="#FFCB39"/>
<path d="M226.401 82.9758H135.354V88.4358H150.95L156.024 103.537L159.145 88.4358H202.465L207.54 103.537L210.66 88.4358H226.401V82.9758Z" fill="#FE4877"/>
<path d="M109.411 103.292C110.791 104.594 112.103 104.824 112.172 106.677C112.338 110.406 102.88 109.541 99.3658 108.538C100.201 116.195 99.4763 116.241 97.5639 116.961C96.1832 117.482 95.5412 113.132 95.265 110.276L92.2826 111.042L93.1249 118.791C93.1249 118.791 86.5456 113.875 87.6019 107.91C86.5594 101.646 89.2243 93.2602 96.4179 93.1684C103.404 93.0688 100.16 96.2315 98.8135 98.9424C98.7956 98.9705 98.7817 99.0015 98.7721 99.0343C98.7987 99.0072 98.822 98.9763 98.8411 98.9424C101.727 95.1134 108.734 92.5021 113.146 96.8518C117.757 101.362 112.048 101.783 109.411 103.292Z" fill="#6562BE"/>
<path d="M94.2846 116.816C95.9585 116.816 97.3154 115.311 97.3154 113.454C97.3154 111.597 95.9585 110.092 94.2846 110.092C92.6108 110.092 91.2539 111.597 91.2539 113.454C91.2539 115.311 92.6108 116.816 94.2846 116.816Z" fill="#FB9159"/>
<path d="M95.4653 116.188L94.9475 116.127C95.004 115.846 95.0023 115.554 94.9426 115.275C94.8828 114.995 94.7664 114.733 94.6023 114.511C94.264 114.203 93.8295 114.057 93.3942 114.105L93.332 113.515C93.8777 113.452 94.4249 113.618 94.8647 113.982C94.986 113.667 95.0031 113.315 94.913 112.987C94.8984 112.936 94.8742 112.889 94.8421 112.85C94.81 112.81 94.7706 112.778 94.7266 112.757L94.8923 112.206C95.1095 112.305 95.283 112.495 95.3755 112.734C95.4605 113.024 95.4927 113.33 95.4702 113.633C95.4477 113.937 95.3709 114.233 95.2444 114.503C95.4755 115.025 95.5528 115.614 95.4653 116.188V116.188Z" fill="#0C0604"/>
<defs>
<linearGradient id="paint0_linear_1216_1580" x1="86.5518" y1="280.676" x2="309.448" y2="121.324" gradientUnits="userSpaceOnUse">
<stop stop-color="#FF461E"/>
<stop offset="0.885417" stop-color="#FF3F33" stop-opacity="0"/>
<stop offset="0.9999" stop-color="#01FF2A" stop-opacity="0"/>
<stop offset="1" stop-opacity="0"/>
</linearGradient>
</defs>
</svg>
