<svg width="317" height="333" viewBox="0 0 317 333" fill="none" xmlns="http://www.w3.org/2000/svg">
<path fill-rule="evenodd" clip-rule="evenodd" d="M311.36 146.808V146.808L311.73 147.936L312.091 149.072L312.442 150.215L312.782 151.366L313.112 152.524L313.431 153.689L313.738 154.861L314.034 156.041L314.318 157.228L314.589 158.422L314.847 159.623L315.092 160.83L315.324 162.045L315.542 163.266L315.747 164.494L315.936 165.728L316.111 166.969L316.271 168.215L316.416 169.468L316.546 170.726L316.66 171.991L316.757 173.26L316.839 174.535L316.904 175.816L316.953 177.101L316.985 178.392L317 179.687L316.998 180.986L316.978 182.29L316.941 183.598L316.887 184.91L316.815 186.226L316.725 187.546L316.617 188.869L316.49 190.195L316.346 191.524L316.184 192.856L316.003 194.191L315.803 195.529L315.586 196.869L315.349 198.211L315.094 199.555L314.82 200.9L314.528 202.248L314.217 203.597L313.886 204.947L313.537 206.298L313.169 207.651L312.782 209.004L312.376 210.357L311.951 211.711L311.506 213.065L311.043 214.419L310.56 215.773L310.057 217.126L309.535 218.479L308.994 219.831L308.433 221.182L307.853 222.532L307.253 223.88L306.633 225.227L305.994 226.572L305.335 227.915L304.656 229.255L303.958 230.594L303.24 231.93L302.503 233.263L301.746 234.593L300.969 235.921L300.172 237.245L299.356 238.565L298.52 239.882L297.665 241.195L296.79 242.505L295.895 243.81L294.981 245.111L294.047 246.407L293.093 247.698L292.12 248.985L291.127 250.267L290.115 251.543L289.083 252.814L288.031 254.079L286.96 255.338L285.869 256.59L284.759 257.837L283.628 259.077L282.479 260.309L281.309 261.535L280.12 262.753L278.911 263.964L277.682 265.166L276.434 266.36L275.166 267.546L273.878 268.723L272.57 269.89L271.243 271.048L269.896 272.195L268.529 273.333L267.142 274.459L265.736 275.575L264.31 276.679L262.865 277.771L261.4 278.851L259.915 279.918L258.411 280.972L256.887 282.013L255.345 283.039L253.783 284.051L252.202 285.048L250.602 286.03L248.983 286.996L247.345 287.945L245.689 288.878L244.015 289.793L242.322 290.691L240.612 291.571L238.883 292.432L237.138 293.273L235.375 294.095L233.595 294.897L231.799 295.679L229.986 296.44L228.157 297.179L226.313 297.897L224.453 298.592L222.578 299.265L220.689 299.915L218.786 300.541L216.868 301.144L214.938 301.723L212.994 302.278L211.039 302.808L209.071 303.313L207.091 303.793L205.101 304.248L203.1 304.677L201.088 305.081L199.067 305.459L197.037 305.811L194.998 306.136L192.952 306.436L190.897 306.709L188.835 306.956L186.767 307.176L184.692 307.371L182.611 307.539L180.526 307.68L178.435 307.796L176.34 307.886L174.241 307.95L172.138 307.988L170.033 308L167.925 307.987L165.814 307.948L163.702 307.885L161.588 307.796L159.473 307.682L157.358 307.544L155.242 307.381L153.125 307.194L151.01 306.983L148.895 306.748L146.78 306.489L144.667 306.207L142.556 305.902L140.446 305.573L138.338 305.222L136.233 304.848L134.13 304.451L132.03 304.032L129.934 303.591L127.84 303.128L125.75 302.643L123.664 302.136L121.582 301.608L119.505 301.059L117.431 300.488L115.363 299.896L113.299 299.283L111.241 298.649L109.188 297.994L107.141 297.318L105.1 296.621L103.065 295.904L101.036 295.166L99.0146 294.407L96.9999 293.628L94.9926 292.827L92.9931 292.006L91.0016 291.164L89.0185 290.302L87.0442 289.418L85.0791 288.513L83.1236 287.588L81.178 286.641L79.2429 285.673L77.3187 284.683L75.4059 283.673L73.5049 282.641L71.6163 281.587L69.7406 280.511L67.8783 279.414L66.03 278.296L64.1963 277.155L62.3777 275.993L60.5749 274.808L58.7884 273.602L57.0189 272.374L55.2669 271.123L53.5333 269.851L51.8185 268.557L50.1232 267.24L48.4481 265.902L46.7939 264.543L45.1612 263.161L43.5506 261.758L41.9628 260.333L40.3985 258.887L38.8583 257.42L37.3428 255.932L35.8527 254.424L34.3885 252.895L32.9509 251.346L31.5403 249.776L30.1575 248.188L28.8029 246.58L27.477 244.953L26.1804 243.308L24.9134 241.645L23.6765 239.964L22.4702 238.265L21.2948 236.55L20.1505 234.819L19.0379 233.072L17.957 231.31L16.9082 229.533L15.8917 227.742L14.9075 225.938L13.9558 224.12L13.0367 222.29L12.1502 220.448L11.2963 218.594L10.475 216.731L9.68621 214.856L8.92993 212.973L8.20604 211.08L7.51442 209.179L6.85494 207.271L6.22743 205.354L5.63172 203.432L5.06761 201.503L4.53488 199.568L4.03332 197.628L3.56266 195.684L3.12266 193.736L2.71305 191.784L2.33353 189.828L1.98382 187.87L1.66362 185.91L1.37263 183.948L1.11053 181.985L0.877015 180.02L0.671761 178.055L0.494453 176.09L0.344776 174.125L0.222415 172.161L0.12706 170.197L0.0584045 168.234L0.0161487 166.273L0 164.314L0.00967433 162.357L0.044897 160.402L0.105404 158.45L0.190938 156.501L0.301245 154.555L0.436077 152.613L0.59519 150.674L0.778346 148.739L0.985316 146.808L1.21588 144.881L1.46982 142.959L1.74694 141.041L2.04705 139.129L2.36997 137.221L2.71553 135.319L3.08359 133.422L3.47399 131.531L3.88661 129.646L4.32135 127.767L4.7781 125.894L5.25678 124.028L5.75733 122.168L6.27968 120.314L6.8238 118.468L7.38966 116.629L7.97725 114.797L8.58658 112.973L9.21764 111.156L9.87047 109.348L10.5451 107.547L11.2416 105.755L11.96 103.972L12.7003 102.197L13.4627 100.432L14.2472 98.6762L15.0539 96.93L15.883 95.1938L16.7343 93.4679L17.6082 91.7527L18.5046 90.0483L19.4236 88.3551L20.3654 86.6736L21.33 85.0039L22.3175 83.3466L23.3279 81.7019L24.3614 80.0702L25.4179 78.4519L26.4975 76.8474L27.6002 75.2571L28.7261 73.6814L29.8751 72.1207L31.0472 70.5754L32.2424 69.0459L33.4606 67.5326L34.7017 66.036L35.9657 64.5564L37.2523 63.0943L38.5615 61.6501L39.8931 60.2242L41.2469 58.8169L42.6226 57.4287L44.0201 56.0599L45.439 54.7109L46.879 53.3821L48.3399 52.0738L49.8214 50.7864L51.3229 49.5201L52.8444 48.2754L54.3852 47.0526L55.9452 45.8518L57.5237 44.6736L59.1206 43.5181L60.7353 42.3856L62.3674 41.2764L64.0164 40.1908L65.6819 39.1289L67.3634 38.0911L69.0605 37.0776L70.7725 36.0884L72.4991 35.124L74.2397 34.1843L75.9937 33.2696L77.7607 32.3801L79.5401 31.5158L81.3313 30.6768L83.1337 29.8634L84.947 29.0754L86.7703 28.3131L88.6032 27.5764L90.4452 26.8654L92.2955 26.1801L94.1537 25.5204L96.0191 24.8865L97.8912 24.2782L99.7694 23.6955L101.653 23.1382L103.542 22.6065L105.435 22.1L107.331 21.6188L109.231 21.1627L111.134 20.7315L113.039 20.3251L114.945 19.9433L116.852 19.586L118.76 19.2529L120.667 18.9438L122.574 18.6586L124.48 18.3969L126.384 18.1586L128.287 17.9434L130.186 17.751L132.083 17.5811L133.976 17.4335L135.865 17.308L137.75 17.2042L139.63 17.1217L141.505 17.0604L143.375 17.02L145.238 17L147.095 17.0002L148.946 17.0204L150.789 17.0601L152.626 17.1191L154.454 17.197L156.275 17.2936L158.088 17.4085L159.892 17.5415L161.687 17.6921L163.474 17.8602L165.251 18.0454L167.019 18.2474L168.777 18.4659L170.525 18.7007L172.263 18.9515L173.992 19.2179L175.709 19.4997L177.417 19.7967L179.113 20.1085L180.799 20.435L182.474 20.7759L184.138 21.1308L185.791 21.4997L187.432 21.8823L189.062 22.2782L190.68 22.6874L192.287 23.1096L193.882 23.5446L195.466 23.9921L197.037 24.4521L198.597 24.9241L200.144 25.4082L201.68 25.9041L203.203 26.4115L204.715 26.9303L206.214 27.4603L207.7 28.0014L209.175 28.5533L210.637 29.1158L212.086 29.6888L213.523 30.2722L214.948 30.8657L216.36 31.4692L217.759 32.0825L219.146 32.7056L220.52 33.3382L221.881 33.9803L223.23 34.6318L224.566 35.2925L225.889 35.9622L227.199 36.641L228.497 37.3286L229.781 38.0251L231.053 38.7301L232.311 39.4438L233.556 40.1659L234.789 40.8963L236.008 41.635L237.214 42.3818L238.407 43.1367L239.586 43.8994L240.752 44.6699L241.905 45.4481L243.045 46.2338L244.171 47.0269L245.283 47.8273L246.383 48.6349L247.468 49.4494L248.541 50.2708L249.6 51.0989L250.645 51.9334L251.677 52.7744L252.695 53.6215L253.7 54.4747L254.691 55.3337L255.669 56.1984L256.634 57.0686L257.585 57.9442L258.523 58.8249L259.448 59.7105L260.359 60.601L261.258 61.496L262.143 62.3954L263.015 63.299L263.875 64.2067L264.721 65.1181L265.555 66.0332L266.377 66.9517L267.186 67.8734L267.982 68.7981L268.767 69.7256L269.54 70.6558L270.301 71.5883L271.05 72.5231L271.788 73.4598L272.515 74.3984L273.231 75.3387L273.936 76.2804L274.63 77.2233L275.315 78.1673L275.989 79.1123L276.654 80.058L277.31 81.0043L277.956 81.951L278.593 82.8981L279.222 83.8453L279.842 84.7925L280.455 85.7397L281.06 86.6867L281.658 87.6334L282.248 88.5798L282.832 89.5257L283.41 90.4711L283.982 91.416L284.548 92.3603L285.108 93.3041L285.664 94.2472L286.214 95.1897L286.761 96.1317L287.303 97.0731L287.841 98.014L288.375 98.9545L288.906 99.8946L289.435 100.834L289.96 101.774L290.482 102.714L291.003 103.653L291.521 104.593L292.037 105.533L292.551 106.474L293.063 107.415L293.574 108.357L294.084 109.3L294.592 110.244L295.098 111.19L295.604 112.137L296.108 113.087L296.611 114.038L297.113 114.991L297.614 115.947L298.114 116.906L298.613 117.867L299.11 118.832L299.606 119.8L300.1 120.771L300.593 121.747L301.084 122.726L301.573 123.71L302.061 124.698L302.546 125.691L303.028 126.689L303.508 127.692L303.985 128.7L304.459 129.713L304.93 130.733L305.397 131.758L305.86 132.789L306.319 133.827L306.773 134.871L307.222 135.921L307.666 136.978L308.104 138.042L308.536 139.113L308.962 140.191L309.381 141.275L309.792 142.367L310.197 143.466L310.593 144.573L310.981 145.686L311.36 146.808" fill="url(#paint0_linear_1216_1579)"/>
<path d="M116.863 204.16L122.305 295.213H141.28L148.899 204.504L116.863 204.16Z" fill="#FD925A"/>
<path d="M119.112 320.032L177.454 319.965C177.559 313.556 169.595 311.194 162.785 310.572L142.617 305.4L144.458 275.199L119.112 274.284V320.032Z" fill="#6562BE"/>
<path d="M147.451 270.664L115.438 270.199C115.438 270.199 108.556 261.669 113.838 251.699C119.12 241.729 114.742 233.274 112.037 224.833C109.332 216.393 107.843 206.993 112.581 199.347C117.319 191.701 113.83 181.777 112.229 175.907C110.628 170.038 113.589 159.664 113.589 159.664L153.605 171.387C153.605 171.387 156.422 207.795 152.236 214.946C148.051 222.097 148.723 238.409 149.395 245.515C150.068 252.621 153.597 262.418 147.451 270.664Z" fill="#161730"/>
<path d="M155.83 209.032L217.846 280.588L231.571 270.986L182.2 191.986L155.83 209.032Z" fill="#FD925A"/>
<path d="M229.082 302.424L276.677 270.814C272.811 265.566 264.856 267.913 258.91 271.083L239.254 277.77L222.336 252.411L200.351 265.222L229.082 302.424Z" fill="#6562BE"/>
<path d="M221.775 246.804L195.365 263.715C195.365 263.715 184.489 260.469 182.648 249.473C180.807 238.476 172.028 233.941 164.617 228.484C157.206 223.027 150.211 216.191 149.339 207.368C148.467 198.545 139.527 192.376 134.597 188.426C129.667 184.475 125.69 174.423 125.69 174.423L165.593 162.355C165.593 162.355 190.331 190.562 191.323 198.658C192.316 206.753 202.92 219.714 207.85 225.156C212.78 230.598 221.735 236.737 221.775 246.804Z" fill="#161730"/>
<path d="M149.291 102.552C149.764 102.642 150.228 102.754 150.668 102.882C159.744 105.505 165.954 119.53 169.619 129.013C171.692 134.372 179.951 179.985 179.951 179.985L109.524 180.532C108.508 180.532 110.452 151.246 110.676 149.207C112.453 132.956 116.655 111.81 130.204 105.296C135.19 102.912 143.497 101.443 149.291 102.552Z" fill="#FE4877"/>
<path d="M119.208 319.627C119.208 319.627 118.271 329.185 122.097 326.066C125.922 322.948 127.627 321.621 129.3 323.158C130.972 324.694 133.973 327.236 135.47 324.507C136.966 321.779 138.311 326.066 143.057 325.092C147.803 324.117 146.258 321.779 147.683 322.168C149.107 322.558 147.515 327.236 151.804 325.482C156.094 323.728 155.246 321.194 157.582 321.973C159.919 322.753 162.264 328.248 166.73 323.158C171.196 318.068 171.404 329.462 173.933 326.696C176.462 323.93 177.398 319.702 177.398 319.702L119.208 319.627Z" fill="#FE4877"/>
<path d="M228.466 301.51C228.466 301.51 233.564 309.838 234.797 305.213C236.029 300.588 236.597 298.586 238.942 298.931C241.287 299.276 245.281 299.733 244.833 296.682C244.384 293.631 248.122 296.42 251.419 293.062C254.716 289.703 252.035 288.564 253.42 288.167C254.805 287.769 256.397 292.402 258.838 288.654C261.279 284.906 259.022 283.287 261.423 282.657C263.824 282.028 269.114 285.258 269.65 278.684C270.186 272.11 277.365 281.315 277.757 277.672C278.15 274.029 276.301 270.087 276.301 270.087L228.466 301.51Z" fill="#FE4877"/>
<path d="M112.181 132.303C112.485 130.632 112.853 129.05 113.262 127.566C106.395 118.189 116.279 106.72 116.279 106.72L133.621 103.639L138.119 102.844L144.906 106.248L164.049 255.574L98.4238 252.419C98.4238 252.419 106.715 161.643 112.181 132.303Z" fill="#FFCB39"/>
<path d="M139.239 310.999L138.823 310.595L144.337 305.692L144.754 306.105L139.239 310.999Z" fill="#FFCB39"/>
<path d="M149.706 307.139L145.727 312.617L146.223 312.933L150.202 307.455L149.706 307.139Z" fill="#FFCB39"/>
<path d="M153.838 308.21L150.951 313.722L151.49 313.97L154.377 308.458L153.838 308.21Z" fill="#FFCB39"/>
<path d="M155.95 89.5466C155.958 90.5867 155.746 91.6178 155.326 92.581C154.907 93.5442 154.289 94.4203 153.508 95.1592C152.726 95.8982 151.797 96.4853 150.773 96.8869C149.748 97.2886 148.649 97.4969 147.539 97.4998L147.051 97.5748V99.0739C147.051 100.258 147.051 101.435 147.051 102.62C147.051 103.369 147.387 104.254 146.899 104.943C146.371 105.545 145.684 106.005 144.906 106.278C142.865 107.125 138.271 107.117 138.263 104.089L138.215 94.1041L137.071 77.703L155.878 77.6205L155.95 89.5466Z" fill="#FD925A"/>
<path d="M155.454 81.1287C156.662 81.1287 159.455 88.4972 159.455 88.4972H155.51L155.454 81.1287Z" fill="#FF534A"/>
<path d="M147.915 90.5361C149.59 90.5361 150.948 89.2641 150.948 87.6951C150.948 86.1261 149.59 84.8541 147.915 84.8541C146.24 84.8541 144.882 86.1261 144.882 87.6951C144.882 89.2641 146.24 90.5361 147.915 90.5361Z" fill="#FF534A"/>
<path d="M149.852 82.0581C149.871 82.0168 149.901 81.9807 149.94 81.9532C150.108 81.8221 150.314 81.7412 150.532 81.7208C151.484 81.5259 153.909 80.9712 154.269 82.2755C154.557 83.3175 152.981 83.1675 152.148 83.1376C151.316 83.1076 149.259 83.0251 149.852 82.0581Z" fill="white"/>
<path d="M152.677 81.436C152.677 81.436 151.716 82.0581 152.677 83.16C152.677 83.16 154.558 83.4074 154.277 82.2755C154.235 82.1197 154.16 81.9736 154.055 81.8461C153.951 81.7185 153.819 81.6122 153.67 81.5337C153.52 81.4551 153.355 81.406 153.184 81.3892C153.013 81.3724 152.841 81.3883 152.677 81.436Z" fill="#0C0604"/>
<path d="M149.091 81.7058C149.091 81.7058 154.245 81.1137 154.245 80.8288C154.245 80.544 154.541 79.4121 153.629 79.4121C152.717 79.4121 148.179 80.8588 148.483 81.1361C148.787 81.4135 148.483 81.4435 149.091 81.7058Z" fill="#161730"/>
<path d="M154.374 92.3501C154.023 92.3589 153.675 92.2902 153.358 92.1495C153.041 92.0089 152.764 91.8002 152.549 91.5405L153.021 91.1957C153.925 92.2751 155.51 91.5405 155.526 91.533L155.798 92.0353C155.355 92.2396 154.868 92.3472 154.374 92.3501V92.3501Z" fill="#33270A"/>
<path d="M161.184 79.7344L145.25 81.1511L144.913 79.3521C144.409 79.532 144.065 79.6969 144.033 79.8244C144.001 79.9518 144.033 79.8244 144.033 79.8618L143.993 81.2411L143.681 81.2861C143.201 83.2125 142.713 85.1465 142.24 87.0729C141.496 90.0713 141.48 92.8523 139.711 95.4834C139.615 95.6333 139.503 95.7832 139.407 95.9332C136.398 99.936 130.116 103.249 125.05 104.179C122.569 104.628 120.024 104.276 117.535 104.733C111.396 105.858 105.53 108.579 99.928 111.165C99.2558 111.48 90.7165 115.085 90.7165 115.745L89.9162 111.457L105.386 102.694L89.628 110.19L87.059 96.6453L104.722 90.4311L86.6909 94.7413L84.9062 85.3789L104.722 81.7058L84.274 82.0582L82.6733 73.8126C88.6794 74.6313 94.7276 75.1517 100.792 75.3718C105.978 75.5217 112.853 76.6686 117.967 75.5742C120.296 75.0719 122.137 73.6702 123.897 72.231C128.4 68.7285 134.1 66.8654 139.952 66.9838C142.768 66.9652 145.572 67.3313 148.275 68.0707C149.563 68.438 150.86 68.8203 152.124 69.2101L153.005 69.1201C163.377 67.9958 161.184 79.7344 161.184 79.7344Z" fill="#4E0000"/>
<path d="M140.92 87.1179C142.847 87.1179 144.409 85.6547 144.409 83.8497C144.409 82.0447 142.847 80.5815 140.92 80.5815C138.993 80.5815 137.431 82.0447 137.431 83.8497C137.431 85.6547 138.993 87.1179 140.92 87.1179Z" fill="#FD925A"/>
<path d="M142.288 85.4538L141.688 85.3938C141.751 85.1208 141.746 84.838 141.676 84.5667C141.605 84.2954 141.47 84.0426 141.28 83.8272C141.088 83.6784 140.865 83.5678 140.626 83.5021C140.386 83.4364 140.135 83.4169 139.887 83.4449L139.815 82.8827C140.258 82.8407 140.704 82.9052 141.112 83.0701C141.275 82.7387 141.304 82.3629 141.192 82.0132C141.154 81.9144 141.077 81.8336 140.976 81.7883L141.168 81.2561C141.293 81.2995 141.407 81.3665 141.504 81.4529C141.6 81.5392 141.676 81.6432 141.728 81.7583C141.921 82.2899 141.884 82.8713 141.624 83.3774C141.652 83.3901 141.676 83.408 141.696 83.4299C141.955 83.7014 142.144 84.0254 142.246 84.3766C142.349 84.7278 142.364 85.0965 142.288 85.4538V85.4538Z" fill="#0C0604"/>
<path d="M244.127 275.903L243.79 283.017L244.39 283.042L244.727 275.928L244.127 275.903Z" fill="#FFCB39"/>
<path d="M250.57 280.858L249.378 274.329L249.97 274.232L251.155 280.768L250.57 280.858Z" fill="#FFCB39"/>
<path d="M251.994 273.558L251.423 273.727L253.387 279.552L253.958 279.383L251.994 273.558Z" fill="#FFCB39"/>
<path d="M147.075 102.26L146.154 105.603L177.454 239.361L215.765 220.261C215.765 220.261 172.26 97.8071 147.075 102.26Z" fill="#FFCB39"/>
<path d="M150.004 141.621L148.003 142.513L149.988 141.583L150.004 141.621Z" fill="#FD925A"/>
<path d="M148.003 142.513L147.811 142.603V142.595L148.003 142.513Z" fill="#FD925A"/>
<path d="M152.781 217.66C154.261 217.66 155.462 216.536 155.462 215.149C155.462 213.762 154.261 212.638 152.781 212.638C151.3 212.638 150.1 213.762 150.1 215.149C150.1 216.536 151.3 217.66 152.781 217.66Z" fill="#161730"/>
<path d="M152.013 206.671C153.493 206.671 154.694 205.547 154.694 204.16C154.694 202.773 153.493 201.649 152.013 201.649C150.532 201.649 149.332 202.773 149.332 204.16C149.332 205.547 150.532 206.671 152.013 206.671Z" fill="#161730"/>
<path d="M151.38 197.518C152.861 197.518 154.061 196.394 154.061 195.007C154.061 193.62 152.861 192.496 151.38 192.496C149.9 192.496 148.699 193.62 148.699 195.007C148.699 196.394 149.9 197.518 151.38 197.518Z" fill="#161730"/>
<path d="M114.23 81.5934L210.091 202.458L207.154 204.497L110.829 83.0626L27.8204 118.391C24.1776 110.906 22.1466 102.822 21.8439 94.6009C21.5411 86.3799 22.9725 78.1838 26.0561 70.4816C29.1396 62.7795 33.8147 55.7226 39.8139 49.715C45.813 43.7073 53.0183 38.8669 61.0173 35.4708L123.441 8.89769C139.577 2.03691 157.961 1.45732 174.552 7.2863C191.144 13.1153 204.586 24.8759 211.924 39.9834L114.23 81.5934Z" fill="#6562BE"/>
<path d="M82.7214 21.8657C83.9148 21.8657 84.8822 20.9595 84.8822 19.8418C84.8822 18.724 83.9148 17.8179 82.7214 17.8179C81.528 17.8179 80.5605 18.724 80.5605 19.8418C80.5605 20.9595 81.528 21.8657 82.7214 21.8657Z" fill="#6562BE"/>
<path d="M58.2158 105.393C49.6124 78.3027 57.2714 57.9062 65.2105 45.5679C70.2498 37.6272 76.871 30.6672 84.7141 25.0664H84.7941C96.6693 21.9533 109.004 20.6597 121.32 21.236C139.855 22.1655 165.505 28.3422 182.408 52.5466L181.904 52.8539C165.145 28.8669 139.703 22.7202 121.304 21.7982C109.075 21.2135 96.8243 22.4816 85.0262 25.5537C77.2655 31.1133 70.7108 38.0108 65.7147 45.8752C57.8156 58.1161 50.2527 78.3477 58.792 105.236L58.2158 105.393Z" fill="white"/>
<path d="M35.151 81.3985C38.5499 81.3985 41.3054 78.8177 41.3054 75.6341C41.3054 72.4505 38.5499 69.8697 35.151 69.8697C31.752 69.8697 28.9966 72.4505 28.9966 75.6341C28.9966 78.8177 31.752 81.3985 35.151 81.3985Z" fill="#FFCB39"/>
<path d="M49.0286 55.2002C50.3148 55.2002 51.3575 54.2236 51.3575 53.0188C51.3575 51.8141 50.3148 50.8375 49.0286 50.8375C47.7424 50.8375 46.6997 51.8141 46.6997 53.0188C46.6997 54.2236 47.7424 55.2002 49.0286 55.2002Z" fill="#FFCB39"/>
<path d="M46.6996 102.177C48.6798 102.177 50.285 100.674 50.285 98.8191C50.285 96.9644 48.6798 95.4609 46.6996 95.4609C44.7195 95.4609 43.1143 96.9644 43.1143 98.8191C43.1143 100.674 44.7195 102.177 46.6996 102.177Z" fill="#FFCB39"/>
<path d="M98.4315 48.2664C100.862 48.2664 102.833 46.4206 102.833 44.1436C102.833 41.8667 100.862 40.0209 98.4315 40.0209C96.0005 40.0209 94.0298 41.8667 94.0298 44.1436C94.0298 46.4206 96.0005 48.2664 98.4315 48.2664Z" fill="#FFCB39"/>
<path d="M77.9835 78.0403C79.4024 78.0403 80.5525 76.963 80.5525 75.6341C80.5525 74.3052 79.4024 73.2279 77.9835 73.2279C76.5647 73.2279 75.4146 74.3052 75.4146 75.6341C75.4146 76.963 76.5647 78.0403 77.9835 78.0403Z" fill="#FFCB39"/>
<path d="M77.9835 57.6064C79.4024 57.6064 80.5525 56.5291 80.5525 55.2002C80.5525 53.8713 79.4024 52.794 77.9835 52.794C76.5647 52.794 75.4146 53.8713 75.4146 55.2002C75.4146 56.5291 76.5647 57.6064 77.9835 57.6064Z" fill="#FFCB39"/>
<path d="M144.601 57.6214C148.694 57.6214 152.012 54.5137 152.012 50.6801C152.012 46.8466 148.694 43.7389 144.601 43.7389C140.508 43.7389 137.19 46.8466 137.19 50.6801C137.19 54.5137 140.508 57.6214 144.601 57.6214Z" fill="#FFCB39"/>
<path d="M144.601 14.9619C145.366 14.9619 145.986 14.3813 145.986 13.6651C145.986 12.9489 145.366 12.3683 144.601 12.3683C143.837 12.3683 143.217 12.9489 143.217 13.6651C143.217 14.3813 143.837 14.9619 144.601 14.9619Z" fill="#FFCB39"/>
<path d="M106.035 64.8999C106.963 64.8999 107.715 64.1951 107.715 63.3258C107.715 62.4564 106.963 61.7516 106.035 61.7516C105.106 61.7516 104.354 62.4564 104.354 63.3258C104.354 64.1951 105.106 64.8999 106.035 64.8999Z" fill="#FFCB39"/>
<path d="M130.34 35.231C133.275 35.231 135.654 33.0025 135.654 30.2536C135.654 27.5048 133.275 25.2763 130.34 25.2763C127.405 25.2763 125.026 27.5048 125.026 30.2536C125.026 33.0025 127.405 35.231 130.34 35.231Z" fill="#FFCB39"/>
<path d="M185.081 35.6582C188.268 35.6582 190.852 33.2385 190.852 30.2536C190.852 27.2688 188.268 24.8491 185.081 24.8491C181.894 24.8491 179.311 27.2688 179.311 30.2536C179.311 33.2385 181.894 35.6582 185.081 35.6582Z" fill="#FFCB39"/>
<path d="M164.897 22.0006C166.17 22.0006 167.202 21.0341 167.202 19.8418C167.202 18.6495 166.17 17.683 164.897 17.683C163.624 17.683 162.592 18.6495 162.592 19.8418C162.592 21.0341 163.624 22.0006 164.897 22.0006Z" fill="#FFCB39"/>
<path d="M91.5808 32.5474C92.9333 32.5474 94.0297 31.5205 94.0297 30.2537C94.0297 28.9869 92.9333 27.9599 91.5808 27.9599C90.2283 27.9599 89.1318 28.9869 89.1318 30.2537C89.1318 31.5205 90.2283 32.5474 91.5808 32.5474Z" fill="#FFCB39"/>
<path d="M125.026 71.4364C126.423 71.4364 127.555 70.3759 127.555 69.0677C127.555 67.7595 126.423 66.6989 125.026 66.6989C123.629 66.6989 122.497 67.7595 122.497 69.0677C122.497 70.3759 123.629 71.4364 125.026 71.4364Z" fill="#FFCB39"/>
<path d="M121.032 49.6382C121.841 49.6382 122.497 49.024 122.497 48.2664C122.497 47.5088 121.841 46.8947 121.032 46.8947C120.224 46.8947 119.568 47.5088 119.568 48.2664C119.568 49.024 120.224 49.6382 121.032 49.6382Z" fill="#FFCB39"/>
<path d="M71.3973 92.0652C72.299 92.0652 73.0299 91.3806 73.0299 90.5361C73.0299 89.6915 72.299 89.0069 71.3973 89.0069C70.4956 89.0069 69.7646 89.6915 69.7646 90.5361C69.7646 91.3806 70.4956 92.0652 71.3973 92.0652Z" fill="#FFCB39"/>
<path d="M59.8645 43.7389C60.9916 43.7389 61.9053 42.8831 61.9053 41.8274C61.9053 40.7717 60.9916 39.9159 59.8645 39.9159C58.7374 39.9159 57.8237 40.7717 57.8237 41.8274C57.8237 42.8831 58.7374 43.7389 59.8645 43.7389Z" fill="#FFCB39"/>
<path d="M161.808 136.066L149.996 141.583L148.011 142.513L147.819 142.595L137.159 147.34L115.15 162.107C113.053 163.089 109.068 159.619 106.251 154.357C104.578 151.223 103.682 148.165 103.682 145.991C103.682 144.492 104.098 143.435 104.954 143.038L130.564 134.447L136.486 131.449L141.456 120.497L143.857 120.295L139.736 129.815L156.542 122.476L157.671 124.508L144.529 129.815L145.53 131.929L159.183 126.022L160.048 127.191L146.282 133.54L147.235 135.617L160.584 128.93L160.792 131.179L148.203 137.693L149.003 139.365L160.696 134.02L161.808 136.066Z" fill="#FD925A"/>
<path d="M125.968 113.847L126.79 114.161C129.057 115.026 130.864 116.698 131.814 118.811C132.764 120.923 132.779 123.303 131.856 125.426L115.108 163.941L97.2227 157.119L113.971 118.603C114.892 116.485 116.671 114.795 118.92 113.904C121.169 113.012 123.703 112.992 125.968 113.847V113.847Z" fill="#FFCB39"/>
<path d="M112.197 158.015C113.678 158.015 114.878 156.89 114.878 155.503C114.878 154.117 113.678 152.992 112.197 152.992C110.716 152.992 109.516 154.117 109.516 155.503C109.516 156.89 110.716 158.015 112.197 158.015Z" fill="#161730"/>
<path d="M143.609 76.6461C143.609 76.6461 142.544 90.5136 145.882 94.6363C145.882 94.6363 143.593 83.0776 146.682 74.1424C146.698 74.1649 139.887 67.1337 143.609 76.6461Z" fill="#FFCB39"/>
<defs>
<linearGradient id="paint0_linear_1216_1579" x1="158.5" y1="17" x2="158.5" y2="308" gradientUnits="userSpaceOnUse">
<stop stop-color="#FF461E"/>
<stop offset="0.885417" stop-color="#FF3F33" stop-opacity="0"/>
<stop offset="0.9999" stop-color="#01FF2A" stop-opacity="0"/>
<stop offset="1" stop-opacity="0"/>
</linearGradient>
</defs>
</svg>
