<svg width="375" height="395" viewBox="0 0 375 395" fill="none" xmlns="http://www.w3.org/2000/svg">
<path fill-rule="evenodd" clip-rule="evenodd" d="M230.797 309.985L229.545 310.447L228.303 310.913L227.07 311.387L225.846 311.866L224.63 312.351L223.421 312.843L222.218 313.341L221.021 313.845L219.83 314.354L218.643 314.87L217.459 315.39L216.279 315.916L215.101 316.447L213.925 316.983L212.75 317.522L211.576 318.065L210.401 318.611L209.226 319.159L208.049 319.709L206.871 320.261L205.69 320.814L204.507 321.368L203.321 321.922L202.132 322.476L200.939 323.029L199.742 323.582L198.541 324.133L197.335 324.684L196.125 325.233L194.909 325.78L193.689 326.327L192.464 326.872L191.232 327.416L189.996 327.959L188.754 328.501L187.505 329.043L186.251 329.585L184.99 330.128L183.723 330.672L182.449 331.217L181.168 331.764L179.88 332.313L178.584 332.865L177.28 333.419L175.968 333.977L174.648 334.538L173.318 335.103L171.979 335.671L170.63 336.242L169.272 336.817L167.903 337.396L166.523 337.978L165.132 338.563L163.729 339.15L162.315 339.74L160.888 340.332L159.449 340.925L157.998 341.519L156.533 342.113L155.056 342.706L153.565 343.297L152.062 343.886L150.545 344.47L149.014 345.05L147.471 345.622L145.915 346.187L144.346 346.743L142.765 347.287L141.172 347.819L139.568 348.337L137.953 348.838L136.328 349.321L134.694 349.784L133.052 350.224L131.403 350.641L129.747 351.031L128.087 351.393L126.422 351.724L124.756 352.022L123.089 352.286L121.423 352.513L119.759 352.701L118.1 352.848L116.447 352.952L114.802 353.012L113.167 353.024L111.544 352.989L109.935 352.903L108.342 352.766L106.768 352.577L105.214 352.333L103.683 352.033L102.176 351.678L100.697 351.265L99.2464 350.795L97.8272 350.267L96.4412 349.68L95.0903 349.035L93.7766 348.331L92.5017 347.569L91.2675 346.749L90.0755 345.872L88.9273 344.938L87.8243 343.949L86.7677 342.905L85.7587 341.808L84.7983 340.66L83.8871 339.462L83.0259 338.216L82.2152 336.924L81.4552 335.588L80.7459 334.21L80.0875 332.794L79.4795 331.34L78.9215 329.853L78.4128 328.334L77.9525 326.788L77.5395 325.215L77.1726 323.62L76.8504 322.006L76.5714 320.375L76.334 318.73L76.1365 317.074L75.9772 315.41L75.8541 313.74L75.7655 312.068L75.7092 310.394L75.6832 308.722L75.6855 307.055L75.7139 305.393L75.7664 303.74L75.8406 302.097L75.9347 300.466L76.0465 298.848L76.1739 297.245L76.315 295.659L76.468 294.09L76.631 292.54L76.8023 291.009L76.9799 289.498L77.1621 288.009L77.3469 286.541L77.5327 285.096L77.7176 283.674L77.8997 282.275L78.0771 280.901L78.2481 279.55L78.4108 278.225L78.5634 276.924L78.7041 275.649L78.8312 274.398L78.943 273.173L79.0378 271.973L79.114 270.798L79.1702 269.647L79.2049 268.521L79.2166 267.418L79.2042 266.339L79.1662 265.283L79.1017 264.248L79.0094 263.236L78.8884 262.244L78.7378 261.272L78.5566 260.318L78.3442 259.384L78.0998 258.466L77.8228 257.564L77.5127 256.678L77.1691 255.805L76.7916 254.945L76.3799 254.097L75.9338 253.26L75.4532 252.432L74.938 251.612L74.3883 250.799L73.8041 249.991L73.1858 249.188L72.5334 248.388L71.8475 247.59L71.1284 246.792L70.3766 245.994L69.5927 245.193L68.7773 244.389L67.9312 243.581L67.0552 242.766L66.1501 241.945L65.2168 241.115L64.2565 240.276L63.2701 239.426L62.2587 238.564L61.2236 237.689L60.166 236.8L59.0873 235.897L57.9888 234.977L56.8718 234.039L55.7379 233.084L54.5886 232.11L53.4253 231.116L52.2497 230.102L51.0634 229.066L49.8679 228.007L48.665 226.927L47.4563 225.822L46.2435 224.694L45.0282 223.541L43.8122 222.364L42.5972 221.161L41.3848 219.932L40.1766 218.677L38.9744 217.397L37.7799 216.089L36.5945 214.755L35.4199 213.395L34.2577 212.008L33.1094 210.594L31.9765 209.153L30.8606 207.686L29.7633 206.192L28.686 204.673L27.6302 203.127L26.5976 201.556L25.5896 199.959L24.6078 198.337L23.6538 196.691L22.7292 195.021L21.8356 193.328L20.9746 191.612L20.1479 189.874L19.3573 188.115L18.6043 186.335L17.8908 184.536L17.2186 182.719L16.5895 180.884L16.0054 179.033L15.4683 177.167L14.9804 175.288L14.5437 173.397L14.1605 171.495L13.833 169.585L13.5635 167.668L13.3539 165.746L13.2061 163.822L13.1217 161.897L13.1024 159.973L13.1492 158.052L13.2636 156.136L13.4463 154.228L13.6984 152.33L14.0203 150.444L14.4127 148.571L14.8757 146.715L15.4096 144.876L16.0142 143.058L16.6893 141.263L17.4345 139.491L18.2493 137.746L19.1328 136.028L20.0842 134.341L21.1024 132.685L22.1862 131.063L23.3342 129.475L24.5448 127.924L25.8166 126.41L27.1477 124.936L28.5363 123.501L29.9804 122.108L31.4779 120.757L33.0267 119.449L34.6246 118.184L36.2692 116.965L37.9583 115.79L39.6894 114.66L41.4602 113.576L43.2682 112.538L45.1109 111.546L46.9858 110.6L48.8905 109.7L50.8225 108.845L52.7794 108.036L54.7587 107.272L56.7582 106.552L58.7754 105.876L60.808 105.244L62.8538 104.654L64.9107 104.106L66.9765 103.599L69.0492 103.133L71.1268 102.706L73.2074 102.317L75.2891 101.966L77.3703 101.651L79.4492 101.372L81.5243 101.127L83.594 100.916L85.657 100.736L87.7119 100.588L89.7575 100.47L91.7926 100.381L93.8161 100.32L95.8269 100.286L97.8242 100.278L99.807 100.294L101.775 100.334L103.726 100.396L105.661 100.481L107.579 100.585L109.479 100.71L111.361 100.853L113.225 101.015L115.069 101.193L116.895 101.387L118.701 101.597L120.487 101.822L122.253 102.06L124 102.312L125.727 102.577L127.435 102.854L129.122 103.144L130.79 103.444L132.438 103.755L134.066 104.077L135.675 104.409L137.265 104.751L138.835 105.101L140.385 105.46L141.917 105.826L143.429 106.199L144.922 106.578L146.396 106.961L147.852 107.349L149.288 107.739L150.705 108.13L152.104 108.521L153.484 108.91L154.846 109.295L156.19 109.675L157.516 110.047L158.825 110.409L160.117 110.758L161.392 111.093L162.652 111.41L163.896 111.706L165.126 111.98L166.343 112.228L167.548 112.449L168.741 112.641L169.925 112.8L171.1 112.925L172.267 113.015L173.429 113.068L174.587 113.082L175.743 113.056L176.897 112.99L178.052 112.881L179.21 112.73L180.371 112.537L181.539 112.3L182.713 112.02L183.897 111.697L185.092 111.333L186.298 110.926L187.518 110.479L188.754 109.992L190.006 109.468L191.275 108.907L192.564 108.311L193.873 107.682L195.202 107.023L196.553 106.336L197.927 105.624L199.323 104.889L200.742 104.134L202.185 103.363L203.651 102.578L205.141 101.784L206.653 100.983L208.188 100.179L209.745 99.3766L211.323 98.5786L212.921 97.7891L214.537 97.012L216.171 96.2512L217.821 95.5105L219.485 94.7939L221.162 94.1052L222.848 93.4483L224.543 92.8268L226.243 92.2445L227.947 91.7049L229.652 91.2115L231.354 90.7675L233.052 90.3762L234.743 90.0405L236.423 89.7632L238.09 89.5469L239.74 89.394L241.371 89.3067L242.98 89.2869L244.563 89.3362L246.118 89.4561L247.642 89.6477L249.132 89.9118L250.586 90.2491L251.999 90.6597L253.372 91.1438L254.7 91.7009L255.981 92.3306L257.214 93.0319L258.397 93.8036L259.528 94.6445L260.606 95.5527L261.63 96.5263L262.598 97.5631L263.51 98.6608L264.365 99.8167L265.163 101.028L265.905 102.292L266.59 103.605L267.218 104.964L267.792 106.366L268.31 107.806L268.776 109.282L269.19 110.79L269.555 112.325L269.872 113.884L270.145 115.461L270.376 117.053L270.57 118.655L270.728 120.263L270.856 121.872L270.958 123.478L271.038 125.077L271.099 126.664L271.148 128.235L271.189 129.787L271.225 131.317L271.263 132.82L271.306 134.295L271.359 135.739L271.427 137.148L271.513 138.523L271.621 139.86L271.756 141.159L271.922 142.419L272.121 143.639L272.358 144.817L272.636 145.955L272.959 147.051L273.329 148.106L273.75 149.12L274.224 150.094L274.753 151.028L275.341 151.923L275.989 152.781L276.699 153.603L277.472 154.391L278.309 155.146L279.212 155.87L280.181 156.566L281.216 157.236L282.317 157.882L283.483 158.507L284.715 159.114L286.01 159.705L287.368 160.283L288.787 160.851L290.265 161.413L291.799 161.971L293.387 162.527L295.026 163.086L296.713 163.65L298.444 164.223L300.217 164.806L302.027 165.402L303.87 166.016L305.741 166.648L307.638 167.302L309.554 167.98L311.486 168.684L313.428 169.417L315.376 170.179L317.326 170.974L319.271 171.803L321.207 172.667L323.13 173.567L325.034 174.504L326.914 175.48L328.766 176.495L330.585 177.55L332.366 178.644L334.106 179.778L335.798 180.953L337.441 182.167L339.029 183.42L340.558 184.711L342.026 186.041L343.428 187.408L344.762 188.81L346.024 190.248L347.212 191.718L348.324 193.221L349.357 194.754L350.31 196.315L351.18 197.903L351.967 199.517L352.669 201.153L353.286 202.811L353.816 204.487L354.261 206.181L354.619 207.889L354.891 209.611L355.078 211.343L355.18 213.083L355.199 214.831L355.136 216.582L354.993 218.337L354.771 220.092L354.474 221.846L354.102 223.597L353.66 225.343L353.149 227.083L352.572 228.816L351.934 230.54L351.236 232.254L350.482 233.956L349.675 235.646L348.818 237.323L347.913 238.985L346.964 240.633L345.973 242.265L344.943 243.881L343.875 245.481L342.772 247.063L341.637 248.628L340.471 250.175L339.276 251.704L338.053 253.214L336.805 254.705L335.532 256.177L334.236 257.629L332.917 259.061L331.576 260.474L330.213 261.865L328.829 263.236L327.425 264.584L326 265.912L324.557 267.216L323.094 268.499L321.612 269.758L320.114 270.994L318.598 272.207L317.065 273.395L315.518 274.56L313.956 275.701L312.38 276.818L310.791 277.91L309.19 278.978L307.579 280.021L305.957 281.041L304.326 282.036L302.687 283.006L301.041 283.953L299.389 284.875L297.731 285.774L296.068 286.649L294.402 287.501L292.733 288.329L291.062 289.135L289.391 289.919L287.719 290.68L286.049 291.42L284.38 292.138L282.714 292.836L281.051 293.514L279.393 294.172L277.74 294.811L276.093 295.431L274.452 296.034L272.819 296.62L271.194 297.189L269.578 297.743L267.972 298.283L266.376 298.808L264.79 299.32L263.217 299.82L261.655 300.309L260.105 300.787L258.569 301.255L257.046 301.715L255.536 302.168L254.041 302.613L252.559 303.053L251.092 303.488L249.64 303.919L248.203 304.347L246.78 304.773L245.372 305.197L243.979 305.621L242.6 306.045L241.235 306.47L239.885 306.897L238.548 307.326L237.225 307.759L235.915 308.195L234.618 308.635L233.333 309.08L232.059 309.53L230.797 309.985Z" fill="url(#paint0_linear_1127_1574)"/>
<path d="M198.492 170.223L167.245 170.587C161.28 170.656 156.501 175.473 156.57 181.344L157.388 250.613C157.457 256.485 162.349 261.188 168.314 261.119L199.56 260.755C205.525 260.685 210.305 255.869 210.235 249.997L209.418 180.729C209.348 174.857 204.456 170.153 198.492 170.223Z" fill="#6562BE"/>
<path d="M252.825 141.991L250.491 142.018L253.005 354.989L255.34 354.962L252.825 141.991Z" fill="#161730"/>
<path d="M190.192 308.241L170.88 310.335L172.911 340.814L189.984 339.623L190.192 308.241Z" fill="#6562BE"/>
<path d="M191.21 352.383L146.109 352.848C145.974 347.641 152.108 345.659 157.367 345.089L172.903 340.711L172.159 329.736L189.994 328.457L191.21 352.383Z" fill="#161730"/>
<path d="M154.325 345.578C154.325 345.578 158.8 352.01 157.672 352.731C156.544 353.452 146.11 352.866 146.11 352.866C146.11 352.866 145.198 347.499 154.325 345.578Z" fill="#FFCB39"/>
<path d="M190.336 328.81C190.336 328.81 182.525 332.355 183.766 336.453C185.006 340.552 186.414 347.914 182.806 348.87C179.198 349.825 180.772 352.492 180.772 352.492L191.216 352.37L190.336 328.81Z" fill="#FFCB39"/>
<path d="M172.182 341.584L171.909 341.95L177.014 345.631L177.286 345.265L172.182 341.584Z" fill="#FFCB39"/>
<path d="M166.769 343.722L166.465 344.062L171.01 347.995L171.314 347.655L166.769 343.722Z" fill="#FFCB39"/>
<path d="M161.08 343.936L160.734 344.236L164.372 348.303L164.718 348.003L161.08 343.936Z" fill="#FFCB39"/>
<path d="M186.37 312.845L186.264 324.209L186.725 324.213L186.83 312.849L186.37 312.845Z" fill="#FFCB39"/>
<path d="M181.5 324.601L181.039 324.6L181.093 314.589L181.554 314.59L181.5 324.601Z" fill="#FFCB39"/>
<path d="M175.852 314.948L175.747 326.312L176.207 326.316L176.313 314.952L175.852 314.948Z" fill="#FFCB39"/>
<path d="M168.853 312.53L193.565 311.867C193.565 311.867 198.797 304.875 194.616 296.825C190.435 288.775 193.739 281.865 195.747 274.977C197.754 268.088 198.819 260.455 195.084 254.269C191.349 248.082 193.951 240.008 195.13 235.222C196.308 230.436 193.923 222.032 193.923 222.032L163.109 231.917C163.109 231.917 161.277 261.521 164.583 267.289C167.89 273.057 167.524 286.32 167.07 292.101C166.616 297.883 164.007 305.885 168.853 312.53Z" fill="#161730"/>
<path d="M163.561 178.045L148.553 188.242L107.258 121.253L109.15 120.118L115.544 129.836L116.97 128.828L110.48 117.744L111.78 115.981L118.768 127.561L120.541 126.312L113.057 114.823L114.31 114.264L121.924 125.341L123.698 124.092L116.177 113.734L118.069 112.599L127.411 126.329L128.968 116.658L130.759 117.937L129.133 129.127L163.561 178.045Z" fill="#FD925A"/>
<path d="M116.743 140.275L134.138 129.453L169.142 183.98C170.591 186.249 171.066 188.992 170.464 191.607C169.861 194.222 168.23 196.494 165.927 197.927C163.625 199.361 160.838 199.838 158.18 199.252C155.521 198.666 153.207 197.066 151.747 194.802L116.743 140.275Z" fill="black"/>
<path d="M152.477 310.834L133.238 308.179L127.583 338.215L144.43 341.2L152.477 310.834Z" fill="#6562BE"/>
<path d="M142.429 353.864L98.5998 343.385C99.7687 338.309 106.209 337.853 111.446 338.59L127.607 338.111L129.605 327.292L147.208 330.377L142.429 353.864Z" fill="#161730"/>
<path d="M108.383 338.329C108.383 338.329 111.112 345.646 109.833 346.073C108.554 346.499 98.5997 343.385 98.5997 343.385C98.5997 343.385 99.052 337.978 108.383 338.329Z" fill="#FFCB39"/>
<path d="M147.478 330.809C147.478 330.809 139.016 332.347 139.196 336.616C139.375 340.884 138.898 348.359 135.163 348.421C131.428 348.482 132.28 351.436 132.28 351.436L142.429 353.864L147.478 330.809Z" fill="#FFCB39"/>
<path d="M126.68 338.791L126.324 339.08L130.346 343.889L130.701 343.6L126.68 338.791Z" fill="#FFCB39"/>
<path d="M124.321 344.458L123.943 344.717L120.524 339.803L120.902 339.544L124.321 344.458Z" fill="#FFCB39"/>
<path d="M117.848 343.203L117.439 343.407L114.93 338.586L115.339 338.375L117.848 343.203Z" fill="#FFCB39"/>
<path d="M147.624 314.376L144.686 325.367L145.132 325.482L148.07 314.492L147.624 314.376Z" fill="#FFCB39"/>
<path d="M142.071 314.803L139.517 324.492L139.963 324.606L142.517 314.917L142.071 314.803Z" fill="#FFCB39"/>
<path d="M136.906 313.869L133.968 324.859L134.414 324.975L137.352 313.984L136.906 313.869Z" fill="#FFCB39"/>
<path d="M245.543 264.187L243.77 265.502L236.768 254.799L234.939 255.958L242.578 267.01L241.593 267.953L233.512 256.863L231.676 258.022L240.023 268.691L237.879 269.23L229.816 259.205L228.34 260.141L235.155 269.57L233.382 270.885L185.369 208.378L200.539 198.409L234.021 247.966L245.18 250.6L245.727 252.717L236.024 250.568L245.543 264.187Z" fill="#FD925A"/>
<path d="M178.704 184.769C180.91 183.188 183.663 182.535 186.357 182.952C189.052 183.369 191.467 184.823 193.072 186.994L231.615 239.119L215.003 251.023L176.464 198.903C174.859 196.736 174.194 194.03 174.614 191.38C175.034 188.73 176.505 186.352 178.704 184.769Z" fill="black"/>
<path d="M130.726 309.817L154.838 315.161C154.838 315.161 161.661 309.638 159.634 300.843C157.607 292.048 162.532 286.13 166.195 279.942C169.858 273.754 172.797 266.607 170.73 259.706C168.664 252.804 173.2 245.608 175.539 241.256C177.878 236.905 177.67 228.185 177.67 228.185L145.332 230.292C145.332 230.292 136.154 258.542 137.913 264.939C139.673 271.336 136.001 284.098 134.125 289.588C132.248 295.077 127.687 302.207 130.726 309.817Z" fill="#161730"/>
<path d="M165.797 175.981C165.439 176.053 165.085 176.146 164.738 176.259C157.747 178.47 153.083 189.919 150.336 197.663C148.784 202.036 142.838 239.158 142.838 239.158L197.263 238.971C198.043 238.962 196.264 215.188 196.066 213.533C194.54 200.347 191.087 183.204 180.55 178.029C176.7 176.144 170.265 175.027 165.797 175.981Z" fill="black"/>
<path d="M146.116 352.848L146.157 356.367L152.018 356.299L191.257 355.842L191.217 352.383L146.116 352.848Z" fill="black"/>
<path d="M98.7769 343.304L97.9448 346.725L103.65 348.062L141.833 356.98L142.641 353.614L98.7769 343.304Z" fill="black"/>
<path d="M271.974 103.675L233.361 104.125L214.447 137.267L234.138 169.959L272.751 169.509L291.672 136.367L271.974 103.675Z" fill="black"/>
<path d="M269.903 107.298L235.517 107.698L218.667 137.217L236.209 166.33L270.595 165.929L287.445 136.416L269.903 107.298Z" fill="#F56416"/>
<path d="M260.73 285.905L258.273 285.934L258.197 279.529L225.618 279.909L225.686 285.739L223.229 285.767L223.132 277.519L260.626 277.082L260.73 285.905Z" fill="#FFCB39"/>
<path d="M286.025 348.707L285.346 291.219C285.296 287.014 281.793 283.646 277.521 283.695L205.402 284.536C201.13 284.585 197.707 288.035 197.757 292.24L198.436 349.728C198.485 353.933 201.988 357.301 206.26 357.252L278.38 356.411C282.652 356.362 286.074 352.912 286.025 348.707Z" fill="#6562BE"/>
<path d="M285.487 303.157L285.398 295.61L197.809 296.63L197.898 304.178L285.487 303.157Z" fill="#FFCB39"/>
<path d="M285.972 344.281L285.883 336.733L198.294 337.754L198.383 345.301L285.972 344.281Z" fill="#FFCB39"/>
<path d="M272.987 320.111L272.842 307.895L254.885 308.104L255.029 320.32L272.987 320.111Z" fill="#FFCB39"/>
<path d="M278.172 319.773L270.547 312.442L259.22 323.856L266.845 331.188L278.172 319.773Z" fill="#FE4877"/>
<path d="M223.932 299.155L221.812 291.381L202.634 296.452L204.754 304.227L223.932 299.155Z" fill="#FE4877"/>
<path d="M221.48 285.927L221.446 283.054L205.534 283.24L205.568 286.112L221.48 285.927Z" fill="#FFCC1E"/>
<path d="M278.744 285.223L278.71 282.351L262.798 282.536L262.832 285.409L278.744 285.223Z" fill="#FFCC1E"/>
<path d="M196.812 242.412C168.026 193.568 185.635 177.824 186.396 177.21L187.996 179.043L187.199 178.126L188.003 179.036C187.96 179.073 183.789 182.793 183.009 192.183C182.277 200.974 184.446 216.62 198.949 241.207L196.812 242.412Z" fill="#6562BE"/>
<path d="M167.14 174.151C165.459 175.542 163.871 177.039 162.388 178.633C160.888 180.233 159.472 181.907 158.146 183.648C155.484 187.142 153.213 190.908 151.372 194.881C149.549 198.873 148.195 203.057 147.335 207.351C146.504 211.703 146.093 216.123 146.108 220.551L145.832 220.554C145.03 216.093 144.9 211.539 145.445 207.04C145.739 204.779 146.185 202.539 146.779 200.335C147.402 198.137 148.158 195.977 149.044 193.867C150.838 189.659 153.157 185.687 155.946 182.041C157.329 180.208 158.831 178.465 160.443 176.823C162.054 175.147 163.799 173.599 165.66 172.196L167.14 174.151Z" fill="#6562BE"/>
<path d="M186.731 157.186C186.713 157.23 186.693 157.273 186.671 157.314C186.123 158.27 184.505 158.101 183.611 158.396C182.387 158.791 181.163 159.169 179.988 159.569C179.535 159.714 175.435 160.675 175.348 161.099L174.052 166.86C173.521 169.231 173.535 171.451 172.232 173.535L171.997 173.888C169.761 177.09 165.062 179.776 161.237 180.552C159.398 180.93 157.447 180.675 155.578 181.053C150.95 182.002 146.521 184.183 142.337 186.319C141.83 186.572 135.419 189.502 135.425 190.028L134.771 186.637L146.362 179.576L134.55 185.611L132.513 174.911L145.798 169.821L132.224 173.402L130.791 165.991L145.717 162.914L130.287 163.372L129 156.897C133.539 157.489 138.107 157.84 142.684 157.947C146.599 158.023 151.807 158.875 155.649 157.96C157.408 157.54 158.783 156.411 160.102 155.253C163.466 152.432 167.751 150.904 172.169 150.951C174.294 150.914 176.414 151.179 178.464 151.736C180.106 152.146 181.71 152.694 183.257 153.374C184.333 153.906 187.479 155.526 186.731 157.186Z" fill="#5AAC9D"/>
<path d="M184.427 168.705C184.45 170.369 183.801 171.975 182.623 173.169C181.445 174.363 179.834 175.049 178.143 175.075L177.781 175.133C177.786 175.52 177.79 175.914 177.795 176.301C177.806 177.238 177.817 178.175 177.828 179.113C177.835 179.717 178.095 180.398 177.739 180.928C177.347 181.408 176.834 181.779 176.252 182.004C174.712 182.699 171.253 182.734 171.213 180.333L171.089 172.471L170.075 159.443L184.272 159.217L184.427 168.705Z" fill="#FD925A"/>
<path d="M183.974 162.033C184.889 162.022 187.047 167.846 187.047 167.846L184.067 167.881L183.974 162.033Z" fill="#FF534A"/>
<path d="M178.361 169.568C179.626 169.553 180.64 168.532 180.626 167.286C180.611 166.04 179.573 165.042 178.307 165.057C177.042 165.071 176.028 166.093 176.043 167.339C176.057 168.585 177.095 169.583 178.361 169.568Z" fill="#FF534A"/>
<path d="M179.731 162.82C179.75 162.789 179.772 162.761 179.798 162.735C179.926 162.632 180.08 162.566 180.244 162.542C180.961 162.383 182.786 161.908 183.069 162.951C183.294 163.777 182.107 163.67 181.48 163.653C180.853 163.636 179.31 163.569 179.731 162.82Z" fill="white"/>
<path d="M181.876 162.33C181.876 162.33 181.157 162.834 181.892 163.702C181.892 163.702 183.307 163.879 183.063 162.981C183.03 162.861 182.972 162.749 182.894 162.65C182.816 162.552 182.719 162.471 182.609 162.41C182.498 162.349 182.376 162.311 182.25 162.297C182.125 162.283 181.997 162.294 181.876 162.33Z" fill="#0C0604"/>
<path d="M179.175 162.561C179.175 162.561 183.059 162.05 183.056 161.826C183.053 161.602 183.264 160.692 182.576 160.707C181.888 160.721 178.473 161.897 178.709 162.119C178.945 162.34 178.712 162.366 179.175 162.561Z" fill="#161730"/>
<path d="M183.256 170.945C182.99 170.955 182.727 170.904 182.485 170.795C182.244 170.686 182.032 170.524 181.866 170.32L182.225 170.037C182.917 170.882 184.108 170.287 184.12 170.281L184.334 170.684C183.999 170.851 183.631 170.94 183.256 170.945Z" fill="#33270A"/>
<path d="M188.261 160.876L176.252 162.141L176.101 161.338C174.997 167.805 176.381 174.672 176.381 174.672C174.51 172.274 174.364 165.683 174.392 162.362L170.032 163.018L169.274 157.668C168.928 151.775 174.202 153.522 181.988 152.518C189.773 151.514 188.261 160.876 188.261 160.876Z" fill="#5AAC9D"/>
<path d="M187.959 159.168L178.024 159.284C176.766 159.298 175.757 160.315 175.772 161.554L175.792 163.314C175.807 164.553 176.839 165.546 178.098 165.531L188.032 165.415C189.291 165.4 190.3 164.384 190.285 163.145L190.264 161.385C190.25 160.146 189.217 159.153 187.959 159.168Z" fill="#161730"/>
<path d="M187.928 159.676L179.609 159.773C178.554 159.786 177.708 160.638 177.721 161.676L177.738 163.146C177.75 164.185 178.616 165.017 179.671 165.004L187.989 164.908C189.045 164.895 189.89 164.043 189.878 163.005L189.86 161.535C189.848 160.496 188.983 159.664 187.928 159.676Z" fill="#FE4877"/>
<path d="M181.674 159.749L180.883 160.974L181.938 160.823L179.984 165.007L181.588 165.018L183.266 160.354L182.303 160.474L182.718 159.737L181.674 159.749Z" fill="white"/>
<path d="M185.968 159.699L184.611 162.945L185.308 162.622L184.524 164.954L186.196 164.935L186.97 161.792L185.973 162.221L186.945 159.688L185.968 159.699Z" fill="white"/>
<path d="M171.755 166.373C173.207 166.356 174.37 165.183 174.353 163.754C174.337 162.324 173.146 161.179 171.693 161.196C170.241 161.213 169.078 162.386 169.095 163.815C169.111 165.245 170.302 166.39 171.755 166.373Z" fill="#FD925A"/>
<path d="M172.771 165.037L172.316 164.993C172.359 164.782 172.353 164.563 172.297 164.354C172.242 164.145 172.138 163.951 171.995 163.787C171.85 163.672 171.683 163.587 171.504 163.536C171.325 163.485 171.138 163.47 170.953 163.491L170.886 163.044C171.314 162.989 171.748 163.078 172.118 163.296C172.229 163.041 172.241 162.754 172.151 162.491C172.138 162.453 172.116 162.418 172.089 162.388C172.061 162.358 172.027 162.334 171.989 162.318L172.132 161.881C172.324 161.954 172.479 162.097 172.567 162.281C172.644 162.499 172.676 162.731 172.661 162.962C172.645 163.192 172.583 163.418 172.478 163.625C172.753 164.042 172.858 164.546 172.771 165.037Z" fill="#0C0604"/>
<path d="M187.116 155.455L163.935 155.089C163.547 155.077 163.176 154.932 162.889 154.679C162.602 154.426 162.418 154.082 162.37 153.709L162.228 152.604C162.192 152.371 162.211 152.134 162.283 151.909C162.354 151.684 162.477 151.478 162.641 151.305C162.806 151.132 163.009 150.996 163.234 150.909C163.46 150.822 163.703 150.784 163.945 150.8L164.45 150.829C164.177 149.048 163.324 145.043 161.183 144.241C158.412 143.202 157.349 138.527 161.907 140.009C166.465 141.49 179.68 140.283 180.073 143.878C180.458 147.371 188.97 143.851 186.223 152.206L187.275 152.271L187.478 152.268C187.876 152.346 188.229 152.565 188.47 152.882C188.71 153.199 188.82 153.591 188.777 153.982C188.735 154.373 188.544 154.735 188.241 154.998C187.939 155.26 187.546 155.404 187.14 155.401L187.116 155.455Z" fill="#FFCB39"/>
<path d="M156.027 140.5C156.99 140.488 157.762 139.71 157.751 138.762C157.74 137.813 156.95 137.053 155.986 137.065C155.022 137.076 154.25 137.854 154.261 138.802C154.273 139.751 155.063 140.511 156.027 140.5Z" fill="#FB9159"/>
<path d="M156.738 265.324C155.367 265.252 154.033 264.853 152.854 264.16C148.902 262.028 144.968 257.719 145.152 253.544C145.204 252.237 145.538 251.38 146.166 250.937C147.22 250.199 148.891 250.676 151.012 251.286C152.533 251.769 154.096 252.113 155.682 252.314C154.569 250.229 152.979 248.789 150.549 248.546L150.599 248.091C153.331 248.368 155.052 250.011 156.235 252.362C159.014 252.542 162.029 251.859 164.87 248.857C166.399 247.242 166.918 245.923 166.415 244.937C164.377 240.945 147.2 242.742 147.028 242.744L146.979 242.297C147.697 242.216 164.647 240.44 166.824 244.715C167.422 245.918 166.855 247.382 165.205 249.149C162.316 252.207 159.277 252.944 156.462 252.819C157.673 255.497 158.267 258.974 158.854 262.396C159.105 263.887 158.604 264.595 158.141 264.921C157.726 265.192 157.236 265.333 156.738 265.324ZM147.507 251.037C147.127 251.024 146.753 251.128 146.435 251.333C145.929 251.69 145.661 252.425 145.614 253.587C145.439 257.569 149.236 261.722 153.107 263.782C155.203 264.901 157.044 265.218 157.903 264.603C158.428 264.24 158.604 263.536 158.432 262.528C157.832 259.039 157.224 255.49 155.958 252.837C154.244 252.642 152.555 252.281 150.913 251.759C149.815 251.37 148.67 251.127 147.507 251.037Z" fill="white"/>
<path d="M134.036 294.077C133.224 291.897 137.557 289.893 143.057 287.379C147.402 285.381 152.322 283.116 155.16 280.458C156.272 279.41 156.707 278.317 156.461 277.188C155.531 272.911 145.351 269.34 145.252 269.305L145.401 268.88C145.833 269.026 155.927 272.568 156.914 277.092C157.194 278.384 156.71 279.623 155.477 280.781C152.584 283.494 147.628 285.777 143.271 287.788C138.382 290.028 133.798 292.132 134.465 293.939L134.036 294.077Z" fill="white"/>
<path d="M150.836 311.839C148.716 311.863 145.292 310.694 141.696 309.465C139.656 308.713 137.572 308.081 135.455 307.572C134.427 307.367 133.975 307.118 133.952 306.737C133.9 305.988 135.742 305.337 139.904 303.934C141.299 303.464 142.854 302.938 144.456 302.351C143.221 301.76 142.305 301.245 142.197 300.423C142.089 299.602 142.852 298.601 144.659 297.147C147.045 295.25 150.127 291.918 153.107 288.187C149.258 283.811 143.239 279.907 143.177 279.835L143.43 279.457C143.79 279.689 149.622 283.462 153.434 287.808C159.531 280.189 165.365 271.073 165.072 269.086L165.525 269.02C165.866 271.297 159.873 280.53 153.733 288.156C155.459 290.186 156.713 292.319 156.742 294.254C156.747 295.013 156.552 295.76 156.177 296.422C155.801 297.085 155.258 297.64 154.599 298.035C151.807 299.821 148.811 301.277 145.673 302.373C147.922 303.399 150.827 304.847 152.389 308.113C153.101 309.605 153.181 310.62 152.623 311.231C152.385 311.45 152.103 311.617 151.795 311.722C151.487 311.826 151.16 311.866 150.836 311.839ZM145.043 302.622C143.287 303.247 141.574 303.872 140.05 304.362C137.529 305.214 134.383 306.272 134.413 306.708C134.413 306.708 134.476 306.912 135.548 307.13C137.686 307.64 139.791 308.278 141.85 309.04C146.169 310.52 151.104 312.205 152.257 310.951C152.669 310.499 152.567 309.617 151.95 308.33C150.375 305.046 147.335 303.66 145.124 302.651L145.043 302.622ZM153.406 288.535C150.341 292.314 147.265 295.659 144.946 297.5C143.302 298.808 142.576 299.717 142.657 300.363C142.739 301.01 143.753 301.56 145.062 302.15C148.341 300.932 151.753 299.459 154.312 297.687C154.906 297.333 155.396 296.835 155.737 296.239C156.078 295.644 156.257 294.973 156.257 294.29C156.229 292.476 155.051 290.469 153.406 288.535Z" fill="white"/>
<path d="M187.515 285.53C187.015 285.534 186.515 285.499 186.021 285.427C183.423 285.058 181.549 284.003 180.454 282.292C178.369 279.02 179.265 273.766 180.901 268.134C178.739 266.615 176.391 265.371 173.914 264.429C167.125 261.859 163.67 259.625 163.679 257.792C163.665 256.643 165.005 256.149 165.06 256.131L165.225 256.552C165.225 256.552 164.142 256.964 164.139 257.774C164.137 258.585 165.403 260.717 174.081 263.985C176.543 264.922 178.877 266.157 181.03 267.66C181.532 265.925 182.101 264.152 182.664 262.397C183.049 261.183 183.435 259.999 183.79 258.84L184.227 258.974C183.872 260.133 183.493 261.329 183.102 262.531C182.509 264.353 181.916 266.174 181.427 267.94C188.287 272.868 192.251 279.663 191.339 283.091C191.067 284.062 190.236 285.499 187.515 285.53ZM181.279 268.413C179.727 273.875 178.872 278.954 180.826 282.052C181.858 283.667 183.566 284.621 186.058 284.979C188.748 285.359 190.405 284.674 190.852 283C191.747 279.711 187.91 273.199 181.279 268.413Z" fill="white"/>
<path d="M175.68 256.34C175.516 256.359 175.349 256.345 175.19 256.299C175.031 256.253 174.883 256.176 174.755 256.072C174.252 255.576 174.609 254.586 175.856 253.035C178.041 250.425 180.482 248.034 183.145 245.898C181.174 245.963 179.252 246.118 178.067 246.217C175.974 246.38 175.974 246.38 175.904 246.151L175.853 245.971L176.048 245.859L176.142 246.04L176.202 245.876C176.331 245.874 177.16 245.834 178.044 245.764C180.033 245.601 181.991 245.47 183.742 245.431C186.177 243.491 188.006 242.309 188.043 242.284L188.293 242.662C188.262 242.663 186.677 243.709 184.491 245.416C187.723 245.379 190.129 245.707 190.566 246.785C190.844 247.465 190.344 248.294 189.047 249.325C184.622 252.866 178.254 256.31 175.68 256.34ZM183.913 245.901C181.094 248.113 178.515 250.605 176.216 253.339C174.738 255.171 174.971 255.646 175.083 255.772C176.053 256.728 183.124 253.495 188.767 249.014C189.857 248.148 190.328 247.453 190.144 247.002C189.764 246.026 186.88 245.842 183.913 245.901Z" fill="white"/>
<path d="M186.479 310.202C185.864 310.209 184.667 309.739 182.051 308.3C177.313 305.694 174.883 302.299 175.385 298.984C175.51 298.187 175.795 297.423 176.225 296.736C175.128 295.431 173.981 294.047 172.815 292.609C171.81 291.414 171.083 290.017 170.685 288.516C170.287 287.015 170.228 285.446 170.513 283.92C172.465 272.351 191.127 260.49 191.328 260.373L191.579 260.751C191.39 260.868 172.886 272.624 170.962 283.975C170.69 285.439 170.747 286.943 171.128 288.382C171.509 289.822 172.205 291.162 173.168 292.308C174.302 293.704 175.418 295.052 176.484 296.328C177.708 294.718 179.49 293.606 181.492 293.203C186.113 292.212 187.35 295.476 188.548 298.637C188.987 299.986 189.603 301.272 190.381 302.463L190.003 302.727C189.204 301.504 188.569 300.184 188.114 298.8C186.934 295.68 185.818 292.736 181.595 293.65C179.661 294.029 177.944 295.114 176.789 296.688C178.241 298.413 179.599 300 180.802 301.401C185.786 307.246 187.519 309.3 186.931 309.997C186.878 310.064 186.809 310.118 186.73 310.154C186.652 310.189 186.565 310.206 186.479 310.202ZM176.536 297.108C176.182 297.707 175.946 298.366 175.84 299.051C175.373 302.166 177.715 305.393 182.273 307.904C185.922 309.912 186.493 309.808 186.596 309.729C186.916 309.229 183.782 305.576 180.468 301.713C179.284 300.342 177.951 298.791 176.536 297.108Z" fill="white"/>
<path d="M230.108 131L230.108 120.425L231.038 120.425L231.038 125.225L237.833 125.225L237.833 120.425L238.763 120.425L238.763 131L237.833 131L237.833 126.05L231.038 126.05L231.038 131L230.108 131ZM241.534 131L241.534 120.425L248.104 120.425L248.104 121.22L242.434 121.22L242.434 125.24L247.774 125.24L247.774 126.035L242.434 126.035L242.434 130.205L248.104 130.205L248.104 131L241.534 131ZM250.308 131L250.308 120.425L251.238 120.425L251.238 130.175L256.743 130.175L256.743 131L250.308 131ZM258.38 131L258.38 120.425L259.31 120.425L259.31 130.175L264.815 130.175L264.815 131L258.38 131ZM265.489 125.705C265.489 124.585 265.674 123.625 266.044 122.825C266.424 122.015 266.969 121.395 267.679 120.965C268.389 120.525 269.244 120.305 270.244 120.305C271.224 120.305 272.069 120.525 272.779 120.965C273.499 121.395 274.049 122.015 274.429 122.825C274.819 123.625 275.014 124.58 275.014 125.69C275.014 126.81 274.819 127.775 274.429 128.585C274.039 129.395 273.484 130.02 272.764 130.46C272.054 130.9 271.214 131.12 270.244 131.12C269.254 131.12 268.404 130.9 267.694 130.46C266.984 130.02 266.439 129.395 266.059 128.585C265.679 127.775 265.489 126.815 265.489 125.705ZM266.479 125.705C266.479 127.145 266.799 128.27 267.439 129.08C268.079 129.88 269.014 130.28 270.244 130.28C271.434 130.28 272.364 129.88 273.034 129.08C273.704 128.27 274.039 127.145 274.039 125.705C274.039 124.255 273.704 123.135 273.034 122.345C272.374 121.545 271.444 121.145 270.244 121.145C269.014 121.145 268.079 121.545 267.439 122.345C266.799 123.135 266.479 124.255 266.479 125.705ZM234.124 151L234.124 141.235L230.284 141.235L230.284 140.425L238.879 140.425L238.879 141.235L235.054 141.235L235.054 151L234.124 151ZM240.479 151L240.479 140.425L241.409 140.425L241.409 145.225L248.204 145.225L248.204 140.425L249.134 140.425L249.134 151L248.204 151L248.204 146.05L241.409 146.05L241.409 151L240.479 151ZM251.905 151L251.905 140.425L258.475 140.425L258.475 141.22L252.805 141.22L252.805 145.24L258.145 145.24L258.145 146.035L252.805 146.035L252.805 150.205L258.475 150.205L258.475 151L251.905 151ZM260.68 151L260.68 140.425L264.85 140.425C265.94 140.425 266.785 140.68 267.385 141.19C267.985 141.7 268.285 142.42 268.285 143.35C268.285 143.95 268.15 144.465 267.88 144.895C267.61 145.315 267.235 145.64 266.755 145.87C266.275 146.09 265.72 146.2 265.09 146.2L265.375 146.035L265.585 146.035C265.995 146.035 266.36 146.135 266.68 146.335C267 146.525 267.255 146.855 267.445 147.325L268.915 151L267.895 151L266.515 147.49C266.325 146.98 266.05 146.655 265.69 146.515C265.33 146.365 264.87 146.29 264.31 146.29L261.61 146.29L261.61 151L260.68 151ZM261.61 145.51L264.73 145.51C265.58 145.51 266.225 145.325 266.665 144.955C267.115 144.585 267.34 144.055 267.34 143.365C267.34 142.665 267.115 142.135 266.665 141.775C266.225 141.405 265.58 141.22 264.73 141.22L261.61 141.22L261.61 145.51ZM271.007 151L271.007 140.425L277.577 140.425L277.577 141.22L271.907 141.22L271.907 145.24L277.247 145.24L277.247 146.035L271.907 146.035L271.907 150.205L277.577 150.205L277.577 151L271.007 151Z" fill="white"/>
<defs>
<linearGradient id="paint0_linear_1127_1574" x1="303.747" y1="119.514" x2="45.3755" y2="276.161" gradientUnits="userSpaceOnUse">
<stop stop-color="#FF461E"/>
<stop offset="0.885417" stop-color="#FF3F33" stop-opacity="0"/>
<stop offset="0.9999" stop-color="#01FF2A" stop-opacity="0"/>
<stop offset="1" stop-opacity="0"/>
</linearGradient>
</defs>
</svg>
